<?xml version="1.0" encoding="UTF-8" standalone="no"?>
<!-- Created with Inkscape (http://www.inkscape.org/) -->

<svg
   width="83.592827mm"
   height="70.483055mm"
   viewBox="0 0 83.592827 70.483055"
   version="1.1"
   id="svg1"
   xml:space="preserve"
   inkscape:version="1.4 (e7c3feb100, 2024-10-09)"
   sodipodi:docname="hoppe09.svg"
   xmlns:inkscape="http://www.inkscape.org/namespaces/inkscape"
   xmlns:sodipodi="http://sodipodi.sourceforge.net/DTD/sodipodi-0.dtd"
   xmlns="http://www.w3.org/2000/svg"
   xmlns:svg="http://www.w3.org/2000/svg"><sodipodi:namedview
     id="namedview1"
     pagecolor="#505050"
     bordercolor="#eeeeee"
     borderopacity="1"
     inkscape:showpageshadow="0"
     inkscape:pageopacity="0"
     inkscape:pagecheckerboard="0"
     inkscape:deskcolor="#505050"
     inkscape:document-units="mm"
     inkscape:zoom="2.1398288"
     inkscape:cx="123.14069"
     inkscape:cy="145.57239"
     inkscape:window-width="1799"
     inkscape:window-height="1447"
     inkscape:window-x="0"
     inkscape:window-y="0"
     inkscape:window-maximized="1"
     inkscape:current-layer="g1"><inkscape:page
       x="0"
       y="0"
       width="83.592827"
       height="70.483055"
       id="page1"
       margin="0"
       bleed="0" /><inkscape:page
       x="-114.64831"
       y="-128.47485"
       width="215.89999"
       height="279.40002"
       id="page2"
       margin="0"
       bleed="0" /></sodipodi:namedview><defs
     id="defs1"><clipPath
       clipPathUnits="userSpaceOnUse"
       id="clipPath653"><path
         d="m 165.584,498.396 h 4.642 l -0.149,12.598 h -5.461 l 0.968,-12.598"
         transform="matrix(1,0,0,-1.1152721,-165.58431,558.2006)"
         id="path653" /></clipPath><clipPath
       clipPathUnits="userSpaceOnUse"
       id="clipPath2310"><path
         d="m 43.11,163.006 h 251.031 v 20.059 H 43.11 Z"
         id="path2310" /></clipPath><clipPath
       clipPathUnits="userSpaceOnUse"
       id="clipPath2311"><path
         d="m 43.11,163.006 h 251.031 v 20.059 H 43.11 Z"
         id="path2311" /></clipPath><clipPath
       clipPathUnits="userSpaceOnUse"
       id="clipPath2312"><path
         d="m 43.11,163.006 h 251.031 v 20.059 H 43.11 Z"
         id="path2312" /></clipPath><clipPath
       clipPathUnits="userSpaceOnUse"
       id="clipPath2313"><path
         d="m 43.11,163.006 h 251.031 v 20.059 H 43.11 Z"
         id="path2313" /></clipPath><clipPath
       clipPathUnits="userSpaceOnUse"
       id="clipPath2314"><path
         d="m 43.11,163.006 h 251.031 v 20.059 H 43.11 Z"
         id="path2314" /></clipPath><clipPath
       clipPathUnits="userSpaceOnUse"
       id="clipPath2315"><path
         d="m 43.11,163.006 h 251.031 v 20.059 H 43.11 Z"
         id="path2315" /></clipPath><clipPath
       clipPathUnits="userSpaceOnUse"
       id="clipPath2316"><path
         d="m 43.11,163.006 h 251.031 v 20.059 H 43.11 Z"
         id="path2316" /></clipPath><clipPath
       clipPathUnits="userSpaceOnUse"
       id="clipPath2317"><path
         d="m 43.11,163.006 h 251.031 v 20.059 H 43.11 Z"
         id="path2317" /></clipPath><clipPath
       clipPathUnits="userSpaceOnUse"
       id="clipPath2326"><path
         d="m 43.111,195.883 h 89.555 v 9.096 H 43.111 Z"
         id="path2326" /></clipPath><clipPath
       clipPathUnits="userSpaceOnUse"
       id="clipPath2328"><path
         d="m 318.078,89.94 h 251.066 v 60.247 H 318.078 Z"
         id="path2328" /></clipPath><clipPath
       clipPathUnits="userSpaceOnUse"
       id="clipPath2329"><path
         d="m 318.078,89.94 h 251.066 v 60.247 H 318.078 Z"
         id="path2329" /></clipPath><clipPath
       clipPathUnits="userSpaceOnUse"
       id="clipPath2330"><path
         d="m 318.078,89.94 h 251.066 v 60.247 H 318.078 Z"
         id="path2330" /></clipPath><clipPath
       clipPathUnits="userSpaceOnUse"
       id="clipPath2331"><path
         d="m 318.078,89.94 h 251.066 v 60.247 H 318.078 Z"
         id="path2331" /></clipPath><clipPath
       clipPathUnits="userSpaceOnUse"
       id="clipPath2332"><path
         d="m 318.078,89.94 h 251.066 v 60.247 H 318.078 Z"
         id="path2332" /></clipPath><clipPath
       clipPathUnits="userSpaceOnUse"
       id="clipPath2333"><path
         d="m 318.078,89.94 h 251.066 v 60.247 H 318.078 Z"
         id="path2333" /></clipPath><clipPath
       clipPathUnits="userSpaceOnUse"
       id="clipPath2334"><path
         d="m 318.078,89.94 h 251.066 v 60.247 H 318.078 Z"
         id="path2334" /></clipPath><clipPath
       clipPathUnits="userSpaceOnUse"
       id="clipPath2335"><path
         d="m 318.078,89.94 h 251.066 v 60.247 H 318.078 Z"
         id="path2335" /></clipPath><clipPath
       clipPathUnits="userSpaceOnUse"
       id="clipPath2336"><path
         d="m 318.078,89.94 h 251.066 v 60.247 H 318.078 Z"
         id="path2336" /></clipPath><clipPath
       clipPathUnits="userSpaceOnUse"
       id="clipPath2337"><path
         d="m 318.078,89.94 h 251.066 v 60.247 H 318.078 Z"
         id="path2337" /></clipPath></defs><g
     inkscape:label="Layer 1"
     inkscape:groupmode="layer"
     id="layer1"
     transform="translate(-334.64832,-128.47485)" /><g
     id="g1"
     inkscape:groupmode="layer"
     inkscape:label="22"
     transform="matrix(0.26458333,0,0,0.26458334,-114.64831,-128.47485)"><path
       id="path2197"
       d="m 352.018,401.76 h -3.113 m 3.113,-45.897 h -3.113 m 3.113,-45.897 h -3.113 m 3.113,-45.964 h -3.113 m 3.113,160.774 h -6.16 m 6.16,-45.964 h -6.16 m 6.16,-45.897 h -6.16 m 6.16,-45.965 h -6.16 m 6.16,-45.896 h -6.16 m 6.16,0 v 183.722 m 0,-183.722 H 535.742 M 351.68,286.815 h 136.946"
       style="fill:none;stroke:#ffffff;stroke-width:0.609;stroke-linecap:round;stroke-linejoin:round;stroke-miterlimit:10;stroke-dasharray:none;stroke-opacity:1.0"
       transform="matrix(1.3333333,0,0,-1.3333333,0,1056)" /><path
       id="path2198"
       d="m 2.3209313,0.1988796 c 0.5742187,0 1.1367187,-0.19927502416 1.4648437,-0.586103 0.4921875,-0.60954712 0.609375,-1.5121457 0.609375,-2.5671311 0,-1.0432634 -0.1171875,-1.9927502 -0.609375,-2.5905753 -0.328125,-0.39855 -0.890625,-0.586103 -1.4648437,-0.586103 -0.5742188,0 -1.1367188,0.187553 -1.4648438,0.586103 -0.4921875,0.5978251 -0.609375,1.570756 -0.609375,2.5905753 0,1.0784295 0.1171875,1.95758398 0.609375,2.5671311 0.328125,0.38682797584 0.890625,0.586103 1.4648438,0.586103 z m 0,-1.09015158 c -0.3046875,0 -0.609375,-0.12894262 -0.7148438,-0.39855002 C 1.5006188,-1.5945956 1.442025,-2.1806986 1.442025,-2.9543545 c 0,-0.7971001 0.058594,-1.3949252 0.1640625,-1.6996987 0.1054688,-0.2696074 0.4101563,-0.3985501 0.7148438,-0.3985501 0.3046875,0 0.609375,0.1289427 0.7148437,0.3985501 0.1054688,0.3047735 0.1640625,0.9025986 0.1640625,1.6996987 0,0.7736559 -0.058594,1.3597589 -0.1640625,1.6645325 -0.1054687,0.2696074 -0.4101562,0.39855002 -0.7148437,0.39855002 z M 3.2115563,-52.002384 H 2.4264 c -0.035156,0.293051 -0.28125,0.574381 -0.5273437,0.750212 -0.2929688,0.210997 -0.890625,0.316495 -1.3242188,0.316495 v 0.7971 h 1.453125 v 4.161332 h 1.1835938 z m 1.125,-40.951017 h -2.53125 c 0.1640625,-0.445438 1.0898437,-1.031541 1.5117187,-1.371481 0.65625,-0.527492 1.0546875,-0.996375 1.0546875,-1.875529 0,-0.867433 -0.5507812,-1.81692 -2.0625,-1.81692 -1.2890625,0 -2.015625,0.797101 -1.95703125,2.192026 H 1.4889 v -0.222719 c 0,-0.703324 0.3632813,-1.01982 0.84375,-1.01982 0.4570313,0 0.8320313,0.28133 0.8320313,0.984653 0,0.33994 -0.1171875,0.609547 -0.3398438,0.879155 -0.2226562,0.246163 -1.0429687,0.890876 -1.640625,1.289426 -0.8203125,0.691602 -0.87890625,1.394926 -0.92578125,2.027917 H 4.3365563 Z M 0.2467125,-139.63357 c 0.0117188,0.43371 0.0820313,0.89087 0.43359375,1.30114 0.53906255,0.633 1.14843755,0.66816 1.59375005,0.66816 1.6992187,0 2.109375,-1.19565 2.109375,-1.86381 0,-0.91432 -0.28125,-1.20737 -0.8554688,-1.57075 0.5507813,-0.422 0.6679688,-0.84399 0.6679688,-1.32459 0,-0.73849 -0.4921875,-1.57076 -1.8984375,-1.57076 -1.125,0 -1.9570313,0.70332 -1.9570313,1.60592 v 0.422 H 1.442025 c 0,-0.70333 0.1757813,-1.07843 0.8085938,-1.07843 0.515625,0 0.796875,0.24616 0.796875,0.84398 0,0.71505 -0.6210938,0.84399 -1.1953125,0.84399 v 0.80883 c 0.7851562,-0.14067 1.3359375,0.35166 1.3359375,0.92604 0,0.51577 -0.4570313,0.99637 -0.7382813,0.99637 -0.1875,0 -0.328125,-0.0234 -0.5039062,-0.082 -0.4453125,-0.16411 -0.4921875,-0.39855 -0.5507813,-0.92604 z m 2.1796875,-50.16456 -2.2265625,3.69245 v 1.0081 H 2.6139 v 1.32459 h 1.1953125 v -1.32459 h 0.6210938 v -0.97293 H 3.8092125 v -3.72762 z m 0.1875,1.21909 v 2.50853 H 1.0553063 Z m 0,0"
       style="fill:#ffffff;fill-opacity:1.0;fill-rule:nonzero;stroke:none"
       aria-label="0&#10;1&#10;2&#10;3&#10;4"
       transform="matrix(1.3333333,0,0,1.3329568,450.7648,738.56693)" /><path
       id="path2199"
       d="M 0.81997656,1.6130283e-4 H 2.3434141 V -2.9361767 h 1.7929687 c 0.5273438,0 0.9023438,0.2466524 0.9257813,0.7399572 -0.023437,0.5402862 -0.023437,1.1392991 0,1.50340504 0.011719,0.24665239 0.070312,0.46981408 0.1992187,0.69297576283 h 1.640625 V -0.26998179 C 6.7379453,-0.37568996 6.6207578,-0.46965277 6.6207578,-0.89248544 6.6090391,-1.2683367 6.5856016,-2.2432009 6.5504453,-2.54858 6.4684141,-3.2180651 5.9762266,-3.4059907 5.7184141,-3.582171 6.2223203,-3.8758048 6.5504453,-4.1107118 6.7262266,-4.7449608 6.9137266,-5.3909552 6.7613828,-5.919496 6.6559141,-6.2483659 6.4449766,-7.0587952 5.6832578,-7.3994104 4.9449766,-7.4346464 H 0.81997656 Z M 2.3434141,-6.1544031 h 2.0742187 c 0.6796875,0 0.9257813,0.3053792 0.9257813,0.83392 0.09375,0.7282118 -0.5507813,1.1158084 -0.9140625,1.1158084 H 2.3434141 Z M 12.655914,1.6130283e-4 V -0.18776433 c -0.1875,-0.16443492 -0.328125,-0.41108731 -0.316406,-0.6577397 V -3.8640595 c 0,-0.8809013 -0.445313,-1.3272247 -0.984375,-1.5503864 -0.28125,-0.1057082 -0.761719,-0.199671 -1.3125,-0.199671 -0.7500002,0 -2.2617189,0.1644349 -2.2851564,1.9262377 h 1.3476562 c 0.023437,-0.3993419 0.1289063,-0.9043921 0.9375002,-0.9043921 0.65625,0 0.9375,0.1526896 0.9375,0.5050502 0.02344,0.2701431 -0.105469,0.5285408 -0.351563,0.6225036 -0.339843,0.1057082 -0.9140622,0.234907 -1.4414059,0.2583977 -1.265625,0.2114164 -1.5703125,0.9631189 -1.6054688,1.7383121 -0.035156,1.06882704 0.515625,1.70307604 1.640625,1.70307604 0.8320317,0 1.2656247,-0.3171245 1.7695317,-0.78693857 -0.01172,0.19967098 0.04687,0.42283266 0.152343,0.55203153283 z M 10.980133,-2.278437 c 0,0.6107583 -0.152344,1.1980259 -0.9960939,1.3272248 -0.609375,0.10570817 -0.8671875,-0.1291989 -0.9492188,-0.4580687 -0.1171875,-0.4463234 0.1875,-0.8104293 0.6210938,-0.8926468 0.3632809,-0.070472 0.9140629,-0.058727 1.3242189,-0.2936338 z m 2.15332,-3.1360089 v 0.9513735 h 0.703125 v 3.59407767 c 0.08203,0.58726759 0.421875,0.90439209 0.84375,1.03359096 0.222656,0.0587268 0.445313,0.0822175 0.679688,0.0704721 0.234375,-0.0117453 0.46875,-0.0587268 0.679687,-0.12919887 v -0.9748642 l -0.539062,-0.0117454 c -0.199219,0 -0.234375,-0.19967106 -0.234375,-0.46981416 v -3.1125181 h 0.796875 v -0.9513735 h -0.796875 v -1.503405 h -1.429688 v 1.503405 z M 17.079742,1.6130283e-4 H 18.50943 V -5.5201541 h -1.429688 z m 0,-6.15456440283 h 1.429688 v -1.2802433 h -1.429688 z m 5.25,6.38947144 c 0.714844,0 1.417969,-0.22316169 1.898438,-0.66948506 0.550781,-0.50505013 0.820312,-1.36246078 0.820312,-2.25510758 0,-0.9043921 -0.269531,-1.7500574 -0.820312,-2.2551075 -0.480469,-0.4463234 -1.183594,-0.6694851 -1.898438,-0.6694851 -0.714844,0 -1.417969,0.2231617 -1.910156,0.6694851 -0.550781,0.5050501 -0.820313,1.3507154 -0.820313,2.2551075 0,0.8926468 0.269532,1.75005745 0.820313,2.25510758 0.492187,0.44632337 1.195312,0.66948506 1.910156,0.66948506 z m 0,-4.62766864 c 0.351563,0 0.75,0.1644349 1.019531,0.6225037 0.105469,0.2114163 0.257813,0.6225036 0.257813,1.0805723 0,0.4580688 -0.152344,0.8691561 -0.257813,1.0805724 -0.269531,0.4580687 -0.667968,0.62250365 -1.019531,0.62250365 -0.363281,0 -0.761719,-0.16443495 -1.019531,-0.62250365 -0.117188,-0.2114163 -0.269531,-0.6225036 -0.269531,-1.0805724 0,-0.4580687 0.152343,-0.869156 0.269531,-1.0805723 0.257812,-0.4580688 0.65625,-0.6225037 1.019531,-0.6225037 z m 5.317383,-2.9011019 -2.132812,7.43480773 h 0.644531 l 2.132812,-7.43480773 z m 6.902344,2.1259087 c 0.05859,-0.2466524 -0.04687,-0.9396282 -0.433594,-1.4329329 -0.714844,-0.9278828 -2.109375,-0.9513735 -2.507812,-0.9513735 -1.816407,0 -2.671875,0.869156 -2.789063,2.0554365 -0.128906,1.2097713 0.539063,1.7852935 1.347656,2.0554366 0.960938,0.3288699 2.425782,0.3288699 2.917969,0.8456653 0.363281,0.364106 0.292969,0.9396282 -0.03516,1.2450073 -0.199219,0.1879257 -0.667969,0.3406152 -1.183594,0.3523606 -0.503906,0.0234907 -1.054687,-0.0939628 -1.394531,-0.434578 -0.257813,-0.2701431 -0.316406,-0.5755223 -0.316406,-0.7634479 h -1.488282 c 0.04687,0.6929758 0.375,1.43293293 1.042969,1.91449236 0.550781,0.39934196 1.441406,0.52854083 1.816406,0.51679548 0.832032,-0.0117453 1.699219,-0.11745352 2.332032,-0.51679548 0.925781,-0.6107583 1.324218,-2.37256106 0.46875,-3.26520786 -0.46875,-0.4815594 -1.347657,-0.6577397 -1.757813,-0.7399571 -0.28125,-0.046981 -1.6875,-0.2701431 -1.863281,-0.4580687 -0.339844,-0.1291989 -0.515625,-0.2349071 -0.46875,-0.7399572 0.04687,-0.6107583 0.597656,-0.8691561 1.347656,-0.8574107 1.042969,0.023491 1.546875,0.5755222 1.523438,1.1745352 z m 3.685547,5.40286184 c 0.714843,0 1.417968,-0.22316169 1.898437,-0.66948506 0.550781,-0.50505013 0.820313,-1.36246078 0.820313,-2.25510758 0,-0.9043921 -0.269532,-1.7500574 -0.820313,-2.2551075 -0.480469,-0.4463234 -1.183594,-0.6694851 -1.898437,-0.6694851 -0.714844,0 -1.417969,0.2231617 -1.910157,0.6694851 -0.550781,0.5050501 -0.820312,1.3507154 -0.820312,2.2551075 0,0.8926468 0.269531,1.75005745 0.820312,2.25510758 0.492188,0.44632337 1.195313,0.66948506 1.910157,0.66948506 z m 0,-4.62766864 c 0.351562,0 0.75,0.1644349 1.019531,0.6225037 0.105469,0.2114163 0.257812,0.6225036 0.257812,1.0805723 0,0.4580688 -0.152343,0.8691561 -0.257812,1.0805724 -0.269531,0.4580687 -0.667969,0.62250365 -1.019531,0.62250365 -0.363282,0 -0.761719,-0.16443495 -1.019532,-0.62250365 -0.117187,-0.2114163 -0.269531,-0.6225036 -0.269531,-1.0805724 0,-0.4580687 0.152344,-0.869156 0.269531,-1.0805723 0.257813,-0.4580688 0.65625,-0.6225037 1.019532,-0.6225037 z m 3.83789,-3.0420461 V 1.6130283e-4 h 1.429688 V -7.4346464 Z M 49.584625,1.6130283e-4 V -0.18776433 c -0.1875,-0.16443492 -0.328125,-0.41108731 -0.316406,-0.6577397 V -3.8640595 c 0,-0.8809013 -0.445313,-1.3272247 -0.984375,-1.5503864 -0.28125,-0.1057082 -0.761719,-0.199671 -1.3125,-0.199671 -0.75,0 -2.261719,0.1644349 -2.285156,1.9262377 h 1.347656 c 0.02344,-0.3993419 0.128906,-0.9043921 0.9375,-0.9043921 0.65625,0 0.9375,0.1526896 0.9375,0.5050502 0.02344,0.2701431 -0.105469,0.5285408 -0.351563,0.6225036 -0.339843,0.1057082 -0.914062,0.234907 -1.441406,0.2583977 -1.265625,0.2114164 -1.570312,0.9631189 -1.605469,1.7383121 -0.03516,1.06882704 0.515625,1.70307604 1.640625,1.70307604 0.832032,0 1.265625,-0.3171245 1.769532,-0.78693857 -0.01172,0.19967098 0.04687,0.42283266 0.152343,0.55203153283 z M 47.908844,-2.278437 c 0,0.6107583 -0.152344,1.1980259 -0.996094,1.3272248 -0.609375,0.10570817 -0.867187,-0.1291989 -0.949219,-0.4580687 -0.117187,-0.4463234 0.1875,-0.8104293 0.621094,-0.8926468 0.363281,-0.070472 0.914063,-0.058727 1.324219,-0.2936338 z m 2.595703,2.27859830283 h 1.429687 V -3.1123569 c 0.164063,-1.1980259 1.089844,-1.1158085 1.699219,-1.0453364 v -1.4564236 c -0.445312,-0.070472 -0.773437,0.1057082 -1.019531,0.2936338 -0.503906,0.3406152 -0.574219,0.5402862 -0.667969,0.8691561 h -0.01172 v -1.0688271 h -1.429687 z m 0,0"
       style="fill:#ffffff;fill-opacity:1.0;fill-rule:nonzero;stroke:none"
       aria-label="R&#10;a&#10;tio/Sola&#10;r"
       transform="matrix(0,-1.3333333,1.3303135,0,443.36307,647.67533)" /><path
       id="path2200"
       d="m 363.527,319.173 c -4.297,-0.286 -4.02,-6.246 0.338,-6.161 3.799,0.807 3.419,5.958 -0.338,6.161"
       style="fill:#ffffff;fill-opacity:1.0;fill-rule:evenodd;stroke:none"
       transform="matrix(1.3333333,0,0,-1.3333333,0,1056)" /><path
       id="path2201"
       d="m 363.527,319.173 c -4.297,-0.286 -4.02,-6.246 0.338,-6.161 3.799,0.807 3.419,5.958 -0.338,6.161 z"
       style="fill:#ffffff;fill-opacity:1.0;stroke:#ffffff;stroke-width:0.068;stroke-linecap:round;stroke-linejoin:round;stroke-miterlimit:10;stroke-dasharray:none;stroke-opacity:1.0"
       transform="matrix(1.3333333,0,0,-1.3333333,0,1056)" /><path
       id="path2202"
       d="m 420.932,281.941 c -3.83,-0.261 -4.197,-5.35 -0.407,-6.16 2.053,-0.117 3.577,1.343 3.453,3.452 -0.33,1.667 -1.396,2.522 -3.046,2.708"
       style="fill:#ffffff;fill-opacity:1.0;fill-rule:evenodd;stroke:none"
       transform="matrix(1.3333333,0,0,-1.3333333,0,1056)" /><path
       id="path2203"
       d="m 420.932,281.941 c -3.83,-0.261 -4.197,-5.35 -0.407,-6.16 2.053,-0.117 3.577,1.343 3.453,3.452 -0.33,1.667 -1.396,2.522 -3.046,2.708 z"
       style="fill:#ffffff;fill-opacity:1.0;stroke:#ffffff;stroke-width:0.068;stroke-linecap:round;stroke-linejoin:round;stroke-miterlimit:10;stroke-dasharray:none;stroke-opacity:1.0"
       transform="matrix(1.3333333,0,0,-1.3333333,0,1056)" /><path
       id="path2204"
       d="m 466.896,380.978 -1.219,-0.203 -0.677,-0.406 -0.338,-0.271 -0.204,-0.271 -0.201,-0.407 -0.136,-0.202 -0.068,-0.136 -0.068,-0.203 -0.068,-0.135 -0.067,-0.271 v -0.136 c -0.277,-1.329 0.587,-2.717 1.827,-3.249 4.551,-1.492 6.122,5.395 1.219,5.89"
       style="fill:#ffffff;fill-opacity:1.0;fill-rule:evenodd;stroke:none"
       transform="matrix(1.3333333,0,0,-1.3333333,0,1056)" /><path
       id="path2205"
       d="m 466.896,380.978 -1.219,-0.203 -0.677,-0.406 -0.338,-0.271 -0.204,-0.271 -0.201,-0.407 -0.136,-0.202 -0.068,-0.136 -0.068,-0.203 -0.068,-0.135 -0.067,-0.271 v -0.136 c -0.277,-1.329 0.587,-2.717 1.827,-3.249 4.551,-1.492 6.122,5.395 1.219,5.89 z"
       style="fill:#ffffff;fill-opacity:1.0;stroke:#ffffff;stroke-width:0.068;stroke-linecap:round;stroke-linejoin:round;stroke-miterlimit:10;stroke-dasharray:none;stroke-opacity:1.0"
       transform="matrix(1.3333333,0,0,-1.3333333,0,1056)" /><path
       id="path2206"
       d="m 512.793,326.755 c -0.95,0.077 -1.811,-0.486 -2.437,-1.151 l -0.203,-0.339 -0.068,-0.203 -0.135,-0.135 -0.204,-0.609 v -1.016 c 0.111,-0.877 0.742,-1.852 1.557,-2.233 l 0.136,-0.068 0.203,-0.136 0.203,-0.068 h 0.204 l 0.202,-0.067 0.135,-0.068 0.204,-0.068 c 4.349,0.225 4.253,6.019 0.203,6.161"
       style="fill:#ffffff;fill-opacity:1.0;fill-rule:evenodd;stroke:none"
       transform="matrix(1.3333333,0,0,-1.3333333,0,1056)" /><path
       id="path2207"
       d="m 512.793,326.755 c -0.95,0.077 -1.811,-0.486 -2.437,-1.151 l -0.203,-0.339 -0.068,-0.203 -0.135,-0.135 -0.204,-0.609 v -1.016 c 0.111,-0.877 0.742,-1.852 1.557,-2.233 l 0.136,-0.068 0.203,-0.136 0.203,-0.068 h 0.204 l 0.202,-0.067 0.135,-0.068 0.204,-0.068 c 4.349,0.225 4.253,6.019 0.203,6.161 z"
       style="fill:#ffffff;fill-opacity:1.0;stroke:#ffffff;stroke-width:0.068;stroke-linecap:round;stroke-linejoin:round;stroke-miterlimit:10;stroke-dasharray:none;stroke-opacity:1.0"
       transform="matrix(1.3333333,0,0,-1.3333333,0,1056)" /><path
       id="path2208"
       d="m 714.32265,520.32001 h 4.06133 m -4.06133,61.196 h 4.06133 m -4.06133,61.196 h 4.06133 m -4.06133,61.28533 h 4.06133 m -4.06133,-214.36533 h 8.12133 m -8.12133,61.28534 h 8.12133 m -8.12133,61.19599 h 8.12133 m -8.12133,61.28667 h 8.12133 m -8.12133,61.19467 h 8.12133 m -8.12133,0 V 489.63201 m -30.59867,79.608 v 110.29733 m -61.196,-137.19466 v 19.496 m -61.28533,121.30933 v 2.16533 m -76.54,-51.988 v 2.43734"
       style="fill:none;stroke:#ffffff;stroke-width:0.812;stroke-linecap:round;stroke-linejoin:round;stroke-miterlimit:10;stroke-dasharray:none;stroke-opacity:1.0" /><path
       id="path2209"
       d="m 2.3206547,0.1988796 c 0.5742187,0 1.1367187,-0.19927502416 1.4648437,-0.586103 0.4921875,-0.60954712 0.609375,-1.5121457 0.609375,-2.5671311 0,-1.0432634 -0.1171875,-1.9927502 -0.609375,-2.5905753 -0.328125,-0.39855 -0.890625,-0.586103 -1.4648437,-0.586103 -0.5742188,0 -1.1367188,0.187553 -1.46484376,0.586103 -0.4921875,0.5978251 -0.609375,1.570756 -0.609375,2.5905753 0,1.0784295 0.1171875,1.95758398 0.609375,2.5671311 0.32812496,0.38682797584 0.89062496,0.586103 1.46484376,0.586103 z m 0,-1.09015158 c -0.3046875,0 -0.609375,-0.12894262 -0.7148438,-0.39855002 -0.1054687,-0.3047736 -0.1640625,-0.8908766 -0.1640625,-1.6645325 0,-0.7971001 0.058594,-1.3949252 0.1640625,-1.6996987 0.1054688,-0.2696074 0.4101563,-0.3985501 0.7148438,-0.3985501 0.3046875,0 0.609375,0.1289427 0.7148437,0.3985501 0.1054688,0.3047735 0.1640625,0.9025986 0.1640625,1.6996987 0,0.7736559 -0.058594,1.3597589 -0.1640625,1.6645325 -0.1054687,0.2696074 -0.4101562,0.39855002 -0.7148437,0.39855002 z M 3.2112797,-52.002384 H 2.4261234 c -0.035156,0.293051 -0.28125,0.574381 -0.5273437,0.750212 -0.2929688,0.210997 -0.890625,0.316495 -1.32421876,0.316495 v 0.7971 H 2.0276859 v 4.161332 h 1.1835938 z m 1.125,-40.951017 h -2.53125 c 0.1640625,-0.445438 1.0898437,-1.031541 1.5117187,-1.371481 0.65625,-0.527492 1.0546875,-0.996375 1.0546875,-1.875529 0,-0.867433 -0.5507812,-1.81692 -2.0625,-1.81692 -1.2890625,0 -2.01562496,0.797101 -1.95703121,2.192026 H 1.4886234 v -0.222719 c 0,-0.703324 0.3632813,-1.01982 0.84375,-1.01982 0.4570313,0 0.8320313,0.28133 0.8320313,0.984653 0,0.33994 -0.1171875,0.609547 -0.3398438,0.879155 -0.2226562,0.246163 -1.0429687,0.890876 -1.640625,1.289426 -0.82031246,0.691602 -0.87890621,1.394926 -0.92578121,2.027917 H 4.3362797 Z M 0.24643594,-139.63357 c 0.0117188,0.43371 0.0820313,0.89087 0.43359375,1.30114 0.53906251,0.633 1.14843751,0.66816 1.59375001,0.66816 1.6992187,0 2.109375,-1.19565 2.109375,-1.86381 0,-0.91432 -0.28125,-1.20737 -0.8554688,-1.57075 0.5507813,-0.422 0.6679688,-0.84399 0.6679688,-1.32459 0,-0.73849 -0.4921875,-1.57076 -1.8984375,-1.57076 -1.125,0 -1.95703126,0.70332 -1.95703126,1.60592 v 0.422 H 1.4417484 c 0,-0.70333 0.1757813,-1.07843 0.8085938,-1.07843 0.515625,0 0.796875,0.24616 0.796875,0.84398 0,0.71505 -0.6210938,0.84399 -1.1953125,0.84399 v 0.80883 c 0.7851562,-0.14067 1.3359375,0.35166 1.3359375,0.92604 0,0.51577 -0.4570313,0.99637 -0.7382813,0.99637 -0.1875,0 -0.328125,-0.0234 -0.5039062,-0.082 -0.4453125,-0.16411 -0.4921875,-0.39855 -0.5507813,-0.92604 z m 2.17968746,-50.16456 -2.22656246,3.69245 v 1.0081 H 2.6136234 v 1.32459 h 1.1953125 v -1.32459 h 0.6210938 v -0.97293 H 3.8089359 v -3.72762 z m 0.1875,1.21909 v 2.50853 H 1.0550297 Z m 0,0"
       style="fill:#ffffff;fill-opacity:1.0;fill-rule:nonzero;stroke:none"
       aria-label="0&#10;1&#10;2&#10;3&#10;4"
       transform="matrix(1.3333333,0,0,1.3329568,726.5972,738.56693)" /><path
       id="path2210"
       d="m 1.7568734,-4.3650817 -1.60546871,2.672946 v 0.7332861 H 1.8974984 V -8.4682714e-4 H 2.7646859 V -0.9588496 H 3.2217172 V -1.6684813 H 2.7646859 v -2.6966004 z m 0.140625,0.8752124 v 1.821388 H 0.76077969 Z M 4.88285,-4.3650817 3.2773812,-1.6921357 v 0.7332861 H 5.023475 V -8.4682714e-4 H 5.8906625 V -0.9588496 H 6.3476937 V -1.6684813 H 5.8906625 v -2.6966004 z m 0.140625,0.8752124 v 1.821388 H 3.8867562 Z m 0,0"
       style="fill:#ffffff;fill-opacity:1.0;fill-rule:nonzero;stroke:none"
       aria-label="44"
       transform="matrix(0,1.3333333,-1.3211079,0,743.3856,570.86453)" /><path
       id="path2211"
       d="m 0.14029375,-7.4351726 v 1.2802433 H 2.3902937 V -3.6488893e-4 H 3.92545 V -6.1549293 H 6.0934187 V -7.4351726 Z M 6.7291609,-3.6488893e-4 H 8.1588484 V -5.5206803 H 6.7291609 Z m 0,-6.15456441107 H 8.1588484 V -7.4351726 H 6.7291609 Z M 11.226231,-7.2942284 9.0934187,0.14057933 H 9.73795 l 2.132812,-7.43480773 z m 0,0"
       style="fill:#ffffff;fill-opacity:1.0;fill-rule:nonzero;stroke:none"
       aria-label="Ti&#10;/"
       transform="matrix(0,1.3333333,-1.3303135,0,739.32373,579.89107)" /><path
       id="path2212"
       d="m 1.7591375,-4.3630332 -1.60546875,2.672946 v 0.73328607 H 1.8997625 V 0.00120164 H 2.76695 V -0.95680113 H 3.2239812 V -1.6664328 H 2.76695 v -2.6966004 z m 0.140625,0.8752124 v 1.821388 H 0.76304375 Z m 4.2978516,2.87400832 C 6.6077703,-1.1696906 6.4671453,-2.1513478 5.7054266,-2.3760645 v -0.011827 c 0.3046875,-0.094618 0.5859375,-0.4376062 0.5859375,-0.792422 0,-0.2365439 -0.058594,-0.5085694 -0.2695313,-0.7805949 -0.2460937,-0.3548158 -0.6796875,-0.484915 -1.2421875,-0.484915 -0.4804687,0 -0.9492187,0.2247167 -1.1601562,0.6623229 -0.1054688,0.2010623 -0.1523438,0.3784703 -0.1523438,0.5322238 0,0.4139518 0.2929688,0.6859773 0.5273438,0.8633852 -0.8203125,0.4494334 -0.75,1.3246458 -0.5273438,1.76225202 0.234375,0.49674218 0.7851563,0.76876766 1.3476563,0.76876766 0.5507812,0 1.1132812,-0.2247167 1.3828125,-0.75694066 z m -0.9375,-2.12889502 c -0.082031,0.094618 -0.2578125,0.1419263 -0.421875,0.1419263 -0.1640625,-0.011827 -0.328125,-0.070963 -0.4101563,-0.1655807 -0.2695312,-0.2956799 -0.2460937,-0.6623229 0,-0.8633852 0.1289063,-0.118272 0.3046875,-0.1537536 0.46875,-0.1537536 0.234375,0 0.421875,0.070963 0.5273438,0.1892351 0.1992187,0.2128895 0.1523437,0.6386686 -0.1640625,0.8515581 z m 0.058594,1.96331429 c -0.1289062,0.14192634 -0.3164062,0.21288951 -0.5039062,0.21288951 -0.1757813,0 -0.3515625,-0.0946176 -0.4804688,-0.26019829 -0.1289062,-0.17740791 -0.2109375,-0.72145891 0.046875,-1.00531151 0.1289063,-0.1419264 0.3164063,-0.2010624 0.5039063,-0.2010624 0.1757812,0.011827 0.375,0.094618 0.4921875,0.2838527 0.2226562,0.3311615 0.070312,0.82790365 -0.058594,0.96982999 z m 0,0"
       style="fill:#ffffff;fill-opacity:1.0;fill-rule:nonzero;stroke:none"
       aria-label="48"
       transform="matrix(0,1.3333333,-1.3211079,0,743.3844,595.68573)" /><path
       id="path2213"
       d="m 0.14162344,-7.4351726 v 1.2802433 H 2.3916234 V -3.6488893e-4 H 3.9267797 V -6.1549293 H 6.0947484 V -7.4351726 Z M 5.7754125,-3.6488893e-4 H 7.2051 V -5.5206803 H 5.7754125 Z m 0,-6.15456441107 H 7.2051 V -7.4351726 H 5.7754125 Z m 5.0947265,2.2316169 0.691406,-0.9866096 0.75,0.9866096 0.65625,-0.5520315 -0.785156,-0.9866096 1.101563,-0.3875966 -0.269532,-0.7282118 -1.03125,0.3875966 V -7.446918 h -0.796875 v 1.2567527 l -1.03125,-0.3875966 -0.2695309,0.7282118 1.1132809,0.3875966 -0.785156,0.9866096 z m 9.676758,-3.3004439 h -0.949219 c -0.04687,0.3523606 -0.328125,0.6812304 -0.621094,0.8926468 -0.363281,0.2583977 -1.066406,0.3875966 -1.59375,0.3875966 v 0.9513735 h 1.734375 v 4.99177451107 h 1.429688 z m 3.46582,7.45829845 c 0.691406,0 1.359375,-0.23490703893 1.746094,-0.70472111 0.597656,-0.72821184 0.738281,-1.80878414 0.738281,-3.07728214 0,-1.2567527 -0.140625,-2.3843065 -0.738281,-3.1125183 -0.386719,-0.4698141 -1.054688,-0.7047211 -1.746094,-0.7047211 -0.703125,0 -1.371094,0.234907 -1.757812,0.7047211 -0.597657,0.7282118 -0.738282,1.902747 -0.738282,3.1125183 0,1.303734 0.140625,2.3490703 0.738282,3.07728214 0.386718,0.46981407107 1.054687,0.70472111 1.757812,0.70472111 z m 0,-1.30373405 c -0.375,0 -0.738281,-0.1526896 -0.867187,-0.4815594 -0.128907,-0.3523606 -0.199219,-1.0688271 -0.199219,-1.9967098 0,-0.9631189 0.07031,-1.66784 0.199219,-2.0319459 0.128906,-0.3288699 0.492187,-0.4815594 0.867187,-0.4815594 0.363281,0 0.726563,0.1526895 0.855469,0.4815594 0.128906,0.3641059 0.199219,1.068827 0.199219,2.0319459 0,0.9278827 -0.07031,1.6443492 -0.199219,1.9967098 -0.128906,0.3288698 -0.492188,0.4815594 -0.855469,0.4815594 z m 5.241211,1.30373405 c 0.691406,0 1.359375,-0.23490703893 1.746094,-0.70472111 0.597656,-0.72821184 0.738281,-1.80878414 0.738281,-3.07728214 0,-1.2567527 -0.140625,-2.3843065 -0.738281,-3.1125183 -0.386719,-0.4698141 -1.054688,-0.7047211 -1.746094,-0.7047211 -0.703125,0 -1.371094,0.234907 -1.757812,0.7047211 -0.597657,0.7282118 -0.738282,1.902747 -0.738282,3.1125183 0,1.303734 0.140625,2.3490703 0.738282,3.07728214 0.386718,0.46981407107 1.054687,0.70472111 1.757812,0.70472111 z m 0,-1.30373405 c -0.375,0 -0.738281,-0.1526896 -0.867187,-0.4815594 -0.128907,-0.3523606 -0.199219,-1.0688271 -0.199219,-1.9967098 0,-0.9631189 0.07031,-1.66784 0.199219,-2.0319459 0.128906,-0.3288699 0.492187,-0.4815594 0.867187,-0.4815594 0.363281,0 0.726563,0.1526895 0.855469,0.4815594 0.128906,0.3641059 0.199219,1.068827 0.199219,2.0319459 0,0.9278827 -0.07031,1.6443492 -0.199219,1.9967098 -0.128906,0.3288698 -0.492188,0.4815594 -0.855469,0.4815594 z m 0,0"
       style="fill:#ffffff;fill-opacity:1.0;fill-rule:nonzero;stroke:none"
       aria-label="Ti&#10; *&#10; &#10;10&#10;0"
       transform="matrix(0,1.3333333,-1.3303135,0,739.32373,604.8932)" /><path
       id="path2214"
       d="M 352.018,424.776 H 535.742"
       style="fill:none;stroke:#ffffff;stroke-width:0.609;stroke-linecap:round;stroke-linejoin:round;stroke-miterlimit:10;stroke-dasharray:none;stroke-opacity:1.0"
       transform="matrix(1.3333333,0,0,-1.3333333,0,1056)" /><path
       id="path2215"
       d="m 478.337,381.858 c -0.936,0.104 -2.27,-0.593 -2.641,-1.489 l -0.067,-0.204 -0.136,-0.135 v -0.203 l -0.068,-0.203 -0.135,-0.204 v -0.947 l 0.068,-0.406 c 0.389,-1.538 2.201,-2.711 3.723,-2.166 3.459,0.894 2.909,5.902 -0.744,5.957"
       style="fill:#ffffff;fill-opacity:1.0;fill-rule:evenodd;stroke:none"
       transform="matrix(1.3333333,0,0,-1.3333333,0,1056)" /><path
       id="path2216"
       d="m 478.337,381.858 c -0.936,0.104 -2.27,-0.593 -2.641,-1.489 l -0.067,-0.204 -0.136,-0.135 v -0.203 l -0.068,-0.203 -0.135,-0.204 v -0.947 l 0.068,-0.406 c 0.389,-1.538 2.201,-2.711 3.723,-2.166 3.459,0.894 2.909,5.902 -0.744,5.957 z"
       style="fill:#f38ba8;fill-opacity:1.0;stroke:#ffffff;stroke-width:0.068;stroke-linecap:round;stroke-linejoin:round;stroke-miterlimit:10;stroke-dasharray:none;stroke-opacity:1.0"
       transform="matrix(1.3333333,0,0,-1.3333333,0,1056)" /><path
       id="path2217"
       d="m 374.967,292.298 h -0.339 l -0.812,-0.271 -0.338,-0.135 -0.339,-0.203 -0.338,-0.271 -0.203,-0.271 -0.203,-0.406 -0.136,-0.203 -0.135,-0.135 V 290.2 l -0.068,-0.203 -0.135,-0.204 c -0.308,-2.193 1.504,-3.913 3.655,-3.588 1.647,0.588 2.231,1.155 2.505,2.979 -0.092,1.805 -1.333,3.014 -3.114,3.114"
       style="fill:#ffffff;fill-opacity:1.0;fill-rule:evenodd;stroke:none"
       transform="matrix(1.3333333,0,0,-1.3333333,0,1056)" /><path
       id="path2218"
       d="m 374.967,292.298 h -0.339 l -0.812,-0.271 -0.338,-0.135 -0.339,-0.203 -0.338,-0.271 -0.203,-0.271 -0.203,-0.406 -0.136,-0.203 -0.135,-0.135 V 290.2 l -0.068,-0.203 -0.135,-0.204 c -0.308,-2.193 1.504,-3.913 3.655,-3.588 1.647,0.588 2.231,1.155 2.505,2.979 -0.092,1.805 -1.333,3.014 -3.114,3.114 z"
       style="fill:#f38ba8;fill-opacity:1.0;stroke:#ffffff;stroke-width:0.068;stroke-linecap:round;stroke-linejoin:round;stroke-miterlimit:10;stroke-dasharray:none;stroke-opacity:1.0"
       transform="matrix(1.3333333,0,0,-1.3333333,0,1056)" /><path
       id="path2219"
       d="m 432.372,282.55 c -1.546,0.131 -2.772,-1.216 -3.047,-2.64 -0.163,-1.989 1.058,-3.105 2.844,-3.452 4.242,-0.163 4.31,6.174 0.203,6.092"
       style="fill:#ffffff;fill-opacity:1.0;fill-rule:evenodd;stroke:none"
       transform="matrix(1.3333333,0,0,-1.3333333,0,1056)" /><path
       id="path2220"
       d="m 432.372,282.55 c -1.546,0.131 -2.772,-1.216 -3.047,-2.64 -0.163,-1.989 1.058,-3.105 2.844,-3.452 4.242,-0.163 4.31,6.174 0.203,6.092 z"
       style="fill:#f38ba8;fill-opacity:1.0;stroke:#ffffff;stroke-width:0.068;stroke-linecap:round;stroke-linejoin:round;stroke-miterlimit:10;stroke-dasharray:none;stroke-opacity:1.0"
       transform="matrix(1.3333333,0,0,-1.3333333,0,1056)" /><path
       id="path2221"
       d="m 524.301,326.755 c -1.018,0.092 -1.802,-0.506 -2.505,-1.151 -0.466,-0.737 -0.346,-0.743 -0.609,-1.49 -0.126,-1.226 0.521,-2.698 1.76,-3.113 l 0.203,-0.136 0.136,-0.068 h 0.203 l 0.203,-0.067 0.136,-0.068 0.202,-0.068 h 0.474 l 0.204,0.068 0.135,0.068 0.203,0.067 h 0.203 l 0.203,0.068 0.135,0.136 0.204,0.068 c 1.105,0.591 1.151,1.197 1.557,2.233 0.175,1.811 -1.17,3.482 -3.047,3.453"
       style="fill:#ffffff;fill-opacity:1.0;fill-rule:evenodd;stroke:none"
       transform="matrix(1.3333333,0,0,-1.3333333,0,1056)" /><path
       id="path2222"
       d="m 524.301,326.755 c -1.018,0.092 -1.802,-0.506 -2.505,-1.151 -0.466,-0.737 -0.346,-0.743 -0.609,-1.49 -0.126,-1.226 0.521,-2.698 1.76,-3.113 l 0.203,-0.136 0.136,-0.068 h 0.203 l 0.203,-0.067 0.136,-0.068 0.202,-0.068 h 0.474 l 0.204,0.068 0.135,0.068 0.203,0.067 h 0.203 l 0.203,0.068 0.135,0.136 0.204,0.068 c 1.105,0.591 1.151,1.197 1.557,2.233 0.175,1.811 -1.17,3.482 -3.047,3.453 z"
       style="fill:#f38ba8;fill-opacity:1.0;stroke:#ffffff;stroke-width:0.068;stroke-linecap:round;stroke-linejoin:round;stroke-miterlimit:10;stroke-dasharray:none;stroke-opacity:1.0"
       transform="matrix(1.3333333,0,0,-1.3333333,0,1056)" /><path
       id="path2223"
       d="m 386.475,318.97 c -4.028,-0.122 -4.258,-5.985 0.203,-6.161 3.98,0.66 3.7,5.946 -0.203,6.161"
       style="fill:#cccfd5;fill-opacity:1.0;fill-rule:evenodd;stroke:none"
       transform="matrix(1.3333333,0,0,-1.3333333,0,1056)" /><path
       id="path2224"
       d="m 386.475,318.97 c -4.028,-0.122 -4.258,-5.985 0.203,-6.161 3.98,0.66 3.7,5.946 -0.203,6.161 z"
       style="fill:#74c7ec;fill-opacity:1.0;stroke:#ffffff;stroke-width:0.068;stroke-linecap:round;stroke-linejoin:round;stroke-miterlimit:10;stroke-dasharray:none;stroke-opacity:1.0"
       transform="matrix(1.3333333,0,0,-1.3333333,0,1056)" /><path
       id="path2225"
       d="M 488.965,241.73 V 424.844"
       style="fill:none;stroke:#ffffff;stroke-width:0.609;stroke-linecap:round;stroke-linejoin:round;stroke-miterlimit:10;stroke-dasharray:none;stroke-opacity:1.0"
       transform="matrix(1.3333333,0,0,-1.3333333,0,1056)" /><path
       id="path2226"
       d="M 3.1522625,-0.77987576 H 1.3124188 C 1.4296063,-1.09921 2.097575,-1.524989 2.4139813,-1.7733601 c 0.46875,-0.3784702 0.75,-0.7096317 0.75,-1.3601274 0,-0.6268413 -0.3867188,-1.3128186 -1.4882813,-1.3128186 -0.9375,0 -1.46484375,0.5795325 -1.41796875,1.5848441 H 1.0780438 v -0.1537536 c 0,-0.5085693 0.2695312,-0.733286 0.6210937,-0.733286 0.328125,0 0.5976563,0.2010623 0.5976563,0.7096316 0,0.2365439 -0.082031,0.4376063 -0.2460938,0.6268414 C 1.8866375,-2.2346207 1.2889813,-1.7615329 0.8553875,-1.4658531 0.26945,-0.96911088 0.222575,-0.4605415 0.18741875,7.1909344e-4 H 3.1522625 Z M 3.4071453,-1.0164197 c -0.035156,0.27202552 0.28125,1.15906513 1.3242188,1.15906513 0.28125,0 0.9257812,-0.04730878 1.2890625,-0.73328607 0.2109375,-0.37847024 0.3398437,-1.11175626 0.3398437,-1.78590636 0,-0.5203966 -0.1289062,-2.0697591 -1.6054687,-2.0697591 -0.5390625,0 -0.984375,0.3193342 -1.2070313,0.733286 -0.140625,0.2365439 -0.1875,0.5558782 -0.1875,0.8633853 0,0.2247167 0.046875,0.4730878 0.140625,0.6859773 0.1992188,0.4376062 0.5742188,0.6623229 0.9140625,0.7214588 0.1171875,0.023654 0.234375,0.023654 0.328125,0.023654 0.1054688,0 0.1992188,-0.023654 0.2929688,-0.059136 0.1757812,-0.059136 0.328125,-0.1655808 0.4453125,-0.3193343 0.09375,0.2365439 0,0.6150141 -0.09375,0.85155801 -0.082031,0.2247167 -0.2695313,0.41395182 -0.5390625,0.41395182 -0.4921875,0 -0.6210938,-0.31933426 -0.5859375,-0.48491503 z m 1.4179688,-1.1354106 c -0.1757813,0 -0.3632813,-0.070963 -0.4921875,-0.2128896 -0.1640625,-0.1655807 -0.2109375,-0.3902974 -0.2109375,-0.5795325 0,-0.2128895 0.082031,-0.4139518 0.1640625,-0.5085694 0.140625,-0.1655807 0.328125,-0.2601983 0.515625,-0.2720255 0.1875,-0.011827 0.3632812,0.047309 0.5039062,0.1892352 0.09375,0.1064447 0.1992188,0.4021246 0.1992188,0.7096316 0,0.1419264 -0.058594,0.3193343 -0.1992188,0.4494335 -0.1289062,0.1419263 -0.3046875,0.2247167 -0.4804687,0.2247167 z m 0,0"
       style="fill:#ffffff;fill-opacity:1.0;fill-rule:nonzero;stroke:none"
       aria-label="29"
       transform="matrix(1.3333333,0,0,1.3211079,479.01573,747.5928)" /><path
       id="path2227"
       d="M 6.2114469,-5.1691998 C 6.2700406,-5.4158522 6.1645719,-6.108828 5.7778531,-6.6021327 5.0630094,-7.5300155 3.6684781,-7.5535062 3.2700406,-7.5535062 c -1.8164062,0 -2.67187497,0.869156 -2.78906247,2.0554365 -0.12890625,1.2097713 0.53906247,1.7852935 1.34765627,2.0554366 0.9609375,0.3288699 2.4257812,0.3288699 2.9179687,0.8456653 0.3632813,0.3641059 0.2929688,0.9396282 -0.035156,1.2450073 -0.199219,0.1879257 -0.667969,0.3406152 -1.183594,0.35236059 C 3.0239469,-0.97610921 2.4731656,-1.0935627 2.1333219,-1.4341779 1.8755094,-1.704321 1.8169156,-2.0097002 1.8169156,-2.1976258 H 0.32863438 c 0.046875,0.6929758 0.375,1.43293292 1.04296872,1.91449235 0.5507813,0.39934196 1.4414063,0.52854083 1.8164063,0.51679548 0.8320312,-0.0117453 1.6992187,-0.11745352 2.3320312,-0.51679548 0.9257813,-0.6107583 1.3242188,-2.37256105 0.46875,-3.26520785 -0.46875,-0.4815594 -1.3476562,-0.6577397 -1.7578125,-0.7399571 -0.28125,-0.046981 -1.6875,-0.2701431 -1.8632812,-0.4580688 -0.3398438,-0.1291988 -0.515625,-0.234907 -0.46875,-0.7399571 0.046875,-0.6107583 0.5976562,-0.8691561 1.3476562,-0.8574107 1.0429688,0.023491 1.546875,0.5755222 1.5234375,1.1745352 z m 1.2919922,5.16795479 H 8.9331266 V -5.5215604 H 7.5034391 Z m 0,-6.15456439 H 8.9331266 V -7.4360527 H 7.5034391 Z M 11.836447,-7.2951085 9.7036344,0.13969921 h 0.6445316 l 2.132812,-7.43480771 z m 0,0"
       style="fill:#ffffff;fill-opacity:1.0;fill-rule:nonzero;stroke:none"
       aria-label="Si/"
       transform="matrix(1.3333333,0,0,1.3303135,488.13213,751.654)" /><path
       id="path2228"
       d="M 3.1537672,-0.77987576 H 1.3139234 C 1.4311109,-1.09921 2.0990797,-1.524989 2.4154859,-1.7733601 c 0.46875,-0.3784702 0.75,-0.7096317 0.75,-1.3601274 0,-0.6268413 -0.3867187,-1.3128186 -1.4882812,-1.3128186 -0.93750001,0 -1.46484376,0.5795325 -1.41796876,1.5848441 H 1.0795484 v -0.1537536 c 0,-0.5085693 0.2695313,-0.733286 0.6210938,-0.733286 0.328125,0 0.5976562,0.2010623 0.5976562,0.7096316 0,0.2365439 -0.082031,0.4376063 -0.2460937,0.6268414 -0.1640625,0.1774079 -0.7617188,0.6504957 -1.19531251,0.9461755 -0.5859375,0.49674222 -0.6328125,1.0053116 -0.66796875,1.46657219344 H 3.1537672 Z m 2.9824219,0.16558073 C 6.5463453,-1.1701732 6.4057203,-2.1518303 5.6440016,-2.376547 v -0.011827 c 0.3046875,-0.094618 0.5859375,-0.4376063 0.5859375,-0.7924221 0,-0.2365439 -0.058594,-0.5085694 -0.2695313,-0.7805948 -0.2460937,-0.3548159 -0.6796875,-0.484915 -1.2421875,-0.484915 -0.4804687,0 -0.9492187,0.2247167 -1.1601562,0.6623229 -0.1054688,0.2010623 -0.1523438,0.3784702 -0.1523438,0.5322237 0,0.4139519 0.2929688,0.6859773 0.5273438,0.8633853 -0.8203125,0.4494334 -0.75,1.3246458 -0.5273438,1.76225197 0.234375,0.49674218 0.7851563,0.76876766 1.3476563,0.76876766 0.5507812,0 1.1132812,-0.2247167 1.3828125,-0.75694066 z m -0.9375,-2.12889507 c -0.082031,0.094618 -0.2578125,0.1419264 -0.421875,0.1419264 -0.1640625,-0.011827 -0.328125,-0.070963 -0.4101563,-0.1655808 -0.2695312,-0.2956798 -0.2460937,-0.6623229 0,-0.8633852 0.1289063,-0.1182719 0.3046875,-0.1537535 0.46875,-0.1537535 0.234375,0 0.421875,0.070963 0.5273438,0.1892351 0.1992187,0.2128895 0.1523437,0.6386685 -0.1640625,0.851558 z m 0.058594,1.96331434 c -0.1289062,0.14192634 -0.3164062,0.21288951 -0.5039062,0.21288951 -0.1757813,0 -0.3515625,-0.0946176 -0.4804688,-0.26019829 -0.1289062,-0.17740796 -0.2109375,-0.72145886 0.046875,-1.00531156 0.1289063,-0.1419263 0.3164063,-0.2010623 0.5039063,-0.2010623 0.1757812,0.011827 0.375,0.094618 0.4921875,0.2838527 0.2226562,0.3311614 0.070312,0.8279036 -0.058594,0.96982994 z m 0,0"
       style="fill:#ffffff;fill-opacity:1.0;fill-rule:nonzero;stroke:none"
       aria-label="28"
       transform="matrix(1.3333333,0,0,1.3211079,504.83013,747.5928)" /><path
       id="path2229"
       d="M 6.2100219,-5.1691998 C 6.2686156,-5.4158522 6.1631469,-6.108828 5.7764281,-6.6021327 5.0615844,-7.5300155 3.6670531,-7.5535062 3.2686156,-7.5535062 c -1.8164062,0 -2.67187497,0.869156 -2.78906247,2.0554365 -0.12890625,1.2097713 0.53906247,1.7852935 1.34765627,2.0554366 0.9609375,0.3288699 2.4257812,0.3288699 2.9179687,0.8456653 0.3632813,0.3641059 0.2929688,0.9396282 -0.035156,1.2450073 -0.199219,0.1879257 -0.667969,0.3406152 -1.183594,0.35236059 C 3.0225219,-0.97610921 2.4717406,-1.0935627 2.1318969,-1.4341779 1.8740844,-1.704321 1.8154906,-2.0097002 1.8154906,-2.1976258 H 0.32720938 c 0.046875,0.6929758 0.375,1.43293292 1.04296872,1.91449235 0.5507813,0.39934196 1.4414063,0.52854083 1.8164063,0.51679548 0.8320312,-0.0117453 1.6992187,-0.11745352 2.3320312,-0.51679548 0.9257813,-0.6107583 1.3242188,-2.37256105 0.46875,-3.26520785 -0.46875,-0.4815594 -1.3476562,-0.6577397 -1.7578125,-0.7399571 -0.28125,-0.046981 -1.6875,-0.2701431 -1.8632812,-0.4580688 -0.3398438,-0.1291988 -0.515625,-0.234907 -0.46875,-0.7399571 0.046875,-0.6107583 0.5976562,-0.8691561 1.3476562,-0.8574107 1.0429688,0.023491 1.546875,0.5755222 1.5234375,1.1745352 z m 1.180664,5.16795479 H 8.8203734 V -5.5215604 H 7.3906859 Z m 0,-6.15456439 H 8.8203734 V -7.4360527 H 7.3906859 Z m 0,0"
       style="fill:#ffffff;fill-opacity:1.0;fill-rule:nonzero;stroke:none"
       aria-label="Si"
       transform="matrix(1.3333333,0,0,1.3303135,513.94653,751.654)" /><path
       id="path2230"
       d="m 0.17474063,-1.2766179 c 0.0117188,0.30750702 0.0703125,0.63866848 0.31640625,0.93434835 0.3984375,0.46126059 0.83203122,0.48491498 1.14843752,0.48491498 1.2421875,0 1.5351562,-0.86338522 1.5351562,-1.34830023 0,-0.6623229 -0.1992187,-0.8752124 -0.6210937,-1.1354107 0.3984375,-0.307507 0.4921875,-0.6150141 0.4921875,-0.9698299 0,-0.5322238 -0.3632813,-1.1354107 -1.3710938,-1.1354107 -0.82031247,0 -1.42968747,0.5085693 -1.42968747,1.1708922 V -2.979734 H 1.0419281 c 0,-0.5085694 0.1289063,-0.7805948 0.5859375,-0.7805948 0.375,0 0.5859375,0.1892351 0.5859375,0.6150141 0,0.5203966 -0.4570312,0.6150141 -0.8671875,0.6150141 v 0.5795326 c 0.5742188,-0.094618 0.9609375,0.2601982 0.9609375,0.6741501 0,0.37847019 -0.328125,0.73328604 -0.5390625,0.73328604 -0.1289062,0 -0.234375,-0.0236544 -0.3632812,-0.0709632 C 1.0888031,-0.72073979 1.0536469,-0.89814771 1.0067719,-1.2766179 Z M 4.8124359,0.14264543 c 0.4101563,0 0.8203125,-0.14192633656 1.0546875,-0.42577901 0.3632813,-0.43760621 0.4453125,-1.09992912 0.4453125,-1.85686962 0,-0.7569404 -0.082031,-1.4429177 -0.4453125,-1.8805239 -0.234375,-0.2838527 -0.6445312,-0.425779 -1.0546875,-0.425779 -0.421875,0 -0.8320312,0.1419263 -1.0664062,0.425779 -0.3515625,0.4376062 -0.4453125,1.1472379 -0.4453125,1.8805239 0,0.7805949 0.09375,1.41926341 0.4453125,1.85686962 0.234375,0.28385267344 0.6445312,0.42577901 1.0664062,0.42577901 z m 0,-0.79242205 c -0.2226562,0 -0.4453125,-0.0946176 -0.5273437,-0.28385267 C 4.2147797,-1.1465188 4.1679047,-1.584125 4.1679047,-2.1400032 c 0,-0.5795325 0.046875,-1.0171387 0.1171875,-1.2300282 0.082031,-0.2010623 0.3046875,-0.2838527 0.5273437,-0.2838527 0.2226563,0 0.4335938,0.08279 0.515625,0.2838527 0.082031,0.2128895 0.1171875,0.6504957 0.1171875,1.2300282 0,0.5558782 -0.035156,0.9934844 -0.1171875,1.20637391 -0.082031,0.18923511 -0.2929687,0.28385267 -0.515625,0.28385267 z m 0,0"
       style="fill:#ffffff;fill-opacity:1.0;fill-rule:nonzero;stroke:none"
       aria-label="30"
       transform="matrix(1.3333333,0,0,1.3211079,546.2592,747.5928)" /><path
       id="path2231"
       d="M 6.2110047,-5.1691998 C 6.2695984,-5.4158522 6.1641297,-6.108828 5.7774109,-6.6021327 5.0625672,-7.5300155 3.6680359,-7.5535062 3.2695984,-7.5535062 c -1.8164062,0 -2.67187496,0.869156 -2.78906246,2.0554365 -0.12890625,1.2097713 0.53906246,1.7852935 1.34765626,2.0554366 0.9609375,0.3288699 2.4257812,0.3288699 2.9179687,0.8456653 0.3632813,0.3641059 0.2929688,0.9396282 -0.035156,1.2450073 -0.199219,0.1879257 -0.667969,0.3406152 -1.183594,0.35236059 C 3.0235047,-0.97610921 2.4727234,-1.0935627 2.1328797,-1.4341779 1.8750672,-1.704321 1.8164734,-2.0097002 1.8164734,-2.1976258 H 0.32819219 c 0.046875,0.6929758 0.375,1.43293292 1.04296871,1.91449235 0.5507813,0.39934196 1.4414063,0.52854083 1.8164063,0.51679548 0.8320312,-0.0117453 1.6992187,-0.11745352 2.3320312,-0.51679548 0.9257813,-0.6107583 1.3242188,-2.37256105 0.46875,-3.26520785 -0.46875,-0.4815594 -1.3476562,-0.6577397 -1.7578125,-0.7399571 -0.28125,-0.046981 -1.6875,-0.2701431 -1.8632812,-0.4580688 -0.3398438,-0.1291988 -0.515625,-0.234907 -0.46875,-0.7399571 0.046875,-0.6107583 0.5976562,-0.8691561 1.3476562,-0.8574107 1.0429688,0.023491 1.546875,0.5755222 1.5234375,1.1745352 z m 1.2919922,5.16795479 H 8.9326844 V -5.5215604 H 7.5029969 Z m 0,-6.15456439 H 8.9326844 V -7.4360527 H 7.5029969 Z M 11.836005,-7.2951085 9.7031922,0.13969921 h 0.6445308 l 2.132813,-7.43480771 z m 0,0"
       style="fill:#ffffff;fill-opacity:1.0;fill-rule:nonzero;stroke:none"
       aria-label="Si/"
       transform="matrix(1.3333333,0,0,1.3303135,555.28507,751.654)" /><path
       id="path2232"
       d="M 3.153425,-0.77987576 H 1.3135813 C 1.4307688,-1.09921 2.0987375,-1.524989 2.4151438,-1.7733601 c 0.46875,-0.3784702 0.75,-0.7096317 0.75,-1.3601274 0,-0.6268413 -0.3867188,-1.3128186 -1.4882813,-1.3128186 -0.9375,0 -1.46484375,0.5795325 -1.41796875,1.5848441 H 1.0792063 v -0.1537536 c 0,-0.5085693 0.2695312,-0.733286 0.6210937,-0.733286 0.328125,0 0.5976563,0.2010623 0.5976563,0.7096316 0,0.2365439 -0.082031,0.4376063 -0.2460938,0.6268414 C 1.8878,-2.2346207 1.2901438,-1.7615329 0.85655,-1.4658531 0.2706125,-0.96911088 0.2237375,-0.4605415 0.18858125,7.1909344e-4 H 3.153425 Z m 2.9824219,0.16558073 C 6.5460031,-1.1701732 6.4053781,-2.1518303 5.6436594,-2.376547 v -0.011827 c 0.3046875,-0.094618 0.5859375,-0.4376063 0.5859375,-0.7924221 0,-0.2365439 -0.058594,-0.5085694 -0.2695313,-0.7805948 -0.2460937,-0.3548159 -0.6796875,-0.484915 -1.2421875,-0.484915 -0.4804687,0 -0.9492187,0.2247167 -1.1601562,0.6623229 -0.1054688,0.2010623 -0.1523438,0.3784702 -0.1523438,0.5322237 0,0.4139519 0.2929688,0.6859773 0.5273438,0.8633853 -0.8203125,0.4494334 -0.75,1.3246458 -0.5273438,1.76225197 0.234375,0.49674218 0.7851563,0.76876766 1.3476563,0.76876766 0.5507812,0 1.1132812,-0.2247167 1.3828125,-0.75694066 z m -0.9375,-2.12889507 c -0.082031,0.094618 -0.2578125,0.1419264 -0.421875,0.1419264 -0.1640625,-0.011827 -0.328125,-0.070963 -0.4101563,-0.1655808 -0.2695312,-0.2956798 -0.2460937,-0.6623229 0,-0.8633852 0.1289063,-0.1182719 0.3046875,-0.1537535 0.46875,-0.1537535 0.234375,0 0.421875,0.070963 0.5273438,0.1892351 0.1992187,0.2128895 0.1523437,0.6386685 -0.1640625,0.851558 z m 0.058594,1.96331434 c -0.1289062,0.14192634 -0.3164062,0.21288951 -0.5039062,0.21288951 -0.1757813,0 -0.3515625,-0.0946176 -0.4804688,-0.26019829 -0.1289062,-0.17740796 -0.2109375,-0.72145886 0.046875,-1.00531156 0.1289063,-0.1419263 0.3164063,-0.2010623 0.5039063,-0.2010623 0.1757812,0.011827 0.375,0.094618 0.4921875,0.2838527 0.2226562,0.3311614 0.070312,0.8279036 -0.058594,0.96982994 z m 0,0"
       style="fill:#ffffff;fill-opacity:1.0;fill-rule:nonzero;stroke:none"
       aria-label="28"
       transform="matrix(1.3333333,0,0,1.3211079,571.98293,747.5928)" /><path
       id="path2233"
       d="M 6.2096797,-5.1691998 C 6.2682734,-5.4158522 6.1628047,-6.108828 5.7760859,-6.6021327 5.0612422,-7.5300155 3.6667109,-7.5535062 3.2682734,-7.5535062 c -1.8164062,0 -2.67187496,0.869156 -2.78906246,2.0554365 -0.12890625,1.2097713 0.53906246,1.7852935 1.34765626,2.0554366 0.9609375,0.3288699 2.4257812,0.3288699 2.9179687,0.8456653 0.3632813,0.3641059 0.2929688,0.9396282 -0.035156,1.2450073 -0.199219,0.1879257 -0.667969,0.3406152 -1.183594,0.35236059 C 3.0221797,-0.97610921 2.4713984,-1.0935627 2.1315547,-1.4341779 1.8737422,-1.704321 1.8151484,-2.0097002 1.8151484,-2.1976258 H 0.32686719 c 0.046875,0.6929758 0.375,1.43293292 1.04296871,1.91449235 0.5507813,0.39934196 1.4414063,0.52854083 1.8164063,0.51679548 0.8320312,-0.0117453 1.6992187,-0.11745352 2.3320312,-0.51679548 0.9257813,-0.6107583 1.3242188,-2.37256105 0.46875,-3.26520785 -0.46875,-0.4815594 -1.3476562,-0.6577397 -1.7578125,-0.7399571 -0.28125,-0.046981 -1.6875,-0.2701431 -1.8632812,-0.4580688 -0.3398438,-0.1291988 -0.515625,-0.234907 -0.46875,-0.7399571 0.046875,-0.6107583 0.5976562,-0.8691561 1.3476562,-0.8574107 1.0429688,0.023491 1.546875,0.5755222 1.5234375,1.1745352 z m 1.2421875,5.16795479 H 8.8815547 V -5.5215604 H 7.4518672 Z m 0,-6.15456439 H 8.8815547 V -7.4360527 H 7.4518672 Z m 0,0"
       style="fill:#ffffff;fill-opacity:1.0;fill-rule:nonzero;stroke:none"
       aria-label="Si"
       transform="matrix(1.3333333,0,0,1.3303135,581.09933,751.654)" /><path
       id="path2234"
       d="M 2.3334047,-4.3635158 H 1.7591859 c -0.023437,0.2128895 -0.1992187,0.4139518 -0.375,0.5322238 -0.2226562,0.1537535 -0.64453121,0.2365439 -0.96093746,0.2365439 v 0.5795325 H 1.4662172 V 7.1909344e-4 h 0.8671875 z m 3.9433594,3.58364004 H 4.4369203 C 4.5541078,-1.09921 5.2220766,-1.524989 5.5384828,-1.7733601 c 0.46875,-0.3784702 0.75,-0.7096317 0.75,-1.3601274 0,-0.6268413 -0.3867187,-1.3128186 -1.4882812,-1.3128186 -0.9375,0 -1.4648438,0.5795325 -1.4179688,1.5848441 h 0.8203125 v -0.1537536 c 0,-0.5085693 0.2695313,-0.733286 0.6210938,-0.733286 0.328125,0 0.5976562,0.2010623 0.5976562,0.7096316 0,0.2365439 -0.082031,0.4376063 -0.2460937,0.6268414 -0.1640625,0.1774079 -0.7617188,0.6504957 -1.1953125,0.9461755 -0.5859375,0.49674222 -0.6328125,1.0053116 -0.6679688,1.46657219344 h 2.9648438 z m 0,0"
       style="fill:#ffffff;fill-opacity:1.0;fill-rule:nonzero;stroke:none"
       aria-label="12"
       transform="matrix(1.3333333,0,0,1.3211079,604.2052,747.5928)" /><path
       id="path2235"
       d="m 5.5309016,-2.538241 c -0.070312,0.3288698 -0.09375,1.0805724 -1.1601563,1.3742062 -0.2109375,0.058727 -0.4335937,0.093963 -0.6445312,0.082217 -0.2109375,0 -0.3984375,-0.035236 -0.5976563,-0.1174535 -0.375,-0.1761803 -0.7148437,-0.5050501 -0.9609375,-1.0453363 -0.1992187,-0.4580687 -0.2460937,-1.033591 -0.234375,-1.5621318 0.035156,-0.5285408 0.140625,-1.0218456 0.234375,-1.2802434 0.2460938,-0.634249 0.7851563,-1.1275537 1.4765625,-1.1862805 1.4882813,-0.1057082 1.8398438,0.9396282 1.8867188,1.3624608 h 1.453125 C 6.9723078,-5.2866533 6.9254328,-6.2497722 5.8473078,-6.977984 5.1324641,-7.4947795 4.3824641,-7.5535062 3.8551203,-7.5535062 c -1.9335937,0 -2.8125,1.0923177 -3.23437499,2.4782692 -0.1171875,0.4110873 -0.17578125,0.9278828 -0.17578125,1.4211876 0,0.4933047 0.0585938,0.9631188 0.140625,1.303734 0.3984375,1.57387717 1.55859374,2.63095884 3.21093754,2.58397743 0.9140625,-0.0352361 1.7460937,-0.37585126 2.1914062,-0.72821182 0.5625,-0.43457801 0.984375,-1.29198871 0.9960938,-2.04369121 z M 9.5357844,-7.2951085 7.4029719,0.13969921 H 8.0475031 L 10.180316,-7.2951085 Z m 0,0"
       style="fill:#ffffff;fill-opacity:1.0;fill-rule:nonzero;stroke:none"
       aria-label="C/"
       transform="matrix(1.3333333,0,0,1.3303135,613.23093,751.654)" /><path
       id="path2236"
       d="M 2.3309625,-4.3635158 H 1.7567437 c -0.023437,0.2128895 -0.1992187,0.4139518 -0.375,0.5322238 -0.2226562,0.1537535 -0.6445312,0.2365439 -0.96093745,0.2365439 v 0.5795325 H 1.463775 V 7.1909344e-4 h 0.8671875 z m 1.03125,3.0868979 c 0.011719,0.30750702 0.070312,0.63866848 0.3164062,0.93434835 0.3984375,0.46126059 0.8320313,0.48491498 1.1484375,0.48491498 1.2421875,0 1.5351563,-0.86338522 1.5351563,-1.34830023 0,-0.6623229 -0.1992188,-0.8752124 -0.6210938,-1.1354107 0.3984375,-0.307507 0.4921875,-0.6150141 0.4921875,-0.9698299 0,-0.5322238 -0.3632812,-1.1354107 -1.3710937,-1.1354107 -0.8203125,0 -1.4296875,0.5085693 -1.4296875,1.1708922 V -2.979734 H 4.2294 c 0,-0.5085694 0.1289062,-0.7805948 0.5859375,-0.7805948 0.375,0 0.5859375,0.1892351 0.5859375,0.6150141 0,0.5203966 -0.4570313,0.6150141 -0.8671875,0.6150141 v 0.5795326 c 0.5742187,-0.094618 0.9609375,0.2601982 0.9609375,0.6741501 0,0.37847019 -0.328125,0.73328604 -0.5390625,0.73328604 -0.1289063,0 -0.234375,-0.0236544 -0.3632813,-0.0709632 C 4.276275,-0.72073979 4.2411187,-0.89814771 4.1942437,-1.2766179 Z m 0,0"
       style="fill:#ffffff;fill-opacity:1.0;fill-rule:nonzero;stroke:none"
       aria-label="13"
       transform="matrix(1.3333333,0,0,1.3211079,626.8608,747.5928)" /><path
       id="path2237"
       d="m 5.5307719,-2.538241 c -0.070312,0.3288698 -0.09375,1.0805724 -1.1601563,1.3742062 -0.2109375,0.058727 -0.4335937,0.093963 -0.6445312,0.082217 -0.2109375,0 -0.3984375,-0.035236 -0.5976563,-0.1174535 -0.375,-0.1761803 -0.7148437,-0.5050501 -0.9609375,-1.0453363 -0.1992187,-0.4580687 -0.2460937,-1.033591 -0.234375,-1.5621318 0.035156,-0.5285408 0.140625,-1.0218456 0.234375,-1.2802434 0.2460938,-0.634249 0.7851563,-1.1275537 1.4765625,-1.1862805 1.4882813,-0.1057082 1.8398438,0.9396282 1.8867188,1.3624608 h 1.453125 C 6.9721781,-5.2866533 6.9253031,-6.2497722 5.8471781,-6.977984 5.1323344,-7.4947795 4.3823344,-7.5535062 3.8549906,-7.5535062 c -1.9335937,0 -2.8125,1.0923177 -3.23437497,2.4782692 -0.1171875,0.4110873 -0.17578125,0.9278828 -0.17578125,1.4211876 0,0.4933047 0.0585938,0.9631188 0.140625,1.303734 0.3984375,1.57387717 1.55859372,2.63095884 3.21093752,2.58397743 0.9140625,-0.0352361 1.7460937,-0.37585126 2.1914062,-0.72821182 0.5625,-0.43457801 0.984375,-1.29198871 0.9960938,-2.04369121 z m 0,0"
       style="fill:#ffffff;fill-opacity:1.0;fill-rule:nonzero;stroke:none"
       aria-label="C"
       transform="matrix(1.3333333,0,0,1.3303135,635.9772,751.654)" /><path
       id="path2238"
       d="m 1.7574281,-4.3635158 -1.60546873,2.672946 v 0.73328612 H 1.8980531 V 7.1909344e-4 H 2.7652406 V -0.95728368 H 3.2222719 V -1.6669154 H 2.7652406 v -2.6966004 z m 0.140625,0.8752124 v 1.821388 H 0.76133437 Z m 3.046875,-0.8752124 -1.6054687,2.672946 v 0.73328612 H 5.0855531 V 7.1909344e-4 H 5.9527406 V -0.95728368 H 6.4097719 V -1.6669154 H 5.9527406 v -2.6966004 z m 0.140625,0.8752124 v 1.821388 H 3.9488344 Z m 0,0"
       style="fill:#ffffff;fill-opacity:1.0;fill-rule:nonzero;stroke:none"
       aria-label="44"
       transform="matrix(1.3333333,0,0,1.3211079,659.8052,747.5928)" /><path
       id="path2239"
       d="m 0.14134844,-7.4360527 v 1.2802433 H 2.3913484 v 6.15456439 H 3.9265047 V -6.1558094 H 6.0944734 V -7.4360527 Z M 6.9470125,-0.00124501 H 8.3767 V -5.5215604 H 6.9470125 Z m 0,-6.15456439 H 8.3767 V -7.4360527 H 6.9470125 Z M 11.294669,-7.2951085 9.1618563,0.13969921 H 9.8063875 L 11.9392,-7.2951085 Z m 0,0"
       style="fill:#ffffff;fill-opacity:1.0;fill-rule:nonzero;stroke:none"
       aria-label="Ti/"
       transform="matrix(1.3333333,0,0,1.3303135,668.83107,751.654)" /><path
       id="path2240"
       d="m 1.7590578,-4.3635158 -1.60546874,2.672946 v 0.73328612 H 1.8996828 V 7.1909344e-4 H 2.7668703 V -0.95728368 H 3.2239016 V -1.6669154 H 2.7668703 v -2.6966004 z m 0.140625,0.8752124 v 1.821388 H 0.76296406 Z m 4.2363281,2.87400837 C 6.5461672,-1.1701732 6.4055422,-2.1518303 5.6438234,-2.376547 v -0.011827 c 0.3046875,-0.094618 0.5859375,-0.4376063 0.5859375,-0.7924221 0,-0.2365439 -0.058594,-0.5085694 -0.2695312,-0.7805948 -0.2460938,-0.3548159 -0.6796875,-0.484915 -1.2421875,-0.484915 -0.4804688,0 -0.9492188,0.2247167 -1.1601563,0.6623229 -0.1054687,0.2010623 -0.1523437,0.3784702 -0.1523437,0.5322237 0,0.4139519 0.2929687,0.6859773 0.5273437,0.8633853 -0.8203125,0.4494334 -0.75,1.3246458 -0.5273437,1.76225197 0.234375,0.49674218 0.7851562,0.76876766 1.3476562,0.76876766 0.5507813,0 1.1132813,-0.2247167 1.3828125,-0.75694066 z m -0.9375,-2.12889507 c -0.082031,0.094618 -0.2578125,0.1419264 -0.421875,0.1419264 -0.1640625,-0.011827 -0.328125,-0.070963 -0.4101562,-0.1655808 -0.2695313,-0.2956798 -0.2460938,-0.6623229 0,-0.8633852 0.1289062,-0.1182719 0.3046875,-0.1537535 0.46875,-0.1537535 0.234375,0 0.421875,0.070963 0.5273437,0.1892351 0.1992188,0.2128895 0.1523438,0.6386685 -0.1640625,0.851558 z m 0.058594,1.96331434 c -0.1289063,0.14192634 -0.3164063,0.21288951 -0.5039063,0.21288951 -0.1757812,0 -0.3515625,-0.0946176 -0.4804687,-0.26019829 -0.1289063,-0.17740796 -0.2109375,-0.72145886 0.046875,-1.00531156 0.1289062,-0.1419263 0.3164062,-0.2010623 0.5039062,-0.2010623 0.1757813,0.011827 0.375,0.094618 0.4921875,0.2838527 0.2226563,0.3311614 0.070312,0.8279036 -0.058594,0.96982994 z m 0,0"
       style="fill:#ffffff;fill-opacity:1.0;fill-rule:nonzero;stroke:none"
       aria-label="48"
       transform="matrix(1.3333333,0,0,1.3211079,684.80693,747.5928)" /><path
       id="path2241"
       d="m 0.14014844,-7.4360527 v 1.2802433 H 2.3901484 v 6.15456439 H 3.9253047 V -6.1558094 H 6.0932734 V -7.4360527 Z M 6.7290156,-0.00124501 H 8.1587031 V -5.5215604 H 6.7290156 Z m 0,-6.15456439 H 8.1587031 V -7.4360527 H 6.7290156 Z m 0,0"
       style="fill:#ffffff;fill-opacity:1.0;fill-rule:nonzero;stroke:none"
       aria-label="Ti"
       transform="matrix(1.3333333,0,0,1.3303135,693.83267,751.654)" /><path
       id="path2242"
       d="m 362.714,417.939 c -1.701,0.111 -2.985,-1.478 -3.046,-3.046 0.025,-1.605 1.204,-2.82 2.708,-3.046 l 0.135,-0.068 h 0.474 l 0.136,0.068 h 0.202 l 0.204,0.135 h 0.203 l 0.135,0.068 c 1.274,0.579 1.831,1.42 1.963,2.843 -0.045,1.645 -1.422,3.125 -3.114,3.046"
       style="fill:#ffffff;fill-opacity:1.0;fill-rule:evenodd;stroke:none"
       transform="matrix(1.3333333,0,0,-1.3333333,0,1056)" /><path
       id="path2243"
       d="m 362.714,417.939 c -1.701,0.111 -2.985,-1.478 -3.046,-3.046 0.025,-1.605 1.204,-2.82 2.708,-3.046 l 0.135,-0.068 h 0.474 l 0.136,0.068 h 0.202 l 0.204,0.135 h 0.203 l 0.135,0.068 c 1.274,0.579 1.831,1.42 1.963,2.843 -0.045,1.645 -1.422,3.125 -3.114,3.046 z"
       style="fill:#ffffff;fill-opacity:1.0;stroke:#ffffff;stroke-width:0.068;stroke-linecap:round;stroke-linejoin:round;stroke-miterlimit:10;stroke-dasharray:none;stroke-opacity:1.0"
       transform="matrix(1.3333333,0,0,-1.3333333,0,1056)" /><path
       id="path2244"
       d="m 362.714,409.071 c -4.232,-0.235 -3.998,-6.538 0.609,-6.092 3.662,0.916 3.07,5.967 -0.609,6.092"
       style="fill:#ffffff;fill-opacity:1.0;fill-rule:evenodd;stroke:none"
       transform="matrix(1.3333333,0,0,-1.3333333,0,1056)" /><path
       id="path2245"
       d="m 362.714,409.071 c -4.232,-0.235 -3.998,-6.538 0.609,-6.092 3.662,0.916 3.07,5.967 -0.609,6.092 z"
       style="fill:#f38ba8;fill-opacity:1.0;stroke:#ffffff;stroke-width:0.068;stroke-linecap:round;stroke-linejoin:round;stroke-miterlimit:10;stroke-dasharray:none;stroke-opacity:1.0"
       transform="matrix(1.3333333,0,0,-1.3333333,0,1056)" /><path
       id="path2246"
       d="m 362.714,399.864 c -1.381,-0.187 -1.823,-0.302 -2.572,-1.556 -0.316,-0.431 -0.425,-0.983 -0.474,-1.49 0.026,-1.042 0.543,-2.211 1.557,-2.64 l 0.203,-0.135 0.136,-0.068 0.608,-0.203 h 0.204 l 0.135,-0.068 h 0.474 l 0.136,0.068 c 3.91,0.603 3.28,6.024 -0.407,6.092"
       style="fill:#cccfd5;fill-opacity:1.0;fill-rule:evenodd;stroke:none"
       transform="matrix(1.3333333,0,0,-1.3333333,0,1056)" /><path
       id="path2247"
       d="m 362.714,399.864 c -1.381,-0.187 -1.823,-0.302 -2.572,-1.556 -0.316,-0.431 -0.425,-0.983 -0.474,-1.49 0.026,-1.042 0.543,-2.211 1.557,-2.64 l 0.203,-0.135 0.136,-0.068 0.608,-0.203 h 0.204 l 0.135,-0.068 h 0.474 l 0.136,0.068 c 3.91,0.603 3.28,6.024 -0.407,6.092 z"
       style="fill:#74c7ec;fill-opacity:1.0;stroke:#ffffff;stroke-width:0.068;stroke-linecap:round;stroke-linejoin:round;stroke-miterlimit:10;stroke-dasharray:none;stroke-opacity:1.0"
       transform="matrix(1.3333333,0,0,-1.3333333,0,1056)" /><path
       id="path2248"
       d="m 3.2095094,-2.0430818 h 1.265625 c -0.011719,0.152693 -0.011719,0.4110967 -0.3164063,0.7752109 -0.328125,0.41109677 -0.8789062,0.55204422 -1.265625,0.51680736 C 2.2485719,-0.82153727 1.8384156,-1.3031077 1.6157594,-1.7611869 1.3110719,-2.3954505 1.3462281,-3.8166706 2.0493531,-4.4039516 c 0.3164063,-0.2114212 0.5976563,-0.3171318 0.984375,-0.3171318 0.5976563,0 1.1601563,0.2584037 1.359375,0.9161584 h 1.0429688 c -0.023437,-0.1174562 0,-0.6107722 -0.6328125,-1.2450358 -0.5625,-0.5637898 -1.3007813,-0.6107722 -1.828125,-0.6107722 -0.4804688,0 -0.8320313,0.093965 -1.0664063,0.1996755 -1.87499998,0.8104478 -2.05078123,3.6646337 -0.75,4.92141513 0.2578125,0.24665804 0.609375,0.65775477 1.6171875,0.71648287 1.1015625,0.0587281 1.5703125,-0.51680732 1.8398438,-0.8456847 l 0.140625,0.69299163 H 5.4360719 V -2.9944771 H 3.2095094 Z M 6.4087281,6.5618868e-4 h 1.078125 V -2.3367224 c 0.1289063,-0.8926671 0.8085938,-0.833939 1.2773438,-0.7869566 v -1.0923427 c -0.3398438,-0.046983 -0.5859375,0.082219 -0.7734375,0.2231668 -0.375,0.2584037 -0.421875,0.4110967 -0.4921875,0.6577548 H 7.4868531 V -4.145548 h -1.078125 z m 6.4804689,0 V -0.14029126 C 12.748572,-0.26949309 12.643103,-0.4456774 12.654822,-0.63360734 V -2.9005122 c 0,-0.6577547 -0.328125,-0.9866321 -0.738281,-1.1628164 -0.210938,-0.082219 -0.574219,-0.1526931 -0.984375,-0.1526931 -0.5625,0 -1.6992191,0.1292018 -1.7109379,1.4447114 h 1.0078129 c 0.01172,-0.2936405 0.09375,-0.6695004 0.703125,-0.6695004 0.492187,0 0.703125,0.1174562 0.703125,0.3758599 0.01172,0.1996755 -0.07031,0.3993511 -0.269532,0.4698248 -0.246093,0.082219 -0.679687,0.1761843 -1.078125,0.1879299 -0.9492184,0.1644387 -1.1718746,0.7282285 -1.1953121,1.3037639 -0.035156,0.81044787 0.375,1.2802727 1.2187501,1.2802727 0.632812,0 0.960937,-0.23491242 1.335937,-0.58728104 -0.01172,0.14094745 0.03516,0.31713176 0.117188,0.41109672868 z M 11.635291,-1.7142045 c 0,0.4580793 -0.117188,0.90441285 -0.75,0.99837782 -0.457032,0.0822193 -0.644532,-0.093965 -0.714844,-0.34062302 -0.08203,-0.3288774 0.140625,-0.6107723 0.46875,-0.6695004 0.28125,-0.058728 0.691406,-0.035237 0.996094,-0.2231668 z m 1.995117,1.71486068868 h 1.066406 V -4.145548 h -1.066406 z m 0,-4.61602898868 h 1.066406 V -5.5785137 H 13.630408 Z M 15.76908,6.5618868e-4 h 1.066406 V -2.5716348 c 0,-0.3288774 0.128906,-0.6929916 0.785156,-0.6929916 0.726563,0 0.773438,0.434588 0.773438,0.7987022 V 6.5618868e-4 h 1.066406 V -2.7713103 c 0,-1.0453603 -0.644531,-1.4447114 -1.59375,-1.4447114 -0.410156,0 -0.808594,0.2584037 -1.007813,0.7047373 h -0.02344 V -4.145548 H 15.76908 Z m 6.826172,0 h 1.148437 V -1.7846782 l 0.597656,-0.6342635 1.792969,2.41959788868 h 1.382813 L 25.091345,-3.1589158 27.29447,-5.5785137 H 25.935095 L 23.743689,-3.123679 V -5.5785137 H 22.595252 Z M 30.101111,-5.5785137 v 4.1696954 c 0,0.2584036 -0.128906,0.58728103 -0.597656,0.62251789 -0.65625,0.0469825 -0.632813,-0.49331609 -0.632813,-0.70473729 v -0.5637898 h -1.148437 v 0.6342636 c 0.02344,0.50506166 0.199218,1.10408833 0.75,1.39772885 0.257812,0.14094745 0.691406,0.23491241 1.148437,0.19967555 0.457031,-0.0234912 0.925781,-0.17618431132 1.242188,-0.52855294 0.28125,-0.30538614 0.386718,-0.64600914 0.386718,-0.97488656 v -4.2519147 z m 2.396484,5.57916988868 h 2.507813 c 0.351562,0 0.972656,-0.0587281087 1.359375,-0.38760548868 0.492187,-0.42284235 0.585937,-0.8809216 0.585937,-1.1745621 0,-0.6577547 -0.339843,-1.1510708 -0.667968,-1.4094745 0.398437,-0.3288774 0.527343,-0.8104478 0.527343,-1.1393252 0,-0.2349124 -0.105468,-1.4682026 -2.015625,-1.4682026 H 32.497595 Z M 33.634314,-4.6153728 h 1.371094 c 0.398437,0 0.703125,0.1526931 0.703125,0.6342635 0,0.4463336 -0.28125,0.6342636 -0.761719,0.6342636 h -1.3125 z m 0,2.2199223 h 1.570313 c 0.210937,0 0.644531,0.035237 0.644531,0.6577548 0,0.76346536 -0.515625,0.7869566 -0.867188,0.7869566 h -1.347656 z m 7.643555,1.43296578 h -2.296875 c 0.152343,-0.39935108 0.996093,-0.92790408 1.371093,-1.23329018 0.597657,-0.4698248 0.949219,-0.8926672 0.949219,-1.6913694 0,-0.775211 -0.492187,-1.6326413 -1.851562,-1.6326413 -1.171875,0 -1.828125,0.7164829 -1.769532,1.9732643 h 1.019532 v -0.1996756 c 0,-0.6225179 0.328125,-0.9044128 0.773437,-0.9044128 0.398438,0 0.738281,0.2466581 0.738281,0.869176 0,0.3053861 -0.105468,0.5520442 -0.304687,0.7869566 -0.199219,0.2231668 -0.9375,0.8104478 -1.476563,1.1745621 -0.738281,0.6225179 -0.785156,1.24503577 -0.832031,1.82057118868 h 3.679688 z m 0.615234,-1.66787818 v 1.0453603 h 2.085938 v -1.0453603 z m 5.220703,-2.7954577 h -0.714844 c -0.03516,0.2701492 -0.246093,0.5168073 -0.46875,0.681246 -0.269531,0.1879299 -0.796875,0.2818949 -1.195312,0.2818949 v 0.7164828 h 1.300781 V 6.5618868e-4 h 1.078125 z m 4.230469,0 h -0.714844 c -0.03516,0.2701492 -0.246094,0.5168073 -0.46875,0.681246 -0.269531,0.1879299 -0.796875,0.2818949 -1.195312,0.2818949 v 0.7164828 H 50.26615 V 6.5618868e-4 h 1.078125 z m 1.535156,2.7954577 v 1.0453603 h 2.085938 v -1.0453603 z m 5.334961,-2.7954577 h -0.714844 c -0.03516,0.2701492 -0.246093,0.5168073 -0.46875,0.681246 -0.269531,0.1879299 -0.796875,0.2818949 -1.195312,0.2818949 v 0.7164828 h 1.300781 V 6.5618868e-4 h 1.078125 z m 1.558594,0 v 0.9631409 H 62.45658 C 61.366736,-3.029714 60.839392,-2.160538 60.558142,6.5618868e-4 h 1.078125 C 61.741736,-1.8551519 62.480017,-3.2411352 63.593298,-4.5918816 v -0.833939 z m 4.209961,2.7954577 v 1.0453603 h 2.085937 v -1.0453603 z m 5.264648,-2.7954577 h -0.714843 c -0.03516,0.2701492 -0.246094,0.5168073 -0.46875,0.681246 -0.269532,0.1879299 -0.796875,0.2818949 -1.195313,0.2818949 v 0.7164828 H 68.16947 V 6.5618868e-4 h 1.078125 z M 2.8931031,3.1220549 H 2.1782594 C 2.1431031,3.3922042 1.9321656,3.6388622 1.7095094,3.8033009 1.4399781,3.9912309 0.91263437,4.0851958 0.51419687,4.0851958 V 4.8016787 H 1.8149781 v 3.746853 h 1.078125 z m 1.5791016,4.0170023 c -0.023437,0.2466581 -0.011719,0.7047373 0.5625,1.1745621 0.234375,0.18793 0.4804687,0.4110968 1.21875,0.4110968 0.84375,0 1.3710937,-0.3758599 1.6523437,-0.8456847 C 8.4448609,7.021601 8.3276734,5.412451 7.1089234,4.9896086 6.8979859,4.9191349 6.7104859,4.8956437 6.5347047,4.8956437 c -0.1640625,0 -0.3164063,0.023491 -0.4453125,0.070474 -0.2578125,0.070474 -0.4335938,0.1996755 -0.4921875,0.246658 L 5.7729859,4.0851958 H 8.0112672 V 3.1220549 H 5.1167359 L 4.6245484,6.1524251 H 5.5972047 C 5.7026734,5.9057671 5.9487672,5.753074 6.2768922,5.753074 c 0.2578125,0 0.4804687,0.070474 0.6679687,0.3171317 C 7.2378297,6.4578112 7.2964234,7.7733208 6.3237672,7.8203033 5.6323609,7.8437945 5.5386109,7.4679346 5.5268922,7.1390572 Z m 8.7861323,1.4094745 0.996094,-4.5103184 v 4.5103184 h 1.148438 V 2.9693619 H 13.727087 L 12.684119,7.2565135 11.64115,2.9693619 H 9.9653687 V 8.5485317 H 11.113806 V 4.0382133 L 12.1099,8.5485317 Z m 0,0"
       style="fill:#ffffff;fill-opacity:1.0;fill-rule:nonzero;stroke:none"
       aria-label="Grain KJB2-11-17-1&#10;15 M"
       transform="matrix(1.3333333,0,0,1.330283,492.10347,506.69053)" /><path
       id="path2249"
       d="m 386.457,403.212 c 0,0.457 0.161,0.848 0.483,1.171 0.322,0.323 0.712,0.484 1.17,0.484 0.457,0 0.846,-0.161 1.168,-0.484 0.323,-0.323 0.484,-0.714 0.484,-1.171 0,-0.458 -0.161,-0.848 -0.484,-1.171 -0.322,-0.322 -0.711,-0.484 -1.168,-0.484 -0.458,0 -0.848,0.162 -1.17,0.484 -0.322,0.323 -0.483,0.713 -0.483,1.171 z m 0.33,0 c 0,-0.364 0.13,-0.675 0.388,-0.933 0.258,-0.258 0.57,-0.387 0.935,-0.387 0.364,0 0.676,0.129 0.934,0.387 0.258,0.258 0.388,0.569 0.388,0.933 0,0.364 -0.13,0.675 -0.388,0.933 -0.258,0.258 -0.57,0.387 -0.934,0.387 -0.365,0 -0.677,-0.129 -0.935,-0.387 -0.258,-0.258 -0.388,-0.569 -0.388,-0.933 z m 0.772,0 c 0,0.152 0.053,0.282 0.16,0.391 0.107,0.108 0.238,0.162 0.391,0.162 0.151,0 0.281,-0.054 0.389,-0.162 0.107,-0.109 0.161,-0.239 0.161,-0.391 0,-0.152 -0.054,-0.282 -0.161,-0.391 -0.108,-0.108 -0.238,-0.162 -0.389,-0.162 -0.152,0 -0.282,0.054 -0.39,0.162 -0.108,0.109 -0.161,0.239 -0.161,0.391"
       style="fill:#ffffff;fill-opacity:1.0;fill-rule:nonzero;stroke:none"
       transform="matrix(1.3333333,0,0,-1.3333333,0,1056)" /><path
       id="path2250"
       d="m 4.6637601,-3.8767815 c 0.046875,-0.18793 -0.035156,-0.7047373 -0.328125,-1.0805971 -0.5390625,-0.6812461 -1.5820313,-0.7047373 -1.875,-0.7047373 -1.3710938,0 -2.00390629,0.6577548 -2.09765629,1.5386763 -0.09375,0.9044128 0.3984375,1.3390008 1.00781249,1.550422 0.7148438,0.2349124 1.8164063,0.2349124 2.1914063,0.6225179 0.2695312,0.2701493 0.2226562,0.7164829 -0.023437,0.9396496 -0.1523438,0.1409475 -0.5039063,0.2584037 -0.890625,0.2584037 -0.3867188,0.0234912 -0.796875,-0.0704737 -1.0546875,-0.3288774 -0.1875,-0.1996755 -0.234375,-0.4228423 -0.234375,-0.5755354 H 0.24579131 c 0.0351562,0.5285529 0.28125,1.08059712 0.78515629,1.44471136 0.4101562,0.29364052 1.078125,0.39935111 1.359375,0.38760549 0.6210937,-0.0117456 1.2773437,-0.08221935 1.7460937,-0.38760549 0.703125,-0.45807921 0.9960938,-1.77358876 0.3515625,-2.45483476 -0.3515625,-0.3523686 -1.0078125,-0.4933161 -1.3125,-0.5402985 -0.2109375,-0.046982 -1.265625,-0.2114212 -1.40625,-0.3523687 -0.2460937,-0.093965 -0.375,-0.1761843 -0.3515625,-0.5520442 0.046875,-0.4580792 0.4570313,-0.6577547 1.0195313,-0.6460091 0.7851562,0.011746 1.1601562,0.434588 1.1484375,0.8809216 z m 0.946289,-1.7031151 V -7.2666241e-4 H 6.7584866 V -3.8885272 L 9.0202054,-7.2666241e-4 H 10.156924 V -5.5798966 H 9.0084866 v 3.8408181 L 6.7467679,-5.5798966 Z m 6.6269529,0 h -1.148437 v 5.57916993759 h 1.148437 z m 2.115235,0 h -1.148438 v 5.57916993759 h 1.148438 z m 4.198242,5.57916993759 V -2.5377808 c 0,-0.5168073 0.351562,-0.7634653 0.726562,-0.7517197 0.328125,0.011746 0.527344,0.1409475 0.585938,0.434588 v 2.85418583759 h 1.066406 V -2.5377808 c 0,-0.2818949 0.210938,-0.7869566 0.785156,-0.7517197 0.246094,0.011746 0.515625,0.1292018 0.539063,0.434588 V -7.2666241e-4 H 23.32001 V -2.8784038 c 0,-0.6577547 -0.234375,-1.2097989 -1.054687,-1.3390007 -0.878907,-0.093965 -1.195313,0.2349124 -1.453125,0.6107722 -0.304688,-0.3523686 -0.457032,-0.5402985 -0.984375,-0.6107722 -0.621094,-0.082219 -0.925782,0.1996755 -1.265625,0.6929916 h -0.01172 V -4.1469308 H 17.472354 V -7.2666241e-4 Z M 26.091494,0.17545765 c 0.539063,0 1.066407,-0.16443869 1.429688,-0.5050617 0.421875,-0.37585986 0.621094,-1.02186905 0.621094,-1.69136935 0,-0.6695004 -0.199219,-1.3155096 -0.621094,-1.6913694 -0.363281,-0.3288774 -0.890625,-0.5050617 -1.429688,-0.5050617 -0.539062,0 -1.066406,0.1761843 -1.429687,0.5050617 -0.410156,0.3758598 -0.609375,1.021869 -0.609375,1.6913694 0,0.6695003 0.199219,1.31550949 0.609375,1.69136935 0.363281,0.34062301 0.890625,0.5050617 1.429687,0.5050617 z m 0,-3.47670375 c 0.269532,0 0.574219,0.1292018 0.773438,0.4698248 0.08203,0.1644387 0.1875,0.4698249 0.1875,0.8104479 0,0.340623 -0.105469,0.6460091 -0.1875,0.8104478 -0.199219,0.340623 -0.503906,0.46982483 -0.773438,0.46982483 -0.269531,0 -0.5625,-0.12920183 -0.761718,-0.46982483 -0.08203,-0.1644387 -0.199219,-0.4698248 -0.199219,-0.8104478 0,-0.340623 0.117187,-0.6460092 0.199219,-0.8104479 0.199218,-0.340623 0.492187,-0.4698248 0.761718,-0.4698248 z m 6.600586,-2.2786505 h -1.078125 v 1.9967556 h -0.01172 c -0.152344,-0.3523686 -0.46875,-0.6577548 -1.171875,-0.6342635 -0.386719,0.023491 -1.066407,0.1409474 -1.417969,0.9396496 -0.210938,0.5050617 -0.292969,0.9396497 -0.269531,1.3390008 0.02344,0.4110967 0.140625,0.7869566 0.316406,1.16281646 0.316406,0.68124601 0.75,0.98663215 1.5,0.95139529 0.328125,-0.0117456 0.75,-0.16443869 1.042969,-0.58728104 h 0.01172 v 0.43458797 h 1.078125 z m -1.96875,2.2903961 c 0.246094,0 0.527344,0.1174562 0.714844,0.4698248 0.07031,0.1526931 0.175781,0.4580793 0.175781,0.8104479 0,0.340623 -0.105468,0.6460091 -0.175781,0.8104478 -0.1875,0.34062302 -0.46875,0.46982485 -0.714844,0.46982485 -0.246093,0 -0.539062,-0.12920183 -0.714843,-0.46982485 -0.08203,-0.1644387 -0.1875,-0.4698248 -0.1875,-0.8104478 0,-0.3523686 0.105468,-0.6577548 0.1875,-0.8104479 0.175781,-0.3523686 0.46875,-0.4698248 0.714843,-0.4698248 z m 6.46875,1.550422 c 0.02344,-0.4933161 0.02344,-1.0571059 -0.351562,-1.6561326 -0.257813,-0.4110967 -0.761719,-0.8221934 -1.570313,-0.8221934 -0.480468,0 -1.605468,0.082219 -1.875,1.703115 -0.04687,0.3171317 -0.04687,0.6460091 -0.03516,0.8809215 0.02344,0.2584037 0.05859,0.434588 0.08203,0.5050617 0.105469,0.36411428 0.351563,0.73997415 0.738282,0.98663219 0.292968,0.18792993 0.667968,0.31713176 1.078125,0.31713176 0.726562,0 1.710937,-0.54029856 1.886718,-1.35074635 h -1.054687 c -0.04687,0.22316675 -0.316406,0.41109668 -0.621094,0.46982479 -0.304687,0.0587281 -0.65625,-0.0234912 -0.902344,-0.36411429 -0.152343,-0.2114211 -0.152343,-0.4463335 -0.128906,-0.6695003 z m -2.753906,-0.7164829 c -0.01172,-0.3876055 0.234375,-0.8926672 0.890625,-0.869176 0.644531,0.035237 0.75,0.5520442 0.75,0.869176 z m 3.503906,-3.1243352 v 5.57916993759 h 1.066407 V -5.5798966 Z M -19.819638,4.345153 h -0.714844 c -0.03516,0.2701493 -0.246094,0.5168074 -0.46875,0.6812461 -0.269531,0.1879299 -0.796875,0.2818948 -1.195313,0.2818948 v 0.7164829 h 1.300782 v 3.7468531 h 1.078125 z m 1.579101,4.0170024 c -0.02344,0.246658 -0.01172,0.7047372 0.5625,1.174562 0.234375,0.18793 0.480469,0.4110968 1.21875,0.4110968 0.84375,0 1.371094,-0.3758599 1.652344,-0.8456847 0.539062,-0.8574303 0.421875,-2.4665804 -0.796875,-2.8894227 -0.210938,-0.070474 -0.398438,-0.093965 -0.574219,-0.093965 -0.164062,0 -0.316406,0.023491 -0.445312,0.070474 -0.257813,0.070474 -0.433594,0.1996756 -0.492188,0.246658 l 0.175781,-1.1275796 h 2.238282 V 4.345153 h -2.894532 l -0.492187,3.0303702 h 0.972656 c 0.105469,-0.246658 0.351563,-0.3993511 0.679688,-0.3993511 0.257812,0 0.480468,0.070474 0.667968,0.3171318 0.292969,0.3876055 0.351563,1.703115 -0.621093,1.7500975 -0.691407,0.023491 -0.785157,-0.3523687 -0.796875,-0.681246 z m 8.786133,1.4094745 0.9960938,-4.5103184 v 4.5103184 h 1.1484375 V 4.19246 H -8.985654 L -10.028623,8.4796116 -11.071591,4.19246 h -1.675782 v 5.5791699 h 1.148438 V 5.2613115 l 0.996094,4.5103184 z m 0,0"
       style="fill:#ffffff;fill-opacity:1.0;fill-rule:nonzero;stroke:none"
       aria-label=" SNII model&#10;15 M"
       transform="matrix(1.3333333,0,0,1.330283,522.38712,518.06347)" /><path
       id="path2251"
       d="m 386.457,393.396 c 0,0.458 0.161,0.848 0.483,1.171 0.322,0.323 0.712,0.484 1.17,0.484 0.457,0 0.846,-0.161 1.168,-0.484 0.323,-0.323 0.484,-0.713 0.484,-1.171 0,-0.457 -0.161,-0.848 -0.484,-1.171 -0.322,-0.322 -0.711,-0.483 -1.168,-0.483 -0.458,0 -0.848,0.161 -1.17,0.483 -0.322,0.323 -0.483,0.714 -0.483,1.171 z m 0.33,0 c 0,-0.364 0.13,-0.675 0.388,-0.933 0.258,-0.258 0.57,-0.386 0.935,-0.386 0.364,0 0.676,0.128 0.934,0.386 0.258,0.258 0.388,0.569 0.388,0.933 0,0.365 -0.13,0.675 -0.388,0.933 -0.258,0.258 -0.57,0.387 -0.934,0.387 -0.365,0 -0.677,-0.129 -0.935,-0.387 -0.258,-0.258 -0.388,-0.568 -0.388,-0.933 z m 0.772,0 c 0,0.153 0.053,0.283 0.16,0.391 0.107,0.108 0.238,0.162 0.391,0.162 0.151,0 0.281,-0.054 0.389,-0.162 0.107,-0.108 0.161,-0.238 0.161,-0.391 0,-0.152 -0.054,-0.282 -0.161,-0.39 -0.108,-0.109 -0.238,-0.163 -0.389,-0.163 -0.152,0 -0.282,0.054 -0.39,0.163 -0.108,0.108 -0.161,0.238 -0.161,0.39"
       style="fill:#ffffff;fill-opacity:1.0;fill-rule:nonzero;stroke:none"
       transform="matrix(1.3333333,0,0,-1.3333333,0,1056)" /><path
       id="path2252"
       d="m 4.6637601,-3.8747769 c 0.046875,-0.18793 -0.035156,-0.7047373 -0.328125,-1.0805972 -0.5390625,-0.681246 -1.5820313,-0.7047372 -1.875,-0.7047372 -1.3710938,0 -2.00390629,0.6577548 -2.09765629,1.5386763 -0.09375,0.9044128 0.3984375,1.3390008 1.00781249,1.550422 0.7148438,0.2349124 1.8164063,0.2349124 2.1914063,0.6225179 0.2695312,0.2701492 0.2226562,0.7164828 -0.023437,0.9396496 -0.1523438,0.14094748 -0.5039063,0.25840369 -0.890625,0.25840369 -0.3867188,0.0234912 -0.796875,-0.0704737 -1.0546875,-0.32887739 -0.1875,-0.1996755 -0.234375,-0.4228423 -0.234375,-0.5755354 H 0.24579131 c 0.0351562,0.5285529 0.28125,1.0805971 0.78515629,1.44471135 0.4101562,0.29364052 1.078125,0.39935111 1.359375,0.38760549 0.6210937,-0.0117456 1.2773437,-0.08221935 1.7460937,-0.38760549 0.703125,-0.45807921 0.9960938,-1.77358875 0.3515625,-2.45483475 -0.3515625,-0.3523686 -1.0078125,-0.4933161 -1.3125,-0.5402986 -0.2109375,-0.046982 -1.265625,-0.2114211 -1.40625,-0.3523686 -0.2460937,-0.093965 -0.375,-0.1761843 -0.3515625,-0.5520442 0.046875,-0.4580792 0.4570313,-0.6577547 1.0195313,-0.6460091 0.7851562,0.011746 1.1601562,0.434588 1.1484375,0.8809216 z M 5.5983304,-5.577892 V 0.00127792 H 6.7467679 V -3.8865226 L 9.0084866,0.00127792 H 10.145205 V -5.577892 H 8.9967679 v 3.840818 L 6.7350491,-5.577892 Z m 6.6591796,0 h -1.148437 v 5.57916992 h 1.148437 z m 2.106445,0 h -1.148437 v 5.57916992 h 1.148437 z m 4.198243,5.57916992 V -2.5357762 c 0,-0.5168073 0.351562,-0.7634653 0.726562,-0.7517197 0.328125,0.011746 0.527344,0.1409474 0.585938,0.434588 v 2.85418582 h 1.066406 V -2.5357762 c 0,-0.2818949 0.210937,-0.7869566 0.785156,-0.7517197 0.246094,0.011746 0.515625,0.1292018 0.539063,0.434588 v 2.85418582 h 1.066406 V -2.8763992 c 0,-0.6577547 -0.234375,-1.2097989 -1.054688,-1.3390008 -0.878906,-0.093965 -1.195312,0.2349125 -1.453125,0.6107723 -0.304687,-0.3523686 -0.457031,-0.5402985 -0.984375,-0.6107723 -0.621093,-0.082219 -0.925781,0.1996756 -1.265625,0.6929917 h -0.01172 v -0.6225179 h -1.078125 v 4.14620412 z m 7.532226,0.17618432 c 0.539063,0 1.066406,-0.1644387 1.429688,-0.5050617 0.421875,-0.37585987 0.621093,-1.02186904 0.621093,-1.69136944 0,-0.6695003 -0.199218,-1.3155095 -0.621093,-1.6913694 C 27.16083,-4.0392156 26.633487,-4.2154 26.094424,-4.2154 c -0.539062,0 -1.066406,0.1761844 -1.429687,0.5050617 -0.410157,0.3758599 -0.609375,1.0218691 -0.609375,1.6913694 0,0.6695004 0.199218,1.31550957 0.609375,1.69136944 0.363281,0.340623 0.890625,0.5050617 1.429687,0.5050617 z m 0,-3.47670374 c 0.269531,0 0.574219,0.1292018 0.773438,0.4698248 0.08203,0.1644387 0.1875,0.4698248 0.1875,0.8104478 0,0.340623 -0.105469,0.6460092 -0.1875,0.8104479 -0.199219,0.34062298 -0.503907,0.46982481 -0.773438,0.46982481 -0.269531,0 -0.5625,-0.12920183 -0.761719,-0.46982481 -0.08203,-0.1644387 -0.199218,-0.4698249 -0.199218,-0.8104479 0,-0.340623 0.117187,-0.6460091 0.199218,-0.8104478 0.199219,-0.340623 0.492188,-0.4698248 0.761719,-0.4698248 z M 32.69208,-5.577892 h -1.078125 v 1.9967556 h -0.01172 C 31.449891,-3.9335051 31.133485,-4.2388912 30.43036,-4.2154 c -0.386719,0.023491 -1.066407,0.1409475 -1.417969,0.9396497 -0.210938,0.5050617 -0.292969,0.9396497 -0.269531,1.3390008 0.02344,0.4110967 0.140625,0.7869566 0.316406,1.16281645 0.316406,0.68124601 0.75,0.98663215 1.5,0.95139529 0.328125,-0.0117456 0.75,-0.1644387 1.042969,-0.58728105 h 0.01172 v 0.43458798 h 1.078125 z m -1.96875,2.2903961 c 0.246094,0 0.527344,0.1174562 0.714844,0.4698248 0.07031,0.1526931 0.175781,0.4580792 0.175781,0.8104479 0,0.340623 -0.105468,0.6460091 -0.175781,0.8104478 -0.1875,0.340623 -0.46875,0.46982483 -0.714844,0.46982483 -0.246093,0 -0.539062,-0.12920183 -0.714843,-0.46982483 -0.08203,-0.1644387 -0.1875,-0.4698248 -0.1875,-0.8104478 0,-0.3523687 0.105468,-0.6577548 0.1875,-0.8104479 0.175781,-0.3523686 0.46875,-0.4698248 0.714843,-0.4698248 z m 6.457032,1.5504219 c 0.02344,-0.493316 0.02344,-1.0571058 -0.351563,-1.6561325 C 36.570987,-3.8043032 36.06708,-4.2154 35.258487,-4.2154 c -0.480469,0 -1.605469,0.082219 -1.875,1.7031151 -0.04687,0.3171317 -0.04687,0.6460091 -0.03516,0.8809215 0.02344,0.2584037 0.05859,0.434588 0.08203,0.5050617 0.105468,0.36411427 0.351562,0.73997414 0.738281,0.98663217 0.292969,0.18792994 0.667969,0.31713177 1.078125,0.31713177 0.726562,0 1.710937,-0.54029856 1.886719,-1.35074644 h -1.054688 c -0.04687,0.22316684 -0.316406,0.41109677 -0.621094,0.46982487 -0.304687,0.0587281 -0.65625,-0.0234912 -0.902343,-0.36411427 -0.152344,-0.2114211 -0.152344,-0.4463336 -0.128907,-0.6695004 z m -2.753907,-0.7164828 c -0.01172,-0.3876055 0.234375,-0.8926672 0.890625,-0.869176 0.644532,0.035237 0.75,0.5520442 0.75,0.869176 z m 3.495118,-3.1243352 v 5.57916992 h 1.066406 V -5.577892 Z m 2.083007,5.57916992 h 0.632813 c 0.05859,0.15269307 0.01172,0.30538614 -0.07031,0.46982484 -0.07031,0.15269307 -0.292968,0.42284235 -0.5625,0.43458797 V 1.3285331 c 0.175782,-0.023491 0.46875,-0.093965 0.691407,-0.2584037 0.457031,-0.27014926 0.46875,-0.86917592 0.457031,-1.10408834 V -1.1145561 H 40.00458 Z m 0,0"
       style="fill:#ffffff;fill-opacity:1.0;fill-rule:nonzero;stroke:none"
       aria-label=" SNII model,"
       transform="matrix(1.3333333,0,0,1.330283,522.38712,531.0608)" /><path
       id="path2253"
       d="M 2.3306031,-0.57395554 H 0.97122812 C 1.0532594,-0.8194635 1.5571656,-1.1351166 1.7798219,-1.3104794 c 0.3632812,-0.2805806 0.5625,-0.5377794 0.5625,-1.0171045 0,-0.4676342 -0.2929688,-0.970341 -1.1015625,-0.970341 -0.69140628,0 -1.08984378,0.4208708 -1.05468753,1.1807764 h 0.609375 v -0.1285994 c 0,-0.3741074 0.19921875,-0.5377793 0.45703123,-0.5377793 0.2460938,0 0.4453125,0.1519811 0.4453125,0.5260885 0,0.1753628 -0.058594,0.3273439 -0.1875,0.4676342 -0.1171875,0.1285994 -0.55078123,0.4793251 -0.87890623,0.7014513 -0.43359375,0.3741074 -0.46875,0.74821477 -0.4921875,1.08724958 H 2.3306031 Z m 0.1435547,-0.18705369 c -0.023437,0.2104354 0.2109375,0.86512331 0.9726563,0.86512331 0.2226562,0 0.6914062,-0.03507256 0.9726562,-0.54947021 0.1523438,-0.26888967 0.2460938,-0.81835987 0.2460938,-1.32106667 0,-0.3857982 -0.09375,-1.5315021 -1.1953125,-1.5315021 -0.3984375,0 -0.7265625,0.2338171 -0.890625,0.5377794 -0.1054688,0.1753628 -0.140625,0.4091799 -0.140625,0.642997 0,0.163672 0.035156,0.3507257 0.1054687,0.5027068 0.1523438,0.3390348 0.421875,0.5027068 0.6796875,0.5494702 0.082031,0.011691 0.1640625,0.011691 0.2460938,0.011691 0.070312,0 0.1523437,-0.011691 0.2109375,-0.035073 0.1289062,-0.046763 0.2460937,-0.1285994 0.328125,-0.2455079 0.070312,0.1753628 0,0.45594332 -0.058594,0.63130615 -0.070312,0.16367198 -0.2109375,0.30396225 -0.4101562,0.30396225 -0.3632813,0 -0.4570313,-0.23381712 -0.4335938,-0.36241653 z M 3.5288453,-1.59106 c -0.140625,0 -0.2695312,-0.058454 -0.3632812,-0.1636719 -0.1289063,-0.1169086 -0.1523438,-0.2922714 -0.1523438,-0.4325617 0,-0.163672 0.058594,-0.3039622 0.1171875,-0.3741074 0.1054688,-0.1285994 0.234375,-0.1987445 0.375,-0.1987445 0.140625,-0.011691 0.28125,0.035073 0.375,0.1402902 0.070312,0.070145 0.1523438,0.2922714 0.1523438,0.5260885 0,0.1052177 -0.046875,0.2338172 -0.140625,0.327344 C 3.7866578,-1.6612051 3.6577516,-1.59106 3.5288453,-1.59106 Z m 0,0"
       style="fill:#ffffff;fill-opacity:1.0;fill-rule:nonzero;stroke:none"
       aria-label="29"
       transform="matrix(1.3333333,0,0,1.3365147,492.10347,541.0796)" /><path
       id="path2254"
       d="m 4.6655125,-3.8754081 c 0.046875,-0.1879299 -0.035156,-0.7047372 -0.328125,-1.0805971 -0.5390625,-0.681246 -1.5820313,-0.7047372 -1.875,-0.7047372 -1.3710938,0 -2.00390625,0.6577547 -2.09765625,1.5386763 -0.09375,0.9044128 0.3984375,1.3390008 1.00781245,1.5504219 C 2.0873875,-2.3367318 3.18895,-2.3367318 3.56395,-1.9491263 3.8334812,-1.678977 3.7866062,-1.2326434 3.540513,-1.0094766 3.3881692,-0.86852915 3.0366067,-0.75107294 2.649888,-0.75107294 2.2631687,-0.7275817 1.8530125,-0.82154667 1.5952,-1.0799503 1.4077,-1.2796259 1.360825,-1.5027927 1.360825,-1.6554857 H 0.24754375 C 0.2827,-1.1269328 0.52879375,-0.57488863 1.0327,-0.21077438 1.4428562,0.08286614 2.110825,0.18857673 2.392075,0.1768311 3.0131687,0.16508548 3.6694187,0.09461176 4.1381687,-0.21077438 4.8412937,-0.66885359 5.1342625,-1.9843631 4.4897312,-2.6656091 c -0.3515625,-0.3523687 -1.0078125,-0.4933161 -1.3125,-0.5402986 -0.2109375,-0.046982 -1.265625,-0.2114212 -1.40625,-0.3523686 -0.2460937,-0.093965 -0.375,-0.1761843 -0.3515625,-0.5520442 0.046875,-0.4580792 0.4570313,-0.6577548 1.0195313,-0.6460091 0.7851562,0.011746 1.1601562,0.4345879 1.1484375,0.8809215 z M 5.6205906,6.4679219e-4 H 6.6869969 V -4.1455574 H 5.6205906 Z m 0,-4.61602899219 H 6.6869969 V -5.5785231 H 5.6205906 Z M 9.4057469,-4.1455574 10.858872,6.4679219e-4 C 10.964341,0.30603293 10.847153,0.56443659 10.647934,0.69363842 10.472153,0.79934901 10.237778,0.82284025 9.9799656,0.79934901 V 1.6802706 c 0.3398434,0 1.1601564,-0.046983 1.3945314,-0.2936406 0.175781,-0.1644386 0.292969,-0.41109668 0.316406,-0.52855289 l 1.757813,-5.00363451 h -1.101563 l -0.867187,3.0186246 -0.890625,-3.0186246 z M 14.104966,6.4679219e-4 h 1.066406 V -4.1455574 h -1.066406 z m 0,-4.61602899219 h 1.066406 v -0.9631409 h -1.066406 z m 5.62207,2.8776771 c 0.02344,-0.4933161 0.02344,-1.0571059 -0.351563,-1.6561325 -0.257812,-0.4110968 -0.761718,-0.8221935 -1.570312,-0.8221935 -0.480469,0 -1.605469,0.082219 -1.875,1.703115 -0.04687,0.3171318 -0.04687,0.6460092 -0.03516,0.8809216 0.02344,0.2584037 0.05859,0.434588 0.08203,0.5050617 0.105469,0.36411424 0.351562,0.73997411 0.738281,0.98663214 0.292969,0.18792994 0.667969,0.31713176 1.078125,0.31713176 0.726563,0 1.710938,-0.54029855 1.886719,-1.3507464 h -1.054688 c -0.04687,0.22316681 -0.316406,0.41109674 -0.621093,0.46982484 -0.304688,0.0587281 -0.65625,-0.0234912 -0.902344,-0.36411424 -0.152344,-0.2114212 -0.152344,-0.4463336 -0.128906,-0.6695004 z M 16.97313,-2.454188 c -0.01172,-0.3876054 0.234375,-0.8926671 0.890625,-0.8691759 0.644531,0.035237 0.75,0.5520442 0.75,0.8691759 z m 3.515625,-3.1243351 V 6.4679219e-4 h 1.066406 V -5.5785231 Z m 5.783203,0 h -1.078125 v 1.9967555 h -0.01172 c -0.152344,-0.3523686 -0.46875,-0.6577547 -1.171875,-0.6342635 -0.386719,0.023491 -1.066406,0.1409475 -1.417969,0.9396497 -0.210937,0.5050617 -0.292968,0.9396496 -0.269531,1.3390008 0.02344,0.4110967 0.140625,0.7869566 0.316406,1.16281642 0.316407,0.68124601 0.75,0.98663215 1.5,0.95139528 0.328125,-0.0117456 0.75,-0.16443869 1.042969,-0.58728104 h 0.01172 v 0.43458797 h 1.078125 z m -1.96875,2.2903961 c 0.246094,0 0.527344,0.1174562 0.714844,0.4698248 0.07031,0.1526931 0.175781,0.4580792 0.175781,0.8104478 0,0.340623 -0.105469,0.6460092 -0.175781,0.8104479 -0.1875,0.34062297 -0.46875,0.4698248 -0.714844,0.4698248 -0.246094,0 -0.539063,-0.12920183 -0.714844,-0.4698248 -0.08203,-0.1644387 -0.1875,-0.4698249 -0.1875,-0.8104479 0,-0.3523686 0.105469,-0.6577547 0.1875,-0.8104478 0.175781,-0.3523686 0.46875,-0.4698248 0.714844,-0.4698248 z m 8.583984,1.5504219 c 0.02344,-0.4933161 0.02344,-1.0571059 -0.351562,-1.6561325 -0.257813,-0.4110968 -0.761719,-0.8221935 -1.570313,-0.8221935 -0.480469,0 -1.605469,0.082219 -1.875,1.703115 -0.04687,0.3171318 -0.04687,0.6460092 -0.03516,0.8809216 0.02344,0.2584037 0.05859,0.434588 0.08203,0.5050617 0.105469,0.36411424 0.351563,0.73997411 0.738281,0.98663214 0.292969,0.18792994 0.667969,0.31713176 1.078125,0.31713176 0.726563,0 1.710938,-0.54029855 1.886719,-1.3507464 H 31.78563 c -0.04687,0.22316681 -0.316407,0.41109674 -0.621094,0.46982484 -0.304688,0.0587281 -0.65625,-0.0234912 -0.902344,-0.36411424 -0.152344,-0.2114212 -0.152344,-0.4463336 -0.128906,-0.6695004 z M 30.133286,-2.454188 c -0.01172,-0.3876054 0.234375,-0.8926671 0.890625,-0.8691759 0.644531,0.035237 0.75,0.5520442 0.75,0.8691759 z M 33.625473,6.4679219e-4 H 34.69188 V -2.5716442 c 0,-0.3288774 0.128906,-0.6929916 0.785156,-0.6929916 0.726562,0 0.773437,0.434588 0.773437,0.7987022 V 6.4679219e-4 H 37.31688 V -2.7713197 c 0,-1.0453603 -0.644532,-1.4447114 -1.59375,-1.4447114 -0.410157,0 -0.808594,0.2584037 -1.007813,0.7047373 h -0.02344 V -4.1455574 H 33.62547 Z m 4.675782,0 h 1.066406 V -2.5716442 c 0,-0.3288774 0.128906,-0.6929916 0.785156,-0.6929916 0.726563,0 0.773438,0.434588 0.773438,0.7987022 V 6.4679219e-4 h 1.066406 V -2.7713197 c 0,-1.0453603 -0.644531,-1.4447114 -1.59375,-1.4447114 -0.410156,0 -0.808594,0.2584037 -1.007813,0.6225179 h -0.02344 v -1.9850099 h -1.066406 z m 8.191406,0 V -0.14030066 C 46.352036,-0.26950249 46.246567,-0.4456868 46.258286,-0.63361673 V -2.9005216 c 0,-0.6577547 -0.328125,-0.9866321 -0.738281,-1.1628164 -0.210938,-0.082219 -0.574219,-0.1526931 -0.984375,-0.1526931 -0.5625,0 -1.699219,0.1292018 -1.710938,1.4447114 h 1.007813 c 0.01172,-0.2936405 0.09375,-0.6695004 0.703125,-0.6695004 0.492187,0 0.703125,0.1174562 0.703125,0.3758599 0.01172,0.1996755 -0.07031,0.3993511 -0.269532,0.4698248 -0.246093,0.082219 -0.679687,0.1761843 -1.078125,0.1879299 -0.949218,0.1644387 -1.171875,0.7282285 -1.195312,1.3037639 -0.03516,0.81044787 0.375,1.2802727 1.21875,1.2802727 0.632812,0 0.960937,-0.23491241 1.335937,-0.58728104 -0.01172,0.14094745 0.03516,0.31713177 0.117188,0.41109673219 z M 45.238755,-1.7142138 c 0,0.4580792 -0.117188,0.90441276 -0.75,0.99837772 -0.457032,0.0822194 -0.644532,-0.093965 -0.714844,-0.34062302 -0.08203,-0.3288774 0.140625,-0.6107723 0.46875,-0.6695004 0.28125,-0.058728 0.691406,-0.035237 0.996094,-0.2231668 z m 1.992187,1.71486059219 h 1.066406 V -2.5716442 c 0,-0.3288774 0.128907,-0.6929916 0.785157,-0.6929916 0.726562,0 0.773437,0.434588 0.773437,0.7987022 V 6.4679219e-4 h 1.066406 V -2.7713197 c 0,-1.0453603 -0.644531,-1.4447114 -1.59375,-1.4447114 -0.410156,0 -0.808593,0.2584037 -1.007812,0.7047373 h -0.02344 V -4.1455574 H 47.230942 Z M 55.472153,-2.5951354 c 0,-0.340623 -0.257812,-1.0923427 -0.726562,-1.3859833 -0.234375,-0.152693 -0.679688,-0.2584036 -1.101563,-0.2349124 -0.679687,0.046983 -1.242187,0.070474 -1.734375,1.1745621 -0.222656,0.5285529 -0.1875,1.2332902 -0.140625,1.6091501 0.07031,0.59902661 0.539063,1.65613249 1.828125,1.60915 0.667969,-0.0234912 0.902344,-0.1174562 1.21875,-0.37585986 0.152344,-0.12920183 0.667969,-0.68124601 0.65625,-1.24503584 h -1.03125 c -0.164062,0.70473728 -0.503906,0.75171976 -0.773437,0.72822852 -0.328125,0 -0.609375,-0.093965 -0.785157,-0.73997412 -0.128906,-0.5050617 -0.01172,-1.0923427 0.03516,-1.2097989 0.117187,-0.3993511 0.375,-0.6342636 0.738281,-0.6107723 0.328125,0.011746 0.632812,0.023491 0.785156,0.681246 z m 4.209961,0.8574303 c 0.02344,-0.4933161 0.02344,-1.0571059 -0.351562,-1.6561325 -0.257813,-0.4110968 -0.761719,-0.8221935 -1.570313,-0.8221935 -0.480469,0 -1.605469,0.082219 -1.875,1.703115 -0.04687,0.3171318 -0.04687,0.6460092 -0.03516,0.8809216 0.02344,0.2584037 0.05859,0.434588 0.08203,0.5050617 0.105469,0.36411424 0.351563,0.73997411 0.738281,0.98663214 0.292969,0.18792994 0.667969,0.31713176 1.078125,0.31713176 0.726563,0 1.710938,-0.54029855 1.886719,-1.3507464 h -1.054687 c -0.04687,0.22316681 -0.316407,0.41109674 -0.621094,0.46982484 -0.304688,0.0587281 -0.65625,-0.0234912 -0.902344,-0.36411424 C 56.90477,-1.2796259 56.90477,-1.5145383 56.928208,-1.7377051 Z M 56.928208,-2.454188 c -0.01172,-0.3876054 0.234375,-0.8926671 0.890625,-0.8691759 0.644531,0.035237 0.75,0.5520442 0.75,0.8691759 z m 7.180664,-3.1243351 h -1.078125 v 1.9967555 h -0.01172 c -0.152344,-0.3523686 -0.46875,-0.6577547 -1.171875,-0.6342635 -0.386719,0.023491 -1.066406,0.1409475 -1.417969,0.9396497 -0.210937,0.5050617 -0.292968,0.9396496 -0.269531,1.3390008 0.02344,0.4110967 0.140625,0.7869566 0.316406,1.16281642 0.316407,0.68124601 0.75,0.98663215 1.5,0.95139528 0.328125,-0.0117456 0.75,-0.16443869 1.042969,-0.58728104 h 0.01172 v 0.43458797 h 1.078125 z m -1.96875,2.2903961 c 0.246094,0 0.527344,0.1174562 0.714844,0.4698248 0.07031,0.1526931 0.175781,0.4580792 0.175781,0.8104478 0,0.340623 -0.105469,0.6460092 -0.175781,0.8104479 -0.1875,0.34062297 -0.46875,0.4698248 -0.714844,0.4698248 -0.246094,0 -0.539063,-0.12920183 -0.714844,-0.4698248 -0.08203,-0.1644387 -0.1875,-0.4698249 -0.1875,-0.8104479 0,-0.3523686 0.105469,-0.6577547 0.1875,-0.8104478 0.175781,-0.3523686 0.46875,-0.4698248 0.714844,-0.4698248 z m 0,0"
       style="fill:#ffffff;fill-opacity:1.0;fill-rule:nonzero;stroke:none"
       aria-label="Si yield enhanced"
       transform="matrix(1.3333333,0,0,1.330283,498.87307,544.05773)" /><path
       id="path2255"
       d="m 351.951,424.64 h 97.209 v -44.475 h -97.209 z m 97.344,-5.076 v 3.046 m 0,-9.207 v 3.114 m 0,-9.206 v 3.046 m 0,-9.206 v 3.046 m 0,-9.139 v 3.046 m 0,-9.138 v 3.046 m 0,-9.206 v 3.046 m 0,-9.139 v 3.046 m 0,-9.138 v 3.046 m 0,-9.206 v 3.046 m 0,-9.207 v 3.114 m 0,-9.274 v 3.114 m 0,-9.206 v 3.046 m 0,-9.139 v 3.046 m 0,-9.206 v 3.046 m 0,-9.139 v 3.046 m 0,-9.138 v 3.046 m 0,-9.207 v 3.047 m 0,-9.139 v 3.046 m 0,-9.206 v 3.114 m 0,-9.274 v 3.114 m 0,-9.207 v 3.046 m 0,-9.206 v 3.046 m 0,-9.138 v 3.046 m 0,-9.139 v 3.046 m 0,-9.206 v 3.046 m 0,-9.138 v 3.045 m 0,-9.138 v 3.046 m 0,-9.207 v 3.047 m 0,-9.206 v 3.113 m -43.663,131.598 v 3.047 m 0,-9.207 v 3.046 m 0,-9.138 v 3.046 m 0,-9.139 v 3.047 m 0,-9.207 v 3.046 m 0,-9.138 v 3.046 m 0,-9.207 v 3.047 m 0,-9.207 v 3.114 m 0,-9.206 v 3.046 m 0,-9.207 v 3.047 m 0,-9.139 v 3.046 m 0,-9.139 v 3.046 m 0,-9.206 v 3.047 m 0,-9.139 v 3.046 m 0,-9.139 v 3.046 m 0,-9.206 v 3.046 m 0,-9.206 v 3.046 m 0,-9.206 v 3.114 m 0,-9.207 v 3.046 m 0,-9.138 v 3.046 m 0,-9.207 v 3.047 m 0,-9.139 v 3.046 m 0,-9.138 v 3.045"
       style="fill:none;stroke:#ffffff;stroke-width:0.609;stroke-linecap:round;stroke-linejoin:round;stroke-miterlimit:10;stroke-dasharray:none;stroke-opacity:1.0"
       transform="matrix(1.3333333,0,0,-1.3333333,0,1056)" /></g><g
     id="3 - Annotations"
     inkscape:groupmode="layer"
     inkscape:label="3 - Annotations"
     transform="matrix(0.26458333,0,0,0.26458334,-114.64831,-128.47485)" /></svg>
