<?xml version="1.0" encoding="UTF-8" standalone="no"?>
<!-- Created with Inkscape (http://www.inkscape.org/) -->

<svg
   width="131.23296mm"
   height="50.001312mm"
   viewBox="0 0 131.23296 50.001312"
   version="1.1"
   id="svg1"
   xml:space="preserve"
   inkscape:version="1.4 (e7c3feb100, 2024-10-09)"
   sodipodi:docname="lewis13.svg"
   xmlns:inkscape="http://www.inkscape.org/namespaces/inkscape"
   xmlns:sodipodi="http://sodipodi.sourceforge.net/DTD/sodipodi-0.dtd"
   xmlns="http://www.w3.org/2000/svg"
   xmlns:svg="http://www.w3.org/2000/svg"><sodipodi:namedview
     id="namedview1"
     pagecolor="#505050"
     bordercolor="#eeeeee"
     borderopacity="1"
     inkscape:showpageshadow="0"
     inkscape:pageopacity="0"
     inkscape:pagecheckerboard="0"
     inkscape:deskcolor="#505050"
     inkscape:document-units="mm"
     inkscape:zoom="1.5130875"
     inkscape:cx="309.96225"
     inkscape:cy="94.178295"
     inkscape:window-width="1900"
     inkscape:window-height="1447"
     inkscape:window-x="0"
     inkscape:window-y="0"
     inkscape:window-maximized="1"
     inkscape:current-layer="g1"><inkscape:page
       x="0"
       y="0"
       width="131.23296"
       height="50.001312"
       id="page1"
       margin="0"
       bleed="0" /><inkscape:page
       x="-42.376923"
       y="-20.171312"
       width="215.89999"
       height="279.40002"
       id="page2"
       margin="0"
       bleed="0" /></sodipodi:namedview><defs
     id="defs1"><clipPath
       clipPathUnits="userSpaceOnUse"
       id="clipPath12"><path
         d="m 492.123,734.822 h -372 V 593.085 h 372 z"
         id="path12" /></clipPath><clipPath
       clipPathUnits="userSpaceOnUse"
       id="clipPath159"><path
         d="m 76.347,579.602 h 127.955 v 7.3 H 76.347 Z"
         id="path159" /></clipPath><clipPath
       clipPathUnits="userSpaceOnUse"
       id="clipPath161"><path
         d="m 43.109,461.639 h 251.05 v 42.002 H 43.109 Z"
         id="path161" /></clipPath><clipPath
       clipPathUnits="userSpaceOnUse"
       id="clipPath162"><path
         d="m 43.109,461.639 h 251.05 v 42.002 H 43.109 Z"
         id="path162" /></clipPath><clipPath
       clipPathUnits="userSpaceOnUse"
       id="clipPath163"><path
         d="m 43.109,461.639 h 251.05 v 42.002 H 43.109 Z"
         id="path163" /></clipPath><clipPath
       clipPathUnits="userSpaceOnUse"
       id="clipPath164"><path
         d="m 43.109,461.639 h 251.05 v 42.002 H 43.109 Z"
         id="path164" /></clipPath><clipPath
       clipPathUnits="userSpaceOnUse"
       id="clipPath165"><path
         d="m 43.109,461.639 h 251.05 v 42.002 H 43.109 Z"
         id="path165" /></clipPath><clipPath
       clipPathUnits="userSpaceOnUse"
       id="clipPath171"><path
         d="m 74.552,428.762 h 139.047 v 9.126 H 74.552 Z"
         id="path171" /></clipPath><clipPath
       clipPathUnits="userSpaceOnUse"
       id="clipPath173"><path
         d="m 43.109,439.724 h 251.055 v 31.04 H 43.109 Z"
         id="path173" /></clipPath><clipPath
       clipPathUnits="userSpaceOnUse"
       id="clipPath174"><path
         d="m 43.109,439.724 h 251.055 v 31.04 H 43.109 Z"
         id="path174" /></clipPath><clipPath
       clipPathUnits="userSpaceOnUse"
       id="clipPath175"><path
         d="m 43.109,439.724 h 251.055 v 31.04 H 43.109 Z"
         id="path175" /></clipPath><clipPath
       clipPathUnits="userSpaceOnUse"
       id="clipPath179"><path
         d="m 43.11,86.33 h 251.065 v 31.041 H 43.11 Z"
         id="path179" /></clipPath><clipPath
       clipPathUnits="userSpaceOnUse"
       id="clipPath180"><path
         d="m 43.11,86.33 h 251.065 v 31.041 H 43.11 Z"
         id="path180" /></clipPath><clipPath
       clipPathUnits="userSpaceOnUse"
       id="clipPath181"><path
         d="m 43.11,86.33 h 251.065 v 31.041 H 43.11 Z"
         id="path181" /></clipPath><clipPath
       clipPathUnits="userSpaceOnUse"
       id="clipPath185"><path
         d="m 318.078,428.762 h 251.057 v 42.002 H 318.078 Z"
         id="path185" /></clipPath><clipPath
       clipPathUnits="userSpaceOnUse"
       id="clipPath186"><path
         d="m 318.078,428.762 h 251.057 v 42.002 H 318.078 Z"
         id="path186" /></clipPath><clipPath
       clipPathUnits="userSpaceOnUse"
       id="clipPath187"><path
         d="m 318.078,428.762 h 251.057 v 42.002 H 318.078 Z"
         id="path187" /></clipPath><clipPath
       clipPathUnits="userSpaceOnUse"
       id="clipPath188"><path
         d="m 318.078,428.762 h 251.057 v 42.002 H 318.078 Z"
         id="path188" /></clipPath><clipPath
       clipPathUnits="userSpaceOnUse"
       id="clipPath193"><path
         d="m 348.123,319.17 h 54.491 v 9.126 h -54.491 z"
         id="path193" /></clipPath><clipPath
       clipPathUnits="userSpaceOnUse"
       id="clipPath195"><path
         d="m 318.081,297.256 h 251.052 v 31.04 H 318.081 Z"
         id="path195" /></clipPath><clipPath
       clipPathUnits="userSpaceOnUse"
       id="clipPath196"><path
         d="m 318.081,297.256 h 251.052 v 31.04 H 318.081 Z"
         id="path196" /></clipPath><clipPath
       clipPathUnits="userSpaceOnUse"
       id="clipPath197"><path
         d="m 318.081,297.256 h 251.052 v 31.04 H 318.081 Z"
         id="path197" /></clipPath><clipPath
       clipPathUnits="userSpaceOnUse"
       id="clipPath201"><path
         d="m 570.256,254.799 h 42.25 v 89.763 h -42.25 z"
         id="path201" /></clipPath><clipPath
       clipPathUnits="userSpaceOnUse"
       id="clipPath202"><path
         d="m 570.256,254.799 h 42.25 v 89.763 h -42.25 z"
         id="path202" /></clipPath><clipPath
       clipPathUnits="userSpaceOnUse"
       id="clipPath203"><path
         d="m 570.256,254.799 h 42.25 v 89.763 h -42.25 z"
         id="path203" /></clipPath><clipPath
       clipPathUnits="userSpaceOnUse"
       id="clipPath204"><path
         d="m 570.256,254.799 h 42.25 v 89.763 h -42.25 z"
         id="path204" /></clipPath><clipPath
       clipPathUnits="userSpaceOnUse"
       id="clipPath205"><path
         d="m 570.256,254.799 h 42.25 v 89.763 h -42.25 z"
         id="path205" /></clipPath><clipPath
       clipPathUnits="userSpaceOnUse"
       id="clipPath206"><path
         d="m 570.256,254.799 h 42.25 v 89.763 h -42.25 z"
         id="path206" /></clipPath><clipPath
       clipPathUnits="userSpaceOnUse"
       id="clipPath207"><path
         d="m 570.256,254.799 h 42.25 v 89.763 h -42.25 z"
         id="path207" /></clipPath><clipPath
       clipPathUnits="userSpaceOnUse"
       id="clipPath208"><path
         d="m 570.256,254.799 h 42.25 v 89.763 h -42.25 z"
         id="path208" /></clipPath><clipPath
       clipPathUnits="userSpaceOnUse"
       id="clipPath209"><path
         d="m 570.256,254.799 h 42.25 v 89.763 h -42.25 z"
         id="path209" /></clipPath><clipPath
       clipPathUnits="userSpaceOnUse"
       id="clipPath210"><path
         d="m 570.256,254.799 h 42.25 v 89.763 h -42.25 z"
         id="path210" /></clipPath><clipPath
       clipPathUnits="userSpaceOnUse"
       id="clipPath211"><path
         d="m 570.256,254.799 h 42.25 v 89.763 h -42.25 z"
         id="path211" /></clipPath><clipPath
       clipPathUnits="userSpaceOnUse"
       id="clipPath212"><path
         d="m 570.256,254.799 h 42.25 v 89.763 h -42.25 z"
         id="path212" /></clipPath><clipPath
       clipPathUnits="userSpaceOnUse"
       id="clipPath213"><path
         d="m 570.256,254.799 h 42.25 v 89.763 h -42.25 z"
         id="path213" /></clipPath><clipPath
       clipPathUnits="userSpaceOnUse"
       id="clipPath214"><path
         d="m 570.256,254.799 h 42.25 v 89.763 h -42.25 z"
         id="path214" /></clipPath><clipPath
       clipPathUnits="userSpaceOnUse"
       id="clipPath215"><path
         d="m 570.256,254.799 h 42.25 v 89.763 h -42.25 z"
         id="path215" /></clipPath><clipPath
       clipPathUnits="userSpaceOnUse"
       id="clipPath216"><path
         d="m 570.256,254.799 h 42.25 v 89.763 h -42.25 z"
         id="path216" /></clipPath><clipPath
       clipPathUnits="userSpaceOnUse"
       id="clipPath217"><path
         d="m 570.256,254.799 h 42.25 v 89.763 h -42.25 z"
         id="path217" /></clipPath><clipPath
       clipPathUnits="userSpaceOnUse"
       id="clipPath218"><path
         d="m 570.256,254.799 h 42.25 v 89.763 h -42.25 z"
         id="path218" /></clipPath><clipPath
       clipPathUnits="userSpaceOnUse"
       id="clipPath219"><path
         d="m 570.256,254.799 h 42.25 v 89.763 h -42.25 z"
         id="path219" /></clipPath><clipPath
       clipPathUnits="userSpaceOnUse"
       id="clipPath220"><path
         d="m 570.256,254.799 h 42.25 v 89.763 h -42.25 z"
         id="path220" /></clipPath><clipPath
       clipPathUnits="userSpaceOnUse"
       id="clipPath221"><path
         d="m 570.256,254.799 h 42.25 v 89.763 h -42.25 z"
         id="path221" /></clipPath><clipPath
       clipPathUnits="userSpaceOnUse"
       id="clipPath222"><path
         d="m 570.256,254.799 h 42.25 v 89.763 h -42.25 z"
         id="path222" /></clipPath><clipPath
       clipPathUnits="userSpaceOnUse"
       id="clipPath223"><path
         d="m 570.256,254.799 h 42.25 v 89.763 h -42.25 z"
         id="path223" /></clipPath><clipPath
       clipPathUnits="userSpaceOnUse"
       id="clipPath224"><path
         d="m 570.256,254.799 h 42.25 v 89.763 h -42.25 z"
         id="path224" /></clipPath><clipPath
       clipPathUnits="userSpaceOnUse"
       id="clipPath225"><path
         d="m 570.256,254.799 h 42.25 v 89.763 h -42.25 z"
         id="path225" /></clipPath><clipPath
       clipPathUnits="userSpaceOnUse"
       id="clipPath226"><path
         d="m 570.256,254.799 h 42.25 v 89.763 h -42.25 z"
         id="path226" /></clipPath><clipPath
       clipPathUnits="userSpaceOnUse"
       id="clipPath227"><path
         d="m 570.256,254.799 h 42.25 v 89.763 h -42.25 z"
         id="path227" /></clipPath><clipPath
       clipPathUnits="userSpaceOnUse"
       id="clipPath228"><path
         d="m 570.256,254.799 h 42.25 v 89.763 h -42.25 z"
         id="path228" /></clipPath><clipPath
       clipPathUnits="userSpaceOnUse"
       id="clipPath229"><path
         d="m 570.256,254.799 h 42.25 v 89.763 h -42.25 z"
         id="path229" /></clipPath><clipPath
       clipPathUnits="userSpaceOnUse"
       id="clipPath230"><path
         d="m 570.256,254.799 h 42.25 v 89.763 h -42.25 z"
         id="path230" /></clipPath><clipPath
       clipPathUnits="userSpaceOnUse"
       id="clipPath231"><path
         d="m 570.256,254.799 h 42.25 v 89.763 h -42.25 z"
         id="path231" /></clipPath><clipPath
       clipPathUnits="userSpaceOnUse"
       id="clipPath232"><path
         d="m 570.256,254.799 h 42.25 v 89.763 h -42.25 z"
         id="path232" /></clipPath><clipPath
       clipPathUnits="userSpaceOnUse"
       id="clipPath233"><path
         d="m 570.256,254.799 h 42.25 v 89.763 h -42.25 z"
         id="path233" /></clipPath><clipPath
       clipPathUnits="userSpaceOnUse"
       id="clipPath234"><path
         d="m 570.256,254.799 h 42.25 v 89.763 h -42.25 z"
         id="path234" /></clipPath><clipPath
       clipPathUnits="userSpaceOnUse"
       id="clipPath235"><path
         d="m 570.256,254.799 h 42.25 v 89.763 h -42.25 z"
         id="path235" /></clipPath></defs><g
     inkscape:label="Layer 1"
     inkscape:groupmode="layer"
     id="layer1"
     transform="translate(-262.37691,-20.171311)" /><g
     id="g1"
     inkscape:groupmode="layer"
     inkscape:label="4"
     transform="matrix(0.26458333,0,0,0.26458334,-42.3769,-20.171311)"><g
       id="group-MC4"><path
         id="path5"
         d="M 347.58,617.69 H 491.811 V 731.689 H 347.58 V 617.69 h 144.231 m -144.231,0 h 144.231 m -141.844,0 v 3.068 m 11.593,-3.068 v 3.068 m 11.594,-3.068 v 5.964 m -9.207,-14.143 h 4.944 m 3.581,3.237 -0.853,-0.17 -0.511,-0.852 -0.342,-1.364 v -0.851 l 0.342,-1.364 0.511,-0.852 0.853,-0.17 h 0.511 l 0.851,0.17 0.512,0.852 0.171,1.364 v 0.851 l -0.171,1.364 -0.512,0.852 -0.851,0.17 h -0.511 l -0.682,-0.17 -0.171,-0.341 -0.34,-0.511 -0.171,-1.364 v -0.851 l 0.171,-1.364 0.34,-0.511 0.171,-0.341 0.682,-0.17 m 0.511,0 0.512,0.17 0.339,0.341 0.171,0.511 0.341,1.364 v 0.851 l -0.341,1.364 -0.171,0.511 -0.339,0.341 -0.512,0.17 m 3.751,-5.112 -0.171,-0.341 0.171,-0.17 0.341,0.17 -0.341,0.341 m 2.556,4.09 0.17,-0.342 -0.17,-0.169 -0.34,0.169 v 0.342 l 0.34,0.511 0.17,0.341 0.854,0.17 h 1.193 l 0.682,-0.17 0.341,-0.341 0.341,-0.511 v -0.511 l -0.341,-0.682 -0.853,-0.511 -1.363,-0.511 -0.512,-0.342 -0.512,-0.511 -0.34,-0.851 v -0.682 m 2.557,5.623 0.512,-0.17 0.17,-0.341 0.341,-0.511 v -0.511 l -0.341,-0.682 -0.682,-0.511 -1.193,-0.511 m -1.364,-1.875 0.34,0.171 h 0.512 l 1.364,-0.512 h 0.853 l 0.511,0.341 0.341,0.171 m -3.069,0 1.364,-0.682 h 1.023 l 0.341,0.17 0.341,0.512 v 0.681 m 2.046,9.202 v 3.068 m 11.593,-3.068 v 3.068 m 11.593,-3.068 v 3.068 m 11.594,-3.068 v 5.964 m -0.172,-10.906 -0.852,-0.17 -0.512,-0.852 -0.34,-1.364 v -0.851 l 0.34,-1.364 0.512,-0.852 0.852,-0.17 h 0.512 l 0.853,0.17 0.511,0.852 0.17,1.364 v 0.851 l -0.17,1.364 -0.511,0.852 -0.853,0.17 h -0.512 l -0.682,-0.17 -0.17,-0.341 -0.342,-0.511 -0.17,-1.364 v -0.851 l 0.17,-1.364 0.342,-0.511 0.17,-0.341 0.682,-0.17 m 0.512,0 0.511,0.17 0.342,0.341 0.17,0.511 0.341,1.364 v 0.851 l -0.341,1.364 -0.17,0.511 -0.342,0.341 -0.511,0.17 m 11.252,4.942 v 3.068 m 11.764,-3.068 v 3.068 m 11.593,-3.068 v 3.068 m 11.594,-3.068 v 5.964 m -4.434,-10.906 -0.852,-0.17 -0.512,-0.852 -0.171,-1.364 v -0.851 l 0.171,-1.364 0.512,-0.852 0.852,-0.17 h 0.512 l 0.851,0.17 0.683,0.852 0.171,1.364 v 0.851 l -0.171,1.364 -0.683,0.852 -0.851,0.17 h -0.512 l -0.511,-0.17 -0.341,-0.341 -0.169,-0.511 -0.343,-1.364 v -0.851 l 0.343,-1.364 0.169,-0.511 0.341,-0.341 0.511,-0.17 m 0.512,0 0.681,0.17 0.17,0.341 0.341,0.511 0.342,1.364 v 0.851 l -0.342,1.364 -0.341,0.511 -0.17,0.341 -0.681,0.17 m 3.922,-5.112 -0.342,-0.341 0.342,-0.17 0.34,0.17 -0.34,0.341 m 2.385,4.09 0.341,-0.342 -0.341,-0.169 -0.17,0.169 v 0.342 l 0.17,0.511 0.341,0.341 0.854,0.17 h 1.022 l 0.852,-0.17 0.342,-0.341 0.17,-0.511 v -0.511 l -0.17,-0.682 -0.854,-0.511 -1.362,-0.511 -0.513,-0.342 -0.682,-0.511 -0.17,-0.851 v -0.682 m 2.387,5.623 0.511,-0.17 0.341,-0.341 0.342,-0.511 v -0.511 l -0.342,-0.682 -0.852,-0.511 -1.022,-0.511 m -1.365,-1.875 0.17,0.171 h 0.682 l 1.365,-0.512 h 0.681 l 0.683,0.341 0.17,0.171 m -2.899,0 1.365,-0.682 h 1.022 l 0.342,0.17 0.17,0.512 v 0.681 m 5.625,9.202 v 3.068 m 11.594,-3.068 v 3.068 M 347.58,731.689 h 144.231 m -141.844,0 v -2.897 m 11.593,2.897 v -2.897 m 11.594,2.897 v -5.794 m 11.763,5.794 v -2.897 m 11.593,2.897 v -2.897 m 11.593,2.897 v -2.897 m 11.594,2.897 v -5.794 m 11.592,5.794 v -2.897 m 11.764,2.897 v -2.897 m 11.593,2.897 v -2.897 m 11.594,2.897 v -5.794 m 11.591,5.794 v -2.897 m 11.594,2.897 v -2.897 M 347.58,617.69 v 113.999 m 0,-113.999 h 5.967 m -27.618,2.897 -0.853,-0.171 -0.511,-0.852 -0.172,-1.363 v -0.852 l 0.172,-1.363 0.511,-0.852 0.853,-0.17 h 0.512 l 0.851,0.17 0.683,0.852 0.171,1.363 v 0.852 l -0.171,1.363 -0.683,0.852 -0.851,0.171 h -0.512 l -0.512,-0.171 -0.341,-0.341 -0.17,-0.511 -0.341,-1.363 v -0.852 l 0.341,-1.363 0.17,-0.512 0.341,-0.34 0.512,-0.17 m 0.512,0 0.681,0.17 0.17,0.34 0.341,0.512 0.342,1.363 v 0.852 l -0.342,1.363 -0.341,0.511 -0.17,0.341 -0.681,0.171 m 3.921,-5.113 -0.342,-0.34 0.342,-0.17 0.34,0.17 -0.34,0.34 m 3.75,5.113 -0.682,-0.171 -0.682,-0.852 -0.17,-1.363 v -0.852 l 0.17,-1.363 0.682,-0.852 0.682,-0.17 h 0.682 l 0.682,0.17 0.682,0.852 0.17,1.363 v 0.852 l -0.17,1.363 -0.682,0.852 -0.682,0.171 h -0.682 l -0.511,-0.171 -0.171,-0.341 -0.341,-0.511 -0.341,-1.363 v -0.852 l 0.341,-1.363 0.341,-0.512 0.171,-0.34 0.511,-0.17 m 0.682,0 0.512,0.17 0.17,0.34 0.342,0.512 0.34,1.363 v 0.852 l -0.34,1.363 -0.342,0.511 -0.17,0.341 -0.512,0.171 m 4.091,-1.023 0.512,0.171 0.853,0.852 v -5.623 m -0.341,5.452 v -5.452 m -1.024,0 h 2.388 m 6.307,11.417 h 2.899 m -2.899,4.941 h 2.899 m -2.899,3.578 h 2.899 m -2.899,2.726 h 2.899 m -2.899,2.216 h 2.899 m -2.899,2.045 h 2.899 m -2.899,1.534 h 2.899 m -2.899,1.533 h 2.899 m -2.899,1.363 h 5.967 m -22.162,2.726 -0.683,-0.17 -0.682,-0.852 -0.17,-1.363 v -0.852 l 0.17,-1.363 0.682,-0.851 0.683,-0.171 h 0.681 l 0.682,0.171 0.682,0.851 0.171,1.363 v 0.852 l -0.171,1.363 -0.682,0.852 -0.682,0.17 h -0.681 l -0.512,-0.17 -0.171,-0.341 -0.34,-0.511 -0.342,-1.363 v -0.852 l 0.342,-1.363 0.34,-0.511 0.171,-0.34 0.512,-0.171 m 0.681,0 0.512,0.171 0.17,0.34 0.341,0.511 0.341,1.363 v 0.852 l -0.341,1.363 -0.341,0.511 -0.17,0.341 -0.512,0.17 m 3.752,-5.111 -0.342,-0.34 0.342,-0.171 0.34,0.171 -0.34,0.34 m 3.067,4.089 0.512,0.341 0.853,0.681 v -5.622 m -0.341,5.452 v -5.452 m -1.024,0 h 2.388 m 6.307,11.417 h 2.899 m -2.899,4.941 h 2.899 m -2.899,3.579 h 2.899 m -2.899,2.726 h 2.899 m -2.899,2.386 h 2.899 m -2.899,1.875 h 2.899 m -2.899,1.704 h 2.899 m -2.899,1.362 h 2.899 m -2.899,1.363 h 5.967 m -14.662,1.704 0.512,0.341 0.853,0.852 v -5.793 m -0.341,5.453 v -5.453 m -1.024,0 h 2.388 m 6.307,11.417 h 2.899 m -2.899,4.941 h 2.899 m -2.899,3.578 h 2.899 m -2.899,2.897 h 2.899 m -2.899,2.216 h 2.899 m -2.899,1.875 h 2.899 m -2.899,1.703 h 2.899 m -2.899,1.363 h 2.899 m -2.899,1.364 h 5.967 m -20.117,1.703 0.511,0.342 0.853,0.851 v -5.793 m -0.341,5.453 v -5.453 m -1.023,0 h 2.388 m 3.921,5.793 -0.854,-0.34 -0.512,-0.853 -0.339,-1.363 v -0.852 l 0.339,-1.363 0.512,-0.682 0.854,-0.34 h 0.511 l 0.852,0.34 0.512,0.682 0.17,1.363 v 0.852 l -0.17,1.363 -0.512,0.853 -0.852,0.34 h -0.511 l -0.683,-0.34 -0.171,-0.171 -0.341,-0.682 -0.171,-1.363 v -0.852 l 0.171,-1.363 0.341,-0.511 0.171,-0.171 0.683,-0.34 m 0.511,0 0.51,0.34 0.342,0.171 0.171,0.511 0.341,1.363 v 0.852 l -0.341,1.363 -0.171,0.682 -0.342,0.171 -0.51,0.34 m 7.33,5.623 h 2.899 m -2.899,5.113 h 2.899 m -2.899,3.578 h 2.899 m -2.899,2.727 h 2.899 m -2.899,2.215 h 2.899 m -2.899,1.874 h 2.899 m -2.899,1.704 h 2.899 m -2.899,1.364 h 2.899 m -2.899,1.363 h 5.967 m -25.572,1.703 0.511,0.341 0.852,0.852 v -5.793 m -0.34,5.453 v -5.453 m -1.023,0 h 2.387 m 3.75,5.793 -0.682,-0.34 -0.682,-0.853 -0.17,-1.362 v -0.683 l 0.17,-1.362 0.682,-0.852 0.682,-0.341 h 0.682 l 0.682,0.341 0.682,0.852 0.17,1.362 v 0.683 l -0.17,1.362 -0.682,0.853 -0.682,0.34 h -0.682 l -0.511,-0.34 -0.171,-0.171 -0.341,-0.682 -0.341,-1.362 v -0.683 l 0.341,-1.362 0.341,-0.682 0.171,-0.17 0.511,-0.341 m 0.682,0 0.512,0.341 0.17,0.17 0.342,0.682 0.34,1.362 v 0.683 l -0.34,1.362 -0.342,0.682 -0.17,0.171 -0.512,0.34 m 4.945,0 -0.854,-0.34 -0.681,-0.853 -0.17,-1.362 v -0.683 l 0.17,-1.362 0.681,-0.852 0.854,-0.341 h 0.511 l 0.852,0.341 0.512,0.852 0.17,1.362 v 0.683 l -0.17,1.362 -0.512,0.853 -0.852,0.34 h -0.511 l -0.683,-0.34 -0.171,-0.171 -0.341,-0.682 -0.34,-1.362 v -0.683 l 0.34,-1.362 0.341,-0.682 0.171,-0.17 0.683,-0.341 m 0.511,0 0.51,0.341 0.342,0.17 0.171,0.682 0.341,1.362 v 0.683 l -0.341,1.362 -0.171,0.682 -0.342,0.171 -0.51,0.34 M 491.811,617.69 v 113.999 m 0,-113.999 h -5.796 m 5.796,8.691 h -2.898 m 2.898,4.941 h -2.898 m 2.898,3.578 h -2.898 m 2.898,2.726 h -2.898 m 2.898,2.216 h -2.898 m 2.898,2.045 h -2.898 m 2.898,1.534 h -2.898 m 2.898,1.533 h -2.898 m 2.898,1.363 h -5.796 m 5.796,8.521 h -2.898 m 2.898,4.941 h -2.898 m 2.898,3.579 h -2.898 m 2.898,2.726 h -2.898 m 2.898,2.386 h -2.898 m 2.898,1.875 h -2.898 m 2.898,1.704 h -2.898 m 2.898,1.362 h -2.898 m 2.898,1.363 h -5.796 m 5.796,8.521 h -2.898 m 2.898,4.941 h -2.898 m 2.898,3.578 h -2.898 m 2.898,2.897 h -2.898 m 2.898,2.216 h -2.898 m 2.898,1.875 h -2.898 m 2.898,1.703 h -2.898 m 2.898,1.363 h -2.898 m 2.898,1.364 h -5.796 m 5.796,8.519 h -2.898 m 2.898,5.113 h -2.898 m 2.898,3.578 h -2.898 m 2.898,2.727 h -2.898 m 2.898,2.215 h -2.898 m 2.898,1.874 h -2.898 m 2.898,1.704 h -2.898 m 2.898,1.364 h -2.898 m 2.898,1.363 h -5.796 m -172.361,-70.547 -0.853,0.341 h 1.534 l -0.681,-0.341 -0.682,-0.511 -0.171,-0.852 v -0.852 l 0.171,-0.682 0.682,-0.681 h 0.511 l 0.512,0.34 0.341,0.341 0.17,0.512 0.512,1.533 0.34,0.682 0.511,0.511 m -2.386,-3.919 0.512,0.681 0.341,0.512 0.511,1.533 0.171,0.682 0.34,0.17 0.511,0.341 h 1.194 l 0.512,-0.511 0.341,-0.853 v -0.851 l -0.341,-0.853 -0.512,-0.511 -0.852,-0.34 h 1.705 l -0.853,0.34 m -4.944,5.795 0.171,-0.341 0.341,0.341 -0.341,0.169 -0.171,-0.169 m 1.876,0 h 3.921 m -3.921,0.169 h 3.921 m -3.921,-1.022 v 1.022 m 3.921,-1.022 v 1.875 m -4.944,5.282 0.681,0.171 h -1.534 l 0.853,-0.171 -0.682,-0.682 -0.171,-0.681 v -0.682 l 0.171,-0.681 0.682,-0.682 0.511,-0.17 0.853,-0.341 h 1.363 l 0.854,0.341 0.51,0.17 0.512,0.682 0.341,0.681 v 0.682 l -0.341,0.681 -0.512,0.682 -0.51,0.171 m -4.434,-2.216 0.171,-0.51 0.682,-0.512 0.511,-0.341 0.853,-0.17 h 1.363 l 0.854,0.17 0.51,0.341 0.512,0.512 0.341,0.51 m -5.797,8.862 h 5.797 m -5.797,0.17 h 5.797 m -5.797,-1.023 v 3.237 m 0,0 0.171,0.853 0.341,0.34 0.512,0.171 h 0.51 l 0.683,-0.171 0.17,-0.34 0.341,-0.853 v -2.214 m -2.728,2.214 0.171,0.512 0.341,0.341 0.512,0.34 h 0.51 l 0.683,-0.34 0.17,-0.341 0.341,-0.512 m 3.069,-3.237 v 1.875 m -3.069,0.51 0.171,0.683 0.34,0.169 1.876,0.853 0.341,0.34 v 0.171 l -0.341,0.34 m -2.216,-1.873 0.681,0.169 1.876,0.512 0.341,0.341 v 0.511 l -0.682,0.34 h -0.171 m -4.944,1.875 h 5.797 m -5.797,0.341 h 5.797 m -4.263,1.533 h 2.216 m -3.75,-2.725 v 4.43 h 1.534 l -1.534,-0.341 m 2.728,-2.897 v 1.533 m 3.069,-2.725 v 1.874 m -5.797,4.43 h 5.797 m -5.797,0.341 h 5.797 m -4.263,1.534 h 2.216 m -3.75,-2.727 v 4.43 h 1.534 l -1.534,-0.34 m 2.728,-2.897 v 1.534 m 3.069,-2.727 v 4.43 h -1.705 l 1.705,-0.34 m 86.776,-89.462 v -8.69 m 0.342,8.69 v -8.69 m -0.342,8.69 h 1.876 m -1.876,-8.69 h 1.876 m 2.216,7.668 v -5.793 m 0.342,5.793 v -5.793 m 1.534,4.089 v -2.215 m -2.727,3.919 h 4.433 v -1.704 l -0.342,1.704 m -2.898,-2.726 h 1.534 m -2.727,-3.067 h 1.874 m 4.092,2.215 h 3.411 v 0.511 l -0.342,0.512 -0.169,0.34 -0.683,0.341 h -0.853 l -0.682,-0.341 -0.682,-0.511 -0.17,-0.852 v -0.511 l 0.17,-0.852 0.682,-0.512 0.682,-0.34 h 0.682 l 0.854,0.34 0.511,0.512 m -0.342,1.363 v 0.852 l -0.169,0.511 m -1.536,0.341 -0.512,-0.341 -0.512,-0.511 -0.34,-0.852 v -0.511 l 0.34,-0.852 0.512,-0.512 0.512,-0.34 m 8.353,6.815 -4.944,-8.69 m 6.821,7.668 v -5.793 m 0.17,5.793 v -5.793 m 3.41,5.793 v -5.793 m 0.171,5.793 v -5.793 m -4.603,5.793 h 1.874 m 1.704,0 h 1.877 m -4.433,-2.726 h 3.41 m -4.432,-3.067 h 1.874 m 1.704,0 h 1.877 m 3.069,6.815 v -8.69 m 0.17,8.69 v -8.69 m -1.875,8.69 h 1.875 m -1.875,-8.69 h 1.875"
         style="fill:none;stroke:#ffffff;stroke-width:0.473;stroke-linecap:butt;stroke-linejoin:round;stroke-miterlimit:10;stroke-dasharray:none;stroke-opacity:1"
         transform="matrix(1.3333333,0,0,-1.3333333,0,1056)" /><path
         id="path6"
         d="m 351.331,617.69 8.012,21.982 23.187,22.834 23.186,14.825 23.356,10.735 23.187,5.794 23.356,8.179 16.196,5.623 m -132.468,-67.99 v 2.385 m 1.534,0 h -3.238 m 24.891,20.449 v 1.022 m 1.534,0 h -3.067 m 24.719,13.803 v 0.851 m 1.705,0 h -3.239 m 24.89,9.884 v 0.852 m 1.536,0 h -3.239 m 24.89,4.942 v 1.193 m 1.534,0 h -3.069 m 24.891,6.986 v 2.556 m 1.535,0 h -3.239 M 359.343,639.672 v -2.727 m 1.534,0 h -3.238 m 24.891,25.561 v -1.193 m 1.534,0 h -3.067 m 24.719,16.018 v -0.853 m 1.705,0 h -3.239 m 24.89,11.588 v -1.023 m 1.536,0 h -3.239 m 24.89,6.817 v -1.364 m 1.534,0 h -3.069 m 24.891,9.543 v -3.408 m 1.535,0 h -3.239"
         style="fill:none;stroke:#a6e3a1;stroke-width:0.947;stroke-linecap:butt;stroke-linejoin:round;stroke-miterlimit:10;stroke-dasharray:none;stroke-opacity:1"
         transform="matrix(1.3333333,0,0,-1.3333333,0,1056)" /><path
         id="path7"
         d="m 347.58,636.093 11.763,19.596 23.187,17.381 23.186,9.031 23.356,4.771 23.187,-0.68 23.356,2.385 16.196,2.386 M 359.343,655.689 v 1.364 m 1.534,0 h -3.238 m 24.891,16.018 v 0.851 m 1.534,0 h -3.067 m 24.719,8.179 v 0.852 m 1.705,0 h -3.239 m 24.89,3.92 v 1.022 m 1.536,0 h -3.239 m 24.89,-1.703 v 1.363 m 1.534,0 h -3.069 m 24.891,1.022 v 2.726 m 1.535,0 h -3.239 M 359.343,655.689 v -1.533 m 1.534,0 h -3.238 m 24.891,18.915 v -0.852 m 1.534,0 h -3.067 m 24.719,9.882 v -0.681 m 1.705,0 h -3.239 m 24.89,5.453 v -0.852 m 1.536,0 h -3.239 m 24.89,0.171 v -1.364 m 1.534,0 h -3.069 m 24.891,3.749 v -3.578 m 1.535,0 h -3.239"
         style="fill:none;stroke:#a6e3a1;stroke-width:0.237;stroke-linecap:butt;stroke-linejoin:round;stroke-miterlimit:10;stroke-dasharray:none;stroke-opacity:1"
         transform="matrix(1.3333333,0,0,-1.3333333,0,1056)" /><path
         id="path8"
         d="m 347.58,651.259 11.763,13.462 23.187,10.565 23.186,5.453 23.356,3.407 23.187,0.853 23.356,7.497 16.196,11.758 M 359.343,664.721 v 1.022 m 1.534,0 h -3.238 m 24.891,9.543 v 0.681 m 1.534,0 h -3.067 m 24.719,4.772 v 0.681 m 1.705,0 h -3.239 m 24.89,2.726 v 1.024 m 1.536,0 h -3.239 m 24.89,-0.171 v 1.363 m 1.534,0 h -3.069 m 24.891,6.134 v 2.726 m 1.535,0 h -3.239 M 359.343,664.721 v -1.193 m 1.534,0 h -3.238 m 24.891,11.758 v -1.023 m 1.534,0 h -3.067 m 24.719,6.476 v -0.852 m 1.705,0 h -3.239 m 24.89,4.259 v -0.851 m 1.536,0 h -3.239 m 24.89,1.704 v -1.363 m 1.534,0 h -3.069 m 24.891,8.86 v -3.408 m 1.535,0 h -3.239"
         style="fill:none;stroke:#74c7ec;stroke-width:0.237;stroke-linecap:butt;stroke-linejoin:round;stroke-miterlimit:10;stroke-dasharray:none;stroke-opacity:1"
         transform="matrix(1.3333333,0,0,-1.3333333,0,1056)" /><path
         id="path9"
         d="m 347.58,623.143 11.763,13.461 23.187,24.538 23.186,12.78 23.356,10.395 23.187,10.054 23.356,13.121 16.196,14.143 M 359.343,636.604 v 2.557 m 1.534,0 h -3.238 m 24.891,21.981 v 1.193 m 1.534,0 h -3.067 m 24.719,11.587 v 0.852 m 1.705,0 h -3.239 m 24.89,9.543 v 1.023 m 1.536,0 h -3.239 m 24.89,9.031 v 1.193 m 1.534,0 h -3.069 m 24.891,11.928 v 2.556 m 1.535,0 h -3.239 M 359.343,636.604 v -3.067 m 1.534,0 h -3.238 m 24.891,27.605 v -1.193 m 1.534,0 h -3.067 m 24.719,13.973 v -0.852 m 1.705,0 h -3.239 m 24.89,11.247 v -0.852 m 1.536,0 h -3.239 m 24.89,10.906 v -1.364 m 1.534,0 h -3.069 m 24.891,14.485 v -3.068 m 1.535,0 h -3.239"
         style="fill:none;stroke:#74c7ec;stroke-width:0.947;stroke-linecap:butt;stroke-linejoin:round;stroke-miterlimit:10;stroke-dasharray:none;stroke-opacity:1"
         transform="matrix(1.3333333,0,0,-1.3333333,0,1056)" /><path
         id="path10"
         d="m 347.58,629.959 2.387,5.282 9.376,11.587 13.811,12.1 9.376,6.475 13.98,7.667 9.206,4.431 13.981,5.623 9.375,3.238 13.981,4.43 9.206,2.557 13.981,3.748 9.375,2.216 13.81,3.066 2.386,0.512 m -134.855,17.38 h 6.991"
         style="fill:none;stroke:#ffffff;stroke-width:0.947;stroke-linecap:butt;stroke-linejoin:round;stroke-miterlimit:10;stroke-dasharray:5.4542, 4.0907;stroke-dashoffset:0;stroke-opacity:1"
         transform="matrix(1.3333333,0,0,-1.3333333,0,1056)" /><path
         id="path11"
         d="m 369.402,721.975 1.364,-3.066 m -1.022,3.066 1.022,-2.726 m 1.364,2.726 -1.364,-3.066 -0.511,-0.852 -0.341,-0.512 -0.512,-0.17 h -0.17 l -0.17,0.17 0.17,0.171 0.17,-0.171 m -0.34,4.43 h 1.193 m 1.024,0 h 1.193 m 4.603,-0.51 h 3.922 m -3.922,-1.364 h 3.922 m 5.284,2.556 0.171,-0.34 -0.171,-0.171 -0.171,0.171 v 0.34 l 0.171,0.341 0.171,0.171 0.681,0.341 h 0.852 l 0.682,-0.341 0.171,-0.171 0.341,-0.341 v -0.511 l -0.341,-0.511 -0.682,-0.341 -1.023,-0.512 -0.341,-0.169 -0.511,-0.512 -0.171,-0.511 v -0.681 m 1.875,4.601 0.512,-0.341 0.17,-0.171 0.171,-0.341 v -0.511 l -0.171,-0.511 -0.682,-0.341 -0.852,-0.512 m -1.023,-1.533 0.171,0.341 h 0.511 l 1.023,-0.512 h 0.682 l 0.341,0.171 0.341,0.341 m -2.387,0 1.023,-0.681 h 0.852 l 0.171,0.169 0.341,0.512 v 0.34 m 1.705,3.58 -0.511,-2.216 0.511,0.341 0.682,0.34 h 0.682 l 0.511,-0.34 0.512,-0.341 0.169,-0.681 v -0.512 l -0.169,-0.511 -0.512,-0.512 -0.511,-0.169 h -0.682 l -0.682,0.169 m 0,10e-4 -0.171,0.17 -0.34,0.511 v 0.17 l 0.34,0.171 0.171,-0.171 -0.171,-0.17 m 1.535,2.215 0.34,-0.34 0.512,-0.341 0.171,-0.681 v -0.512 l -0.171,-0.511 -0.512,-0.511 -0.34,-0.17 m -1.364,4.601 h 2.216 m -2.216,-0.341 h 1.023 l 1.193,0.341 m 2.217,-4.261 -0.341,-0.17 0.341,-0.17 0.171,0.17 -0.171,0.17 m 1.874,3.408 0.171,-0.34 -0.171,-0.171 -0.17,0.171 v 0.34 l 0.17,0.341 0.171,0.171 0.682,0.341 h 0.853 l 0.682,-0.341 0.341,-0.171 0.17,-0.341 v -0.511 l -0.17,-0.511 -0.682,-0.341 -1.194,-0.512 -0.34,-0.169 -0.513,-0.512 -0.17,-0.511 v -0.681 m 1.876,4.601 0.512,-0.341 0.17,-0.171 0.341,-0.341 v -0.511 l -0.341,-0.511 -0.682,-0.341 -0.853,-0.512 m -1.023,-1.533 0.17,0.341 h 0.513 l 1.023,-0.511 h 0.682 l 0.511,0.17 0.17,0.341 m -2.386,0 1.023,-0.681 h 0.852 l 0.341,0.17 0.17,0.511 v 0.34 m 1.704,3.58 -0.34,-2.216 0.34,0.341 0.683,0.34 h 0.683 l 0.68,-0.34 0.342,-0.341 0.341,-0.681 v -0.512 l -0.341,-0.511 -0.342,-0.511 -0.68,-0.17 h -0.683 l -0.683,0.17 -0.171,0.17 -0.169,0.511 v 0.17 l 0.169,0.171 0.171,-0.171 -0.171,-0.17 m 1.537,2.215 0.34,-0.34 0.511,-0.341 0.171,-0.681 v -0.512 l -0.171,-0.511 -0.511,-0.511 -0.34,-0.17 m -1.366,4.601 h 2.217 m -2.217,-0.341 h 1.195 l 1.022,0.341 m 7.501,-0.682 v -3.919 m -2.046,1.873 h 3.922 m 6.819,3.579 -0.511,-0.511 -0.342,-0.681 -0.511,-0.852 -0.17,-1.023 v -0.852 l 0.17,-1.193 0.511,-0.852 0.342,-0.681 0.511,-0.341 m -0.511,6.475 -0.342,-0.852 -0.34,-0.681 -0.171,-1.023 v -0.852 l 0.171,-1.193 0.34,-0.681 0.342,-0.852 m 2.047,6.645 v -6.986 m 0.17,6.986 v -6.986 m -0.17,6.986 h 1.533 m -1.533,-6.986 h 1.533 m 1.705,6.135 v -4.601 m 0.171,4.601 v -4.601 m 1.364,3.237 v -1.704 m -2.218,3.068 h 3.581 v -1.364 l -0.34,1.364 m -2.387,-2.216 h 1.364 m -2.218,-2.385 h 1.535 m 3.239,1.704 h 2.728 v 0.511 l -0.171,0.341 -0.34,0.17 -0.34,0.34 h -0.683 l -0.682,-0.34 -0.512,-0.341 -0.17,-0.681 v -0.512 l 0.17,-0.511 0.512,-0.511 0.682,-0.17 h 0.342 l 0.681,0.17 0.511,0.511 m -0.171,1.023 v 0.681 l -0.34,0.341 m -1.023,0.34 -0.511,-0.34 -0.34,-0.341 -0.343,-0.681 v -0.512 l 0.343,-0.511 0.34,-0.511 0.511,-0.17 m 6.478,5.452 -3.92,-6.986 m 5.456,6.135 v -4.601 m 0.341,4.601 v -4.601 m 2.555,4.601 v -4.601 m 0.171,4.601 v -4.601 m -3.75,4.601 h 1.534 m 1.365,0 h 1.534 m -3.409,-2.216 h 2.555 m -3.579,-2.385 h 1.534 m 1.365,0 h 1.534 m 2.386,5.452 v -6.986 m 0.17,6.986 v -6.986 m -1.533,6.986 h 1.533 m -1.533,-6.986 h 1.533 m 7.332,5.453 v -3.919 m -2.046,1.873 h 3.921 m 6.308,2.728 -0.511,-0.341 -0.511,-0.512 -0.171,-1.192 v -0.683 l 0.171,-1.022 0.511,-0.681 0.511,-0.17 h 0.513 l 0.681,0.17 0.341,0.681 0.34,1.022 v 0.683 l -0.34,1.192 -0.341,0.512 -0.681,0.341 h -0.513 l -0.342,-0.341 -0.169,-0.171 -0.342,-0.341 -0.169,-1.192 v -0.683 l 0.169,-1.022 0.342,-0.511 0.169,-0.17 0.342,-0.17 m 0.513,0 0.51,0.17 0.171,0.17 0.17,0.511 0.171,1.022 v 0.683 l -0.171,1.192 -0.17,0.341 -0.171,0.171 -0.51,0.341 m 3.067,-4.261 -0.171,-0.17 0.171,-0.17 0.171,0.17 -0.171,0.17 m 3.751,3.749 v -4.089 m 0.17,4.601 v -4.601 m 0,4.601 -2.385,-3.409 h 3.408 m -1.876,-1.192 h 1.536 m 1.535,5.452 0.511,-0.511 0.341,-0.681 0.51,-0.852 0.171,-1.023 v -0.852 l -0.171,-1.193 -0.51,-0.852 -0.341,-0.681 -0.511,-0.341 m 0.511,6.475 0.341,-0.852 0.17,-0.681 0.34,-1.023 v -0.852 l -0.34,-1.193 -0.17,-0.681 -0.341,-0.852 m 2.386,6.815 h 0.17 l -0.17,-0.17 -0.171,0.17 0.171,0.341 0.17,0.171 h 1.365 v -0.171 l 0.17,-0.341 v -0.17 l -0.17,-0.341 -1.024,-0.51 -0.17,-0.171 -0.341,-0.17 -0.171,-0.341 v -0.511 m 1.194,2.726 h 0.341 l 0.171,-0.171 v -0.852 l -0.512,-0.17 -0.512,-0.34 m -0.682,-0.853 0.171,0.171 h 0.341 l 0.511,-0.341 h 0.512 l 0.171,0.17 0.17,0.171 m -1.364,0 0.511,-0.511 h 0.683 v 0.17 l 0.17,0.341 v 0.17 m 1.023,-0.341 -0.17,-0.17 0.17,-0.17 0.17,0.17 -0.17,0.17 m 1.023,2.386 v -0.682 m 0,0.17 0.169,0.341 0.342,0.171 h 0.171 l 0.681,-0.342 h 0.342 v 0.171 l 0.169,0.171 m -1.705,-0.171 0.342,0.171 h 0.171 l 0.681,-0.342 m 0.511,0.342 v -0.342 l -0.169,-0.34 -0.511,-0.682 v -0.34 l -0.171,-0.341 v -0.681 m 0.682,2.044 -0.511,-0.682 -0.171,-0.34 -0.171,-0.341 v -0.681 m 3.581,1.874 -0.171,-0.341 -0.34,-0.34 -0.342,-0.171 h -0.17 l -0.341,0.171 -0.169,0.34 -0.171,0.341 v 0.17 l 0.171,0.34 0.169,0.342 h 1.022 l 0.342,-0.342 0.169,-0.34 v -0.851 l -0.169,-0.512 -0.171,-0.17 -0.34,-0.341 -0.342,-0.17 h -0.341 l -0.339,0.17 m 0,0 v 0.511 l 0.169,-0.17 h -0.169 m 0.51,0.511 -0.171,0.171 -0.339,0.34 v 0.851 l 0.339,0.342 h 0.171 m 0.34,0 h 0.172 l 0.34,-0.342 0.171,-0.34 v -0.851 l -0.171,-0.512 -0.171,-0.17 -0.169,-0.341 -0.342,-0.17 M 151.559,617.69 H 295.79 V 731.689 H 151.559 V 617.69 H 295.79 m -144.231,0 H 295.79 m -144.231,0 v 5.964 m -9.206,-14.143 h 4.944 m 3.41,3.237 -0.682,-0.17 -0.683,-0.852 -0.17,-1.364 v -0.851 l 0.17,-1.364 0.683,-0.852 0.682,-0.17 h 0.682 l 0.681,0.17 0.682,0.852 0.171,1.364 v 0.851 l -0.171,1.364 -0.682,0.852 -0.681,0.17 h -0.682 l -0.512,-0.17 -0.17,-0.341 -0.341,-0.511 -0.342,-1.364 v -0.851 l 0.342,-1.364 0.341,-0.511 0.17,-0.341 0.512,-0.17 m 0.682,0 0.51,0.17 0.171,0.341 0.341,0.511 0.341,1.364 v 0.851 l -0.341,1.364 -0.341,0.511 -0.171,0.341 -0.51,0.17 m 3.751,-5.112 -0.171,-0.341 0.171,-0.17 0.34,0.17 -0.34,0.341 m 5.455,4.26 -0.171,-0.17 0.171,-0.342 0.34,0.342 v 0.17 l -0.34,0.682 -0.511,0.17 h -0.854 l -0.851,-0.17 -0.511,-0.682 -0.171,-0.512 -0.342,-1.022 v -1.704 l 0.342,-0.851 0.511,-0.512 0.851,-0.17 h 0.514 l 0.851,0.17 0.511,0.512 0.171,0.851 v 0.34 l -0.171,0.853 -0.511,0.511 -0.851,0.171 h -0.343 l -0.851,-0.171 -0.511,-0.511 -0.171,-0.853 m 1.533,3.75 -0.511,-0.17 -0.511,-0.682 -0.34,-0.512 -0.171,-1.022 v -1.704 l 0.171,-0.851 0.511,-0.512 0.68,-0.17 m 0.514,0 0.511,0.17 0.511,0.512 0.34,0.851 v 0.34 l -0.34,0.853 -0.511,0.511 -0.511,0.171 m -1.876,7.157 v 3.068 m 5.966,-3.068 v 3.068 m 5.967,-3.068 v 3.068 m 5.968,-3.068 v 5.964 m -9.207,-14.143 h 4.944 m 3.41,3.237 -0.682,-0.17 -0.682,-0.852 -0.17,-1.364 v -0.851 l 0.17,-1.364 0.682,-0.852 0.682,-0.17 h 0.682 l 0.682,0.17 0.681,0.852 0.171,1.364 v 0.851 l -0.171,1.364 -0.681,0.852 -0.682,0.17 h -0.682 l -0.511,-0.17 -0.171,-0.341 -0.34,-0.511 -0.342,-1.364 v -0.851 l 0.342,-1.364 0.34,-0.511 0.171,-0.341 0.511,-0.17 m 0.682,0 0.511,0.17 0.171,0.341 0.341,0.511 0.34,1.364 v 0.851 l -0.34,1.364 -0.341,0.511 -0.171,0.341 -0.511,0.17 m 3.751,-5.112 -0.342,-0.341 0.342,-0.17 0.34,0.17 -0.34,0.341 m 4.602,4.601 v -5.112 m 0.341,5.623 v -5.623 m 0,5.623 -3.068,-4.09 h 4.432 m -2.386,-1.533 h 1.875 m -3.41,10.565 v 3.068 m 6.138,-3.068 v 3.068 m 5.967,-3.068 v 3.068 m 5.967,-3.068 v 5.964 m -9.206,-14.143 h 4.773 m 3.581,3.237 -0.852,-0.17 -0.512,-0.852 -0.171,-1.364 v -0.851 l 0.171,-1.364 0.512,-0.852 0.852,-0.17 h 0.682 l 0.681,0.17 0.682,0.852 0.171,1.364 v 0.851 l -0.171,1.364 -0.682,0.852 -0.681,0.17 h -0.682 l -0.512,-0.17 -0.34,-0.341 -0.171,-0.511 -0.341,-1.364 v -0.851 l 0.341,-1.364 0.171,-0.511 0.34,-0.341 0.512,-0.17 m 0.682,0 0.512,0.17 0.169,0.341 0.342,0.511 0.34,1.364 v 0.851 l -0.34,1.364 -0.342,0.511 -0.169,0.341 -0.512,0.17 m 3.75,-5.112 -0.341,-0.341 0.341,-0.17 0.341,0.17 -0.341,0.341 m 2.387,4.09 0.341,-0.342 -0.341,-0.169 -0.17,0.169 v 0.342 l 0.17,0.511 0.341,0.341 0.852,0.17 h 1.023 l 0.853,-0.17 0.341,-0.341 0.171,-0.511 v -0.511 l -0.171,-0.682 -0.852,-0.511 -1.365,-0.511 -0.511,-0.342 -0.682,-0.511 -0.17,-0.851 v -0.682 m 2.386,5.623 0.511,-0.17 0.342,-0.341 0.341,-0.511 v -0.511 l -0.341,-0.682 -0.853,-0.511 -1.023,-0.511 m -1.363,-1.875 0.17,0.171 h 0.682 l 1.364,-0.512 h 0.681 l 0.683,0.341 0.171,0.171 m -2.899,0 1.364,-0.682 h 1.023 l 0.341,0.17 0.171,0.512 v 0.681 m -3.581,9.202 v 3.068 m 6.137,-3.068 v 3.068 m 5.967,-3.068 v 3.068 m 5.967,-3.068 v 5.964 m -0.341,-10.906 -0.682,-0.17 -0.682,-0.852 -0.17,-1.364 v -0.851 l 0.17,-1.364 0.682,-0.852 0.682,-0.17 h 0.683 l 0.852,0.17 0.511,0.852 0.171,1.364 v 0.851 l -0.171,1.364 -0.511,0.852 -0.852,0.17 h -0.683 l -0.511,-0.17 -0.171,-0.341 -0.34,-0.511 -0.342,-1.364 v -0.851 l 0.342,-1.364 0.34,-0.511 0.171,-0.341 0.511,-0.17 m 0.683,0 0.511,0.17 0.341,0.341 0.171,0.511 0.34,1.364 v 0.851 l -0.34,1.364 -0.171,0.511 -0.341,0.341 -0.511,0.17 m 5.626,4.942 v 3.068 m 6.137,-3.068 v 3.068 m 5.967,-3.068 v 3.068 m 5.967,-3.068 v 5.964 m -4.432,-10.906 -0.682,-0.17 -0.683,-0.852 -0.17,-1.364 v -0.851 l 0.17,-1.364 0.683,-0.852 0.682,-0.17 h 0.682 l 0.681,0.17 0.682,0.852 0.171,1.364 v 0.851 l -0.171,1.364 -0.682,0.852 -0.681,0.17 h -0.682 l -0.512,-0.17 -0.17,-0.341 -0.341,-0.511 -0.342,-1.364 v -0.851 l 0.342,-1.364 m 0,0 0.341,-0.511 0.17,-0.341 0.512,-0.17 m 0.682,0 0.511,0.17 0.17,0.341 0.341,0.511 0.341,1.364 v 0.851 l -0.341,1.364 -0.341,0.511 -0.17,0.341 -0.511,0.17 m 3.75,-5.112 -0.341,-0.341 0.341,-0.17 0.341,0.17 -0.341,0.341 m 2.387,4.09 0.341,-0.342 -0.341,-0.169 -0.171,0.169 v 0.342 l 0.171,0.511 0.341,0.341 0.852,0.17 h 1.023 l 0.852,-0.17 0.341,-0.341 0.172,-0.511 v -0.511 l -0.172,-0.682 -0.852,-0.511 -1.364,-0.511 -0.511,-0.342 -0.682,-0.511 -0.171,-0.851 v -0.682 m 2.387,5.623 0.512,-0.17 0.34,-0.341 0.341,-0.511 v -0.511 l -0.341,-0.682 -0.852,-0.511 -1.023,-0.511 m -1.364,-1.875 0.171,0.171 h 0.682 l 1.364,-0.512 h 0.682 l 0.681,0.341 0.172,0.171 m -2.899,0 1.364,-0.682 h 1.022 l 0.341,0.17 0.172,0.512 v 0.681 m 0,9.202 v 3.068 m 5.966,-3.068 v 3.068 m 6.138,-3.068 v 3.068 m 5.967,-3.068 v 5.964 m -4.433,-10.906 -0.853,-0.17 -0.511,-0.852 -0.17,-1.364 v -0.851 l 0.17,-1.364 0.511,-0.852 0.853,-0.17 h 0.512 l 0.852,0.17 0.511,0.852 0.342,1.364 v 0.851 l -0.342,1.364 -0.511,0.852 -0.852,0.17 h -0.512 l -0.511,-0.17 -0.342,-0.341 -0.17,-0.511 -0.341,-1.364 v -0.851 l 0.341,-1.364 0.17,-0.511 0.342,-0.341 0.511,-0.17 m 0.512,0 0.681,0.17 0.171,0.341 0.341,0.511 0.17,1.364 v 0.851 l -0.17,1.364 -0.341,0.511 -0.171,0.341 -0.681,0.17 m 3.921,-5.112 -0.341,-0.341 0.341,-0.17 0.341,0.17 -0.341,0.341 m 4.602,4.601 v -5.112 m 0.342,5.623 v -5.623 m 0,5.623 -3.07,-4.09 h 4.434 m -2.558,-1.533 h 2.046 m 0.171,10.565 v 3.068 m 5.967,-3.068 v 3.068 m 6.138,-3.068 v 3.068 m 5.966,-3.068 v 5.964 m -4.433,-10.906 -0.851,-0.17 -0.512,-0.852 -0.17,-1.364 v -0.851 l 0.17,-1.364 0.512,-0.852 0.851,-0.17 h 0.512 l 0.852,0.17 0.511,0.852 0.342,1.364 v 0.851 l -0.342,1.364 -0.511,0.852 -0.852,0.17 h -0.512 l -0.511,-0.17 -0.34,-0.341 -0.171,-0.511 -0.341,-1.364 v -0.851 l 0.341,-1.364 0.171,-0.511 0.34,-0.341 0.511,-0.17 m 0.512,0 0.682,0.17 0.17,0.341 0.341,0.511 0.17,1.364 v 0.851 l -0.17,1.364 -0.341,0.511 -0.17,0.341 -0.682,0.17 m 3.921,-5.112 -0.34,-0.341 0.34,-0.17 0.17,0.17 -0.17,0.341 m 5.456,4.26 -0.342,-0.17 0.342,-0.342 0.34,0.342 v 0.17 l -0.34,0.682 -0.511,0.17 h -0.853 l -0.853,-0.17 -0.511,-0.682 -0.342,-0.512 -0.17,-1.022 v -1.704 l 0.17,-0.851 0.513,-0.512 0.851,-0.17 h 0.683 l 0.681,0.17 0.682,0.512 0.171,0.851 v 0.34 l -0.171,0.853 -0.682,0.511 -0.681,0.171 h -0.341 l -0.853,-0.171 -0.511,-0.511 -0.342,-0.853 m 1.706,3.75 -0.512,-0.17 -0.681,-0.682 -0.171,-0.512 -0.342,-1.022 v -1.704 l 0.342,-0.851 0.511,-0.512 0.511,-0.17 m 0.683,0 0.512,0.17 0.511,0.512 0.34,0.851 v 0.34 l -0.34,0.853 -0.511,0.511 -0.512,0.171 M 151.559,731.689 H 295.79 m -144.231,0 v -5.794 m 6.138,5.794 v -2.897 m 5.966,2.897 v -2.897 m 5.967,2.897 v -2.897 m 5.968,2.897 v -5.794 m 5.966,5.794 v -2.897 m 6.138,2.897 v -2.897 m 5.967,2.897 v -2.897 m 5.967,2.897 v -5.794 m 5.967,5.794 v -2.897 m 6.137,2.897 v -2.897 m 5.967,2.897 v -2.897 m 5.967,2.897 v -5.794 m 5.968,5.794 v -2.897 m 6.137,2.897 v -2.897 m 5.967,2.897 v -2.897 m 5.967,2.897 v -5.794 m 5.968,5.794 v -2.897 m 5.966,2.897 v -2.897 m 6.138,2.897 v -2.897 m 5.967,2.897 v -5.794 m 5.967,5.794 v -2.897 m 5.967,2.897 v -2.897 m 6.138,2.897 v -2.897 m 5.966,2.897 v -5.794 M 151.559,617.69 v 113.999 m 0,-113.999 h 5.796 m -13.809,2.897 -0.682,-0.171 -0.682,-0.852 -0.17,-1.363 v -0.852 l 0.17,-1.363 0.682,-0.852 0.682,-0.17 h 0.681 l 0.683,0.17 0.682,0.852 0.171,1.363 v 0.852 l -0.171,1.363 -0.682,0.852 -0.683,0.171 h -0.681 l -0.511,-0.171 -0.171,-0.341 -0.342,-0.511 -0.34,-1.363 v -0.852 l 0.34,-1.363 0.342,-0.512 0.171,-0.34 0.511,-0.17 m 0.681,0 0.513,0.17 0.17,0.34 0.341,0.512 0.341,1.363 v 0.852 l -0.341,1.363 -0.341,0.511 -0.17,0.341 -0.513,0.171 m 7.332,3.749 h 2.899 m -2.899,6.475 h 2.899 m -2.899,6.475 h 2.899 m -2.899,6.476 h 2.899 m -2.899,6.474 h 5.796 m -21.992,2.897 -0.853,-0.17 -0.511,-0.852 -0.171,-1.364 v -0.851 l 0.171,-1.364 0.511,-0.851 0.853,-0.171 h 0.511 l 0.853,0.171 0.511,0.851 0.341,1.364 v 0.851 l -0.341,1.364 -0.511,0.852 -0.853,0.17 h -0.511 l -0.511,-0.17 -0.342,-0.341 -0.171,-0.511 -0.34,-1.364 v -0.851 l 0.34,-1.364 0.171,-0.511 0.342,-0.34 0.511,-0.171 m 0.511,0 0.683,0.171 0.17,0.34 0.341,0.511 0.17,1.364 v 0.851 l -0.17,1.364 -0.341,0.511 -0.17,0.341 -0.683,0.17 m 3.922,-5.112 -0.342,-0.34 0.342,-0.171 0.341,0.171 -0.341,0.34 m 3.068,4.09 0.511,0.171 0.852,0.851 v -5.623 m -0.34,5.453 v -5.453 m -1.023,0 h 2.387 m 6.308,9.372 h 2.899 m -2.899,6.476 h 2.899 m -2.899,6.475 h 2.899 m -2.899,6.476 h 2.899 m -2.899,6.474 h 5.796 m -21.992,2.897 -0.853,-0.17 m 0,0 -0.511,-0.853 -0.171,-1.362 v -0.853 l 0.171,-1.363 0.511,-0.851 0.853,-0.171 h 0.511 l 0.853,0.171 0.511,0.851 0.341,1.363 v 0.853 l -0.341,1.362 -0.511,0.853 -0.853,0.17 h -0.511 l -0.511,-0.17 -0.342,-0.34 -0.171,-0.513 -0.34,-1.362 v -0.853 l 0.34,-1.363 0.171,-0.511 0.342,-0.34 0.511,-0.171 m 0.511,0 0.683,0.171 0.17,0.34 0.341,0.511 0.17,1.363 v 0.853 l -0.17,1.362 -0.341,0.513 -0.17,0.34 -0.683,0.17 m 3.922,-5.112 -0.342,-0.34 0.342,-0.171 0.341,0.171 -0.341,0.34 m 2.386,4.089 0.34,-0.34 -0.34,-0.171 -0.17,0.171 v 0.34 l 0.17,0.513 0.34,0.34 0.853,0.17 h 1.023 l 0.853,-0.17 0.341,-0.34 0.171,-0.513 v -0.511 l -0.171,-0.681 -0.852,-0.512 -1.365,-0.511 -0.511,-0.341 -0.682,-0.51 -0.17,-0.852 v -0.682 m 2.386,5.623 0.512,-0.17 0.341,-0.34 0.341,-0.513 v -0.511 l -0.341,-0.681 -0.853,-0.512 -1.023,-0.511 m -1.363,-1.874 0.17,0.171 h 0.682 l 1.363,-0.511 h 0.683 l 0.682,0.34 0.171,0.171 m -2.899,0 1.363,-0.682 h 1.024 l 0.341,0.171 0.171,0.511 v 0.681 m 5.796,8.009 h 2.899 m -2.899,6.475 h 2.899 m -2.899,6.475 h 2.899 m -2.899,6.476 h 2.899 m -2.899,6.645 h 5.796 m -21.992,2.726 -0.853,-0.169 -0.511,-0.853 -0.171,-1.363 v -0.852 l 0.171,-1.363 0.511,-0.852 0.853,-0.171 h 0.511 l 0.853,0.171 0.511,0.852 0.341,1.363 v 0.852 l -0.341,1.363 -0.511,0.853 -0.853,0.169 h -0.511 l -0.511,-0.169 -0.342,-0.341 -0.171,-0.512 -0.34,-1.363 v -0.852 l 0.34,-1.363 0.171,-0.511 0.342,-0.341 0.511,-0.171 m 0.511,0 0.683,0.171 0.17,0.341 0.341,0.511 0.17,1.363 v 0.852 l -0.17,1.363 -0.341,0.512 -0.17,0.341 -0.683,0.169 m 3.922,-5.111 -0.342,-0.341 0.342,-0.171 0.341,0.171 -0.341,0.341 m 2.386,4.089 0.34,-0.34 -0.34,-0.17 -0.17,0.17 v 0.34 l 0.17,0.512 0.34,0.341 0.853,0.169 h 1.023 l 0.853,-0.169 0.341,-0.512 v -0.851 l -0.341,-0.512 -0.853,-0.341 h -0.852 m 0.852,2.385 0.512,-0.169 0.341,-0.512 v -0.851 l -0.341,-0.512 -0.512,-0.341 0.512,-0.341 0.682,-0.511 0.171,-0.511 v -0.852 l -0.171,-0.511 -0.341,-0.341 -0.853,-0.171 h -1.023 l -0.853,0.171 -0.34,0.341 -0.17,0.511 v 0.341 l 0.17,0.171 0.34,-0.171 -0.34,-0.341 m 3.069,1.704 0.341,-0.852 v -0.852 l -0.341,-0.511 -0.341,-0.341 -0.512,-0.171 m 7.161,9.372 h 2.899 m -2.899,6.476 h 2.899 M 295.79,617.69 v 113.999 m 0,-113.999 h -5.796 m 5.796,6.646 h -2.898 m 2.898,6.475 h -2.898 m 2.898,6.475 h -2.898 m 2.898,6.476 h -2.898 m 2.898,6.474 h -5.796 m 5.796,6.646 h -2.898 m 2.898,6.476 h -2.898 m 2.898,6.475 h -2.898 m 2.898,6.476 h -2.898 m 2.898,6.474 h -5.796 m 5.796,6.646 h -2.898 m 2.898,6.475 h -2.898 m 2.898,6.475 h -2.898 m 2.898,6.476 h -2.898 m 2.898,6.645 h -5.796 m 5.796,6.475 h -2.898 m 2.898,6.476 h -2.898 M 209.354,602.012 v -8.69 m 0.17,8.69 v -8.69 m -0.17,8.69 h 1.875 m -1.875,-8.69 h 1.875 m 2.216,7.668 v -5.793 m 0.171,5.793 v -5.793 m 1.705,4.089 v -2.215 m -2.728,3.919 h 4.432 v -1.704 l -0.341,1.704 m -3.068,-2.726 h 1.705 m -2.728,-3.067 h 1.875 m 4.092,2.215 h 3.409 v 0.511 l -0.341,0.512 -0.34,0.34 -0.511,0.341 h -0.854 l -0.681,-0.341 -0.682,-0.511 -0.17,-0.852 v -0.511 l 0.17,-0.852 0.682,-0.512 0.681,-0.34 h 0.683 l 0.682,0.34 0.681,0.512 m -0.341,1.363 v 0.852 l -0.34,0.511 m -1.365,0.341 -0.511,-0.341 -0.512,-0.511 -0.34,-0.852 v -0.511 l 0.34,-0.852 0.512,-0.512 0.511,-0.34 m 8.184,6.815 -4.774,-8.69 m 6.82,7.668 v -5.793 m 0.171,5.793 v -5.793 m 3.409,5.793 v -5.793 m 0.171,5.793 v -5.793 m -4.604,5.793 h 1.876 m 1.705,0 h 1.875 m -4.432,-2.726 h 3.409 m -4.433,-3.067 h 1.876 m 1.705,0 h 1.875 m 3.069,6.815 v -8.69 m 0.17,8.69 v -8.69 m -1.875,8.69 h 1.875 m -1.875,-8.69 h 1.875 M 120.36,632.174 h 5.626 m -5.626,0.341 h 5.626 m -5.626,-1.193 v 3.238 l 0.17,0.852 0.342,0.34 0.511,0.171 h 0.511 l 0.512,-0.171 0.341,-0.34 0.341,-0.852 v -2.045 m -2.728,2.045 0.17,0.681 0.342,0.171 0.511,0.34 h 0.511 l 0.512,-0.34 0.341,-0.171 0.341,-0.681 m 2.898,-3.238 v 1.874 m -2.898,0.682 0.17,0.511 0.341,0.171 1.875,0.852 0.341,0.34 v 0.171 l -0.341,0.341 m -2.216,-1.875 0.511,0.171 2.046,0.681 0.171,0.171 v 0.511 l -0.512,0.341 h -0.34 m -1.365,1.704 v 3.238 h -0.511 l -0.511,-0.341 -0.341,-0.171 -0.171,-0.512 v -0.852 l 0.171,-0.851 0.682,-0.511 0.681,-0.342 h 0.683 l 0.682,0.342 0.681,0.511 0.171,0.851 v 0.512 l -0.171,0.852 -0.681,0.512 m -1.365,-0.341 h -0.681 l -0.682,-0.171 m -0.171,-1.364 0.171,-0.681 0.682,-0.512 0.681,-0.169 h 0.683 l 0.682,0.169 0.681,0.512 0.171,0.681 m -5.626,4.091 h 5.626 m -5.626,0.171 h 5.626 m -5.626,-1.024 v 1.024 m 5.626,-1.024 v 1.875 m -3.239,1.874 h 0.341 v -0.17 h -0.341 l -0.341,0.17 -0.171,0.681 v 1.023 l 0.171,0.511 0.341,0.341 0.511,0.171 h 1.876 l 0.681,0.341 0.171,0.34 m -3.239,-0.852 h 2.387 l 0.681,0.171 0.171,0.681 v 0.171 m -2.728,-1.023 0.341,-0.341 0.17,-1.534 0.342,-0.851 0.511,-0.341 h 0.512 l 0.681,0.341 0.171,0.851 v 0.683 l -0.171,0.681 -0.681,0.511 m -1.365,-1.875 0.342,-0.681 0.511,-0.17 h 0.512 l 0.681,0.17 0.171,0.681 m -5.626,4.942 h 4.603 l 0.852,0.171 0.171,0.511 v 0.682 l -0.171,0.511 -0.681,0.171 m -4.774,-1.875 h 4.603 l 0.852,0.34 0.171,0.171 m -3.751,-1.533 v 2.215 m -1.875,2.727 0.17,-0.342 0.342,0.342 -0.342,0.169 -0.17,-0.169 m 1.875,0 h 3.751 m -3.751,0.169 h 3.751 m -3.751,-1.022 v 1.022 m 3.751,-1.022 v 1.875 m -3.751,1.362 3.751,1.704 m -3.751,-1.362 3.239,1.362 m -3.239,1.534 3.751,-1.534 m -3.751,-2.215 v 1.534 m 0,1.193 v 1.534 m 1.534,1.363 v 3.408 h -0.511 l -0.511,-0.341 -0.341,-0.17 -0.171,-0.682 v -0.681 l 0.171,-0.852 0.682,-0.682 0.681,-0.17 h 0.683 l 0.682,0.17 0.681,0.682 0.171,0.852 v 0.511 l -0.171,0.852 -0.681,0.511 m -1.365,-0.341 h -0.681 l -0.682,-0.17 m -0.171,-1.363 0.171,-0.683 0.682,-0.511 0.681,-0.34 h 0.683 l 0.682,0.34 0.681,0.511 0.171,0.683 m -5.456,9.712 0.342,-0.17 0.169,0.17 -0.169,0.342 h -0.342 l -0.17,-0.342 v -0.511 l 0.17,-0.511 0.511,-0.341 h 4.945 m -5.626,0.852 0.17,-0.341 0.511,-0.17 h 4.945 m -3.751,-1.192 v 2.214 m 3.751,-2.214 v 2.044 m -3.751,2.386 h 3.751 m -3.751,0.341 h 3.751 m -2.217,0 -0.681,0.17 -0.682,0.681 -0.171,0.512 v 0.852 l 0.171,0.17 h 0.341 l 0.341,-0.17 -0.341,-0.342 -0.341,0.342 m -0.171,-3.409 v 1.194 m 3.751,-1.194 v 2.045 m -2.217,3.238 v 3.237 h -0.511 l -0.511,-0.34 -0.341,-0.171 -0.171,-0.51 v -0.853 l 0.171,-0.851 0.682,-0.512 0.681,-0.341 h 0.683 l 0.682,0.341 0.681,0.512 0.171,0.851 v 0.512 l -0.171,0.851 -0.681,0.511 m -1.365,-0.34 h -0.681 l -0.682,-0.171 m -0.171,-1.363 0.171,-0.511 0.682,-0.681 0.681,-0.171 h 0.683 l 0.682,0.171 0.681,0.681 0.171,0.511 m -3.751,6.816 h 5.797 m -5.797,0.342 h 5.797 m -4.944,-0.342 -0.682,-0.511 -0.171,-0.511 v -0.682 l 0.171,-0.852 0.682,-0.511 0.681,-0.17 h 0.683 l 0.682,0.17 0.681,0.511 0.171,0.852 v 0.682 l -0.171,0.511 -0.681,0.511 m -2.899,-1.704 0.171,-0.511 0.682,-0.511 0.681,-0.341 h 0.683 l 0.682,0.341 0.681,0.511 0.171,0.511 m 2.046,0.852 v 1.875 m -5.797,1.703 h 2.899 l 0.681,0.342 0.171,0.682 v 0.681 l -0.171,0.681 -0.681,0.682 m -2.899,-2.726 h 2.899 l 0.681,0.17 0.171,0.512 m -3.751,2.044 h 3.751 m -3.751,0.171 h 3.751 m -3.751,-4.09 v 1.193 m 0,1.874 v 1.023 m 3.751,-0.171 v 1.023 m -2.217,1.704 v 3.237 h -0.511 l -0.511,-0.341 -0.341,-0.17 -0.171,-0.511 v -0.853 l 0.171,-0.851 0.682,-0.511 0.681,-0.342 h 0.683 l 0.682,0.342 0.681,0.511 0.171,0.851 v 0.512 l -0.171,0.852 -0.681,0.511 m -1.365,-0.341 h -0.681 l -0.682,-0.17 m -0.171,-1.364 0.171,-0.68 0.682,-0.512 0.681,-0.17 h 0.683 l 0.682,0.17 0.681,0.512 0.171,0.68 m -3.751,4.09 h 3.751 m -3.751,0.171 h 3.751 m -2.898,0 -0.682,0.681 -0.171,0.682 v 0.682 l 0.171,0.681 0.682,0.341 h 2.898 m -3.751,-1.022 0.171,0.511 0.682,0.17 h 2.898 m -3.751,-3.749 v 1.023 m 3.751,-1.023 v 1.875 m 0,1.193 v 1.874 m -2.898,4.601 0.17,-0.171 0.341,0.171 -0.341,0.34 h -0.17 l -0.682,-0.511 -0.171,-0.682 v -0.851 l 0.171,-0.681 0.682,-0.682 0.681,-0.171 h 0.683 l 0.682,0.171 0.681,0.682 0.171,0.681 v 0.681 l -0.171,0.852 -0.681,0.511 m -2.899,-2.044 0.171,-0.511 0.682,-0.512 0.681,-0.34 h 0.683 l 0.682,0.34 0.681,0.512 0.171,0.511 m -3.751,3.919 3.751,1.704 m -3.751,-1.363 3.239,1.363 m -3.239,1.534 3.751,-1.534 1.193,-0.682 0.512,-0.511 0.341,-0.511 v -0.34 l -0.341,-0.171 -0.341,0.171 0.341,0.34 m -5.456,-0.511 v 1.533 m 0,1.194 v 1.532"
         style="fill:none;stroke:#ffffff;stroke-width:0.473;stroke-linecap:butt;stroke-linejoin:round;stroke-miterlimit:10;stroke-dasharray:none;stroke-opacity:1"
         transform="matrix(1.3333333,0,0,-1.3333333,0,1056)"
         clip-path="url(#clipPath12)" /><path
         id="path13"
         d="m 151.559,617.69 h 12.104 v 0.17 h 11.935 v 0.511 h 12.104 v 2.387 h 11.934 v 19.766 h 12.104 v 32.035 h 11.934 v 31.865 h 12.105 v -1.363 h 11.934 v -43.282 h 11.934 v -21.13 h 12.105 v -13.632 h 11.934 v -5.794 h 12.104 v -1.022"
         style="fill:none;stroke:#74c7ec;stroke-width:0.947;stroke-linecap:butt;stroke-linejoin:round;stroke-miterlimit:10;stroke-dasharray:none;stroke-opacity:1"
         transform="matrix(1.3333333,0,0,-1.3333333,0,1056)" /><path
         id="path14"
         d="m 151.559,617.69 h 12.104 v 0.681 h 11.935 v 4.43 h 12.104 v 22.494 h 11.934 v 36.977 h 12.104 v 28.968 h 11.934 v -15.166 h 12.105 v -41.578 h 11.934 v -23.685 h 11.934 v -7.839 h 12.105 v -4.43 h 11.934 v -0.341 h 12.104 v -0.511"
         style="fill:none;stroke:#74c7ec;stroke-width:0.237;stroke-linecap:butt;stroke-linejoin:round;stroke-miterlimit:10;stroke-dasharray:none;stroke-opacity:1"
         transform="matrix(1.3333333,0,0,-1.3333333,0,1056)" /><path
         id="path15"
         d="m 151.559,617.69 h 24.039 v 0.34 h 12.104 v 3.749 h 11.934 v 20.278 h 12.104 v 54.359 h 11.934 v 33.227 h 12.105 v -36.125 h 11.934 V 642.91 m 0,0 h 11.934 v -20.278 h 12.105 v -4.431 h 11.934 v -0.511 h 12.104"
         style="fill:none;stroke:#a6e3a1;stroke-width:0.947;stroke-linecap:butt;stroke-linejoin:round;stroke-miterlimit:10;stroke-dasharray:none;stroke-opacity:1"
         transform="matrix(1.3333333,0,0,-1.3333333,0,1056)" /><path
         id="path16"
         d="m 151.559,617.69 h 24.039 v 1.192 h 12.104 v 12.269 h 11.934 v 42.431 h 12.104 v 55.039 h 11.934 v -18.573 h 12.105 v -50.269 h 11.934 V 626.21 h 11.934 v -6.987 h 12.105 v -1.533 h 24.038"
         style="fill:none;stroke:#a6e3a1;stroke-width:0.237;stroke-linecap:butt;stroke-linejoin:round;stroke-miterlimit:10;stroke-dasharray:none;stroke-opacity:1"
         transform="matrix(1.3333333,0,0,-1.3333333,0,1056)" /><path
         id="path17"
         d="m 151.559,629.277 v 5.112 h 12.104 v 10.224 h 11.935 v 14.996 h 12.104 v 18.573 h 11.934 v -2.045 h 12.104 v -4.601 h 11.934 V 651.6 h 12.105 v -18.574 h 11.934 v -13.973 h 11.934 v -1.193 h 12.105 v -0.17 H 295.79 M 157.697,721.975 h 7.16"
         style="fill:none;stroke:#ffffff;stroke-width:0.947;stroke-linecap:butt;stroke-linejoin:round;stroke-miterlimit:10;stroke-dasharray:none;stroke-opacity:1"
         transform="matrix(1.3333333,0,0,-1.3333333,0,1056)" /><path
         id="path18"
         d="m 170.995,724.191 0.169,-0.681 v 1.362 l -0.169,-0.681 -0.513,0.51 -0.681,0.171 h -0.341 l -0.682,-0.171 -0.511,-0.51 -0.171,-0.341 -0.171,-0.681 v -1.194 l 0.171,-0.51 0.171,-0.512 0.511,-0.511 0.682,-0.171 h 0.341 l 0.681,0.171 0.513,0.511 m -1.535,3.919 -0.512,-0.171 -0.34,-0.51 -0.341,-0.341 -0.171,-0.681 v -1.194 l 0.171,-0.51 0.341,-0.512 0.34,-0.511 0.512,-0.171 m 1.535,1.704 v -1.704 m 0.169,1.704 v -1.704 m -0.852,1.704 h 1.535 m 1.193,0.342 h 4.091 m 4.433,1.874 0.342,-0.681 v 1.362 l -0.342,-0.681 -0.34,0.51 -0.683,0.171 h -0.34 l -0.683,-0.171 -0.511,-0.51 -0.171,-0.341 -0.34,-0.681 v -1.194 l 0.34,-0.51 0.171,-0.512 0.511,-0.511 0.683,-0.171 h 0.34 l 0.683,0.171 0.34,0.511 0.342,0.512 m -1.705,3.407 -0.512,-0.171 -0.511,-0.51 -0.171,-0.341 -0.171,-0.681 v -1.194 l 0.171,-0.51 0.171,-0.512 0.511,-0.511 0.512,-0.171 m 8.694,2.727 0.17,0.341 v -0.852 l -0.17,0.511 -0.341,0.171 -0.341,0.17 h -0.852 l -0.511,-0.17 -0.171,-0.171 v -0.511 l 0.171,-0.17 0.511,-0.342 1.534,-0.51 0.17,-0.341 m -2.386,1.533 0.171,-0.17 0.511,-0.17 1.023,-0.511 0.511,-0.171 0.17,-0.17 v -0.683 l -0.17,-0.34 -0.511,-0.171 h -0.852 l -0.342,0.171 -0.34,0.34 -0.171,0.342 v -0.853 l 0.171,0.511 m 3.921,2.557 v -2.386 l 0.341,-0.511 0.512,-0.171 h 0.511 l 0.681,0.171 0.342,0.511 m -2.046,2.386 v -2.386 l 0.171,-0.511 0.341,-0.171 m 1.534,3.068 v -3.068 m 0.34,3.068 v -3.068 m -3.409,3.068 h 1.023 m 1.534,0 h 0.852 m -0.34,-3.068 h 1.022 m 1.535,3.068 v -3.068 m 0.17,3.068 v -3.068 m 0,1.704 0.171,0.682 0.511,0.512 0.341,0.17 h 0.682 l 0.171,-0.17 v -0.171 l -0.171,-0.341 -0.17,0.341 0.17,0.171 m -2.557,0.17 h 0.852 m -0.852,-3.068 h 1.534 m 2.386,3.068 1.194,-3.068 m -1.023,3.068 1.023,-2.557 m 1.364,2.557 -1.364,-3.068 m -1.705,3.068 h 1.364 m 0.853,0 h 1.364 m 1.023,-1.364 h 2.557 v 0.512 l -0.17,0.511 -0.171,0.171 -0.511,0.17 h -0.512 l -0.682,-0.17 -0.511,-0.512 -0.171,-0.682 v -0.34 l 0.171,-0.682 0.511,-0.511 0.682,-0.171 h 0.341 l 0.682,0.171 0.341,0.511 m -0.17,1.022 v 0.682 l -0.171,0.512 m -1.023,0.17 -0.511,-0.17 -0.512,-0.512 -0.17,-0.682 v -0.34 l 0.17,-0.682 0.512,-0.511 0.511,-0.171 m 2.899,3.068 1.363,-3.068 m -1.023,3.068 1.023,-2.557 m 1.365,2.557 -1.365,-3.068 -0.34,-0.851 -0.512,-0.511 -0.511,-0.171 h -0.171 l -0.171,0.171 0.171,0.34 0.171,-0.34 m -0.342,4.43 h 1.365 m 0.852,0 h 1.193 m -39.553,-12.099 0.342,0.683 v -1.364 l -0.342,0.681 -0.341,0.341 -0.682,0.342 h -0.682 l -0.681,-0.342 -0.342,-0.341 v -0.511 l 0.171,-0.341 0.171,-0.34 0.511,-0.17 1.364,-0.342 0.34,-0.34 0.513,-0.341 m -3.07,1.874 0.342,-0.341 0.511,-0.34 1.364,-0.341 0.34,-0.171 0.171,-0.34 0.342,-0.341 v -0.852 l -0.513,-0.511 -0.681,-0.171 h -0.682 l -0.511,0.171 -0.512,0.511 -0.171,0.511 v -1.193 l 0.171,0.682 m 4.604,3.92 -0.171,-0.342 0.171,-0.171 0.169,0.171 -0.169,0.342 m 0,-1.535 v -3.067 m 0.169,3.067 v -3.067 m -0.852,3.067 h 0.852 m -0.852,-3.067 h 1.535 m 4.092,3.919 0.34,-0.681 v 1.364 l -0.34,-0.683 -0.342,0.341 -0.682,0.342 h -0.511 l -0.511,-0.342 -0.513,-0.341 -0.17,-0.511 -0.341,-0.681 v -1.023 l 0.341,-0.681 0.17,-0.341 0.513,-0.511 0.511,-0.171 h 0.511 l 0.682,0.171 0.342,0.511 0.34,0.341 m -1.875,3.579 -0.341,-0.342 -0.511,-0.341 -0.172,-0.511 -0.17,-0.681 v -1.023 l 0.17,-0.681 0.172,-0.341 0.511,-0.511 0.341,-0.171 m 8.354,5.453 -0.342,-0.511 -0.511,-0.682 -0.511,-0.852 -0.171,-1.022 v -0.852 l 0.171,-1.193 0.511,-0.852 0.511,-0.682 0.342,-0.34 m -0.342,6.475 -0.511,-0.853 -0.17,-0.681 -0.341,-1.022 v -0.852 l 0.341,-1.193 0.17,-0.682 0.511,-0.852 m 1.876,5.795 0.853,-4.602 m -0.683,4.602 0.683,-3.579 m 0.852,3.579 -0.852,-4.602 m 0.852,4.602 0.852,-4.602 m -0.511,4.602 0.511,-3.579 m 1.024,3.579 -1.024,-4.602 m -3.239,4.602 h 1.535 m 2.045,0 h 1.194 m 1.194,0 0.852,-4.602 m -0.682,4.602 0.682,-3.579 m 0.852,3.579 -0.852,-4.602 m 0.852,4.602 0.853,-4.602 m -0.682,4.602 0.682,-3.579 m 0.852,3.579 -0.852,-4.602 m -3.24,4.602 h 1.535 m 2.045,0 h 1.194 m 3.75,-1.535 -0.171,-0.681 -0.511,-0.511 -0.681,-0.171 h -0.171 l -0.682,0.171 -0.341,0.511 -0.34,0.681 v 0.171 l 0.34,0.681 0.341,0.341 0.682,0.342 h 0.512 l 0.511,-0.342 0.511,-0.341 0.171,-0.681 v -1.363 l -0.171,-0.852 -0.171,-0.341 -0.511,-0.511 -0.681,-0.171 h -0.512 l -0.511,0.171 -0.171,0.511 v 0.171 l 0.171,0.17 0.17,-0.17 -0.17,-0.171 m 0.852,1.022 -0.341,0.171 -0.511,0.511 -0.171,0.681 v 0.171 l 0.171,0.681 0.511,0.341 0.341,0.342 m 0.512,0 0.34,-0.342 0.511,-0.341 0.171,-0.681 v -1.363 l -0.171,-0.852 -0.34,-0.341 -0.341,-0.511 -0.511,-0.171 m 3.41,4.602 -0.512,-2.216 0.512,0.341 0.511,0.34 h 0.682 l 0.682,-0.34 0.511,-0.341 0.171,-0.682 v -0.511 l -0.171,-0.511 -0.511,-0.511 -0.682,-0.171 h -0.682 l -0.511,0.171 -0.342,0.17 -0.17,0.512 v 0.17 l 0.17,0.17 0.342,-0.17 -0.342,-0.17 m 1.535,2.214 0.511,-0.34 0.341,-0.341 0.341,-0.682 v -0.511 l -0.682,-1.022 -0.511,-0.171 m -1.193,4.602 h 2.045 m -2.045,-0.342 h 1.023 l 1.022,0.342 m 1.875,0.851 0.342,-0.511 0.511,-0.682 0.341,-0.852 0.341,-1.022 v -0.852 l -0.341,-1.193 -0.341,-0.852 -0.511,-0.682 -0.342,-0.34 m 0.342,6.475 0.511,-0.853 0.171,-0.681 0.17,-1.022 v -0.852 l -0.17,-1.193 -0.171,-0.682 -0.511,-0.852"
         style="fill:none;stroke:#ffffff;stroke-width:0.473;stroke-linecap:butt;stroke-linejoin:round;stroke-miterlimit:10;stroke-dasharray:none;stroke-opacity:1"
         transform="matrix(1.3333333,0,0,-1.3333333,0,1056)" /><path
         id="path19"
         d="m 157.697,708.855 h 7.16"
         style="fill:none;stroke:#74c7ec;stroke-width:0.947;stroke-linecap:butt;stroke-linejoin:round;stroke-miterlimit:10;stroke-dasharray:none;stroke-opacity:1"
         transform="matrix(1.3333333,0,0,-1.3333333,0,1056)" /><path
         id="path20"
         d="m 170.653,717.716 0.342,0.681 v -1.364 l -0.342,0.683 -0.341,0.51 -0.682,0.171 h -0.682 l -0.681,-0.171 -0.342,-0.51 v -0.512 l 0.171,-0.34 0.171,-0.17 0.511,-0.342 1.364,-0.341 0.34,-0.34 0.513,-0.341 m -3.07,1.874 0.342,-0.34 0.511,-0.17 1.364,-0.512 0.34,-0.171 0.171,-0.34 0.342,-0.341 v -0.852 l -0.513,-0.511 -0.681,-0.171 h -0.682 l -0.511,0.171 -0.512,0.511 -0.171,0.682 v -1.364 l 0.171,0.682 m 4.604,3.919 -0.171,-0.171 0.171,-0.339 0.169,0.339 -0.169,0.171 m 0,-1.533 v -3.068 m 0.169,3.068 v -3.068 m -0.852,3.068 h 0.852 m -0.852,-3.068 h 1.535 m 4.092,3.92 0.34,-0.683 v 1.364 l -0.34,-0.681 -0.342,0.51 -0.682,0.171 h -0.511 l -0.511,-0.171 -0.513,-0.51 -0.17,-0.512 -0.341,-0.51 V 715.5 l 0.341,-0.682 0.17,-0.34 0.513,-0.511 0.511,-0.171 h 0.511 l 0.682,0.171 0.342,0.511 0.34,0.34 m -1.875,3.579 -0.341,-0.171 -0.511,-0.51 -0.172,-0.512 -0.17,-0.51 V 715.5 l 0.17,-0.682 0.172,-0.34 0.511,-0.511 0.341,-0.171 m 8.354,5.453 -0.342,-0.511 -0.511,-0.512 -0.511,-1.022 -0.171,-1.022 v -0.852 l 0.171,-1.192 0.511,-0.853 0.511,-0.511 0.342,-0.511 m -0.342,6.475 -0.511,-0.851 -0.17,-0.683 -0.341,-1.022 v -0.852 l 0.341,-1.192 0.17,-0.512 0.511,-0.852 m 2.046,5.623 v -4.601 m 0.342,4.601 v -4.601 m 2.727,4.601 -2.727,-2.897 m 1.023,0.852 1.704,-2.556 m -1.875,2.556 1.704,-2.556 m -3.409,4.601 h 1.534 m 1.194,0 h 1.363 m -4.091,-4.601 h 1.534 m 1.194,0 h 1.363 m 2.217,4.601 -0.681,-0.171 -0.512,-0.681 -0.171,-1.193 v -0.681 l 0.171,-1.022 0.512,-0.682 0.681,-0.171 h 0.341 l 0.682,0.171 0.511,0.682 0.171,1.022 v 0.681 l -0.171,1.193 -0.511,0.681 -0.682,0.171 h -0.341 l -0.511,-0.171 -0.17,-0.339 -0.171,-0.342 -0.341,-1.193 v -0.681 l 0.341,-1.022 0.171,-0.511 0.17,-0.171 0.511,-0.171 m 0.341,0 0.511,0.171 0.171,0.171 0.171,0.511 0.34,1.022 v 0.681 l -0.34,1.193 -0.171,0.342 -0.171,0.339 -0.511,0.171 m 5.285,-0.681 -0.17,-0.171 0.17,-0.341 0.171,0.341 v 0.171 l -0.171,0.51 -0.341,0.171 h -0.682 l -0.682,-0.171 -0.511,-0.51 -0.171,-0.512 -0.17,-0.852 v -1.192 l 0.17,-0.682 0.512,-0.511 0.512,-0.171 h 0.511 l 0.682,0.171 0.341,0.511 0.341,0.682 v 0.17 l -0.341,0.681 -0.341,0.341 -0.682,0.342 h -0.171 l -0.682,-0.342 -0.511,-0.341 -0.171,-0.681 m 1.364,3.067 -0.511,-0.171 -0.341,-0.51 -0.341,-0.512 -0.171,-0.852 v -1.192 l 0.171,-0.682 0.511,-0.511 0.342,-0.171 m 0.511,0 0.511,0.171 0.341,0.511 0.171,0.682 v 0.17 l -0.171,0.681 -0.341,0.341 -0.511,0.342 m 2.557,2.555 0.511,-0.511 0.512,-0.512 0.341,-1.022 0.17,-1.022 v -0.852 l -0.17,-1.192 -0.341,-0.853 -0.512,-0.511 -0.511,-0.511 m 0.511,6.475 0.512,-0.851 0.171,-0.683 0.17,-1.022 v -0.852 l -0.17,-1.192 -0.171,-0.512 -0.512,-0.852"
         style="fill:none;stroke:#ffffff;stroke-width:0.473;stroke-linecap:butt;stroke-linejoin:round;stroke-miterlimit:10;stroke-dasharray:none;stroke-opacity:1"
         transform="matrix(1.3333333,0,0,-1.3333333,0,1056)" /><path
         id="path21"
         d="m 157.697,715.5 h 7.16"
         style="fill:none;stroke:#a6e3a1;stroke-width:0.947;stroke-linecap:butt;stroke-linejoin:round;stroke-miterlimit:10;stroke-dasharray:none;stroke-opacity:1"
         transform="matrix(1.3333333,0,0,-1.3333333,0,1056)" /></g></g><g
     id="4 - Annotations"
     inkscape:groupmode="layer"
     inkscape:label="4 - Annotations"
     transform="matrix(0.26458333,0,0,0.26458334,-42.3769,-20.171311)" /></svg>
