<?xml version="1.0" encoding="UTF-8" standalone="no"?>
<svg
   width="453.54px"
   height="377.95px"
   version="1.1"
   id="svg197"
   sodipodi:docname="stellar_models_5.svg"
   inkscape:version="1.3.2 (091e20ef0f, 2023-11-25)"
   xmlns:inkscape="http://www.inkscape.org/namespaces/inkscape"
   xmlns:sodipodi="http://sodipodi.sourceforge.net/DTD/sodipodi-0.dtd"
   xmlns:xlink="http://www.w3.org/1999/xlink"
   xmlns="http://www.w3.org/2000/svg"
   xmlns:svg="http://www.w3.org/2000/svg">
  <sodipodi:namedview
     id="namedview197"
     pagecolor="#ffffff"
     bordercolor="#000000"
     borderopacity="0.25"
     inkscape:showpageshadow="2"
     inkscape:pageopacity="0.0"
     inkscape:pagecheckerboard="0"
     inkscape:deskcolor="#d1d1d1"
     inkscape:zoom="2.5042994"
     inkscape:cx="191.27106"
     inkscape:cy="220.22127"
     inkscape:window-width="1888"
     inkscape:window-height="1021"
     inkscape:window-x="1948"
     inkscape:window-y="1098"
     inkscape:window-maximized="0"
     inkscape:current-layer="svg197" />
  <desc
     id="desc1">Veusz output document</desc>
  <defs
     id="defs7">
    <clipPath
       id="c0">
      <path
         d="m0,0l453.54,0l0,377.95l-453.54,0l0,-377.95"
         id="path1" />
    </clipPath>
    <clipPath
       id="c1">
      <path
         d="m91.31,27.94l18.89,0l0,15.6l-18.89,0l0,-15.6"
         id="path2" />
    </clipPath>
    <clipPath
       id="c2">
      <path
         d="m91.31,43.54l18.89,0l0,15.6l-18.89,0l0,-15.6"
         id="path3" />
    </clipPath>
    <clipPath
       id="c3">
      <path
         d="m91.31,59.14l18.89,0l0,15.6l-18.89,0l0,-15.6"
         id="path4" />
    </clipPath>
    <clipPath
       id="c4">
      <path
         d="m91.31,74.74l18.89,0l0,15.6l-18.89,0l0,-15.6"
         id="path5" />
    </clipPath>
    <clipPath
       id="c5">
      <path
         d="m91.31,90.34l18.89,0l0,15.6l-18.89,0l0,-15.6"
         id="path6" />
    </clipPath>
    <clipPath
       id="c6">
      <path
         d="m71.81,10.39l374.17,0l0,311.81l-374.17,0l0,-311.81"
         id="path7" />
    </clipPath>
  </defs>
  <g
     stroke-linejoin="bevel"
     stroke-linecap="square"
     stroke="#000000"
     fill-rule="evenodd"
     id="g197">
    <g
       clip-path="url(#c0)"
       id="g13">
      <g
         fill="#1a1e22"
         stroke="none"
         stroke-width="0.1"
         id="g8">
        <path
           d="m0,0l453.54,0l0,377.95l-453.54,0l0,-377.95"
           id="path8" />
      </g>
      <g
         fill="#1a1e22"
         stroke-width="0.66"
         id="g9">
        <path
           d="m71.81,10.39l374.17,0l0,311.81l-374.17,0l0,-311.81"
           id="path9" />
      </g>
      <g
         fill="none"
         stroke="#aaaaaa"
         stroke-width="0.1"
         id="g10" />
      <g
         fill="#1a1e22"
         stroke="none"
         stroke-width="0.1"
         id="g11">
        <path
           d="m87.41,25.99l136.13,0l0,81.9l-136.13,0l0,-81.9"
           id="p0" />
      </g>
      <g
         fill="none"
         stroke="#ffffff"
         stroke-width="0.66"
         id="g12">
        <use
           xlink:href="#p0"
           id="use11" />
      </g>
    </g>
    <g
       clip-path="url(#c1)"
       id="g18">
      <g
         fill="none"
         stroke="#fc8d62"
         stroke-linecap="butt"
         stroke-width="0.66"
         id="g14">
        <path
           d="M100.75,35.74l0,0"
           id="path13" />
      </g>
      <g
         fill="none"
         stroke="#fc8d62"
         stroke-width="0.66"
         id="g15">
        <path
           d="M91.31,35.74l18.89,0"
           id="path14" />
      </g>
      <g
         fill="#fc8d62"
         stroke-linejoin="miter"
         stroke-width="0.66"
         id="g17">
        <g
           transform="translate(100.75,35.74)"
           id="g16">
          <path
             d="m0,4l3.46,-2l0,-4l-3.46,-2l-3.46,2l0,4l3.46,2"
             id="path15" />
        </g>
      </g>
    </g>
    <g
       fill="none"
       stroke="#ffffff"
       stroke-width="0.1"
       id="g19">
      <path
         d="m128.35,39.23l4.57,0l0,1.1l-6.15,0l0,-1.1c0.49,-0.51,1.17,-1.2,2.03,-2.07c0.85,-0.86,1.39,-1.42,1.62,-1.67c0.42,-0.47,0.71,-0.87,0.88,-1.19c0.16,-0.32,0.25,-0.64,0.25,-0.96c0,-0.51,-0.18,-0.93,-0.54,-1.26c-0.36,-0.32,-0.83,-0.48,-1.41,-0.48c-0.41,0,-0.84,0.07,-1.3,0.21c-0.45,0.14,-0.94,0.35,-1.46,0.65l0,-1.32c0.52,-0.21,1.02,-0.37,1.48,-0.48c0.45,-0.1,0.87,-0.16,1.26,-0.16c1,0,1.8,0.25,2.4,0.75c0.59,0.5,0.89,1.17,0.89,2.01c0,0.39,-0.07,0.77,-0.22,1.13c-0.14,0.35,-0.42,0.77,-0.81,1.26c-0.1,0.12,-0.45,0.48,-1.03,1.08c-0.57,0.6,-1.39,1.43,-2.45,2.51m7.33,-0.54l1.37,0l0,1.65l-1.37,0l0,-1.65m4.24,-8.04l5.14,0l0,1.1l-3.94,0l0,2.37c0.19,-0.06,0.38,-0.11,0.57,-0.14c0.19,-0.03,0.38,-0.04,0.57,-0.04c1.08,0,1.93,0.29,2.57,0.88c0.63,0.59,0.94,1.39,0.94,2.4c0,1.04,-0.32,1.85,-0.97,2.43c-0.64,0.57,-1.56,0.86,-2.74,0.86c-0.4,0,-0.82,-0.03,-1.24,-0.1c-0.42,-0.06,-0.85,-0.17,-1.3,-0.31l0,-1.31c0.38,0.21,0.79,0.36,1.2,0.47c0.41,0.1,0.85,0.15,1.31,0.15c0.75,0,1.34,-0.19,1.78,-0.59c0.43,-0.39,0.65,-0.92,0.65,-1.6c0,-0.67,-0.21,-1.2,-0.65,-1.6c-0.43,-0.39,-1.03,-0.59,-1.78,-0.59c-0.35,0,-0.69,0.03,-1.04,0.11c-0.34,0.07,-0.7,0.19,-1.06,0.36l0,-4.87m12.55,0l1.95,0l2.47,6.59l2.48,-6.59l1.95,0l0,9.69l-1.27,0l0,-8.51l-2.5,6.65l-1.31,0l-2.5,-6.65l0,8.51l-1.27,0l0,-9.69"
         fill="#ffffff"
         stroke="none"
         fill-opacity="1"
         id="path18" />
      <path
         d="m165.59,39.23l0.82,0l0,0.99l-0.82,0l0,-0.99m1.19,-1.39c-0.24,-0.1,-0.5,-0.15,-0.78,-0.15c-0.27,0,-0.53,0.05,-0.78,0.15c-0.23,0.1,-0.45,0.25,-0.65,0.45c-0.2,0.2,-0.34,0.41,-0.44,0.65c-0.09,0.23,-0.14,0.5,-0.14,0.78c0,0.27,0.04,0.53,0.14,0.77c0.09,0.23,0.24,0.45,0.44,0.65c0.19,0.19,0.41,0.34,0.65,0.45c0.24,0.1,0.5,0.15,0.78,0.15c0.27,0,0.53,-0.05,0.78,-0.15c0.23,-0.1,0.45,-0.25,0.65,-0.45c0.2,-0.2,0.35,-0.41,0.45,-0.65c0.09,-0.23,0.14,-0.49,0.14,-0.77c0,-0.28,-0.04,-0.54,-0.14,-0.78c-0.09,-0.23,-0.24,-0.45,-0.45,-0.65c-0.19,-0.19,-0.41,-0.34,-0.65,-0.45m-1.78,-0.54c0.3,-0.13,0.64,-0.19,1,-0.19c0.35,0,0.69,0.06,1,0.19c0.3,0.13,0.59,0.32,0.84,0.57c0.25,0.25,0.45,0.54,0.57,0.85c0.12,0.3,0.19,0.64,0.19,1c0,0.35,-0.06,0.68,-0.19,1c-0.12,0.3,-0.31,0.58,-0.57,0.84c-0.25,0.25,-0.53,0.44,-0.84,0.57c-0.3,0.13,-0.64,0.19,-1,0.19c-0.35,0,-0.69,-0.06,-1,-0.19c-0.3,-0.13,-0.59,-0.32,-0.84,-0.57c-0.25,-0.25,-0.45,-0.53,-0.57,-0.84c-0.12,-0.31,-0.19,-0.64,-0.19,-1c0,-0.36,0.06,-0.7,0.19,-1c0.12,-0.31,0.32,-0.59,0.57,-0.85c0.25,-0.25,0.53,-0.44,0.84,-0.57"
         fill="#ffffff"
         stroke="none"
         fill-opacity="1"
         id="path19" />
    </g>
    <g
       clip-path="url(#c2)"
       id="g24">
      <g
         fill="none"
         stroke="#8da0cb"
         stroke-linecap="butt"
         stroke-width="0.66"
         id="g20">
        <path
           d="M100.75,51.34l0,0"
           id="path20" />
      </g>
      <g
         fill="none"
         stroke="#8da0cb"
         stroke-width="0.66"
         id="g21">
        <path
           d="M91.31,51.34l18.89,0"
           id="path21" />
      </g>
      <g
         fill="#8da0cb"
         stroke-linejoin="miter"
         stroke-width="0.66"
         id="g23">
        <g
           transform="translate(100.75,51.34)"
           id="g22">
          <path
             d="m0,4.8l4.15,-7.2l-8.31,0l4.15,7.2"
             id="path22" />
        </g>
      </g>
    </g>
    <g
       fill="none"
       stroke="#ffffff"
       stroke-width="0.1"
       id="g25">
      <path
         d="m131.2,50.71c0.62,0.13,1.11,0.41,1.47,0.83c0.35,0.42,0.52,0.94,0.52,1.57c0,0.95,-0.32,1.69,-0.98,2.22c-0.65,0.52,-1.59,0.78,-2.8,0.78c-0.4,0,-0.82,-0.04,-1.25,-0.12c-0.43,-0.08,-0.87,-0.2,-1.33,-0.36l0,-1.26c0.36,0.21,0.76,0.37,1.19,0.48c0.43,0.1,0.88,0.16,1.35,0.16c0.82,0,1.44,-0.16,1.87,-0.48c0.43,-0.32,0.64,-0.79,0.64,-1.41c0,-0.57,-0.2,-1.01,-0.6,-1.34c-0.4,-0.32,-0.95,-0.48,-1.67,-0.48l-1.12,0l0,-1.07l1.18,0c0.64,0,1.13,-0.12,1.48,-0.38c0.34,-0.25,0.51,-0.62,0.51,-1.11c0,-0.49,-0.17,-0.87,-0.52,-1.14c-0.35,-0.26,-0.85,-0.39,-1.51,-0.39c-0.35,0,-0.74,0.03,-1.15,0.11c-0.41,0.07,-0.86,0.19,-1.35,0.36l0,-1.17c0.49,-0.13,0.96,-0.24,1.4,-0.31c0.43,-0.06,0.84,-0.1,1.23,-0.1c0.99,0,1.78,0.22,2.36,0.67c0.58,0.45,0.87,1.06,0.87,1.83c0,0.53,-0.15,0.98,-0.46,1.36c-0.3,0.37,-0.74,0.62,-1.31,0.76m8.59,-4.46l1.95,0l2.47,6.59l2.48,-6.59l1.95,0l0,9.69l-1.27,0l0,-8.51l-2.5,6.65l-1.31,0l-2.5,-6.65l0,8.51l-1.27,0l0,-9.69"
         fill="#ffffff"
         stroke="none"
         fill-opacity="1"
         id="path24" />
      <path
         d="m152.9,54.83l0.82,0l0,0.99l-0.82,0l0,-0.99m1.19,-1.39c-0.24,-0.1,-0.5,-0.15,-0.78,-0.15c-0.27,0,-0.53,0.05,-0.78,0.15c-0.23,0.1,-0.45,0.25,-0.65,0.45c-0.2,0.2,-0.34,0.41,-0.44,0.65c-0.09,0.23,-0.14,0.5,-0.14,0.78c0,0.27,0.04,0.53,0.14,0.77c0.09,0.23,0.24,0.45,0.44,0.65c0.19,0.19,0.41,0.34,0.65,0.45c0.24,0.1,0.5,0.15,0.78,0.15c0.27,0,0.53,-0.05,0.78,-0.15c0.23,-0.1,0.45,-0.25,0.65,-0.45c0.2,-0.2,0.35,-0.41,0.45,-0.65c0.09,-0.23,0.14,-0.49,0.14,-0.77c0,-0.28,-0.04,-0.54,-0.14,-0.78c-0.09,-0.23,-0.24,-0.45,-0.45,-0.65c-0.19,-0.19,-0.41,-0.34,-0.65,-0.45m-1.78,-0.54c0.3,-0.13,0.64,-0.19,1,-0.19c0.35,0,0.69,0.06,1,0.19c0.3,0.13,0.59,0.32,0.84,0.57c0.25,0.25,0.45,0.54,0.57,0.85c0.12,0.3,0.19,0.64,0.19,1c0,0.35,-0.06,0.68,-0.19,1c-0.12,0.3,-0.31,0.58,-0.57,0.84c-0.25,0.25,-0.53,0.44,-0.84,0.57c-0.3,0.13,-0.64,0.19,-1,0.19c-0.35,0,-0.69,-0.06,-1,-0.19c-0.3,-0.13,-0.59,-0.32,-0.84,-0.57c-0.25,-0.25,-0.45,-0.53,-0.57,-0.84c-0.12,-0.31,-0.19,-0.64,-0.19,-1c0,-0.36,0.06,-0.7,0.19,-1c0.12,-0.31,0.32,-0.59,0.57,-0.85c0.25,-0.25,0.53,-0.44,0.84,-0.57"
         fill="#ffffff"
         stroke="none"
         fill-opacity="1"
         id="path25" />
    </g>
    <g
       clip-path="url(#c3)"
       id="g30">
      <g
         fill="none"
         stroke="#e78ac3"
         stroke-linecap="butt"
         stroke-width="0.66"
         id="g26">
        <path
           d="M100.75,66.94l0,0"
           id="path26" />
      </g>
      <g
         fill="none"
         stroke="#e78ac3"
         stroke-width="0.66"
         id="g27">
        <path
           d="M91.31,66.94l18.89,0"
           id="path27" />
      </g>
      <g
         fill="#e78ac3"
         stroke-linejoin="miter"
         stroke-width="0.66"
         id="g29">
        <g
           transform="translate(100.75,66.94)"
           id="g28">
          <path
             d="m0,-4.8l4.15,7.2l-8.31,0l4.15,-7.2"
             id="path28" />
        </g>
      </g>
    </g>
    <g
       fill="none"
       stroke="#ffffff"
       stroke-width="0.1"
       id="g31">
      <path
         d="m131.2,66.31c0.62,0.13,1.11,0.41,1.47,0.83c0.35,0.42,0.52,0.94,0.52,1.57c0,0.95,-0.32,1.69,-0.98,2.22c-0.65,0.52,-1.59,0.78,-2.8,0.78c-0.4,0,-0.82,-0.04,-1.25,-0.12c-0.43,-0.08,-0.87,-0.2,-1.33,-0.36l0,-1.26c0.36,0.21,0.76,0.37,1.19,0.48c0.43,0.1,0.88,0.16,1.35,0.16c0.82,0,1.44,-0.16,1.87,-0.48c0.43,-0.32,0.64,-0.79,0.64,-1.41c0,-0.57,-0.2,-1.01,-0.6,-1.34c-0.4,-0.32,-0.95,-0.48,-1.67,-0.48l-1.12,0l0,-1.07l1.18,0c0.64,0,1.13,-0.12,1.48,-0.38c0.34,-0.25,0.51,-0.62,0.51,-1.11c0,-0.49,-0.17,-0.87,-0.52,-1.14c-0.35,-0.26,-0.85,-0.39,-1.51,-0.39c-0.35,0,-0.74,0.03,-1.15,0.11c-0.41,0.07,-0.86,0.19,-1.35,0.36l0,-1.17c0.49,-0.13,0.96,-0.24,1.4,-0.31c0.43,-0.06,0.84,-0.1,1.23,-0.1c0.99,0,1.78,0.22,2.36,0.67c0.58,0.45,0.87,1.06,0.87,1.83c0,0.53,-0.15,0.98,-0.46,1.36c-0.3,0.37,-0.74,0.62,-1.31,0.76m4.48,3.57l1.37,0l0,1.65l-1.37,0l0,-1.65m4.24,-8.04l5.14,0l0,1.1l-3.94,0l0,2.37c0.19,-0.06,0.38,-0.11,0.57,-0.14c0.19,-0.03,0.38,-0.04,0.57,-0.04c1.08,0,1.93,0.29,2.57,0.88c0.63,0.59,0.94,1.39,0.94,2.4c0,1.04,-0.32,1.85,-0.97,2.43c-0.64,0.57,-1.56,0.86,-2.74,0.86c-0.4,0,-0.82,-0.03,-1.24,-0.1c-0.42,-0.06,-0.85,-0.17,-1.3,-0.31l0,-1.31c0.38,0.21,0.79,0.36,1.2,0.47c0.41,0.1,0.85,0.15,1.31,0.15c0.75,0,1.34,-0.19,1.78,-0.59c0.43,-0.39,0.65,-0.92,0.65,-1.6c0,-0.67,-0.21,-1.2,-0.65,-1.6c-0.43,-0.39,-1.03,-0.59,-1.78,-0.59c-0.35,0,-0.69,0.03,-1.04,0.11c-0.34,0.07,-0.7,0.19,-1.06,0.36l0,-4.87m12.55,0l1.95,0l2.47,6.59l2.48,-6.59l1.95,0l0,9.69l-1.27,0l0,-8.51l-2.5,6.65l-1.31,0l-2.5,-6.65l0,8.51l-1.27,0l0,-9.69"
         fill="#ffffff"
         stroke="none"
         fill-opacity="1"
         id="path30" />
      <path
         d="m165.59,70.43l0.82,0l0,0.99l-0.82,0l0,-0.99m1.19,-1.39c-0.24,-0.1,-0.5,-0.15,-0.78,-0.15c-0.27,0,-0.53,0.05,-0.78,0.15c-0.23,0.1,-0.45,0.25,-0.65,0.45c-0.2,0.2,-0.34,0.41,-0.44,0.65c-0.09,0.23,-0.14,0.5,-0.14,0.78c0,0.27,0.04,0.53,0.14,0.77c0.09,0.23,0.24,0.45,0.44,0.65c0.19,0.19,0.41,0.34,0.65,0.45c0.24,0.1,0.5,0.15,0.78,0.15c0.27,0,0.53,-0.05,0.78,-0.15c0.23,-0.1,0.45,-0.25,0.65,-0.45c0.2,-0.2,0.35,-0.41,0.45,-0.65c0.09,-0.23,0.14,-0.49,0.14,-0.77c0,-0.28,-0.04,-0.54,-0.14,-0.78c-0.09,-0.23,-0.24,-0.45,-0.45,-0.65c-0.19,-0.19,-0.41,-0.34,-0.65,-0.45m-1.78,-0.54c0.3,-0.13,0.64,-0.19,1,-0.19c0.35,0,0.69,0.06,1,0.19c0.3,0.13,0.59,0.32,0.84,0.57c0.25,0.25,0.45,0.54,0.57,0.85c0.12,0.3,0.19,0.64,0.19,1c0,0.35,-0.06,0.68,-0.19,1c-0.12,0.3,-0.31,0.58,-0.57,0.84c-0.25,0.25,-0.53,0.44,-0.84,0.57c-0.3,0.13,-0.64,0.19,-1,0.19c-0.35,0,-0.69,-0.06,-1,-0.19c-0.3,-0.13,-0.59,-0.32,-0.84,-0.57c-0.25,-0.25,-0.45,-0.53,-0.57,-0.84c-0.12,-0.31,-0.19,-0.64,-0.19,-1c0,-0.36,0.06,-0.7,0.19,-1c0.12,-0.31,0.32,-0.59,0.57,-0.85c0.25,-0.25,0.53,-0.44,0.84,-0.57"
         fill="#ffffff"
         stroke="none"
         fill-opacity="1"
         id="path31" />
    </g>
    <g
       clip-path="url(#c4)"
       id="g36">
      <g
         fill="none"
         stroke="#a6d854"
         stroke-linecap="butt"
         stroke-width="0.66"
         id="g32">
        <path
           d="M100.75,82.54l0,0"
           id="path32" />
      </g>
      <g
         fill="none"
         stroke="#a6d854"
         stroke-width="0.66"
         id="g33">
        <path
           d="M91.31,82.54l18.89,0"
           id="path33" />
      </g>
      <g
         fill="#a6d854"
         stroke-linejoin="miter"
         stroke-width="0.66"
         id="g35">
        <g
           transform="translate(100.75,82.54)"
           id="g34">
          <path
             d="m0,5.65l5.65,-5.65l-5.65,-5.65l-5.65,5.65l5.65,5.65"
             id="path34" />
        </g>
      </g>
    </g>
    <g
       fill="none"
       stroke="#ffffff"
       stroke-width="0.1"
       id="g37">
      <path
         d="m130.83,78.58l-3.31,5.17l3.31,0l0,-5.17m-0.34,-1.14l1.64,0l0,6.31l1.38,0l0,1.09l-1.38,0l0,2.28l-1.3,0l0,-2.28l-4.37,0l0,-1.26l4.03,-6.14m9.3,0l1.95,0l2.47,6.59l2.48,-6.59l1.95,0l0,9.69l-1.27,0l0,-8.51l-2.5,6.65l-1.31,0l-2.5,-6.65l0,8.51l-1.27,0l0,-9.69"
         fill="#ffffff"
         stroke="none"
         fill-opacity="1"
         id="path36" />
      <path
         d="m152.9,86.03l0.82,0l0,0.99l-0.82,0l0,-0.99m1.19,-1.39c-0.24,-0.1,-0.5,-0.15,-0.78,-0.15c-0.27,0,-0.53,0.05,-0.78,0.15c-0.23,0.1,-0.45,0.25,-0.65,0.45c-0.2,0.2,-0.34,0.41,-0.44,0.65c-0.09,0.23,-0.14,0.5,-0.14,0.78c0,0.27,0.04,0.53,0.14,0.77c0.09,0.23,0.24,0.45,0.44,0.65c0.19,0.19,0.41,0.34,0.65,0.45c0.24,0.1,0.5,0.15,0.78,0.15c0.27,0,0.53,-0.05,0.78,-0.15c0.23,-0.1,0.45,-0.25,0.65,-0.45c0.2,-0.2,0.35,-0.41,0.45,-0.65c0.09,-0.23,0.14,-0.49,0.14,-0.77c0,-0.28,-0.04,-0.54,-0.14,-0.78c-0.09,-0.23,-0.24,-0.45,-0.45,-0.65c-0.19,-0.19,-0.41,-0.34,-0.65,-0.45m-1.78,-0.54c0.3,-0.13,0.64,-0.19,1,-0.19c0.35,0,0.69,0.06,1,0.19c0.3,0.13,0.59,0.32,0.84,0.57c0.25,0.25,0.45,0.54,0.57,0.85c0.12,0.3,0.19,0.64,0.19,1c0,0.35,-0.06,0.68,-0.19,1c-0.12,0.3,-0.31,0.58,-0.57,0.84c-0.25,0.25,-0.53,0.44,-0.84,0.57c-0.3,0.13,-0.64,0.19,-1,0.19c-0.35,0,-0.69,-0.06,-1,-0.19c-0.3,-0.13,-0.59,-0.32,-0.84,-0.57c-0.25,-0.25,-0.45,-0.53,-0.57,-0.84c-0.12,-0.31,-0.19,-0.64,-0.19,-1c0,-0.36,0.06,-0.7,0.19,-1c0.12,-0.31,0.32,-0.59,0.57,-0.85c0.25,-0.25,0.53,-0.44,0.84,-0.57"
         fill="#ffffff"
         stroke="none"
         fill-opacity="1"
         id="path37" />
    </g>
    <g
       clip-path="url(#c5)"
       id="g42">
      <g
         fill="none"
         stroke="#b3b3b3"
         stroke-linecap="butt"
         stroke-width="0.33"
         id="g39">
        <path
           d="M100.75,91.9l0,12.48"
           id="path38" />
        <path
           d="M94.51,98.14l12.48,0"
           id="path39" />
      </g>
      <g
         fill="#b3b3b3"
         stroke="none"
         stroke-linejoin="miter"
         stroke-width="0.1"
         id="g41">
        <g
           transform="translate(100.75,98.14)"
           id="g40">
          <path
             d="m2.66,0c0,1.47,-1.19,2.66,-2.66,2.66c-1.47,0,-2.66,-1.19,-2.66,-2.66c0,-1.47,1.19,-2.66,2.66,-2.66c1.47,0,2.66,1.19,2.66,2.66"
             id="p1" />
        </g>
      </g>
    </g>
    <g
       fill="none"
       stroke="#ffffff"
       stroke-width="0.1"
       id="g43">
      <path
         d="m128.42,98.11l0,3.55l2.1,0c0.7,0,1.22,-0.14,1.56,-0.43c0.34,-0.29,0.51,-0.73,0.51,-1.34c0,-0.6,-0.17,-1.05,-0.51,-1.34c-0.34,-0.28,-0.86,-0.43,-1.56,-0.43l-2.1,0m0,-3.98l0,2.92l1.94,0c0.64,0,1.11,-0.12,1.43,-0.36c0.31,-0.24,0.47,-0.6,0.47,-1.1c0,-0.48,-0.15,-0.85,-0.47,-1.09c-0.31,-0.24,-0.79,-0.36,-1.43,-0.36l-1.94,0m-1.31,-1.07l3.35,0c1,0,1.77,0.2,2.31,0.62c0.54,0.41,0.81,1,0.81,1.77c0,0.59,-0.13,1.06,-0.41,1.41c-0.27,0.35,-0.68,0.56,-1.22,0.65c0.64,0.13,1.14,0.42,1.5,0.86c0.35,0.43,0.53,0.98,0.53,1.64c0,0.86,-0.29,1.53,-0.88,2c-0.58,0.47,-1.42,0.7,-2.51,0.7l-3.48,0l0,-9.69m12.37,6.03c-0.96,0,-1.63,0.11,-2,0.33c-0.37,0.22,-0.55,0.59,-0.55,1.12c0,0.42,0.13,0.76,0.41,1c0.27,0.24,0.65,0.37,1.13,0.37c0.66,0,1.19,-0.23,1.59,-0.7c0.4,-0.46,0.6,-1.09,0.6,-1.87l0,-0.26l-1.18,0m2.38,-0.49l0,4.15l-1.19,0l0,-1.1c-0.27,0.44,-0.61,0.76,-1.01,0.97c-0.4,0.21,-0.9,0.31,-1.49,0.31c-0.74,0,-1.33,-0.2,-1.77,-0.62c-0.43,-0.41,-0.65,-0.97,-0.65,-1.67c0,-0.81,0.27,-1.43,0.82,-1.85c0.54,-0.41,1.36,-0.62,2.45,-0.62l1.67,0l0,-0.11c0,-0.55,-0.18,-0.97,-0.54,-1.27c-0.36,-0.3,-0.86,-0.45,-1.52,-0.45c-0.41,0,-0.82,0.04,-1.21,0.14c-0.39,0.09,-0.77,0.24,-1.13,0.44l0,-1.1c0.43,-0.16,0.86,-0.29,1.27,-0.37c0.41,-0.08,0.81,-0.12,1.2,-0.12c1.05,0,1.83,0.27,2.35,0.81c0.51,0.54,0.77,1.37,0.77,2.48m6.67,-2c-0.13,-0.07,-0.28,-0.13,-0.43,-0.17c-0.15,-0.03,-0.33,-0.05,-0.52,-0.05c-0.67,0,-1.19,0.21,-1.55,0.65c-0.36,0.43,-0.54,1.07,-0.54,1.89l0,3.83l-1.2,0l0,-7.27l1.2,0l0,1.12c0.25,-0.44,0.57,-0.76,0.98,-0.98c0.4,-0.21,0.89,-0.32,1.46,-0.32c0.08,0,0.17,0,0.27,0.01c0.09,0.01,0.2,0.02,0.33,0.04l0,1.22m0.73,-1.11l5.67,0l0,1.09l-4.49,5.22l4.49,0l0,0.95l-5.83,0l0,-1.09l4.49,-5.22l-4.33,0l0,-0.95m10.52,7.94c-0.33,0.86,-0.66,1.43,-0.98,1.69c-0.32,0.26,-0.74,0.39,-1.28,0.39l-0.95,0l0,-1l0.7,0c0.32,0,0.58,-0.07,0.76,-0.23c0.18,-0.15,0.38,-0.52,0.6,-1.1l0.21,-0.54l-2.94,-7.15l1.26,0l2.27,5.68l2.27,-5.68l1.26,0l-3.19,7.94m4.79,-10.77l1.2,0l0,5.96l3.56,-3.13l1.52,0l-3.85,3.4l4.01,3.87l-1.55,0l-3.69,-3.55l0,3.55l-1.2,0l0,-10.1m14.84,0.01c-0.58,0.99,-1.01,1.98,-1.29,2.95c-0.28,0.97,-0.42,1.96,-0.42,2.96c0,1,0.14,1.99,0.42,2.97c0.28,0.98,0.71,1.96,1.28,2.95l-1.03,0c-0.64,-1.01,-1.13,-2.01,-1.45,-3c-0.32,-0.98,-0.48,-1.95,-0.48,-2.92c0,-0.96,0.16,-1.93,0.48,-2.91c0.32,-0.97,0.8,-1.97,1.46,-3l1.03,0m3.61,8.98l4.57,0l0,1.1l-6.15,0l0,-1.1c0.49,-0.51,1.17,-1.2,2.03,-2.07c0.85,-0.86,1.39,-1.42,1.62,-1.67c0.42,-0.47,0.71,-0.87,0.88,-1.19c0.16,-0.32,0.25,-0.64,0.25,-0.96c0,-0.51,-0.18,-0.93,-0.54,-1.26c-0.36,-0.32,-0.83,-0.48,-1.41,-0.48c-0.41,0,-0.84,0.07,-1.3,0.21c-0.45,0.14,-0.94,0.35,-1.46,0.65l0,-1.32c0.52,-0.21,1.02,-0.37,1.48,-0.48c0.45,-0.1,0.87,-0.16,1.26,-0.16c1,0,1.8,0.25,2.4,0.75c0.59,0.5,0.89,1.17,0.89,2.01c0,0.39,-0.07,0.77,-0.22,1.13c-0.14,0.35,-0.42,0.77,-0.81,1.26c-0.1,0.12,-0.45,0.48,-1.03,1.08c-0.57,0.6,-1.39,1.43,-2.45,2.51m10.13,-7.72c-0.67,0,-1.18,0.33,-1.52,0.99c-0.33,0.66,-0.5,1.66,-0.5,2.99c0,1.32,0.16,2.32,0.5,2.99c0.33,0.66,0.84,0.99,1.52,0.99c0.67,0,1.18,-0.33,1.52,-0.99c0.34,-0.66,0.51,-1.66,0.51,-2.99c0,-1.33,-0.17,-2.33,-0.51,-2.99c-0.34,-0.66,-0.84,-0.99,-1.52,-0.99m0,-1.03c1.08,0,1.91,0.42,2.48,1.28c0.57,0.85,0.86,2.1,0.86,3.74c0,1.63,-0.28,2.87,-0.86,3.73c-0.57,0.85,-1.4,1.28,-2.48,1.28c-1.08,0,-1.91,-0.42,-2.49,-1.28c-0.57,-0.85,-0.86,-2.1,-0.86,-3.73c0,-1.63,0.28,-2.88,0.86,-3.74c0.57,-0.85,1.4,-1.28,2.49,-1.28m8.46,1.03c-0.67,0,-1.18,0.33,-1.52,0.99c-0.33,0.66,-0.5,1.66,-0.5,2.99c0,1.32,0.16,2.32,0.5,2.99c0.33,0.66,0.84,0.99,1.52,0.99c0.67,0,1.18,-0.33,1.52,-0.99c0.34,-0.66,0.51,-1.66,0.51,-2.99c0,-1.33,-0.17,-2.33,-0.51,-2.99c-0.34,-0.66,-0.84,-0.99,-1.52,-0.99m0,-1.03c1.08,0,1.91,0.42,2.48,1.28c0.57,0.85,0.86,2.1,0.86,3.74c0,1.63,-0.28,2.87,-0.86,3.73c-0.57,0.85,-1.4,1.28,-2.48,1.28c-1.08,0,-1.91,-0.42,-2.49,-1.28c-0.57,-0.85,-0.86,-2.1,-0.86,-3.73c0,-1.63,0.28,-2.88,0.86,-3.74c0.57,-0.85,1.4,-1.28,2.49,-1.28m5.32,0.17l6.23,0l0,0.55l-3.51,9.13l-1.37,0l3.31,-8.59l-4.65,0l0,-1.1m8.43,-0.39l1.03,0c0.64,1.02,1.13,2.02,1.45,3c0.32,0.97,0.48,1.95,0.48,2.91c0,0.96,-0.16,1.94,-0.48,2.92c-0.32,0.98,-0.8,1.98,-1.45,3l-1.03,0c0.57,-0.99,1,-1.97,1.28,-2.95c0.28,-0.98,0.42,-1.97,0.42,-2.97c0,-1,-0.14,-1.98,-0.42,-2.96c-0.28,-0.97,-0.71,-1.95,-1.28,-2.95"
         fill="#ffffff"
         stroke="none"
         fill-opacity="1"
         id="path42" />
    </g>
    <g
       clip-path="url(#c0)"
       id="g46">
      <g
         fill="none"
         stroke="#ffffff"
         stroke-width="0.1"
         id="g45">
        <path
           d="m415.95,188.23l0,1.12c-0.33,-0.17,-0.68,-0.3,-1.05,-0.38c-0.36,-0.08,-0.74,-0.12,-1.13,-0.12c-0.59,0,-1.03,0.09,-1.33,0.27c-0.29,0.18,-0.44,0.45,-0.44,0.81c0,0.27,0.1,0.49,0.31,0.65c0.21,0.15,0.63,0.3,1.27,0.45l0.4,0.09c0.84,0.18,1.45,0.43,1.8,0.76c0.35,0.33,0.53,0.79,0.53,1.38c0,0.67,-0.26,1.2,-0.8,1.6c-0.53,0.39,-1.26,0.59,-2.2,0.59c-0.38,0,-0.79,-0.03,-1.21,-0.11c-0.42,-0.07,-0.86,-0.18,-1.33,-0.34l0,-1.23c0.44,0.22,0.87,0.4,1.3,0.51c0.42,0.11,0.85,0.17,1.27,0.17c0.56,0,0.99,-0.09,1.3,-0.28c0.3,-0.19,0.45,-0.46,0.45,-0.81c0,-0.32,-0.1,-0.57,-0.32,-0.74c-0.21,-0.17,-0.69,-0.33,-1.43,-0.5l-0.41,-0.09c-0.74,-0.15,-1.27,-0.39,-1.6,-0.71c-0.32,-0.32,-0.49,-0.76,-0.49,-1.32c0,-0.68,0.24,-1.21,0.72,-1.58c0.48,-0.37,1.17,-0.55,2.06,-0.55c0.44,0,0.85,0.03,1.24,0.09c0.38,0.06,0.74,0.16,1.07,0.29m5.1,0.62c-0.64,0,-1.14,0.25,-1.51,0.75c-0.37,0.5,-0.55,1.18,-0.55,2.05c0,0.86,0.18,1.55,0.55,2.05c0.37,0.5,0.87,0.75,1.52,0.75c0.63,0,1.14,-0.25,1.51,-0.75c0.37,-0.5,0.55,-1.18,0.55,-2.05c0,-0.86,-0.18,-1.54,-0.55,-2.04c-0.37,-0.5,-0.87,-0.75,-1.51,-0.75m0,-1.01c1.03,0,1.85,0.33,2.44,1.01c0.59,0.67,0.88,1.61,0.88,2.8c0,1.19,-0.29,2.12,-0.88,2.8c-0.59,0.67,-1.4,1.01,-2.44,1.01c-1.04,0,-1.86,-0.33,-2.45,-1.01c-0.59,-0.67,-0.88,-1.61,-0.88,-2.8c0,-1.19,0.29,-2.12,0.88,-2.8c0.59,-0.67,1.4,-1.01,2.45,-1.01m5.31,-2.65l1.19,0l0,10.1l-1.19,0l0,-10.1m7,6.44c-0.96,0,-1.63,0.11,-2,0.33c-0.37,0.22,-0.55,0.59,-0.55,1.12c0,0.42,0.13,0.76,0.41,1c0.27,0.24,0.65,0.37,1.13,0.37c0.66,0,1.19,-0.23,1.59,-0.7c0.4,-0.46,0.6,-1.09,0.6,-1.87l0,-0.26l-1.18,0m2.38,-0.49l0,4.15l-1.19,0l0,-1.1c-0.27,0.44,-0.61,0.76,-1.01,0.97c-0.4,0.21,-0.9,0.31,-1.49,0.31c-0.74,0,-1.33,-0.2,-1.77,-0.62c-0.43,-0.41,-0.65,-0.97,-0.65,-1.67c0,-0.81,0.27,-1.43,0.82,-1.85c0.54,-0.41,1.36,-0.62,2.45,-0.62l1.67,0l0,-0.11c0,-0.55,-0.18,-0.97,-0.54,-1.27c-0.36,-0.3,-0.86,-0.45,-1.52,-0.45c-0.41,0,-0.82,0.04,-1.21,0.14c-0.39,0.09,-0.77,0.24,-1.13,0.44l0,-1.1c0.43,-0.16,0.86,-0.29,1.27,-0.37c0.41,-0.08,0.81,-0.12,1.2,-0.12c1.05,0,1.83,0.27,2.35,0.81c0.51,0.54,0.77,1.37,0.77,2.48m6.67,-2c-0.13,-0.07,-0.28,-0.13,-0.43,-0.17c-0.15,-0.03,-0.33,-0.05,-0.52,-0.05c-0.67,0,-1.19,0.21,-1.55,0.65c-0.36,0.43,-0.54,1.07,-0.54,1.89l0,3.83l-1.2,0l0,-7.27l1.2,0l0,1.12c0.25,-0.44,0.57,-0.76,0.98,-0.98c0.4,-0.21,0.89,-0.32,1.46,-0.32c0.08,0,0.17,0,0.27,0.01c0.09,0.01,0.2,0.02,0.33,0.04l0,1.22"
           fill="#ffffff"
           stroke="none"
           fill-opacity="1"
           id="path43" />
        <g
           transform="matrix(0 -1 1 0 379.8 54.04)"
           id="g44">
          <path
             d="m5.89,-7.05l0,1.12c-0.33,-0.17,-0.68,-0.3,-1.05,-0.38c-0.36,-0.08,-0.74,-0.12,-1.13,-0.12c-0.59,0,-1.03,0.09,-1.33,0.27c-0.29,0.18,-0.44,0.45,-0.44,0.81c0,0.27,0.1,0.49,0.31,0.65c0.21,0.15,0.63,0.3,1.27,0.45l0.4,0.09c0.84,0.18,1.45,0.43,1.8,0.76c0.35,0.33,0.53,0.79,0.53,1.38c0,0.67,-0.26,1.2,-0.8,1.6c-0.53,0.39,-1.26,0.59,-2.2,0.59c-0.38,0,-0.79,-0.03,-1.21,-0.11c-0.42,-0.07,-0.86,-0.18,-1.33,-0.34l0,-1.23c0.44,0.22,0.87,0.4,1.3,0.51c0.42,0.11,0.85,0.17,1.27,0.17c0.56,0,0.99,-0.09,1.3,-0.28c0.3,-0.19,0.45,-0.46,0.45,-0.81c0,-0.32,-0.1,-0.57,-0.32,-0.74c-0.21,-0.17,-0.69,-0.33,-1.43,-0.5l-0.41,-0.09c-0.74,-0.15,-1.27,-0.39,-1.6,-0.71c-0.32,-0.32,-0.49,-0.76,-0.49,-1.32c0,-0.68,0.24,-1.21,0.72,-1.58c0.48,-0.37,1.17,-0.55,2.06,-0.55c0.44,0,0.85,0.03,1.24,0.09c0.38,0.06,0.74,0.16,1.07,0.29m5.1,0.62c-0.64,0,-1.14,0.25,-1.51,0.75c-0.37,0.5,-0.55,1.18,-0.55,2.05c0,0.86,0.18,1.55,0.55,2.05c0.37,0.5,0.87,0.75,1.52,0.75c0.63,0,1.14,-0.25,1.51,-0.75c0.37,-0.5,0.55,-1.18,0.55,-2.05c0,-0.86,-0.18,-1.54,-0.55,-2.04c-0.37,-0.5,-0.87,-0.75,-1.51,-0.75m0,-1.01c1.03,0,1.85,0.33,2.44,1.01c0.59,0.67,0.88,1.61,0.88,2.8c0,1.19,-0.29,2.12,-0.88,2.8c-0.59,0.67,-1.4,1.01,-2.44,1.01c-1.04,0,-1.86,-0.33,-2.45,-1.01c-0.59,-0.67,-0.88,-1.61,-0.88,-2.8c0,-1.19,0.29,-2.12,0.88,-2.8c0.59,-0.67,1.4,-1.01,2.45,-1.01m5.31,-2.65l1.19,0l0,10.1l-1.19,0l0,-10.1m7,6.44c-0.96,0,-1.63,0.11,-2,0.33c-0.37,0.22,-0.55,0.59,-0.55,1.12c0,0.42,0.13,0.76,0.41,1c0.27,0.24,0.65,0.37,1.13,0.37c0.66,0,1.19,-0.23,1.59,-0.7c0.4,-0.46,0.6,-1.09,0.6,-1.87l0,-0.26l-1.18,0m2.38,-0.49l0,4.15l-1.19,0l0,-1.1c-0.27,0.44,-0.61,0.76,-1.01,0.97c-0.4,0.21,-0.9,0.31,-1.49,0.31c-0.74,0,-1.33,-0.2,-1.77,-0.62c-0.43,-0.41,-0.65,-0.97,-0.65,-1.67c0,-0.81,0.27,-1.43,0.82,-1.85c0.54,-0.41,1.36,-0.62,2.45,-0.62l1.67,0l0,-0.11c0,-0.55,-0.18,-0.97,-0.54,-1.27c-0.36,-0.3,-0.86,-0.45,-1.52,-0.45c-0.41,0,-0.82,0.04,-1.21,0.14c-0.39,0.09,-0.77,0.24,-1.13,0.44l0,-1.1c0.43,-0.16,0.86,-0.29,1.27,-0.37c0.41,-0.08,0.81,-0.12,1.2,-0.12c1.05,0,1.83,0.27,2.35,0.81c0.51,0.54,0.77,1.37,0.77,2.48m6.67,-2c-0.13,-0.07,-0.28,-0.13,-0.43,-0.17c-0.15,-0.03,-0.33,-0.05,-0.52,-0.05c-0.67,0,-1.19,0.21,-1.55,0.65c-0.36,0.43,-0.54,1.07,-0.54,1.89l0,3.83l-1.2,0l0,-7.27l1.2,0l0,1.12c0.25,-0.44,0.57,-0.76,0.98,-0.98c0.4,-0.21,0.89,-0.32,1.46,-0.32c0.08,0,0.17,0,0.27,0.01c0.09,0.01,0.2,0.02,0.33,0.04l0,1.22"
             fill="#ffffff"
             stroke="none"
             fill-opacity="1"
             id="path44" />
        </g>
      </g>
    </g>
    <g
       clip-path="url(#c6)"
       id="g161">
      <g
         fill="none"
         stroke="#ffffff"
         stroke-dasharray="2.66,1.33"
         stroke-width="0.66"
         id="g47">
        <polyline
           fill="none"
           points="383.62,10.39 383.62,16.75 383.62,23.12 383.62,29.48 383.62,35.84 383.62,42.21 383.62,48.57 383.62,54.93 383.62,61.3 383.62,67.66 383.62,74.02 383.62,80.39 383.62,86.75 383.62,93.11 383.62,99.48 383.62,105.84 383.62,112.2 383.62,118.57 383.62,124.93 383.62,131.3 383.62,137.66 383.62,144.02 383.62,150.39 383.62,156.75 383.62,163.11 383.62,169.48 383.62,175.84 383.62,182.2 383.62,188.57 383.62,194.93 383.62,201.29 383.62,207.66 383.62,214.02 383.62,220.38 383.62,226.75 383.62,233.11 383.62,239.47 383.62,245.84 383.62,252.2 383.62,258.56 383.62,264.93 383.62,271.29 383.62,277.66 383.62,284.02 383.62,290.38 383.62,296.75 383.62,303.11 383.62,309.47 383.62,315.84 383.62,322.2"
           id="polyline46" />
      </g>
      <g
         fill="none"
         stroke="#ffffff"
         stroke-dasharray="2.66,1.33"
         stroke-width="0.66"
         id="g48">
        <polyline
           fill="none"
           points="71.81,197.48 79.44,197.48 87.08,197.48 94.71,197.48 102.35,197.48 109.99,197.48 117.62,197.48 125.26,197.48 132.9,197.48 140.53,197.48 148.17,197.48 155.8,197.48 163.44,197.48 171.08,197.48 178.71,197.48 186.35,197.48 193.99,197.48 201.62,197.48 209.26,197.48 216.89,197.48 224.53,197.48 232.17,197.48 239.8,197.48 247.44,197.48 255.07,197.48 262.71,197.48 270.35,197.48 277.98,197.48 285.62,197.48 293.26,197.48 300.89,197.48 308.53,197.48 316.16,197.48 323.8,197.48 331.44,197.48 339.07,197.48 346.71,197.48 354.35,197.48 361.98,197.48 369.62,197.48 377.25,197.48 384.89,197.48 392.53,197.48 400.16,197.48 407.8,197.48 415.43,197.48 423.07,197.48 430.71,197.48 438.34,197.48 445.98,197.48"
           id="polyline47" />
      </g>
      <g
         fill="none"
         stroke="#b3b3b3"
         stroke-linecap="butt"
         stroke-width="0.33"
         id="g49">
        <path
           d="M210.56,237.08l0,-89.17M213.68,233.33l0,-86.68M130.43,253.91l0,-68.59M241.12,214.31l0,-78.57M116.71,246.43l0,-76.08M133.23,296.32l0,-105.39M169.71,256.1l0,-99.77M183.12,234.89l0,-130.96M139.78,252.67l0,-75.45M114.84,282.29l0,-90.42M339.34,211.2l0,-130.33M133.86,301.31l0,-71.09M175.02,276.68l0,-67.97M165.04,303.49l0,-55.5M110.47,258.28l0,-45.52M167.53,285.41l0,-71.09M208.07,301.93l0,-61.73M144.77,287.28l0,-57.99M151.32,257.65l0,-101.02M358.05,221.48l0,-111.62M196.22,228.97l0,-73.58M119.2,277.61l0,-79.2M152.88,266.7l0,-96.03M102.36,297.88l0,-74.21M159.74,285.09l0,-75.45M215.24,247.37l0,-90.42M215.55,232.4l0,-54.25M120.76,275.43l0,-76.7M141.65,286.34l0,-73.58M222.72,233.65l0,-137.82M162.54,259.53l0,-65.48M150.38,271.37l0,-53.63M204.01,249.86l0,-87.93"
           id="path48" />
        <path
           d="M156.93,192.49l107.26,0M161.3,189.99l104.76,0M101.43,219.61l57.99,0M190.61,175.02l101.02,0M90.51,208.39l52.38,0M86.15,243.62l94.16,0M117.95,206.21l103.52,0M116.71,169.41l132.83,0M107.04,214.94l65.48,0M81.78,237.08l66.1,0M238,146.03l202.67,0M98.93,265.76l69.84,0M134.17,242.69l81.69,0M130.11,275.74l69.84,0M94.57,235.52l31.8,0M125.75,249.86l83.56,0M161.61,271.06l92.91,0M114.21,258.28l61.11,0M104.23,207.14l94.16,0M263.88,165.67l182.43,0M153.19,192.17l86.05,0M88.96,238.01l60.49,0M104.86,218.68l96.03,0M77.11,260.77l50.51,0M117.33,247.37l84.81,0M158.8,202.15l112.87,0M181.56,205.27l67.97,0M90.83,237.08l59.86,0M106.11,249.55l71.09,0M141.65,164.74l162.14,0M128.56,226.79l67.97,0M122.32,244.56l56.12,0M149.14,205.89l109.75,0"
           id="path49" />
      </g>
      <g
         fill="#b3b3b3"
         stroke="none"
         stroke-linejoin="miter"
         stroke-width="0.1"
         id="g81">
        <use
           xlink:href="#p1"
           x="210.56"
           y="192.49"
           id="use49" />
        <use
           xlink:href="#p1"
           x="213.68"
           y="189.99"
           id="use50" />
        <use
           xlink:href="#p1"
           x="130.43"
           y="219.61"
           id="use51" />
        <use
           xlink:href="#p1"
           x="241.12"
           y="175.02"
           id="use52" />
        <use
           xlink:href="#p1"
           x="116.71"
           y="208.39"
           id="use53" />
        <use
           xlink:href="#p1"
           x="133.23"
           y="243.62"
           id="use54" />
        <use
           xlink:href="#p1"
           x="169.71"
           y="206.21"
           id="use55" />
        <use
           xlink:href="#p1"
           x="183.12"
           y="169.41"
           id="use56" />
        <use
           xlink:href="#p1"
           x="139.78"
           y="214.94"
           id="use57" />
        <use
           xlink:href="#p1"
           x="114.84"
           y="237.08"
           id="use58" />
        <use
           xlink:href="#p1"
           x="339.34"
           y="146.03"
           id="use59" />
        <use
           xlink:href="#p1"
           x="133.86"
           y="265.76"
           id="use60" />
        <use
           xlink:href="#p1"
           x="175.02"
           y="242.69"
           id="use61" />
        <use
           xlink:href="#p1"
           x="165.04"
           y="275.74"
           id="use62" />
        <use
           xlink:href="#p1"
           x="110.47"
           y="235.52"
           id="use63" />
        <use
           xlink:href="#p1"
           x="167.53"
           y="249.86"
           id="use64" />
        <use
           xlink:href="#p1"
           x="208.07"
           y="271.06"
           id="use65" />
        <use
           xlink:href="#p1"
           x="144.77"
           y="258.28"
           id="use66" />
        <use
           xlink:href="#p1"
           x="151.32"
           y="207.14"
           id="use67" />
        <use
           xlink:href="#p1"
           x="358.05"
           y="165.67"
           id="use68" />
        <use
           xlink:href="#p1"
           x="196.22"
           y="192.17"
           id="use69" />
        <use
           xlink:href="#p1"
           x="119.2"
           y="238.01"
           id="use70" />
        <use
           xlink:href="#p1"
           x="152.88"
           y="218.68"
           id="use71" />
        <use
           xlink:href="#p1"
           x="102.36"
           y="260.77"
           id="use72" />
        <use
           xlink:href="#p1"
           x="159.74"
           y="247.37"
           id="use73" />
        <use
           xlink:href="#p1"
           x="215.24"
           y="202.15"
           id="use74" />
        <use
           xlink:href="#p1"
           x="215.55"
           y="205.27"
           id="use75" />
        <use
           xlink:href="#p1"
           x="120.76"
           y="237.08"
           id="use76" />
        <use
           xlink:href="#p1"
           x="141.65"
           y="249.55"
           id="use77" />
        <use
           xlink:href="#p1"
           x="222.72"
           y="164.74"
           id="use78" />
        <use
           xlink:href="#p1"
           x="162.54"
           y="226.79"
           id="use79" />
        <use
           xlink:href="#p1"
           x="150.38"
           y="244.56"
           id="use80" />
        <use
           xlink:href="#p1"
           x="204.01"
           y="205.89"
           id="use81" />
      </g>
      <g
         fill="none"
         stroke="#a6d854"
         stroke-width="0.66"
         id="g82">
        <polyline
           fill="none"
           points="383.62,197.47 376.99,198.13 344.64,203.03 297.03,210.69 252.18,217.78 218.81,222.53 196.8,224.88 183.18,225.46 174.47,225.07 169.52,223.92 167.08,222.33 166.68,220.36 168.3,218.03 170.92,215.6 176.03,212.72 181.26,210.09 187.4,207.43 196.28,204.32 209.14,200.54 217.41,197.92 216.48,197.98"
           id="polyline81" />
      </g>
      <g
         fill="#a6d854"
         stroke-linejoin="miter"
         stroke-width="0.66"
         id="g103">
        <g
           transform="matrix(0 0 0 0 383.62 197.47)"
           id="g83">
          <path
             d="m0,5.01l5.01,-5.01l-5.01,-5.01l-5.01,5.01l5.01,5.01"
             id="p2" />
        </g>
        <g
           transform="matrix(0 0 0 0 376.99 198.13)"
           id="g84">
          <use
             xlink:href="#p2"
             id="use83" />
        </g>
        <g
           transform="matrix(0 0 0 0 344.64 203.03)"
           id="g85">
          <use
             xlink:href="#p2"
             id="use84" />
        </g>
        <g
           transform="matrix(0 0 0 0 297.03 210.69)"
           id="g86">
          <use
             xlink:href="#p2"
             id="use85" />
        </g>
        <g
           transform="matrix(0 0 0 0 252.18 217.78)"
           id="g87">
          <use
             xlink:href="#p2"
             id="use86" />
        </g>
        <g
           transform="matrix(0 0 0 0 218.81 222.53)"
           id="g88">
          <use
             xlink:href="#p2"
             id="use87" />
        </g>
        <g
           transform="matrix(0 0 0 0 196.8 224.88)"
           id="g89">
          <use
             xlink:href="#p2"
             id="use88" />
        </g>
        <g
           transform="matrix(0 0 0 0 183.18 225.46)"
           id="g90">
          <use
             xlink:href="#p2"
             id="use89" />
        </g>
        <g
           transform="matrix(0 0 0 0 174.47 225.07)"
           id="g91">
          <use
             xlink:href="#p2"
             id="use90" />
        </g>
        <g
           transform="matrix(0 0 0 0 169.52 223.92)"
           id="g92">
          <use
             xlink:href="#p2"
             id="use91" />
        </g>
        <g
           transform="matrix(0 0 0 0 167.08 222.33)"
           id="g93">
          <use
             xlink:href="#p2"
             id="use92" />
        </g>
        <g
           transform="matrix(0 0 0 0 166.68 220.36)"
           id="g94">
          <use
             xlink:href="#p2"
             id="use93" />
        </g>
        <g
           transform="matrix(0 0 0 0 168.3 218.03)"
           id="g95">
          <use
             xlink:href="#p2"
             id="use94" />
        </g>
        <g
           transform="matrix(0 0 0 0 170.92 215.6)"
           id="g96">
          <use
             xlink:href="#p2"
             id="use95" />
        </g>
        <g
           transform="matrix(0 0 0 0 176.03 212.72)"
           id="g97">
          <use
             xlink:href="#p2"
             id="use96" />
        </g>
        <g
           transform="matrix(0 0 0 0 181.26 210.09)"
           id="g98">
          <use
             xlink:href="#p2"
             id="use97" />
        </g>
        <g
           transform="matrix(0 0 0 0 187.4 207.43)"
           id="g99">
          <use
             xlink:href="#p2"
             id="use98" />
        </g>
        <g
           transform="matrix(0 0 0 0 196.28 204.32)"
           id="g100">
          <use
             xlink:href="#p2"
             id="use99" />
        </g>
        <g
           transform="matrix(0 0 0 0 209.14 200.54)"
           id="g101">
          <use
             xlink:href="#p2"
             id="use100" />
        </g>
        <g
           transform="matrix(0 0 0 0 217.41 197.92)"
           id="g102">
          <use
             xlink:href="#p2"
             id="use101" />
        </g>
        <use
           xlink:href="#p2"
           x="216.48"
           y="197.98"
           id="use102" />
      </g>
      <g
         fill="none"
         stroke="#e78ac3"
         stroke-width="0.66"
         id="g104">
        <polyline
           fill="none"
           points="383.62,197.47 383.62,197.47 379.92,198.32 352.68,204.86 299.91,217.01 246.63,228.66 206.14,237.35 177.83,242.63 159.81,245.11 147,246.25 138.79,246.4 133.86,245.63 130.28,244.57 127.63,243.31 125.73,242.03 124.4,240.63 123.63,239.2 123.24,237.7 123.25,236.19 123.4,234.74 123.69,233.4 124.2,232.02 125.1,230.53 125.92,229.1 127.2,227.47 127.14,226.79"
           id="polyline103" />
      </g>
      <g
         fill="#e78ac3"
         stroke-linejoin="miter"
         stroke-width="0.66"
         id="g128">
        <g
           transform="matrix(0 0 0 0 383.62 197.47)"
           id="g105">
          <path
             d="m0,-6.22l5.38,9.33l-10.77,0l5.38,-9.33"
             id="p3" />
          <use
             xlink:href="#p3"
             id="use104" />
        </g>
        <g
           transform="matrix(0 0 0 0 379.92 198.32)"
           id="g106">
          <use
             xlink:href="#p3"
             id="use105" />
        </g>
        <g
           transform="matrix(0 0 0 0 352.68 204.86)"
           id="g107">
          <use
             xlink:href="#p3"
             id="use106" />
        </g>
        <g
           transform="matrix(0 0 0 0 299.91 217.01)"
           id="g108">
          <use
             xlink:href="#p3"
             id="use107" />
        </g>
        <g
           transform="matrix(0 0 0 0 246.63 228.66)"
           id="g109">
          <use
             xlink:href="#p3"
             id="use108" />
        </g>
        <g
           transform="matrix(0 0 0 0 206.14 237.35)"
           id="g110">
          <use
             xlink:href="#p3"
             id="use109" />
        </g>
        <g
           transform="matrix(0 0 0 0 177.83 242.63)"
           id="g111">
          <use
             xlink:href="#p3"
             id="use110" />
        </g>
        <g
           transform="matrix(0 0 0 0 159.81 245.11)"
           id="g112">
          <use
             xlink:href="#p3"
             id="use111" />
        </g>
        <g
           transform="matrix(0 0 0 0 147 246.25)"
           id="g113">
          <use
             xlink:href="#p3"
             id="use112" />
        </g>
        <g
           transform="matrix(0 0 0 0 138.79 246.4)"
           id="g114">
          <use
             xlink:href="#p3"
             id="use113" />
        </g>
        <g
           transform="matrix(0 0 0 0 133.86 245.63)"
           id="g115">
          <use
             xlink:href="#p3"
             id="use114" />
        </g>
        <g
           transform="matrix(0 0 0 0 130.28 244.57)"
           id="g116">
          <use
             xlink:href="#p3"
             id="use115" />
        </g>
        <g
           transform="matrix(0 0 0 0 127.63 243.31)"
           id="g117">
          <use
             xlink:href="#p3"
             id="use116" />
        </g>
        <g
           transform="matrix(0 0 0 0 125.73 242.03)"
           id="g118">
          <use
             xlink:href="#p3"
             id="use117" />
        </g>
        <g
           transform="matrix(0 0 0 0 124.4 240.63)"
           id="g119">
          <use
             xlink:href="#p3"
             id="use118" />
        </g>
        <g
           transform="matrix(0 0 0 0 123.63 239.2)"
           id="g120">
          <use
             xlink:href="#p3"
             id="use119" />
        </g>
        <g
           transform="matrix(0 0 0 0 123.24 237.7)"
           id="g121">
          <use
             xlink:href="#p3"
             id="use120" />
        </g>
        <g
           transform="matrix(0 0 0 0 123.25 236.19)"
           id="g122">
          <use
             xlink:href="#p3"
             id="use121" />
        </g>
        <g
           transform="matrix(0 0 0 0 123.4 234.74)"
           id="g123">
          <use
             xlink:href="#p3"
             id="use122" />
        </g>
        <use
           xlink:href="#p3"
           x="123.69"
           y="233.4"
           id="use123" />
        <use
           xlink:href="#p3"
           x="124.2"
           y="232.02"
           id="use124" />
        <use
           xlink:href="#p3"
           x="125.1"
           y="230.53"
           id="use125" />
        <use
           xlink:href="#p3"
           x="125.92"
           y="229.1"
           id="use126" />
        <use
           xlink:href="#p3"
           x="127.2"
           y="227.47"
           id="use127" />
        <use
           xlink:href="#p3"
           x="127.14"
           y="226.79"
           id="use128" />
      </g>
      <g
         fill="none"
         stroke="#8da0cb"
         stroke-width="0.66"
         id="g129">
        <polyline
           fill="none"
           points="383.62,197.47 363.82,202.49 302.26,218.13 234.47,235.08 184.64,246.83 152.59,253.55 132.81,256.8 120.81,258.01 113.84,257.98 109.06,257.4 106.12,256.47 103.96,255.43 102.6,254.25 101.53,253.05 100.65,251.93 99.85,250.62 99.2,248.95"
           id="polyline128" />
      </g>
      <g
         fill="#8da0cb"
         stroke-linejoin="miter"
         stroke-width="0.66"
         id="g145">
        <g
           transform="matrix(0 0 0 0 383.62 197.47)"
           id="g130">
          <path
             d="m0,6.22l5.38,-9.33l-10.77,0l5.38,9.33"
             id="p4" />
        </g>
        <g
           transform="matrix(0 0 0 0 363.82 202.49)"
           id="g131">
          <use
             xlink:href="#p4"
             id="use130" />
        </g>
        <g
           transform="matrix(0 0 0 0 302.26 218.13)"
           id="g132">
          <use
             xlink:href="#p4"
             id="use131" />
        </g>
        <g
           transform="matrix(0 0 0 0 234.47 235.08)"
           id="g133">
          <use
             xlink:href="#p4"
             id="use132" />
        </g>
        <g
           transform="matrix(0 0 0 0 184.64 246.83)"
           id="g134">
          <use
             xlink:href="#p4"
             id="use133" />
        </g>
        <g
           transform="matrix(0 0 0 0 152.59 253.55)"
           id="g135">
          <use
             xlink:href="#p4"
             id="use134" />
        </g>
        <g
           transform="matrix(0 0 0 0 132.81 256.8)"
           id="g136">
          <use
             xlink:href="#p4"
             id="use135" />
        </g>
        <g
           transform="matrix(0 0 0 0 120.81 258.01)"
           id="g137">
          <use
             xlink:href="#p4"
             id="use136" />
        </g>
        <g
           transform="matrix(0 0 0 0 113.84 257.98)"
           id="g138">
          <use
             xlink:href="#p4"
             id="use137" />
        </g>
        <g
           transform="matrix(0 0 0 0 109.06 257.4)"
           id="g139">
          <use
             xlink:href="#p4"
             id="use138" />
        </g>
        <g
           transform="matrix(0 0 0 0 106.12 256.47)"
           id="g140">
          <use
             xlink:href="#p4"
             id="use139" />
        </g>
        <g
           transform="matrix(0 0 0 0 103.96 255.43)"
           id="g141">
          <use
             xlink:href="#p4"
             id="use140" />
        </g>
        <g
           transform="matrix(0 0 0 0 102.6 254.25)"
           id="g142">
          <use
             xlink:href="#p4"
             id="use141" />
        </g>
        <g
           transform="matrix(0 0 0 0 101.53 253.05)"
           id="g143">
          <use
             xlink:href="#p4"
             id="use142" />
        </g>
        <g
           transform="matrix(0 0 0 0 100.65 251.93)"
           id="g144">
          <use
             xlink:href="#p4"
             id="use143" />
        </g>
        <use
           xlink:href="#p4"
           x="99.85"
           y="250.62"
           id="use144" />
        <use
           xlink:href="#p4"
           x="99.2"
           y="248.95"
           id="use145" />
      </g>
      <g
         fill="none"
         stroke="#fc8d62"
         stroke-width="0.66"
         id="g146">
        <polyline
           fill="none"
           points="383.62,197.47 383.63,197.45 383.44,197.4 383.14,197.3 231.17,240.12 155.42,261.05 124.55,267.63 110.01,268.91 102.35,268.62 98.13,267.2 95.29,265.37 93.19,264.03 91.32,262.14"
           id="polyline145" />
      </g>
      <g
         fill="#fc8d62"
         stroke-linejoin="miter"
         stroke-width="0.66"
         id="g158">
        <g
           transform="matrix(0 0 0 0 383.62 197.47)"
           id="g147">
          <path
             d="m0,4.39l3.8,-2.19l0,-4.39l-3.8,-2.19l-3.8,2.19l0,4.39l3.8,2.19"
             id="p5" />
        </g>
        <g
           transform="matrix(0 0 0 0 383.63 197.45)"
           id="g148">
          <use
             xlink:href="#p5"
             id="use147" />
        </g>
        <g
           transform="matrix(0 0 0 0 383.44 197.4)"
           id="g149">
          <use
             xlink:href="#p5"
             id="use148" />
        </g>
        <g
           transform="matrix(0 0 0 0 383.14 197.3)"
           id="g150">
          <use
             xlink:href="#p5"
             id="use149" />
        </g>
        <g
           transform="matrix(0 0 0 0 231.17 240.12)"
           id="g151">
          <use
             xlink:href="#p5"
             id="use150" />
        </g>
        <g
           transform="matrix(0 0 0 0 155.42 261.05)"
           id="g152">
          <use
             xlink:href="#p5"
             id="use151" />
        </g>
        <g
           transform="matrix(0 0 0 0 124.55 267.63)"
           id="g153">
          <use
             xlink:href="#p5"
             id="use152" />
        </g>
        <g
           transform="matrix(0 0 0 0 110.01 268.91)"
           id="g154">
          <use
             xlink:href="#p5"
             id="use153" />
        </g>
        <g
           transform="matrix(0 0 0 0 102.35 268.62)"
           id="g155">
          <use
             xlink:href="#p5"
             id="use154" />
        </g>
        <g
           transform="matrix(0 0 0 0 98.13 267.2)"
           id="g156">
          <use
             xlink:href="#p5"
             id="use155" />
        </g>
        <g
           transform="matrix(0 0 0 0 95.29 265.37)"
           id="g157">
          <use
             xlink:href="#p5"
             id="use156" />
        </g>
        <use
           xlink:href="#p5"
           x="93.19"
           y="264.03"
           id="use157" />
        <use
           xlink:href="#p5"
           x="91.32"
           y="262.14"
           id="use158" />
      </g>
      <g
         fill="#f9f06b"
         stroke-linejoin="miter"
         stroke-width="0.66"
         id="g160">
        <g
           transform="translate(383.62,197.48)"
           id="g159">
          <path
             d="m0,11.57l-2.89,-6.56l-7.13,0.77l4.23,-5.78l-4.23,-5.78l7.13,0.77l2.89,-6.56l2.89,6.56l7.13,-0.77l-4.23,5.78l4.23,5.78l-7.13,-0.77l-2.89,6.56"
             id="path158" />
        </g>
      </g>
    </g>
    <g
       clip-path="url(#c0)"
       id="g196">
      <g
         fill="none"
         stroke="#ffffff"
         stroke-linecap="butt"
         stroke-width="0.66"
         id="g163">
        <path
           d="M71.81,322.2l0,-311.81"
           id="path161" />
        <path
           d="M71.81,322.2l4,0M71.81,306.61l4,0M71.81,291.02l4,0M71.81,275.43l4,0M71.81,259.84l4,0M71.81,244.25l4,0M71.81,228.66l4,0M71.81,213.07l4,0M71.81,197.48l4,0M71.81,181.88l4,0M71.81,166.29l4,0M71.81,150.7l4,0M71.81,135.11l4,0M71.81,119.52l4,0M71.81,103.93l4,0M71.81,88.34l4,0M71.81,72.75l4,0M71.81,57.16l4,0M71.81,41.57l4,0M71.81,25.98l4,0M71.81,10.39l4,0"
           id="path162" />
        <path
           d="M71.81,322.2l8,0M71.81,259.84l8,0M71.81,197.48l8,0M71.81,135.11l8,0M71.81,72.75l8,0M71.81,10.39l8,0"
           id="path163" />
      </g>
      <g
         fill="none"
         stroke="#ffffff"
         stroke-width="0.1"
         id="g174">
        <g
           transform="matrix(0 -1 1 0 17.4 240.02)"
           id="g168">
          <path
             d="m9.16,-11.84c-0.62,-0.42,-1.65,-0.63,-3.11,-0.63c-1.53,0,-2.3,0.35,-2.3,1.06c0,0.56,0.8,0.98,2.41,1.27c1.26,0.22,2.25,0.67,2.96,1.36c0.86,0.82,1.29,2.07,1.29,3.76c0,1.61,-0.41,2.89,-1.25,3.84c-0.83,0.95,-1.98,1.43,-3.44,1.43c-1.45,0,-2.6,-0.47,-3.44,-1.43c-0.83,-0.94,-1.25,-2.25,-1.25,-3.93c0,-1.24,0.41,-2.36,1.25,-3.36c0.32,-0.38,0.71,-0.69,1.16,-0.91c-0.95,-0.48,-1.42,-1.15,-1.42,-2.01c0,-1.65,1.34,-2.48,4.02,-2.48c1.34,0,2.38,0.21,3.11,0.64l0,1.39m-4.45,2.91c-0.41,0.17,-0.78,0.48,-1.12,0.93c-0.52,0.68,-0.78,1.65,-0.78,2.89c0,1.23,0.25,2.2,0.77,2.89c0.52,0.7,1.23,1.05,2.14,1.05c0.89,0,1.6,-0.35,2.12,-1.05c0.52,-0.7,0.78,-1.63,0.78,-2.79c0,-1.21,-0.27,-2.1,-0.83,-2.69c-0.58,-0.62,-1.26,-0.97,-2.03,-1.04c-0.38,-0.03,-0.74,-0.09,-1.05,-0.18m12.52,-5.25c-0.81,1.4,-1.42,2.78,-1.81,4.15c-0.39,1.36,-0.59,2.75,-0.59,4.16c0,1.4,0.19,2.79,0.59,4.17c0.39,1.37,1,2.76,1.81,4.15l-1.46,0c-0.91,-1.43,-1.59,-2.83,-2.05,-4.21c-0.45,-1.38,-0.67,-2.75,-0.67,-4.11c0,-1.35,0.22,-2.72,0.67,-4.09c0.45,-1.37,1.13,-2.78,2.05,-4.21l1.46,0"
             fill="#ffffff"
             stroke="none"
             fill-opacity="1"
             id="path164" />
          <path
             d="m19.96,-8.92l0,-1c0.27,0.13,0.55,0.23,0.84,0.3c0.28,0.06,0.56,0.1,0.83,0.1c0.72,0,1.28,-0.24,1.67,-0.73c0.38,-0.49,0.6,-1.23,0.65,-2.23c-0.21,0.31,-0.47,0.55,-0.8,0.72c-0.32,0.16,-0.68,0.25,-1.07,0.25c-0.81,0,-1.46,-0.24,-1.93,-0.74c-0.47,-0.49,-0.71,-1.16,-0.71,-2.02c0,-0.83,0.24,-1.51,0.74,-2.01c0.49,-0.5,1.15,-0.76,1.97,-0.76c0.94,0,1.66,0.36,2.16,1.08c0.49,0.72,0.74,1.77,0.74,3.15c0,1.28,-0.3,2.31,-0.91,3.08c-0.61,0.76,-1.43,1.15,-2.46,1.15c-0.27,0,-0.55,-0.02,-0.84,-0.08c-0.28,-0.05,-0.57,-0.13,-0.88,-0.24m2.19,-3.46c0.49,0,0.88,-0.16,1.17,-0.5c0.28,-0.33,0.43,-0.8,0.43,-1.39c0,-0.58,-0.14,-1.05,-0.43,-1.39c-0.28,-0.34,-0.68,-0.51,-1.17,-0.51c-0.49,0,-0.88,0.17,-1.17,0.51c-0.29,0.34,-0.43,0.8,-0.43,1.39c0,0.59,0.14,1.05,0.43,1.39c0.29,0.33,0.68,0.5,1.17,0.5m5.84,2.7l3.85,0l0,0.92l-5.18,0l0,-0.92c0.41,-0.43,0.99,-1.01,1.71,-1.74c0.72,-0.73,1.17,-1.2,1.36,-1.41c0.35,-0.39,0.6,-0.73,0.74,-1c0.14,-0.27,0.21,-0.54,0.21,-0.81c0,-0.43,-0.15,-0.78,-0.45,-1.06c-0.3,-0.27,-0.7,-0.41,-1.18,-0.41c-0.34,0,-0.71,0.06,-1.09,0.18c-0.38,0.12,-0.79,0.3,-1.23,0.54l0,-1.11c0.44,-0.17,0.86,-0.31,1.24,-0.4c0.38,-0.09,0.74,-0.13,1.06,-0.13c0.84,0,1.52,0.21,2.02,0.63c0.5,0.42,0.75,0.98,0.75,1.69c0,0.33,-0.06,0.65,-0.18,0.95c-0.12,0.3,-0.35,0.65,-0.68,1.06c-0.09,0.1,-0.38,0.41,-0.86,0.91c-0.48,0.5,-1.17,1.21,-2.06,2.11"
             fill="#ffffff"
             stroke="none"
             fill-opacity="1"
             id="path165" />
          <path
             d="m34.03,-13.63l10.71,0l0,1.4l-8.62,10.67l8.82,0l0,1.55l-11.12,0l0,-1.4l8.61,-10.67l-8.4,0l0,-1.55m19.44,4.97c-0.18,-0.1,-0.39,-0.18,-0.61,-0.24c-0.22,-0.05,-0.46,-0.07,-0.73,-0.07c-0.95,0,-1.67,0.3,-2.18,0.92c-0.5,0.61,-0.76,1.5,-0.76,2.66l0,5.38l-1.68,0l0,-10.22l1.68,0l0,1.58c0.35,-0.62,0.81,-1.08,1.37,-1.38c0.56,-0.3,1.25,-0.45,2.06,-0.45c0.11,0,0.24,0,0.38,0.02c0.14,0.01,0.29,0.03,0.46,0.06l0,1.72m4.74,-4.97l1.55,0l-4.74,15.36l-1.55,0l4.74,-15.36"
             fill="#ffffff"
             stroke="none"
             fill-opacity="1"
             id="path166" />
          <path
             d="m61.01,-8.92l0,-1c0.27,0.13,0.55,0.23,0.84,0.3c0.28,0.06,0.56,0.1,0.83,0.1c0.72,0,1.28,-0.24,1.67,-0.73c0.38,-0.49,0.6,-1.23,0.65,-2.23c-0.21,0.31,-0.47,0.55,-0.8,0.72c-0.32,0.16,-0.68,0.25,-1.07,0.25c-0.81,0,-1.46,-0.24,-1.93,-0.74c-0.47,-0.49,-0.71,-1.16,-0.71,-2.02c0,-0.83,0.24,-1.51,0.74,-2.01c0.49,-0.5,1.15,-0.76,1.97,-0.76c0.94,0,1.66,0.36,2.16,1.08c0.49,0.72,0.74,1.77,0.74,3.15c0,1.28,-0.3,2.31,-0.91,3.08c-0.61,0.76,-1.43,1.15,-2.46,1.15c-0.27,0,-0.55,-0.02,-0.84,-0.08c-0.28,-0.05,-0.57,-0.13,-0.88,-0.24m2.19,-3.46c0.49,0,0.88,-0.16,1.17,-0.5c0.28,-0.33,0.43,-0.8,0.43,-1.39c0,-0.58,-0.14,-1.05,-0.43,-1.39c-0.28,-0.34,-0.68,-0.51,-1.17,-0.51c-0.49,0,-0.88,0.17,-1.17,0.51c-0.29,0.34,-0.43,0.8,-0.43,1.39c0,0.59,0.14,1.05,0.43,1.39c0.29,0.33,0.68,0.5,1.17,0.5m7.92,-3.57l-2.78,4.35l2.78,0l0,-4.35m-0.28,-0.96l1.38,0l0,5.32l1.16,0l0,0.91l-1.16,0l0,1.92l-1.1,0l0,-1.92l-3.68,0l0,-1.06l3.39,-5.17"
             fill="#ffffff"
             stroke="none"
             fill-opacity="1"
             id="path167" />
          <path
             d="m75.08,-13.63l10.71,0l0,1.4l-8.62,10.67l8.82,0l0,1.55l-11.12,0l0,-1.4l8.61,-10.67l-8.4,0l0,-1.55m19.44,4.97c-0.18,-0.1,-0.39,-0.18,-0.61,-0.24c-0.22,-0.05,-0.46,-0.07,-0.73,-0.07c-0.95,0,-1.67,0.3,-2.18,0.92c-0.5,0.61,-0.76,1.5,-0.76,2.66l0,5.38l-1.68,0l0,-10.22l1.68,0l0,1.58c0.35,-0.62,0.81,-1.08,1.37,-1.38c0.56,-0.3,1.25,-0.45,2.06,-0.45c0.11,0,0.24,0,0.38,0.02c0.14,0.01,0.29,0.03,0.46,0.06l0,1.72m1.49,-5.53l1.46,0c0.91,1.43,1.59,2.84,2.05,4.21c0.45,1.37,0.68,2.74,0.68,4.09c0,1.36,-0.22,2.73,-0.68,4.11c-0.45,1.38,-1.13,2.78,-2.05,4.21l-1.46,0c0.81,-1.39,1.41,-2.78,1.81,-4.15c0.39,-1.37,0.59,-2.77,0.59,-4.17c0,-1.4,-0.19,-2.79,-0.59,-4.16c-0.39,-1.36,-1,-2.75,-1.81,-4.15m17.54,0c-0.81,1.4,-1.42,2.78,-1.81,4.15c-0.39,1.36,-0.59,2.75,-0.59,4.16c0,1.4,0.19,2.79,0.59,4.17c0.39,1.37,1,2.76,1.81,4.15l-1.46,0c-0.91,-1.43,-1.59,-2.83,-2.05,-4.21c-0.45,-1.38,-0.67,-2.75,-0.67,-4.11c0,-1.35,0.22,-2.72,0.67,-4.09c0.45,-1.37,1.13,-2.78,2.05,-4.21l1.46,0m22.42,8.19c-0.53,0,-0.94,0.22,-1.25,0.67c-0.3,0.45,-0.45,1.07,-0.45,1.88c0,0.79,0.15,1.41,0.45,1.86c0.3,0.45,0.72,0.67,1.25,0.67c0.51,0,0.92,-0.22,1.22,-0.67c0.3,-0.45,0.45,-1.07,0.45,-1.86c0,-0.79,-0.15,-1.42,-0.45,-1.87c-0.3,-0.45,-0.71,-0.67,-1.22,-0.67m0,-1.16c0.96,0,1.72,0.33,2.29,1c0.56,0.66,0.84,1.57,0.84,2.71c0,1.13,-0.28,2.04,-0.85,2.7c-0.56,0.66,-1.33,0.99,-2.28,0.99c-0.97,0,-1.74,-0.33,-2.31,-0.99c-0.56,-0.66,-0.84,-1.56,-0.84,-2.7c0,-1.14,0.28,-2.05,0.85,-2.71c0.56,-0.66,1.33,-1,2.3,-1m-16.75,-6.72c0.96,0,1.72,0.33,2.3,1c0.57,0.66,0.85,1.56,0.85,2.7c0,1.15,-0.28,2.05,-0.85,2.72c-0.56,0.66,-1.33,0.99,-2.3,0.99c-0.96,0,-1.73,-0.33,-2.29,-0.99c-0.56,-0.66,-0.84,-1.57,-0.84,-2.71c0,-1.13,0.28,-2.03,0.84,-2.7c0.56,-0.66,1.33,-1,2.29,-1m8.24,0l1.46,0l-8.52,14.14l-1.46,0l8.52,-14.14m-8.24,1.16c-0.52,0,-0.93,0.22,-1.23,0.67c-0.3,0.45,-0.45,1.07,-0.45,1.86c0,0.8,0.14,1.42,0.44,1.88c0.29,0.45,0.71,0.67,1.24,0.67c0.52,0,0.94,-0.22,1.24,-0.67c0.3,-0.45,0.45,-1.07,0.45,-1.88c0,-0.78,-0.15,-1.4,-0.45,-1.86c-0.3,-0.45,-0.71,-0.68,-1.24,-0.68m9.42,5.55c0.96,0,1.72,0.33,2.29,1c0.56,0.66,0.84,1.57,0.84,2.71c0,1.13,-0.28,2.04,-0.85,2.7c-0.56,0.66,-1.33,0.99,-2.28,0.99c-0.97,0,-1.74,-0.33,-2.31,-0.99c-0.56,-0.66,-0.84,-1.56,-0.84,-2.7c0,-1.14,0.28,-2.05,0.85,-2.71c0.56,-0.66,1.33,-1,2.3,-1m0,1.16c-0.52,0,-0.94,0.22,-1.24,0.67c-0.3,0.45,-0.45,1.07,-0.45,1.88c0,0.79,0.15,1.41,0.45,1.86c0.3,0.45,0.71,0.67,1.24,0.67c0.51,0,0.92,-0.22,1.22,-0.67c0.3,-0.45,0.45,-1.07,0.45,-1.86c0,-0.79,-0.15,-1.42,-0.45,-1.87c-0.3,-0.45,-0.71,-0.67,-1.22,-0.67m12.99,-8.19l1.46,0c0.91,1.43,1.59,2.84,2.05,4.21c0.45,1.37,0.68,2.74,0.68,4.09c0,1.36,-0.22,2.73,-0.68,4.11c-0.45,1.38,-1.13,2.78,-2.05,4.21l-1.46,0c0.81,-1.39,1.41,-2.78,1.81,-4.15c0.39,-1.37,0.59,-2.77,0.59,-4.17c0,-1.4,-0.19,-2.79,-0.59,-4.16c-0.39,-1.36,-1,-2.75,-1.81,-4.15"
             fill="#ffffff"
             stroke="none"
             fill-opacity="1"
             id="path168" />
        </g>
        <path
           d="m25.86,322.62l10.01,0l0,1.32l-10.01,0l0,-1.32m17.75,-4.6l-3.98,6.22l3.98,0l0,-6.22m-0.41,-1.37l1.98,0l0,7.6l1.66,0l0,1.31l-1.66,0l0,2.75l-1.57,0l0,-2.75l-5.26,0l0,-1.52l4.85,-7.39m9.63,1.03c-0.81,0,-1.42,0.39,-1.83,1.19c-0.4,0.79,-0.61,2,-0.61,3.6c0,1.59,0.2,2.79,0.61,3.59c0.4,0.79,1.01,1.19,1.83,1.19c0.81,0,1.43,-0.39,1.83,-1.19c0.4,-0.79,0.61,-1.99,0.61,-3.59c0,-1.6,-0.2,-2.8,-0.61,-3.6c-0.4,-0.79,-1.02,-1.19,-1.83,-1.19m0,-1.25c1.3,0,2.3,0.51,2.99,1.55c0.69,1.03,1.03,2.53,1.03,4.5c0,1.96,-0.34,3.46,-1.03,4.49c-0.69,1.03,-1.68,1.55,-2.99,1.55c-1.3,0,-2.3,-0.51,-2.99,-1.55c-0.69,-1.03,-1.03,-2.53,-1.03,-4.49c0,-1.96,0.34,-3.47,1.03,-4.5c0.69,-1.03,1.68,-1.55,2.99,-1.55m10.17,1.25c-0.81,0,-1.42,0.39,-1.83,1.19c-0.4,0.79,-0.61,2,-0.61,3.6c0,1.59,0.2,2.79,0.61,3.59c0.4,0.79,1.01,1.19,1.83,1.19c0.81,0,1.43,-0.39,1.83,-1.19c0.4,-0.79,0.61,-1.99,0.61,-3.59c0,-1.6,-0.2,-2.8,-0.61,-3.6c-0.4,-0.79,-1.02,-1.19,-1.83,-1.19m0,-1.25c1.3,0,2.3,0.51,2.99,1.55c0.69,1.03,1.03,2.53,1.03,4.5c0,1.96,-0.34,3.46,-1.03,4.49c-0.69,1.03,-1.68,1.55,-2.99,1.55c-1.3,0,-2.3,-0.51,-2.99,-1.55c-0.69,-1.03,-1.03,-2.53,-1.03,-4.49c0,-1.96,0.34,-3.47,1.03,-4.5c0.69,-1.03,1.68,-1.55,2.99,-1.55"
           fill="#ffffff"
           stroke="none"
           fill-opacity="1"
           id="path169" />
        <path
           d="m25.86,260.26l10.01,0l0,1.32l-10.01,0l0,-1.32m14.78,4.35l5.5,0l0,1.32l-7.4,0l0,-1.32c0.59,-0.61,1.41,-1.45,2.44,-2.49c1.03,-1.04,1.68,-1.71,1.94,-2.01c0.5,-0.56,0.85,-1.04,1.05,-1.44c0.2,-0.39,0.3,-0.77,0.3,-1.16c0,-0.61,-0.21,-1.12,-0.65,-1.51c-0.43,-0.39,-1,-0.58,-1.69,-0.58c-0.49,0,-1.01,0.08,-1.56,0.25c-0.54,0.17,-1.13,0.43,-1.76,0.78l0,-1.59c0.63,-0.25,1.22,-0.44,1.78,-0.57c0.55,-0.13,1.05,-0.19,1.51,-0.19c1.2,0,2.17,0.3,2.89,0.9c0.71,0.6,1.07,1.41,1.07,2.42c0,0.47,-0.08,0.93,-0.26,1.36c-0.17,0.42,-0.5,0.93,-0.98,1.51c-0.13,0.15,-0.54,0.58,-1.24,1.3c-0.69,0.72,-1.68,1.73,-2.95,3.02m12.19,-9.29c-0.81,0,-1.42,0.39,-1.83,1.19c-0.4,0.79,-0.61,2,-0.61,3.6c0,1.59,0.2,2.79,0.61,3.59c0.4,0.79,1.01,1.19,1.83,1.19c0.81,0,1.43,-0.39,1.83,-1.19c0.4,-0.79,0.61,-1.99,0.61,-3.59c0,-1.6,-0.2,-2.8,-0.61,-3.6c-0.4,-0.79,-1.02,-1.19,-1.83,-1.19m0,-1.25c1.3,0,2.3,0.51,2.99,1.55c0.69,1.03,1.03,2.53,1.03,4.5c0,1.96,-0.34,3.46,-1.03,4.49c-0.69,1.03,-1.68,1.55,-2.99,1.55c-1.3,0,-2.3,-0.51,-2.99,-1.55c-0.69,-1.03,-1.03,-2.53,-1.03,-4.49c0,-1.96,0.34,-3.47,1.03,-4.5c0.69,-1.03,1.68,-1.55,2.99,-1.55m10.17,1.25c-0.81,0,-1.42,0.39,-1.83,1.19c-0.4,0.79,-0.61,2,-0.61,3.6c0,1.59,0.2,2.79,0.61,3.59c0.4,0.79,1.01,1.19,1.83,1.19c0.81,0,1.43,-0.39,1.83,-1.19c0.4,-0.79,0.61,-1.99,0.61,-3.59c0,-1.6,-0.2,-2.8,-0.61,-3.6c-0.4,-0.79,-1.02,-1.19,-1.83,-1.19m0,-1.25c1.3,0,2.3,0.51,2.99,1.55c0.69,1.03,1.03,2.53,1.03,4.5c0,1.96,-0.34,3.46,-1.03,4.49c-0.69,1.03,-1.68,1.55,-2.99,1.55c-1.3,0,-2.3,-0.51,-2.99,-1.55c-0.69,-1.03,-1.03,-2.53,-1.03,-4.49c0,-1.96,0.34,-3.47,1.03,-4.5c0.69,-1.03,1.68,-1.55,2.99,-1.55"
           fill="#ffffff"
           stroke="none"
           fill-opacity="1"
           id="path170" />
        <path
           d="m63.01,192.95c-0.81,0,-1.42,0.39,-1.83,1.19c-0.4,0.79,-0.61,2,-0.61,3.6c0,1.59,0.2,2.79,0.61,3.59c0.4,0.79,1.01,1.19,1.83,1.19c0.81,0,1.43,-0.39,1.83,-1.19c0.4,-0.79,0.61,-1.99,0.61,-3.59c0,-1.6,-0.2,-2.8,-0.61,-3.6c-0.4,-0.79,-1.02,-1.19,-1.83,-1.19m0,-1.25c1.3,0,2.3,0.51,2.99,1.55c0.69,1.03,1.03,2.53,1.03,4.5c0,1.96,-0.34,3.46,-1.03,4.49c-0.69,1.03,-1.68,1.55,-2.99,1.55c-1.3,0,-2.3,-0.51,-2.99,-1.55c-0.69,-1.03,-1.03,-2.53,-1.03,-4.49c0,-1.96,0.34,-3.47,1.03,-4.5c0.69,-1.03,1.68,-1.55,2.99,-1.55"
           fill="#ffffff"
           stroke="none"
           fill-opacity="1"
           id="path171" />
        <path
           d="m40.64,139.88l5.5,0l0,1.32l-7.4,0l0,-1.32c0.59,-0.61,1.41,-1.45,2.44,-2.49c1.03,-1.04,1.68,-1.71,1.94,-2.01c0.5,-0.56,0.85,-1.04,1.05,-1.44c0.2,-0.39,0.3,-0.77,0.3,-1.16c0,-0.61,-0.21,-1.12,-0.65,-1.51c-0.43,-0.39,-1,-0.58,-1.69,-0.58c-0.49,0,-1.01,0.08,-1.56,0.25c-0.54,0.17,-1.13,0.43,-1.76,0.78l0,-1.59c0.63,-0.25,1.22,-0.44,1.78,-0.57c0.55,-0.13,1.05,-0.19,1.51,-0.19c1.2,0,2.17,0.3,2.89,0.9c0.71,0.6,1.07,1.41,1.07,2.42c0,0.47,-0.08,0.93,-0.26,1.36c-0.17,0.42,-0.5,0.93,-0.98,1.51c-0.13,0.15,-0.54,0.58,-1.24,1.3c-0.69,0.72,-1.68,1.73,-2.95,3.02m12.19,-9.29c-0.81,0,-1.42,0.39,-1.83,1.19c-0.4,0.79,-0.61,2,-0.61,3.6c0,1.59,0.2,2.79,0.61,3.59c0.4,0.79,1.01,1.19,1.83,1.19c0.81,0,1.43,-0.39,1.83,-1.19c0.4,-0.79,0.61,-1.99,0.61,-3.59c0,-1.6,-0.2,-2.8,-0.61,-3.6c-0.4,-0.79,-1.02,-1.19,-1.83,-1.19m0,-1.25c1.3,0,2.3,0.51,2.99,1.55c0.69,1.03,1.03,2.53,1.03,4.5c0,1.96,-0.34,3.46,-1.03,4.49c-0.69,1.03,-1.68,1.55,-2.99,1.55c-1.3,0,-2.3,-0.51,-2.99,-1.55c-0.69,-1.03,-1.03,-2.53,-1.03,-4.49c0,-1.96,0.34,-3.47,1.03,-4.5c0.69,-1.03,1.68,-1.55,2.99,-1.55m10.17,1.25c-0.81,0,-1.42,0.39,-1.83,1.19c-0.4,0.79,-0.61,2,-0.61,3.6c0,1.59,0.2,2.79,0.61,3.59c0.4,0.79,1.01,1.19,1.83,1.19c0.81,0,1.43,-0.39,1.83,-1.19c0.4,-0.79,0.61,-1.99,0.61,-3.59c0,-1.6,-0.2,-2.8,-0.61,-3.6c-0.4,-0.79,-1.02,-1.19,-1.83,-1.19m0,-1.25c1.3,0,2.3,0.51,2.99,1.55c0.69,1.03,1.03,2.53,1.03,4.5c0,1.96,-0.34,3.46,-1.03,4.49c-0.69,1.03,-1.68,1.55,-2.99,1.55c-1.3,0,-2.3,-0.51,-2.99,-1.55c-0.69,-1.03,-1.03,-2.53,-1.03,-4.49c0,-1.96,0.34,-3.47,1.03,-4.5c0.69,-1.03,1.68,-1.55,2.99,-1.55"
           fill="#ffffff"
           stroke="none"
           fill-opacity="1"
           id="path172" />
        <path
           d="m43.61,68.56l-3.98,6.22l3.98,0l0,-6.22m-0.41,-1.37l1.98,0l0,7.6l1.66,0l0,1.31l-1.66,0l0,2.75l-1.57,0l0,-2.75l-5.26,0l0,-1.52l4.85,-7.39m9.63,1.03c-0.81,0,-1.42,0.39,-1.83,1.19c-0.4,0.79,-0.61,2,-0.61,3.6c0,1.59,0.2,2.79,0.61,3.59c0.4,0.79,1.01,1.19,1.83,1.19c0.81,0,1.43,-0.39,1.83,-1.19c0.4,-0.79,0.61,-1.99,0.61,-3.59c0,-1.6,-0.2,-2.8,-0.61,-3.6c-0.4,-0.79,-1.02,-1.19,-1.83,-1.19m0,-1.25c1.3,0,2.3,0.51,2.99,1.55c0.69,1.03,1.03,2.53,1.03,4.5c0,1.96,-0.34,3.46,-1.03,4.49c-0.69,1.03,-1.68,1.55,-2.99,1.55c-1.3,0,-2.3,-0.51,-2.99,-1.55c-0.69,-1.03,-1.03,-2.53,-1.03,-4.49c0,-1.96,0.34,-3.47,1.03,-4.5c0.69,-1.03,1.68,-1.55,2.99,-1.55m10.17,1.25c-0.81,0,-1.42,0.39,-1.83,1.19c-0.4,0.79,-0.61,2,-0.61,3.6c0,1.59,0.2,2.79,0.61,3.59c0.4,0.79,1.01,1.19,1.83,1.19c0.81,0,1.43,-0.39,1.83,-1.19c0.4,-0.79,0.61,-1.99,0.61,-3.59c0,-1.6,-0.2,-2.8,-0.61,-3.6c-0.4,-0.79,-1.02,-1.19,-1.83,-1.19m0,-1.25c1.3,0,2.3,0.51,2.99,1.55c0.69,1.03,1.03,2.53,1.03,4.5c0,1.96,-0.34,3.46,-1.03,4.49c-0.69,1.03,-1.68,1.55,-2.99,1.55c-1.3,0,-2.3,-0.51,-2.99,-1.55c-0.69,-1.03,-1.03,-2.53,-1.03,-4.49c0,-1.96,0.34,-3.47,1.03,-4.5c0.69,-1.03,1.68,-1.55,2.99,-1.55"
           fill="#ffffff"
           stroke="none"
           fill-opacity="1"
           id="path173" />
        <path
           d="m42.85,10.03c-0.7,0,-1.26,0.24,-1.68,0.72c-0.41,0.48,-0.62,1.14,-0.62,1.99c0,0.83,0.2,1.5,0.62,1.98c0.41,0.48,0.97,0.73,1.68,0.73c0.7,0,1.26,-0.24,1.68,-0.73c0.41,-0.48,0.62,-1.14,0.62,-1.98c0,-0.84,-0.2,-1.5,-0.62,-1.99c-0.41,-0.48,-0.97,-0.72,-1.68,-0.72m3.13,-4.94l0,1.43c-0.39,-0.18,-0.79,-0.33,-1.19,-0.42c-0.4,-0.09,-0.8,-0.14,-1.19,-0.14c-1.04,0,-1.83,0.35,-2.38,1.05c-0.54,0.7,-0.86,1.76,-0.94,3.18c0.3,-0.45,0.69,-0.8,1.15,-1.04c0.46,-0.24,0.97,-0.36,1.53,-0.36c1.17,0,2.09,0.35,2.77,1.06c0.67,0.71,1.01,1.67,1.01,2.9c0,1.19,-0.35,2.15,-1.06,2.88c-0.7,0.72,-1.65,1.08,-2.82,1.08c-1.34,0,-2.38,-0.51,-3.09,-1.55c-0.71,-1.03,-1.07,-2.53,-1.07,-4.49c0,-1.84,0.43,-3.31,1.31,-4.41c0.87,-1.09,2.04,-1.64,3.52,-1.64c0.39,0,0.79,0.03,1.19,0.11c0.4,0.07,0.82,0.19,1.26,0.35m6.85,0.78c-0.81,0,-1.42,0.39,-1.83,1.19c-0.4,0.79,-0.61,2,-0.61,3.6c0,1.59,0.2,2.79,0.61,3.59c0.4,0.79,1.01,1.19,1.83,1.19c0.81,0,1.43,-0.39,1.83,-1.19c0.4,-0.79,0.61,-1.99,0.61,-3.59c0,-1.6,-0.2,-2.8,-0.61,-3.6c-0.4,-0.79,-1.02,-1.19,-1.83,-1.19m0,-1.25c1.3,0,2.3,0.51,2.99,1.55c0.69,1.03,1.03,2.53,1.03,4.5c0,1.96,-0.34,3.46,-1.03,4.49c-0.69,1.03,-1.68,1.55,-2.99,1.55c-1.3,0,-2.3,-0.51,-2.99,-1.55c-0.69,-1.03,-1.03,-2.53,-1.03,-4.49c0,-1.96,0.34,-3.47,1.03,-4.5c0.69,-1.03,1.68,-1.55,2.99,-1.55m10.17,1.25c-0.81,0,-1.42,0.39,-1.83,1.19c-0.4,0.79,-0.61,2,-0.61,3.6c0,1.59,0.2,2.79,0.61,3.59c0.4,0.79,1.01,1.19,1.83,1.19c0.81,0,1.43,-0.39,1.83,-1.19c0.4,-0.79,0.61,-1.99,0.61,-3.59c0,-1.6,-0.2,-2.8,-0.61,-3.6c-0.4,-0.79,-1.02,-1.19,-1.83,-1.19m0,-1.25c1.3,0,2.3,0.51,2.99,1.55c0.69,1.03,1.03,2.53,1.03,4.5c0,1.96,-0.34,3.46,-1.03,4.49c-0.69,1.03,-1.68,1.55,-2.99,1.55c-1.3,0,-2.3,-0.51,-2.99,-1.55c-0.69,-1.03,-1.03,-2.53,-1.03,-4.49c0,-1.96,0.34,-3.47,1.03,-4.5c0.69,-1.03,1.68,-1.55,2.99,-1.55"
           fill="#ffffff"
           stroke="none"
           fill-opacity="1"
           id="path174" />
      </g>
      <g
         fill="none"
         stroke="#ffffff"
         stroke-linecap="butt"
         stroke-width="0.66"
         id="g180">
        <path
           d="M445.98,322.2l0,-311.81"
           id="path175" />
        <path
           d="M445.98,322.2l-4,0M445.98,306.61l-4,0M445.98,291.02l-4,0M445.98,275.43l-4,0M445.98,259.84l-4,0M445.98,244.25l-4,0M445.98,228.66l-4,0M445.98,213.07l-4,0M445.98,197.48l-4,0M445.98,181.88l-4,0M445.98,166.29l-4,0M445.98,150.7l-4,0M445.98,135.11l-4,0M445.98,119.52l-4,0M445.98,103.93l-4,0M445.98,88.34l-4,0M445.98,72.75l-4,0M445.98,57.16l-4,0M445.98,41.57l-4,0M445.98,25.98l-4,0M445.98,10.39l-4,0"
           id="path176" />
        <path
           d="M445.98,322.2l-8,0M445.98,259.84l-8,0M445.98,197.48l-8,0M445.98,135.11l-8,0M445.98,72.75l-8,0M445.98,10.39l-8,0"
           id="path177" />
        <path
           d="M71.81,322.2l374.17,0"
           id="path178" />
        <path
           d="M71.81,322.2l0,-4M87.4,322.2l0,-4M102.99,322.2l0,-4M118.58,322.2l0,-4M134.17,322.2l0,-4M149.76,322.2l0,-4M165.35,322.2l0,-4M180.94,322.2l0,-4M196.53,322.2l0,-4M212.12,322.2l0,-4M227.71,322.2l0,-4M243.3,322.2l0,-4M258.89,322.2l0,-4M274.48,322.2l0,-4M290.07,322.2l0,-4M305.66,322.2l0,-4M321.25,322.2l0,-4M336.85,322.2l0,-4M352.44,322.2l0,-4M368.03,322.2l0,-4M383.62,322.2l0,-4M399.21,322.2l0,-4M414.8,322.2l0,-4M430.39,322.2l0,-4M445.98,322.2l0,-4"
           id="path179" />
        <path
           d="M71.81,322.2l0,-8M134.17,322.2l0,-8M196.53,322.2l0,-8M258.89,322.2l0,-8M321.25,322.2l0,-8M383.62,322.2l0,-8M445.98,322.2l0,-8"
           id="path180" />
      </g>
      <g
         fill="none"
         stroke="#ffffff"
         stroke-width="0.1"
         id="g192">
        <path
           d="m194.33,361.6c-0.62,-0.42,-1.65,-0.63,-3.11,-0.63c-1.53,0,-2.3,0.35,-2.3,1.06c0,0.56,0.8,0.98,2.41,1.27c1.26,0.22,2.25,0.67,2.96,1.36c0.86,0.82,1.29,2.07,1.29,3.76c0,1.61,-0.41,2.89,-1.25,3.84c-0.83,0.95,-1.98,1.43,-3.44,1.43c-1.45,0,-2.6,-0.47,-3.44,-1.43c-0.83,-0.94,-1.25,-2.25,-1.25,-3.93c0,-1.24,0.41,-2.36,1.25,-3.36c0.32,-0.38,0.71,-0.69,1.16,-0.91c-0.95,-0.48,-1.42,-1.15,-1.42,-2.01c0,-1.65,1.34,-2.48,4.02,-2.48c1.34,0,2.38,0.21,3.11,0.64l0,1.39m-4.45,2.91c-0.41,0.17,-0.78,0.48,-1.12,0.93c-0.52,0.68,-0.78,1.65,-0.78,2.89c0,1.23,0.25,2.2,0.77,2.89c0.52,0.7,1.23,1.05,2.14,1.05c0.89,0,1.6,-0.35,2.12,-1.05c0.52,-0.7,0.78,-1.63,0.78,-2.79c0,-1.21,-0.27,-2.1,-0.83,-2.69c-0.58,-0.62,-1.26,-0.97,-2.03,-1.04c-0.38,-0.03,-0.74,-0.09,-1.05,-0.18m12.52,-5.25c-0.81,1.4,-1.42,2.78,-1.81,4.15c-0.39,1.36,-0.59,2.75,-0.59,4.16c0,1.4,0.19,2.79,0.59,4.17c0.39,1.37,1,2.76,1.81,4.15l-1.46,0c-0.91,-1.43,-1.59,-2.83,-2.05,-4.21c-0.45,-1.38,-0.67,-2.75,-0.67,-4.11c0,-1.35,0.22,-2.72,0.67,-4.09c0.45,-1.37,1.13,-2.78,2.05,-4.21l1.46,0"
           fill="#ffffff"
           stroke="none"
           fill-opacity="1"
           id="path181" />
        <path
           d="m205.13,364.52l0,-1c0.27,0.13,0.55,0.23,0.84,0.3c0.28,0.06,0.56,0.1,0.83,0.1c0.72,0,1.28,-0.24,1.67,-0.73c0.38,-0.49,0.6,-1.23,0.65,-2.23c-0.21,0.31,-0.47,0.55,-0.8,0.72c-0.32,0.16,-0.68,0.25,-1.07,0.25c-0.81,0,-1.46,-0.24,-1.93,-0.74c-0.47,-0.49,-0.71,-1.16,-0.71,-2.02c0,-0.83,0.24,-1.51,0.74,-2.01c0.49,-0.5,1.15,-0.76,1.97,-0.76c0.94,0,1.66,0.36,2.16,1.08c0.49,0.72,0.74,1.77,0.74,3.15c0,1.28,-0.3,2.31,-0.91,3.08c-0.61,0.76,-1.43,1.15,-2.46,1.15c-0.27,0,-0.55,-0.02,-0.84,-0.08c-0.28,-0.05,-0.57,-0.13,-0.88,-0.24m2.19,-3.46c0.49,0,0.88,-0.16,1.17,-0.5c0.28,-0.33,0.43,-0.8,0.43,-1.39c0,-0.58,-0.14,-1.05,-0.43,-1.39c-0.28,-0.34,-0.68,-0.51,-1.17,-0.51c-0.49,0,-0.88,0.17,-1.17,0.51c-0.29,0.34,-0.43,0.8,-0.43,1.39c0,0.59,0.14,1.05,0.43,1.39c0.29,0.33,0.68,0.5,1.17,0.5m7.39,-0.89c-0.49,0,-0.88,0.16,-1.17,0.5c-0.28,0.33,-0.43,0.8,-0.43,1.39c0,0.58,0.14,1.05,0.43,1.39c0.28,0.34,0.68,0.51,1.17,0.51c0.49,0,0.88,-0.17,1.17,-0.51c0.29,-0.34,0.43,-0.8,0.43,-1.39c0,-0.59,-0.14,-1.05,-0.43,-1.39c-0.29,-0.33,-0.68,-0.5,-1.17,-0.5m2.19,-3.46l0,1c-0.27,-0.13,-0.55,-0.23,-0.83,-0.3c-0.28,-0.06,-0.56,-0.1,-0.83,-0.1c-0.72,0,-1.28,0.24,-1.67,0.73c-0.38,0.49,-0.6,1.23,-0.65,2.23c0.21,-0.31,0.48,-0.55,0.81,-0.72c0.32,-0.16,0.68,-0.25,1.07,-0.25c0.82,0,1.46,0.24,1.94,0.74c0.47,0.49,0.71,1.17,0.71,2.03c0,0.83,-0.24,1.51,-0.74,2.01c-0.49,0.5,-1.15,0.76,-1.97,0.76c-0.94,0,-1.66,-0.36,-2.16,-1.08c-0.49,-0.72,-0.74,-1.77,-0.74,-3.14c0,-1.29,0.3,-2.31,0.91,-3.08c0.61,-0.76,1.43,-1.15,2.46,-1.15c0.27,0,0.55,0.02,0.83,0.08c0.28,0.05,0.57,0.13,0.88,0.24"
           fill="#ffffff"
           stroke="none"
           fill-opacity="1"
           id="path182" />
        <path
           d="m219.2,359.81l10.71,0l0,1.4l-8.62,10.67l8.82,0l0,1.55l-11.12,0l0,-1.4l8.61,-10.67l-8.4,0l0,-1.55m19.44,4.97c-0.18,-0.1,-0.39,-0.18,-0.61,-0.24c-0.22,-0.05,-0.46,-0.07,-0.73,-0.07c-0.95,0,-1.67,0.3,-2.18,0.92c-0.5,0.61,-0.76,1.5,-0.76,2.66l0,5.38l-1.68,0l0,-10.22l1.68,0l0,1.58c0.35,-0.62,0.81,-1.08,1.37,-1.38c0.56,-0.3,1.25,-0.45,2.06,-0.45c0.11,0,0.24,0,0.38,0.02c0.14,0.01,0.29,0.03,0.46,0.06l0,1.72m4.74,-4.97l1.55,0l-4.74,15.36l-1.55,0l4.74,-15.36"
           fill="#ffffff"
           stroke="none"
           fill-opacity="1"
           id="path183" />
        <path
           d="m246.18,364.52l0,-1c0.27,0.13,0.55,0.23,0.84,0.3c0.28,0.06,0.56,0.1,0.83,0.1c0.72,0,1.28,-0.24,1.67,-0.73c0.38,-0.49,0.6,-1.23,0.65,-2.23c-0.21,0.31,-0.47,0.55,-0.8,0.72c-0.32,0.16,-0.68,0.25,-1.07,0.25c-0.81,0,-1.46,-0.24,-1.93,-0.74c-0.47,-0.49,-0.71,-1.16,-0.71,-2.02c0,-0.83,0.24,-1.51,0.74,-2.01c0.49,-0.5,1.15,-0.76,1.97,-0.76c0.94,0,1.66,0.36,2.16,1.08c0.49,0.72,0.74,1.77,0.74,3.15c0,1.28,-0.3,2.31,-0.91,3.08c-0.61,0.76,-1.43,1.15,-2.46,1.15c-0.27,0,-0.55,-0.02,-0.84,-0.08c-0.28,-0.05,-0.57,-0.13,-0.88,-0.24m2.19,-3.46c0.49,0,0.88,-0.16,1.17,-0.5c0.28,-0.33,0.43,-0.8,0.43,-1.39c0,-0.58,-0.14,-1.05,-0.43,-1.39c-0.28,-0.34,-0.68,-0.51,-1.17,-0.51c-0.49,0,-0.88,0.17,-1.17,0.51c-0.29,0.34,-0.43,0.8,-0.43,1.39c0,0.59,0.14,1.05,0.43,1.39c0.29,0.33,0.68,0.5,1.17,0.5m7.92,-3.57l-2.78,4.35l2.78,0l0,-4.35m-0.28,-0.96l1.38,0l0,5.32l1.16,0l0,0.91l-1.16,0l0,1.92l-1.1,0l0,-1.92l-3.68,0l0,-1.06l3.39,-5.17"
           fill="#ffffff"
           stroke="none"
           fill-opacity="1"
           id="path184" />
        <path
           d="m260.25,359.81l10.71,0l0,1.4l-8.62,10.67l8.82,0l0,1.55l-11.12,0l0,-1.4l8.61,-10.67l-8.4,0l0,-1.55m19.44,4.97c-0.18,-0.1,-0.39,-0.18,-0.61,-0.24c-0.22,-0.05,-0.46,-0.07,-0.73,-0.07c-0.95,0,-1.67,0.3,-2.18,0.92c-0.5,0.61,-0.76,1.5,-0.76,2.66l0,5.38l-1.68,0l0,-10.22l1.68,0l0,1.58c0.35,-0.62,0.81,-1.08,1.37,-1.38c0.56,-0.3,1.25,-0.45,2.06,-0.45c0.11,0,0.24,0,0.38,0.02c0.14,0.01,0.29,0.03,0.46,0.06l0,1.72m1.49,-5.53l1.46,0c0.91,1.43,1.59,2.84,2.05,4.21c0.45,1.37,0.68,2.74,0.68,4.09c0,1.36,-0.22,2.73,-0.68,4.11c-0.45,1.38,-1.13,2.78,-2.05,4.21l-1.46,0c0.81,-1.39,1.41,-2.78,1.81,-4.15c0.39,-1.37,0.59,-2.77,0.59,-4.17c0,-1.4,-0.19,-2.79,-0.59,-4.16c-0.39,-1.36,-1,-2.75,-1.81,-4.15m17.54,0c-0.81,1.4,-1.42,2.78,-1.81,4.15c-0.39,1.36,-0.59,2.75,-0.59,4.16c0,1.4,0.19,2.79,0.59,4.17c0.39,1.37,1,2.76,1.81,4.15l-1.46,0c-0.91,-1.43,-1.59,-2.83,-2.05,-4.21c-0.45,-1.38,-0.67,-2.75,-0.67,-4.11c0,-1.35,0.22,-2.72,0.67,-4.09c0.45,-1.37,1.13,-2.78,2.05,-4.21l1.46,0m22.42,8.19c-0.53,0,-0.94,0.22,-1.25,0.67c-0.3,0.45,-0.45,1.07,-0.45,1.88c0,0.79,0.15,1.41,0.45,1.86c0.3,0.45,0.72,0.67,1.25,0.67c0.51,0,0.92,-0.22,1.22,-0.67c0.3,-0.45,0.45,-1.07,0.45,-1.86c0,-0.79,-0.15,-1.42,-0.45,-1.87c-0.3,-0.45,-0.71,-0.67,-1.22,-0.67m0,-1.16c0.96,0,1.72,0.33,2.29,1c0.56,0.66,0.84,1.57,0.84,2.71c0,1.13,-0.28,2.04,-0.85,2.7c-0.56,0.66,-1.33,0.99,-2.28,0.99c-0.97,0,-1.74,-0.33,-2.31,-0.99c-0.56,-0.66,-0.84,-1.56,-0.84,-2.7c0,-1.14,0.28,-2.05,0.85,-2.71c0.56,-0.66,1.33,-1,2.3,-1m-16.75,-6.72c0.96,0,1.72,0.33,2.3,1c0.57,0.66,0.85,1.56,0.85,2.7c0,1.15,-0.28,2.05,-0.85,2.72c-0.56,0.66,-1.33,0.99,-2.3,0.99c-0.96,0,-1.73,-0.33,-2.29,-0.99c-0.56,-0.66,-0.84,-1.57,-0.84,-2.71c0,-1.13,0.28,-2.03,0.84,-2.7c0.56,-0.66,1.33,-1,2.29,-1m8.24,0l1.46,0l-8.52,14.14l-1.46,0l8.52,-14.14m-8.24,1.16c-0.52,0,-0.93,0.22,-1.23,0.67c-0.3,0.45,-0.45,1.07,-0.45,1.86c0,0.8,0.14,1.42,0.44,1.88c0.29,0.45,0.71,0.67,1.24,0.67c0.52,0,0.94,-0.22,1.24,-0.67c0.3,-0.45,0.45,-1.07,0.45,-1.88c0,-0.78,-0.15,-1.4,-0.45,-1.86c-0.3,-0.45,-0.71,-0.68,-1.24,-0.68m9.42,5.55c0.96,0,1.72,0.33,2.29,1c0.56,0.66,0.84,1.57,0.84,2.71c0,1.13,-0.28,2.04,-0.85,2.7c-0.56,0.66,-1.33,0.99,-2.28,0.99c-0.97,0,-1.74,-0.33,-2.31,-0.99c-0.56,-0.66,-0.84,-1.56,-0.84,-2.7c0,-1.14,0.28,-2.05,0.85,-2.71c0.56,-0.66,1.33,-1,2.3,-1m0,1.16c-0.52,0,-0.94,0.22,-1.24,0.67c-0.3,0.45,-0.45,1.07,-0.45,1.88c0,0.79,0.15,1.41,0.45,1.86c0.3,0.45,0.71,0.67,1.24,0.67c0.51,0,0.92,-0.22,1.22,-0.67c0.3,-0.45,0.45,-1.07,0.45,-1.86c0,-0.79,-0.15,-1.42,-0.45,-1.87c-0.3,-0.45,-0.71,-0.67,-1.22,-0.67m12.99,-8.19l1.46,0c0.91,1.43,1.59,2.84,2.05,4.21c0.45,1.37,0.68,2.74,0.68,4.09c0,1.36,-0.22,2.73,-0.68,4.11c-0.45,1.38,-1.13,2.78,-2.05,4.21l-1.46,0c0.81,-1.39,1.41,-2.78,1.81,-4.15c0.39,-1.37,0.59,-2.77,0.59,-4.17c0,-1.4,-0.19,-2.79,-0.59,-4.16c-0.39,-1.36,-1,-2.75,-1.81,-4.15"
           fill="#ffffff"
           stroke="none"
           fill-opacity="1"
           id="path185" />
        <path
           d="m46.44,335.12l10.01,0l0,1.32l-10.01,0l0,-1.32m13.69,4.35l2.57,0l0,-8.89l-2.8,0.56l0,-1.43l2.78,-0.56l1.57,0l0,10.33l2.57,0l0,1.32l-6.71,0l0,-1.32m13.28,-9.29c-0.81,0,-1.42,0.39,-1.83,1.19c-0.4,0.79,-0.61,2,-0.61,3.6c0,1.59,0.2,2.79,0.61,3.59c0.4,0.79,1.01,1.19,1.83,1.19c0.81,0,1.43,-0.39,1.83,-1.19c0.4,-0.79,0.61,-1.99,0.61,-3.59c0,-1.6,-0.2,-2.8,-0.61,-3.6c-0.4,-0.79,-1.02,-1.19,-1.83,-1.19m0,-1.25c1.3,0,2.3,0.51,2.99,1.55c0.69,1.03,1.03,2.53,1.03,4.5c0,1.96,-0.34,3.46,-1.03,4.49c-0.69,1.03,-1.68,1.55,-2.99,1.55c-1.3,0,-2.3,-0.51,-2.99,-1.55c-0.69,-1.03,-1.03,-2.53,-1.03,-4.49c0,-1.96,0.34,-3.47,1.03,-4.5c0.69,-1.03,1.68,-1.55,2.99,-1.55m10.17,1.25c-0.81,0,-1.42,0.39,-1.83,1.19c-0.4,0.79,-0.61,2,-0.61,3.6c0,1.59,0.2,2.79,0.61,3.59c0.4,0.79,1.01,1.19,1.83,1.19c0.81,0,1.43,-0.39,1.83,-1.19c0.4,-0.79,0.61,-1.99,0.61,-3.59c0,-1.6,-0.2,-2.8,-0.61,-3.6c-0.4,-0.79,-1.02,-1.19,-1.83,-1.19m0,-1.25c1.3,0,2.3,0.51,2.99,1.55c0.69,1.03,1.03,2.53,1.03,4.5c0,1.96,-0.34,3.46,-1.03,4.49c-0.69,1.03,-1.68,1.55,-2.99,1.55c-1.3,0,-2.3,-0.51,-2.99,-1.55c-0.69,-1.03,-1.03,-2.53,-1.03,-4.49c0,-1.96,0.34,-3.47,1.03,-4.5c0.69,-1.03,1.68,-1.55,2.99,-1.55m10.17,1.25c-0.81,0,-1.42,0.39,-1.83,1.19c-0.4,0.79,-0.61,2,-0.61,3.6c0,1.59,0.2,2.79,0.61,3.59c0.4,0.79,1.01,1.19,1.83,1.19c0.81,0,1.43,-0.39,1.83,-1.19c0.4,-0.79,0.61,-1.99,0.61,-3.59c0,-1.6,-0.2,-2.8,-0.61,-3.6c-0.4,-0.79,-1.02,-1.19,-1.83,-1.19m0,-1.25c1.3,0,2.3,0.51,2.99,1.55c0.69,1.03,1.03,2.53,1.03,4.5c0,1.96,-0.34,3.46,-1.03,4.49c-0.69,1.03,-1.68,1.55,-2.99,1.55c-1.3,0,-2.3,-0.51,-2.99,-1.55c-0.69,-1.03,-1.03,-2.53,-1.03,-4.49c0,-1.96,0.34,-3.47,1.03,-4.5c0.69,-1.03,1.68,-1.55,2.99,-1.55"
           fill="#ffffff"
           stroke="none"
           fill-opacity="1"
           id="path186" />
        <path
           d="m113.89,335.12l10.01,0l0,1.32l-10.01,0l0,-1.32m16.79,0.14c-0.75,0,-1.33,0.2,-1.76,0.6c-0.42,0.4,-0.64,0.95,-0.64,1.65c0,0.7,0.21,1.25,0.64,1.65c0.42,0.4,1.01,0.6,1.76,0.6c0.75,0,1.34,-0.2,1.77,-0.6c0.43,-0.4,0.64,-0.95,0.64,-1.65c0,-0.7,-0.21,-1.25,-0.64,-1.65c-0.42,-0.4,-1.02,-0.6,-1.77,-0.6m-1.57,-0.67c-0.67,-0.16,-1.2,-0.48,-1.58,-0.94c-0.37,-0.46,-0.56,-1.02,-0.56,-1.69c0,-0.93,0.33,-1.66,0.99,-2.21c0.66,-0.54,1.57,-0.81,2.73,-0.81c1.16,0,2.07,0.27,2.73,0.81c0.66,0.54,0.99,1.27,0.99,2.21c0,0.66,-0.18,1.23,-0.56,1.69c-0.37,0.46,-0.9,0.77,-1.57,0.94c0.76,0.17,1.35,0.52,1.77,1.03c0.42,0.51,0.63,1.14,0.63,1.89c0,1.13,-0.34,1.99,-1.03,2.6c-0.69,0.6,-1.67,0.9,-2.96,0.9c-1.28,0,-2.27,-0.3,-2.96,-0.9c-0.69,-0.6,-1.03,-1.47,-1.03,-2.6c0,-0.74,0.21,-1.37,0.64,-1.89c0.42,-0.51,1.02,-0.86,1.78,-1.03m-0.57,-2.49c0,0.6,0.18,1.07,0.56,1.41c0.37,0.33,0.9,0.5,1.58,0.5c0.67,0,1.2,-0.16,1.58,-0.5c0.38,-0.33,0.57,-0.8,0.57,-1.41c0,-0.6,-0.19,-1.07,-0.57,-1.41c-0.38,-0.33,-0.91,-0.5,-1.58,-0.5c-0.68,0,-1.21,0.16,-1.58,0.5c-0.37,0.33,-0.56,0.8,-0.56,1.41m12.33,-1.92c-0.81,0,-1.42,0.39,-1.83,1.19c-0.4,0.79,-0.61,2,-0.61,3.6c0,1.59,0.2,2.79,0.61,3.59c0.4,0.79,1.01,1.19,1.83,1.19c0.81,0,1.43,-0.39,1.83,-1.19c0.4,-0.79,0.61,-1.99,0.61,-3.59c0,-1.6,-0.2,-2.8,-0.61,-3.6c-0.4,-0.79,-1.02,-1.19,-1.83,-1.19m0,-1.25c1.3,0,2.3,0.51,2.99,1.55c0.69,1.03,1.03,2.53,1.03,4.5c0,1.96,-0.34,3.46,-1.03,4.49c-0.69,1.03,-1.68,1.55,-2.99,1.55c-1.3,0,-2.3,-0.51,-2.99,-1.55c-0.69,-1.03,-1.03,-2.53,-1.03,-4.49c0,-1.96,0.34,-3.47,1.03,-4.5c0.69,-1.03,1.68,-1.55,2.99,-1.55m10.17,1.25c-0.81,0,-1.42,0.39,-1.83,1.19c-0.4,0.79,-0.61,2,-0.61,3.6c0,1.59,0.2,2.79,0.61,3.59c0.4,0.79,1.01,1.19,1.83,1.19c0.81,0,1.43,-0.39,1.83,-1.19c0.4,-0.79,0.61,-1.99,0.61,-3.59c0,-1.6,-0.2,-2.8,-0.61,-3.6c-0.4,-0.79,-1.02,-1.19,-1.83,-1.19m0,-1.25c1.3,0,2.3,0.51,2.99,1.55c0.69,1.03,1.03,2.53,1.03,4.5c0,1.96,-0.34,3.46,-1.03,4.49c-0.69,1.03,-1.68,1.55,-2.99,1.55c-1.3,0,-2.3,-0.51,-2.99,-1.55c-0.69,-1.03,-1.03,-2.53,-1.03,-4.49c0,-1.96,0.34,-3.47,1.03,-4.5c0.69,-1.03,1.68,-1.55,2.99,-1.55"
           fill="#ffffff"
           stroke="none"
           fill-opacity="1"
           id="path187" />
        <path
           d="m176.25,335.12l10.01,0l0,1.32l-10.01,0l0,-1.32m16.99,-0.78c-0.7,0,-1.26,0.24,-1.68,0.72c-0.41,0.48,-0.62,1.14,-0.62,1.99c0,0.83,0.2,1.5,0.62,1.98c0.41,0.48,0.97,0.73,1.68,0.73c0.7,0,1.26,-0.24,1.68,-0.73c0.41,-0.48,0.62,-1.14,0.62,-1.98c0,-0.84,-0.2,-1.5,-0.62,-1.99c-0.41,-0.48,-0.97,-0.72,-1.68,-0.72m3.13,-4.94l0,1.43c-0.39,-0.18,-0.79,-0.33,-1.19,-0.42c-0.4,-0.09,-0.8,-0.14,-1.19,-0.14c-1.04,0,-1.83,0.35,-2.38,1.05c-0.54,0.7,-0.86,1.76,-0.94,3.18c0.3,-0.45,0.69,-0.8,1.15,-1.04c0.46,-0.24,0.97,-0.36,1.53,-0.36c1.17,0,2.09,0.35,2.77,1.06c0.67,0.71,1.01,1.67,1.01,2.9c0,1.19,-0.35,2.15,-1.06,2.88c-0.7,0.72,-1.65,1.08,-2.82,1.08c-1.34,0,-2.38,-0.51,-3.09,-1.55c-0.71,-1.03,-1.07,-2.53,-1.07,-4.49c0,-1.84,0.43,-3.31,1.31,-4.41c0.87,-1.09,2.04,-1.64,3.52,-1.64c0.39,0,0.79,0.03,1.19,0.11c0.4,0.07,0.82,0.19,1.26,0.35m6.85,0.78c-0.81,0,-1.42,0.39,-1.83,1.19c-0.4,0.79,-0.61,2,-0.61,3.6c0,1.59,0.2,2.79,0.61,3.59c0.4,0.79,1.01,1.19,1.83,1.19c0.81,0,1.43,-0.39,1.83,-1.19c0.4,-0.79,0.61,-1.99,0.61,-3.59c0,-1.6,-0.2,-2.8,-0.61,-3.6c-0.4,-0.79,-1.02,-1.19,-1.83,-1.19m0,-1.25c1.3,0,2.3,0.51,2.99,1.55c0.69,1.03,1.03,2.53,1.03,4.5c0,1.96,-0.34,3.46,-1.03,4.49c-0.69,1.03,-1.68,1.55,-2.99,1.55c-1.3,0,-2.3,-0.51,-2.99,-1.55c-0.69,-1.03,-1.03,-2.53,-1.03,-4.49c0,-1.96,0.34,-3.47,1.03,-4.5c0.69,-1.03,1.68,-1.55,2.99,-1.55m10.17,1.25c-0.81,0,-1.42,0.39,-1.83,1.19c-0.4,0.79,-0.61,2,-0.61,3.6c0,1.59,0.2,2.79,0.61,3.59c0.4,0.79,1.01,1.19,1.83,1.19c0.81,0,1.43,-0.39,1.83,-1.19c0.4,-0.79,0.61,-1.99,0.61,-3.59c0,-1.6,-0.2,-2.8,-0.61,-3.6c-0.4,-0.79,-1.02,-1.19,-1.83,-1.19m0,-1.25c1.3,0,2.3,0.51,2.99,1.55c0.69,1.03,1.03,2.53,1.03,4.5c0,1.96,-0.34,3.46,-1.03,4.49c-0.69,1.03,-1.68,1.55,-2.99,1.55c-1.3,0,-2.3,-0.51,-2.99,-1.55c-0.69,-1.03,-1.03,-2.53,-1.03,-4.49c0,-1.96,0.34,-3.47,1.03,-4.5c0.69,-1.03,1.68,-1.55,2.99,-1.55"
           fill="#ffffff"
           stroke="none"
           fill-opacity="1"
           id="path188" />
        <path
           d="m238.61,335.12l10.01,0l0,1.32l-10.01,0l0,-1.32m17.75,-4.6l-3.98,6.22l3.98,0l0,-6.22m-0.41,-1.37l1.98,0l0,7.6l1.66,0l0,1.31l-1.66,0l0,2.75l-1.57,0l0,-2.75l-5.26,0l0,-1.52l4.85,-7.39m9.63,1.03c-0.81,0,-1.42,0.39,-1.83,1.19c-0.4,0.79,-0.61,2,-0.61,3.6c0,1.59,0.2,2.79,0.61,3.59c0.4,0.79,1.01,1.19,1.83,1.19c0.81,0,1.43,-0.39,1.83,-1.19c0.4,-0.79,0.61,-1.99,0.61,-3.59c0,-1.6,-0.2,-2.8,-0.61,-3.6c-0.4,-0.79,-1.02,-1.19,-1.83,-1.19m0,-1.25c1.3,0,2.3,0.51,2.99,1.55c0.69,1.03,1.03,2.53,1.03,4.5c0,1.96,-0.34,3.46,-1.03,4.49c-0.69,1.03,-1.68,1.55,-2.99,1.55c-1.3,0,-2.3,-0.51,-2.99,-1.55c-0.69,-1.03,-1.03,-2.53,-1.03,-4.49c0,-1.96,0.34,-3.47,1.03,-4.5c0.69,-1.03,1.68,-1.55,2.99,-1.55m10.17,1.25c-0.81,0,-1.42,0.39,-1.83,1.19c-0.4,0.79,-0.61,2,-0.61,3.6c0,1.59,0.2,2.79,0.61,3.59c0.4,0.79,1.01,1.19,1.83,1.19c0.81,0,1.43,-0.39,1.83,-1.19c0.4,-0.79,0.61,-1.99,0.61,-3.59c0,-1.6,-0.2,-2.8,-0.61,-3.6c-0.4,-0.79,-1.02,-1.19,-1.83,-1.19m0,-1.25c1.3,0,2.3,0.51,2.99,1.55c0.69,1.03,1.03,2.53,1.03,4.5c0,1.96,-0.34,3.46,-1.03,4.49c-0.69,1.03,-1.68,1.55,-2.99,1.55c-1.3,0,-2.3,-0.51,-2.99,-1.55c-0.69,-1.03,-1.03,-2.53,-1.03,-4.49c0,-1.96,0.34,-3.47,1.03,-4.5c0.69,-1.03,1.68,-1.55,2.99,-1.55"
           fill="#ffffff"
           stroke="none"
           fill-opacity="1"
           id="path189" />
        <path
           d="m300.98,335.12l10.01,0l0,1.32l-10.01,0l0,-1.32m14.78,4.35l5.5,0l0,1.32l-7.4,0l0,-1.32c0.59,-0.61,1.41,-1.45,2.44,-2.49c1.03,-1.04,1.68,-1.71,1.94,-2.01c0.5,-0.56,0.85,-1.04,1.05,-1.44c0.2,-0.39,0.3,-0.77,0.3,-1.16c0,-0.61,-0.21,-1.12,-0.65,-1.51c-0.43,-0.39,-1,-0.58,-1.69,-0.58c-0.49,0,-1.01,0.08,-1.56,0.25c-0.54,0.17,-1.13,0.43,-1.76,0.78l0,-1.59c0.63,-0.25,1.22,-0.44,1.78,-0.57c0.55,-0.13,1.05,-0.19,1.51,-0.19c1.2,0,2.17,0.3,2.89,0.9c0.71,0.6,1.07,1.41,1.07,2.42c0,0.47,-0.08,0.93,-0.26,1.36c-0.17,0.42,-0.5,0.93,-0.98,1.51c-0.13,0.15,-0.54,0.58,-1.24,1.3c-0.69,0.72,-1.68,1.73,-2.95,3.02m12.19,-9.29c-0.81,0,-1.42,0.39,-1.83,1.19c-0.4,0.79,-0.61,2,-0.61,3.6c0,1.59,0.2,2.79,0.61,3.59c0.4,0.79,1.01,1.19,1.83,1.19c0.81,0,1.43,-0.39,1.83,-1.19c0.4,-0.79,0.61,-1.99,0.61,-3.59c0,-1.6,-0.2,-2.8,-0.61,-3.6c-0.4,-0.79,-1.02,-1.19,-1.83,-1.19m0,-1.25c1.3,0,2.3,0.51,2.99,1.55c0.69,1.03,1.03,2.53,1.03,4.5c0,1.96,-0.34,3.46,-1.03,4.49c-0.69,1.03,-1.68,1.55,-2.99,1.55c-1.3,0,-2.3,-0.51,-2.99,-1.55c-0.69,-1.03,-1.03,-2.53,-1.03,-4.49c0,-1.96,0.34,-3.47,1.03,-4.5c0.69,-1.03,1.68,-1.55,2.99,-1.55m10.17,1.25c-0.81,0,-1.42,0.39,-1.83,1.19c-0.4,0.79,-0.61,2,-0.61,3.6c0,1.59,0.2,2.79,0.61,3.59c0.4,0.79,1.01,1.19,1.83,1.19c0.81,0,1.43,-0.39,1.83,-1.19c0.4,-0.79,0.61,-1.99,0.61,-3.59c0,-1.6,-0.2,-2.8,-0.61,-3.6c-0.4,-0.79,-1.02,-1.19,-1.83,-1.19m0,-1.25c1.3,0,2.3,0.51,2.99,1.55c0.69,1.03,1.03,2.53,1.03,4.5c0,1.96,-0.34,3.46,-1.03,4.49c-0.69,1.03,-1.68,1.55,-2.99,1.55c-1.3,0,-2.3,-0.51,-2.99,-1.55c-0.69,-1.03,-1.03,-2.53,-1.03,-4.49c0,-1.96,0.34,-3.47,1.03,-4.5c0.69,-1.03,1.68,-1.55,2.99,-1.55"
           fill="#ffffff"
           stroke="none"
           fill-opacity="1"
           id="path190" />
        <path
           d="m383.61,330.17c-0.81,0,-1.42,0.39,-1.83,1.19c-0.4,0.79,-0.61,2,-0.61,3.6c0,1.59,0.2,2.79,0.61,3.59c0.4,0.79,1.01,1.19,1.83,1.19c0.81,0,1.43,-0.39,1.83,-1.19c0.4,-0.79,0.61,-1.99,0.61,-3.59c0,-1.6,-0.2,-2.8,-0.61,-3.6c-0.4,-0.79,-1.02,-1.19,-1.83,-1.19m0,-1.25c1.3,0,2.3,0.51,2.99,1.55c0.69,1.03,1.03,2.53,1.03,4.5c0,1.96,-0.34,3.46,-1.03,4.49c-0.69,1.03,-1.68,1.55,-2.99,1.55c-1.3,0,-2.3,-0.51,-2.99,-1.55c-0.69,-1.03,-1.03,-2.53,-1.03,-4.49c0,-1.96,0.34,-3.47,1.03,-4.5c0.69,-1.03,1.68,-1.55,2.99,-1.55"
           fill="#ffffff"
           stroke="none"
           fill-opacity="1"
           id="path191" />
        <path
           d="m426.07,339.47l5.5,0l0,1.32l-7.4,0l0,-1.32c0.59,-0.61,1.41,-1.45,2.44,-2.49c1.03,-1.04,1.68,-1.71,1.94,-2.01c0.5,-0.56,0.85,-1.04,1.05,-1.44c0.2,-0.39,0.3,-0.77,0.3,-1.16c0,-0.61,-0.21,-1.12,-0.65,-1.51c-0.43,-0.39,-1,-0.58,-1.69,-0.58c-0.49,0,-1.01,0.08,-1.56,0.25c-0.54,0.17,-1.13,0.43,-1.76,0.78l0,-1.59c0.63,-0.25,1.22,-0.44,1.78,-0.57c0.55,-0.13,1.05,-0.19,1.51,-0.19c1.2,0,2.17,0.3,2.89,0.9c0.71,0.6,1.07,1.41,1.07,2.42c0,0.47,-0.08,0.93,-0.26,1.36c-0.17,0.42,-0.5,0.93,-0.98,1.51c-0.13,0.15,-0.54,0.58,-1.24,1.3c-0.69,0.72,-1.68,1.73,-2.95,3.02m12.19,-9.29c-0.81,0,-1.42,0.39,-1.83,1.19c-0.4,0.79,-0.61,2,-0.61,3.6c0,1.59,0.2,2.79,0.61,3.59c0.4,0.79,1.01,1.19,1.83,1.19c0.81,0,1.43,-0.39,1.83,-1.19c0.4,-0.79,0.61,-1.99,0.61,-3.59c0,-1.6,-0.2,-2.8,-0.61,-3.6c-0.4,-0.79,-1.02,-1.19,-1.83,-1.19m0,-1.25c1.3,0,2.3,0.51,2.99,1.55c0.69,1.03,1.03,2.53,1.03,4.5c0,1.96,-0.34,3.46,-1.03,4.49c-0.69,1.03,-1.68,1.55,-2.99,1.55c-1.3,0,-2.3,-0.51,-2.99,-1.55c-0.69,-1.03,-1.03,-2.53,-1.03,-4.49c0,-1.96,0.34,-3.47,1.03,-4.5c0.69,-1.03,1.68,-1.55,2.99,-1.55m10.17,1.25c-0.81,0,-1.42,0.39,-1.83,1.19c-0.4,0.79,-0.61,2,-0.61,3.6c0,1.59,0.2,2.79,0.61,3.59c0.4,0.79,1.01,1.19,1.83,1.19c0.81,0,1.43,-0.39,1.83,-1.19c0.4,-0.79,0.61,-1.99,0.61,-3.59c0,-1.6,-0.2,-2.8,-0.61,-3.6c-0.4,-0.79,-1.02,-1.19,-1.83,-1.19m0,-1.25c1.3,0,2.3,0.51,2.99,1.55c0.69,1.03,1.03,2.53,1.03,4.5c0,1.96,-0.34,3.46,-1.03,4.49c-0.69,1.03,-1.68,1.55,-2.99,1.55c-1.3,0,-2.3,-0.51,-2.99,-1.55c-0.69,-1.03,-1.03,-2.53,-1.03,-4.49c0,-1.96,0.34,-3.47,1.03,-4.5c0.69,-1.03,1.68,-1.55,2.99,-1.55"
           fill="#ffffff"
           stroke="none"
           fill-opacity="1"
           id="path192" />
      </g>
      <g
         fill="none"
         stroke="#ffffff"
         stroke-linecap="butt"
         stroke-width="0.66"
         id="g195">
        <path
           d="M71.81,10.39l374.17,0"
           id="path193" />
        <path
           d="M71.81,10.39l0,4M87.4,10.39l0,4M102.99,10.39l0,4M118.58,10.39l0,4M134.17,10.39l0,4M149.76,10.39l0,4M165.35,10.39l0,4M180.94,10.39l0,4M196.53,10.39l0,4M212.12,10.39l0,4M227.71,10.39l0,4M243.3,10.39l0,4M258.89,10.39l0,4M274.48,10.39l0,4M290.07,10.39l0,4M305.66,10.39l0,4M321.25,10.39l0,4M336.85,10.39l0,4M352.44,10.39l0,4M368.03,10.39l0,4M383.62,10.39l0,4M399.21,10.39l0,4M414.8,10.39l0,4M430.39,10.39l0,4M445.98,10.39l0,4"
           id="path194" />
        <path
           d="M71.81,10.39l0,8M134.17,10.39l0,8M196.53,10.39l0,8M258.89,10.39l0,8M321.25,10.39l0,8M383.62,10.39l0,8M445.98,10.39l0,8"
           id="path195" />
      </g>
    </g>
  </g>
</svg>
