<?xml version="1.0" encoding="UTF-8" standalone="no"?>
<!-- Created with Inkscape (http://www.inkscape.org/) -->

<svg
   version="1.1"
   id="svg2"
   xml:space="preserve"
   width="567.17224"
   height="95.971596"
   viewBox="0 0 567.17224 95.971598"
   sodipodi:docname="llnl.svg"
   inkscape:version="1.3.2 (091e20ef0f, 2023-11-25)"
   xmlns:inkscape="http://www.inkscape.org/namespaces/inkscape"
   xmlns:sodipodi="http://sodipodi.sourceforge.net/DTD/sodipodi-0.dtd"
   xmlns="http://www.w3.org/2000/svg"
   xmlns:svg="http://www.w3.org/2000/svg"
   xmlns:rdf="http://www.w3.org/1999/02/22-rdf-syntax-ns#"
   xmlns:cc="http://creativecommons.org/ns#"
   xmlns:dc="http://purl.org/dc/elements/1.1/"><metadata
     id="metadata8"><rdf:RDF><cc:Work
         rdf:about=""><dc:format>image/svg+xml</dc:format><dc:type
           rdf:resource="http://purl.org/dc/dcmitype/StillImage" /></cc:Work></rdf:RDF></metadata><defs
     id="defs6"><clipPath
       clipPathUnits="userSpaceOnUse"
       id="clipPath22"><path
         d="M 0,97.601 H 466.587 V 0 H 0 Z"
         id="path20"
         inkscape:connector-curvature="0" /></clipPath></defs><sodipodi:namedview
     pagecolor="#000000"
     bordercolor="#666666"
     borderopacity="1"
     objecttolerance="10"
     gridtolerance="10"
     guidetolerance="10"
     inkscape:pageopacity="0"
     inkscape:pageshadow="2"
     inkscape:window-width="1914"
     inkscape:window-height="1021"
     id="namedview4"
     showgrid="false"
     inkscape:zoom="2"
     inkscape:cx="245"
     inkscape:cy="2.75"
     inkscape:window-x="1922"
     inkscape:window-y="1098"
     inkscape:window-maximized="0"
     inkscape:current-layer="g10"
     inkscape:showpageshadow="2"
     inkscape:pagecheckerboard="0"
     inkscape:deskcolor="#d1d1d1" /><g
     id="g10"
     inkscape:groupmode="layer"
     inkscape:label="lab_logo_words_black"
     transform="matrix(1.3333333,0,0,-1.3333333,-29.939866,107.21466)"><g
       id="g12"
       transform="translate(99.5333,50.5565)"
       style="fill:#ffffff"><path
         d="M 0,0 V 27.965 H 5.653 V 4.749 H 19.825 V 0 Z"
         style="fill:#ffffff;fill-opacity:1;fill-rule:nonzero;stroke:none"
         id="path14"
         inkscape:connector-curvature="0" /></g><g
       id="g24"
       transform="translate(132.8222,60.3557)"
       style="fill:#ffffff"><path
         d="m 0,0 c -0.681,-0.234 -1.757,-0.515 -3.229,-0.84 -1.475,-0.325 -2.438,-0.644 -2.893,-0.956 -0.693,-0.508 -1.039,-1.152 -1.039,-1.932 0,-0.768 0.278,-1.432 0.832,-1.991 0.553,-0.56 1.26,-0.839 2.117,-0.839 0.957,0 1.871,0.325 2.74,0.976 0.641,0.494 1.062,1.099 1.265,1.815 C -0.068,-3.299 0,-2.408 0,-1.093 Z m -7.236,4.447 -4.824,0.905 c 0.551,1.973 1.498,3.433 2.841,4.381 1.344,0.948 3.34,1.423 5.99,1.423 2.405,0 4.197,-0.286 5.375,-0.859 C 3.324,9.725 4.153,8.997 4.633,8.116 5.112,7.235 5.352,5.617 5.352,3.264 L 5.276,-3.065 c 0,-1.802 0.085,-3.13 0.255,-3.985 0.17,-0.855 0.487,-1.772 0.951,-2.749 H 1.055 c -0.139,0.347 -0.308,0.863 -0.511,1.546 -0.089,0.31 -0.153,0.515 -0.191,0.615 -0.911,-0.896 -1.884,-1.569 -2.92,-2.016 -1.039,-0.448 -2.146,-0.673 -3.322,-0.673 -2.075,0 -3.71,0.574 -4.907,1.721 -1.194,1.147 -1.792,2.598 -1.792,4.353 0,1.16 0.273,2.195 0.82,3.105 0.546,0.909 1.314,1.605 2.299,2.089 0.984,0.483 2.407,0.906 4.263,1.267 2.504,0.476 4.24,0.921 5.206,1.335 L 0,4.088 C 0,5.14 -0.257,5.89 -0.77,6.338 -1.284,6.785 -2.252,7.01 -3.675,7.01 -4.638,7.01 -5.389,6.82 -5.927,6.441 -6.466,6.062 -6.902,5.398 -7.236,4.447"
         style="fill:#ffffff;fill-opacity:1;fill-rule:nonzero;stroke:none"
         id="path26"
         inkscape:connector-curvature="0" /></g><g
       id="g28"
       transform="translate(145.627,50.5565)"
       style="fill:#ffffff"><path
         d="m 0,0 -6.466,20.427 h 5.253 L 2.617,7.039 6.141,20.427 h 5.213 l 3.399,-13.388 3.906,13.388 h 5.328 L 17.426,0 H 12.237 L 8.723,13.137 5.255,0 Z"
         style="fill:#ffffff;fill-opacity:1;fill-rule:nonzero;stroke:none"
         id="path30"
         inkscape:connector-curvature="0" /></g><g
       id="g32"
       transform="translate(175.7852,50.5565)"
       style="fill:#ffffff"><path
         d="m 0,0 h -5.427 v 20.427 h 5.05 v -2.9 c 0.86,1.369 1.633,2.283 2.32,2.741 0.686,0.457 1.466,0.687 2.337,0.687 1.232,0 2.417,-0.338 3.559,-1.014 L 6.143,15.246 c -0.909,0.589 -1.752,0.885 -2.534,0.885 -0.754,0 -1.395,-0.21 -1.92,-0.629 C 1.164,15.083 0.752,14.325 0.452,13.23 0.151,12.133 0,9.838 0,6.343 Z"
         style="fill:#ffffff;fill-opacity:1;fill-rule:nonzero;stroke:none"
         id="path34"
         inkscape:connector-curvature="0" /></g><g
       id="g36"
       transform="translate(196.274,62.5415)"
       style="fill:#ffffff"><path
         d="m 0,0 c -0.038,1.576 -0.44,2.774 -1.206,3.593 -0.766,0.82 -1.698,1.231 -2.796,1.231 -1.176,0 -2.146,-0.433 -2.912,-1.298 C -7.679,2.661 -8.056,1.485 -8.044,0 Z m -0.377,-5.578 5.352,-0.904 c -0.686,-1.966 -1.769,-3.463 -3.248,-4.49 -1.482,-1.026 -3.333,-1.541 -5.555,-1.541 -3.519,0 -6.124,1.168 -7.813,3.503 -1.336,1.87 -2.003,4.232 -2.003,7.084 0,3.407 0.882,6.073 2.643,8.002 1.762,1.929 3.989,2.894 6.683,2.894 3.025,0 5.413,-1.008 7.161,-3.023 C 4.593,3.93 5.43,0.843 5.352,-3.317 H -8.141 c 0.038,-1.594 0.469,-2.835 1.291,-3.72 0.822,-0.887 1.849,-1.33 3.076,-1.33 0.834,0 1.536,0.22 2.106,0.661 0.57,0.44 0.999,1.149 1.291,2.128"
         style="fill:#ffffff;fill-opacity:1;fill-rule:nonzero;stroke:none"
         id="path38"
         inkscape:connector-curvature="0" /></g><g
       id="g40"
       transform="translate(222.8116,50.5565)"
       style="fill:#ffffff"><path
         d="m 0,0 h -5.427 v 10.46 c 0,2.212 -0.113,3.643 -0.342,4.293 -0.226,0.65 -0.596,1.155 -1.107,1.516 -0.511,0.36 -1.126,0.54 -1.847,0.54 -0.921,0 -1.747,-0.258 -2.48,-0.772 -0.733,-0.515 -1.234,-1.197 -1.505,-2.046 -0.271,-0.849 -0.408,-2.418 -0.408,-4.708 V 0 h -5.427 v 20.427 h 5.05 V 17.43 c 1.769,2.349 3.995,3.525 6.681,3.525 1.182,0 2.264,-0.216 3.244,-0.647 0.979,-0.431 1.721,-0.981 2.223,-1.65 0.502,-0.669 0.853,-1.428 1.051,-2.276 C -0.099,15.532 0,14.317 0,12.735 Z"
         style="fill:#ffffff;fill-opacity:1;fill-rule:nonzero;stroke:none"
         id="path42"
         inkscape:connector-curvature="0" /></g><g
       id="g44"
       transform="translate(244.3439,65.1043)"
       style="fill:#ffffff"><path
         d="m 0,0 -5.352,-0.98 c -0.179,1.048 -0.584,1.839 -1.215,2.37 -0.632,0.53 -1.449,0.796 -2.455,0.796 -1.338,0 -2.405,-0.472 -3.201,-1.416 -0.796,-0.944 -1.194,-2.523 -1.194,-4.735 0,-2.462 0.407,-4.201 1.225,-5.216 0.817,-1.015 1.917,-1.523 3.295,-1.523 1.029,0 1.873,0.294 2.53,0.882 0.657,0.589 1.121,1.601 1.392,3.038 l 5.277,-0.905 c -0.552,-2.436 -1.607,-4.277 -3.166,-5.521 -1.56,-1.244 -3.652,-1.866 -6.273,-1.866 -2.98,0 -5.354,0.949 -7.126,2.845 -1.771,1.896 -2.657,4.522 -2.657,7.878 0,3.392 0.886,6.034 2.662,7.924 1.774,1.89 4.174,2.836 7.198,2.836 2.479,0 4.448,-0.528 5.908,-1.583 C -1.689,3.769 -0.638,2.16 0,0"
         style="fill:#ffffff;fill-opacity:1;fill-rule:nonzero;stroke:none"
         id="path46"
         inkscape:connector-curvature="0" /></g><g
       id="g48"
       transform="translate(258.8213,62.5415)"
       style="fill:#ffffff"><path
         d="m 0,0 c -0.038,1.576 -0.443,2.774 -1.206,3.593 -0.768,0.82 -1.701,1.231 -2.799,1.231 -1.173,0 -2.143,-0.433 -2.911,-1.298 C -7.679,2.661 -8.056,1.485 -8.044,0 Z m -0.377,-5.578 5.352,-0.904 c -0.688,-1.966 -1.772,-3.463 -3.251,-4.49 -1.479,-1.026 -3.331,-1.541 -5.554,-1.541 -3.519,0 -6.125,1.168 -7.811,3.503 -1.336,1.87 -2.003,4.232 -2.003,7.084 0,3.407 0.881,6.073 2.643,8.002 1.762,1.929 3.988,2.894 6.683,2.894 3.025,0 5.411,-1.008 7.161,-3.023 C 4.593,3.93 5.427,0.843 5.352,-3.317 H -8.141 c 0.038,-1.594 0.466,-2.835 1.291,-3.72 0.822,-0.887 1.847,-1.33 3.076,-1.33 0.834,0 1.536,0.22 2.106,0.661 0.57,0.44 0.999,1.149 1.291,2.128"
         style="fill:#ffffff;fill-opacity:1;fill-rule:nonzero;stroke:none"
         id="path50"
         inkscape:connector-curvature="0" /></g><g
       id="g52"
       transform="translate(276.2122,50.5565)"
       style="fill:#ffffff"><path
         d="M 0,0 V 27.965 H 5.653 V 4.749 H 19.825 V 0 Z"
         style="fill:#ffffff;fill-opacity:1;fill-rule:nonzero;stroke:none"
         id="path54"
         inkscape:connector-curvature="0" /></g><path
       d="m 298.27,70.984 h 5.427 V 50.557 h -5.427 z m 0,7.764 h 5.427 v -4.975 h -5.427 z"
       style="fill:#ffffff;fill-opacity:1;fill-rule:nonzero;stroke:none"
       id="path56"
       inkscape:connector-curvature="0" /><g
       id="g58"
       transform="translate(313.0956,50.5565)"
       style="fill:#ffffff"><path
         d="m 0,0 -8.219,20.427 h 5.654 L 1.291,10.002 2.41,6.52 c 0.292,0.885 0.476,1.468 0.553,1.75 0.177,0.577 0.368,1.155 0.573,1.732 l 3.849,10.425 h 5.578 L 4.86,0 Z"
         style="fill:#ffffff;fill-opacity:1;fill-rule:nonzero;stroke:none"
         id="path60"
         inkscape:connector-curvature="0" /></g><g
       id="g62"
       transform="translate(339.7065,62.5415)"
       style="fill:#ffffff"><path
         d="m 0,0 c -0.038,1.576 -0.441,2.774 -1.206,3.593 -0.766,0.82 -1.698,1.231 -2.796,1.231 -1.176,0 -2.146,-0.433 -2.912,-1.298 C -7.679,2.661 -8.056,1.485 -8.044,0 Z m -0.377,-5.578 5.352,-0.904 c -0.686,-1.966 -1.769,-3.463 -3.248,-4.49 -1.482,-1.026 -3.334,-1.541 -5.555,-1.541 -3.519,0 -6.124,1.168 -7.813,3.503 -1.336,1.87 -2.003,4.232 -2.003,7.084 0,3.407 0.881,6.073 2.643,8.002 1.762,1.929 3.988,2.894 6.683,2.894 3.025,0 5.413,-1.008 7.161,-3.023 C 4.593,3.93 5.429,0.843 5.352,-3.317 H -8.141 c 0.038,-1.594 0.469,-2.835 1.291,-3.72 0.822,-0.887 1.849,-1.33 3.076,-1.33 0.834,0 1.536,0.22 2.106,0.661 0.57,0.44 0.999,1.149 1.291,2.128"
         style="fill:#ffffff;fill-opacity:1;fill-rule:nonzero;stroke:none"
         id="path64"
         inkscape:connector-curvature="0" /></g><g
       id="g66"
       transform="translate(352.9023,50.5565)"
       style="fill:#ffffff"><path
         d="m 0,0 h -5.427 v 20.427 h 5.05 v -2.9 c 0.86,1.369 1.632,2.283 2.32,2.741 0.686,0.457 1.465,0.687 2.337,0.687 1.232,0 2.417,-0.338 3.559,-1.014 L 6.143,15.246 c -0.909,0.589 -1.752,0.885 -2.534,0.885 -0.754,0 -1.395,-0.21 -1.92,-0.629 C 1.164,15.083 0.751,14.325 0.452,13.23 0.151,12.133 0,9.838 0,6.343 Z"
         style="fill:#ffffff;fill-opacity:1;fill-rule:nonzero;stroke:none"
         id="path68"
         inkscape:connector-curvature="0" /></g><g
       id="g70"
       transform="translate(360.8806,70.9838)"
       style="fill:#ffffff"><path
         d="m 0,0 h 4.975 v -2.785 c 1.788,2.208 3.917,3.313 6.386,3.313 1.312,0 2.452,-0.271 3.418,-0.811 0.963,-0.539 1.755,-1.355 2.372,-2.448 0.897,1.093 1.865,1.909 2.904,2.448 1.039,0.54 2.149,0.811 3.329,0.811 1.498,0 2.767,-0.307 3.806,-0.917 1.039,-0.611 1.814,-1.508 2.327,-2.692 0.373,-0.875 0.559,-2.29 0.559,-4.245 v -13.101 h -5.428 v 11.714 c 0,2.033 -0.186,3.345 -0.555,3.937 -0.5,0.771 -1.265,1.158 -2.3,1.158 -0.753,0 -1.462,-0.232 -2.127,-0.695 -0.664,-0.464 -1.144,-1.142 -1.436,-2.036 -0.295,-0.894 -0.441,-2.307 -0.441,-4.236 v -9.842 h -5.427 v 11.232 c 0,1.993 -0.097,3.279 -0.29,3.858 -0.191,0.58 -0.49,1.011 -0.893,1.294 -0.402,0.282 -0.951,0.425 -1.641,0.425 -0.834,0 -1.583,-0.226 -2.248,-0.676 -0.666,-0.45 -1.145,-1.1 -1.432,-1.949 -0.287,-0.85 -0.431,-2.258 -0.431,-4.226 v -9.958 H 0 Z"
         style="fill:#ffffff;fill-opacity:1;fill-rule:nonzero;stroke:none"
         id="path72"
         inkscape:connector-curvature="0" /></g><g
       id="g74"
       transform="translate(398.7227,60.7701)"
       style="fill:#ffffff"><path
         d="m 0,0 c 0,-2.059 0.483,-3.635 1.448,-4.729 0.966,-1.094 2.158,-1.64 3.574,-1.64 1.416,0 2.605,0.546 3.564,1.64 0.959,1.094 1.439,2.683 1.439,4.768 0,2.032 -0.48,3.595 -1.439,4.689 C 7.627,5.822 6.438,6.37 5.022,6.37 3.606,6.37 2.414,5.822 1.448,4.728 0.483,3.634 0,2.058 0,0 m -5.503,0.29 c 0,1.807 0.443,3.554 1.329,5.245 0.886,1.689 2.141,2.98 3.764,3.871 1.625,0.89 3.439,1.336 5.441,1.336 3.093,0 5.63,-1.011 7.606,-3.03 1.977,-2.018 2.966,-4.571 2.966,-7.654 0,-3.11 -0.999,-5.688 -2.994,-7.732 -1.997,-2.045 -4.511,-3.067 -7.54,-3.067 -1.875,0 -3.663,0.426 -5.364,1.276 -1.7,0.852 -2.993,2.1 -3.879,3.746 -0.886,1.644 -1.329,3.647 -1.329,6.009"
         style="fill:#ffffff;fill-opacity:1;fill-rule:nonzero;stroke:none"
         id="path76"
         inkscape:connector-curvature="0" /></g><g
       id="g78"
       transform="translate(421.9886,50.5565)"
       style="fill:#ffffff"><path
         d="m 0,0 h -5.427 v 20.427 h 5.05 v -2.9 c 0.86,1.369 1.632,2.283 2.318,2.741 0.685,0.457 1.465,0.687 2.339,0.687 1.229,0 2.417,-0.338 3.559,-1.014 L 6.143,15.246 c -0.909,0.589 -1.755,0.885 -2.534,0.885 -0.756,0 -1.395,-0.21 -1.92,-0.629 C 1.164,15.083 0.751,14.325 0.45,13.23 0.148,12.133 0,9.838 0,6.343 Z"
         style="fill:#ffffff;fill-opacity:1;fill-rule:nonzero;stroke:none"
         id="path80"
         inkscape:connector-curvature="0" /></g><g
       id="g82"
       transform="translate(442.4771,62.5415)"
       style="fill:#ffffff"><path
         d="m 0,0 c -0.038,1.576 -0.44,2.774 -1.206,3.593 -0.766,0.82 -1.698,1.231 -2.796,1.231 -1.176,0 -2.146,-0.433 -2.912,-1.298 C -7.679,2.661 -8.056,1.485 -8.044,0 Z m -0.377,-5.578 5.352,-0.904 c -0.686,-1.966 -1.769,-3.463 -3.248,-4.49 -1.482,-1.026 -3.333,-1.541 -5.555,-1.541 -3.519,0 -6.124,1.168 -7.813,3.503 -1.336,1.87 -2.002,4.232 -2.002,7.084 0,3.407 0.881,6.073 2.643,8.002 1.761,1.929 3.988,2.894 6.682,2.894 3.025,0 5.413,-1.008 7.161,-3.023 C 4.593,3.93 5.43,0.843 5.352,-3.317 H -8.141 c 0.038,-1.594 0.469,-2.835 1.291,-3.72 0.822,-0.887 1.849,-1.33 3.076,-1.33 0.834,0 1.536,0.22 2.106,0.661 0.57,0.44 0.999,1.149 1.291,2.128"
         style="fill:#ffffff;fill-opacity:1;fill-rule:nonzero;stroke:none"
         id="path84"
         inkscape:connector-curvature="0" /></g><g
       id="g86"
       transform="translate(99.3826,16.7988)"
       style="fill:#ffffff"><path
         d="M 0,0 V 28.191 H 5.526 L 17.111,9.3 v 18.891 h 5.276 V 0 h -5.7 L 5.276,18.463 V 0 Z"
         style="fill:#ffffff;fill-opacity:1;fill-rule:nonzero;stroke:none"
         id="path88"
         inkscape:connector-curvature="0" /></g><g
       id="g90"
       transform="translate(137.2083,26.5979)"
       style="fill:#ffffff"><path
         d="m 0,0 c -0.681,-0.234 -1.757,-0.514 -3.232,-0.84 -1.474,-0.325 -2.438,-0.644 -2.89,-0.956 -0.693,-0.508 -1.039,-1.152 -1.039,-1.932 0,-0.767 0.276,-1.432 0.832,-1.991 0.553,-0.56 1.257,-0.839 2.115,-0.839 0.956,0 1.87,0.325 2.739,0.977 0.644,0.493 1.065,1.098 1.268,1.815 C -0.071,-3.299 0,-2.407 0,-1.093 Z m -7.236,4.447 -4.824,0.905 c 0.548,1.973 1.495,3.433 2.84,4.381 1.343,0.948 3.341,1.423 5.99,1.423 2.406,0 4.198,-0.286 5.376,-0.859 C 3.324,9.725 4.15,8.997 4.631,8.116 5.111,7.235 5.352,5.617 5.352,3.264 L 5.276,-3.065 c 0,-1.801 0.085,-3.13 0.255,-3.985 0.17,-0.855 0.485,-1.771 0.952,-2.749 H 1.055 c -0.139,0.347 -0.311,0.863 -0.513,1.546 -0.09,0.31 -0.151,0.515 -0.189,0.615 -0.911,-0.896 -1.887,-1.569 -2.923,-2.016 -1.036,-0.448 -2.143,-0.673 -3.321,-0.673 -2.075,0 -3.71,0.574 -4.905,1.721 -1.196,1.147 -1.792,2.598 -1.792,4.353 0,1.16 0.273,2.195 0.82,3.105 0.546,0.909 1.312,1.605 2.299,2.089 0.984,0.483 2.405,0.906 4.261,1.268 2.504,0.475 4.24,0.92 5.208,1.334 L 0,4.088 C 0,5.14 -0.257,5.89 -0.77,6.338 -1.284,6.785 -2.252,7.01 -3.677,7.01 -4.64,7.01 -5.39,6.821 -5.929,6.441 -6.469,6.062 -6.904,5.398 -7.236,4.447"
         style="fill:#ffffff;fill-opacity:1;fill-rule:nonzero;stroke:none"
         id="path92"
         inkscape:connector-curvature="0" /></g><g
       id="g94"
       transform="translate(155.6051,37.2263)"
       style="fill:#ffffff"><path
         d="m 0,0 v -4.297 h -3.693 v -8.309 c 0,-1.683 0.033,-2.663 0.103,-2.941 0.071,-0.278 0.231,-0.507 0.481,-0.689 0.247,-0.181 0.551,-0.272 0.909,-0.272 0.497,0 1.218,0.173 2.162,0.52 l 0.415,-4.165 c -1.248,-0.535 -2.664,-0.802 -4.242,-0.802 -0.969,0 -1.842,0.165 -2.62,0.492 -0.777,0.329 -1.347,0.754 -1.71,1.276 -0.363,0.521 -0.615,1.227 -0.754,2.116 -0.115,0.632 -0.172,1.907 -0.172,3.827 v 8.947 h -2.487 V 0 h 2.487 v 4.07 l 5.428,3.166 V 0 Z"
         style="fill:#ffffff;fill-opacity:1;fill-rule:nonzero;stroke:none"
         id="path96"
         inkscape:connector-curvature="0" /></g><path
       d="m 157.45,37.226 h 5.427 V 16.798 h -5.427 z m 0,7.764 h 5.427 v -4.975 h -5.427 z"
       style="fill:#ffffff;fill-opacity:1;fill-rule:nonzero;stroke:none"
       id="path98"
       inkscape:connector-curvature="0" /><g
       id="g100"
       transform="translate(170.8409,27.0126)"
       style="fill:#ffffff"><path
         d="m 0,0 c 0,-2.059 0.483,-3.635 1.449,-4.729 0.966,-1.094 2.158,-1.64 3.573,-1.64 1.416,0 2.606,0.546 3.564,1.64 0.959,1.094 1.439,2.683 1.439,4.768 0,2.032 -0.48,3.595 -1.439,4.689 C 7.628,5.822 6.438,6.369 5.022,6.369 3.607,6.369 2.415,5.822 1.449,4.728 0.483,3.634 0,2.058 0,0 m -5.502,0.29 c 0,1.807 0.442,3.554 1.328,5.244 0.886,1.69 2.141,2.981 3.764,3.872 1.626,0.89 3.439,1.335 5.442,1.335 3.092,0 5.629,-1.01 7.606,-3.029 1.976,-2.018 2.965,-4.571 2.965,-7.654 0,-3.109 -0.999,-5.688 -2.994,-7.732 -1.997,-2.045 -4.51,-3.067 -7.54,-3.067 -1.875,0 -3.663,0.426 -5.363,1.276 -1.701,0.852 -2.994,2.1 -3.88,3.746 -0.886,1.644 -1.328,3.647 -1.328,6.009"
         style="fill:#ffffff;fill-opacity:1;fill-rule:nonzero;stroke:none"
         id="path102"
         inkscape:connector-curvature="0" /></g><g
       id="g104"
       transform="translate(207.4487,16.7988)"
       style="fill:#ffffff"><path
         d="m 0,0 h -5.427 v 10.46 c 0,2.212 -0.116,3.643 -0.342,4.293 -0.228,0.65 -0.596,1.155 -1.107,1.516 -0.511,0.36 -1.128,0.54 -1.847,0.54 -0.921,0 -1.747,-0.257 -2.48,-0.772 -0.733,-0.515 -1.237,-1.197 -1.508,-2.046 -0.27,-0.849 -0.405,-2.418 -0.405,-4.708 V 0 h -5.427 v 20.428 h 5.05 V 17.43 c 1.767,2.35 3.993,3.525 6.678,3.525 1.183,0 2.267,-0.215 3.246,-0.646 0.98,-0.431 1.72,-0.982 2.224,-1.65 0.502,-0.67 0.85,-1.429 1.048,-2.277 C -0.099,15.533 0,14.317 0,12.735 Z"
         style="fill:#ffffff;fill-opacity:1;fill-rule:nonzero;stroke:none"
         id="path106"
         inkscape:connector-curvature="0" /></g><g
       id="g108"
       transform="translate(222.4206,26.5979)"
       style="fill:#ffffff"><path
         d="m 0,0 c -0.681,-0.234 -1.757,-0.514 -3.229,-0.84 -1.475,-0.325 -2.438,-0.644 -2.893,-0.956 -0.693,-0.508 -1.039,-1.152 -1.039,-1.932 0,-0.767 0.278,-1.432 0.832,-1.991 0.553,-0.56 1.26,-0.839 2.117,-0.839 0.957,0 1.871,0.325 2.74,0.977 0.641,0.493 1.062,1.098 1.265,1.815 C -0.068,-3.299 0,-2.407 0,-1.093 Z m -7.236,4.447 -4.824,0.905 c 0.551,1.973 1.498,3.433 2.84,4.381 1.346,0.948 3.341,1.423 5.991,1.423 2.405,0 4.197,-0.286 5.375,-0.859 C 3.324,9.725 4.153,8.997 4.633,8.116 5.112,7.235 5.352,5.617 5.352,3.264 L 5.276,-3.065 c 0,-1.801 0.085,-3.13 0.255,-3.985 0.17,-0.855 0.488,-1.771 0.951,-2.749 H 1.055 c -0.139,0.347 -0.308,0.863 -0.511,1.546 -0.089,0.31 -0.153,0.515 -0.191,0.615 -0.911,-0.896 -1.884,-1.569 -2.92,-2.016 -1.039,-0.448 -2.146,-0.673 -3.322,-0.673 -2.075,0 -3.71,0.574 -4.907,1.721 -1.194,1.147 -1.792,2.598 -1.792,4.353 0,1.16 0.273,2.195 0.82,3.105 0.546,0.909 1.314,1.605 2.299,2.089 0.984,0.483 2.407,0.906 4.263,1.268 2.504,0.475 4.24,0.92 5.206,1.334 L 0,4.088 C 0,5.14 -0.257,5.89 -0.77,6.338 -1.284,6.785 -2.252,7.01 -3.675,7.01 -4.638,7.01 -5.389,6.821 -5.927,6.441 -6.466,6.062 -6.902,5.398 -7.236,4.447"
         style="fill:#ffffff;fill-opacity:1;fill-rule:nonzero;stroke:none"
         id="path110"
         inkscape:connector-curvature="0" /></g><path
       d="m 231.32,44.99 h 5.427 V 16.799 h -5.427 z"
       style="fill:#ffffff;fill-opacity:1;fill-rule:nonzero;stroke:none"
       id="path112"
       inkscape:connector-curvature="0" /><g
       id="g114"
       transform="translate(249.8866,16.7988)"
       style="fill:#ffffff"><path
         d="M 0,0 V 27.965 H 5.653 V 4.749 H 19.824 V 0 Z"
         style="fill:#ffffff;fill-opacity:1;fill-rule:nonzero;stroke:none"
         id="path116"
         inkscape:connector-curvature="0" /></g><g
       id="g118"
       transform="translate(283.1752,26.5979)"
       style="fill:#ffffff"><path
         d="m 0,0 c -0.681,-0.234 -1.757,-0.514 -3.229,-0.84 -1.475,-0.325 -2.438,-0.644 -2.893,-0.956 -0.693,-0.508 -1.039,-1.152 -1.039,-1.932 0,-0.767 0.278,-1.432 0.832,-1.991 0.553,-0.56 1.26,-0.839 2.117,-0.839 0.957,0 1.871,0.325 2.74,0.977 0.641,0.493 1.062,1.098 1.265,1.815 C -0.068,-3.299 0,-2.407 0,-1.093 Z m -7.236,4.447 -4.824,0.905 c 0.551,1.973 1.498,3.433 2.84,4.381 1.345,0.948 3.341,1.423 5.991,1.423 2.405,0 4.197,-0.286 5.375,-0.859 C 3.324,9.725 4.153,8.997 4.633,8.116 5.112,7.235 5.352,5.617 5.352,3.264 L 5.276,-3.065 c 0,-1.801 0.085,-3.13 0.255,-3.985 0.17,-0.855 0.488,-1.771 0.952,-2.749 H 1.055 c -0.139,0.347 -0.308,0.863 -0.511,1.546 -0.089,0.31 -0.153,0.515 -0.191,0.615 -0.911,-0.896 -1.884,-1.569 -2.92,-2.016 -1.039,-0.448 -2.146,-0.673 -3.322,-0.673 -2.075,0 -3.71,0.574 -4.907,1.721 -1.194,1.147 -1.792,2.598 -1.792,4.353 0,1.16 0.273,2.195 0.82,3.105 0.546,0.909 1.314,1.605 2.299,2.089 0.984,0.483 2.407,0.906 4.263,1.268 2.504,0.475 4.24,0.92 5.206,1.334 L 0,4.088 C 0,5.14 -0.257,5.89 -0.77,6.338 -1.284,6.785 -2.252,7.01 -3.675,7.01 -4.638,7.01 -5.389,6.821 -5.927,6.441 -6.466,6.062 -6.902,5.398 -7.236,4.447"
         style="fill:#ffffff;fill-opacity:1;fill-rule:nonzero;stroke:none"
         id="path120"
         inkscape:connector-curvature="0" /></g><g
       id="g122"
       transform="translate(297.2003,27.466)"
       style="fill:#ffffff"><path
         d="m 0,0 c 0,-2.132 0.339,-3.708 1.018,-4.728 0.951,-1.447 2.219,-2.17 3.797,-2.17 1.213,0 2.244,0.513 3.1,1.54 0.855,1.027 1.281,2.644 1.281,4.854 0,2.351 -0.431,4.046 -1.291,5.086 C 7.043,5.622 5.941,6.142 4.598,6.142 3.281,6.142 2.186,5.634 1.312,4.62 0.438,3.606 0,2.066 0,0 M -5.352,-10.667 V 17.524 H 0.075 V 7.445 c 1.677,1.895 3.663,2.843 5.958,2.843 2.501,0 4.572,-0.907 6.209,-2.72 1.637,-1.813 2.457,-4.416 2.457,-7.808 0,-3.51 -0.834,-6.214 -2.504,-8.11 -1.668,-1.897 -3.694,-2.845 -6.078,-2.845 -1.173,0 -2.332,0.303 -3.472,0.907 -1.14,0.605 -2.122,1.478 -2.947,2.618 v -2.997 z"
         style="fill:#ffffff;fill-opacity:1;fill-rule:nonzero;stroke:none"
         id="path124"
         inkscape:connector-curvature="0" /></g><g
       id="g126"
       transform="translate(318.5816,27.0126)"
       style="fill:#ffffff"><path
         d="m 0,0 c 0,-2.059 0.483,-3.635 1.449,-4.729 0.966,-1.094 2.155,-1.64 3.573,-1.64 1.416,0 2.603,0.546 3.564,1.64 0.959,1.094 1.439,2.683 1.439,4.768 0,2.032 -0.48,3.595 -1.439,4.689 C 7.625,5.822 6.438,6.369 5.022,6.369 3.604,6.369 2.415,5.822 1.449,4.728 0.483,3.634 0,2.058 0,0 m -5.502,0.29 c 0,1.807 0.442,3.554 1.328,5.244 0.886,1.69 2.139,2.981 3.764,3.872 1.623,0.89 3.437,1.335 5.442,1.335 3.092,0 5.627,-1.01 7.606,-3.029 1.976,-2.018 2.965,-4.571 2.965,-7.654 0,-3.109 -0.998,-5.688 -2.996,-7.732 -1.995,-2.045 -4.508,-3.067 -7.538,-3.067 -1.875,0 -3.663,0.426 -5.363,1.276 -1.701,0.852 -2.994,2.1 -3.88,3.746 -0.886,1.644 -1.328,3.647 -1.328,6.009"
         style="fill:#ffffff;fill-opacity:1;fill-rule:nonzero;stroke:none"
         id="path128"
         inkscape:connector-curvature="0" /></g><g
       id="g130"
       transform="translate(341.8453,16.7988)"
       style="fill:#ffffff"><path
         d="m 0,0 h -5.427 v 20.428 h 5.05 v -2.901 c 0.86,1.369 1.632,2.283 2.32,2.742 0.686,0.456 1.466,0.686 2.337,0.686 1.232,0 2.417,-0.338 3.559,-1.014 L 6.143,15.246 c -0.909,0.589 -1.752,0.885 -2.534,0.885 -0.754,0 -1.395,-0.21 -1.92,-0.629 C 1.164,15.083 0.751,14.325 0.452,13.23 0.151,12.134 0,9.838 0,6.344 Z"
         style="fill:#ffffff;fill-opacity:1;fill-rule:nonzero;stroke:none"
         id="path132"
         inkscape:connector-curvature="0" /></g><g
       id="g134"
       transform="translate(361.4293,26.5979)"
       style="fill:#ffffff"><path
         d="m 0,0 c -0.681,-0.234 -1.757,-0.514 -3.23,-0.84 -1.474,-0.325 -2.437,-0.644 -2.892,-0.956 -0.693,-0.508 -1.039,-1.152 -1.039,-1.932 0,-0.767 0.278,-1.432 0.832,-1.991 0.553,-0.56 1.26,-0.839 2.117,-0.839 0.957,0 1.871,0.325 2.74,0.977 0.641,0.493 1.062,1.098 1.265,1.815 C -0.068,-3.299 0,-2.407 0,-1.093 Z m -7.236,4.447 -4.824,0.905 c 0.551,1.973 1.498,3.433 2.84,4.381 1.345,0.948 3.341,1.423 5.99,1.423 2.406,0 4.198,-0.286 5.376,-0.859 C 3.324,9.725 4.153,8.997 4.633,8.116 5.112,7.235 5.352,5.617 5.352,3.264 L 5.276,-3.065 c 0,-1.801 0.085,-3.13 0.255,-3.985 0.17,-0.855 0.487,-1.771 0.952,-2.749 H 1.055 c -0.139,0.347 -0.308,0.863 -0.511,1.546 -0.089,0.31 -0.153,0.515 -0.191,0.615 -0.911,-0.896 -1.884,-1.569 -2.92,-2.016 -1.039,-0.448 -2.146,-0.673 -3.322,-0.673 -2.075,0 -3.71,0.574 -4.907,1.721 -1.194,1.147 -1.792,2.598 -1.792,4.353 0,1.16 0.273,2.195 0.82,3.105 0.546,0.909 1.314,1.605 2.299,2.089 0.984,0.483 2.407,0.906 4.263,1.268 2.504,0.475 4.24,0.92 5.206,1.334 L 0,4.088 C 0,5.14 -0.257,5.89 -0.77,6.338 -1.284,6.785 -2.252,7.01 -3.675,7.01 -4.638,7.01 -5.39,6.821 -5.927,6.441 -6.466,6.062 -6.902,5.398 -7.236,4.447"
         style="fill:#ffffff;fill-opacity:1;fill-rule:nonzero;stroke:none"
         id="path136"
         inkscape:connector-curvature="0" /></g><g
       id="g138"
       transform="translate(379.8285,37.2263)"
       style="fill:#ffffff"><path
         d="m 0,0 v -4.297 h -3.693 v -8.309 c 0,-1.683 0.033,-2.663 0.103,-2.941 0.071,-0.278 0.231,-0.507 0.481,-0.689 0.247,-0.181 0.551,-0.272 0.909,-0.272 0.497,0 1.218,0.173 2.162,0.52 l 0.415,-4.165 c -1.248,-0.535 -2.664,-0.802 -4.242,-0.802 -0.969,0 -1.842,0.165 -2.62,0.492 -0.777,0.329 -1.347,0.754 -1.71,1.276 -0.363,0.521 -0.615,1.227 -0.754,2.116 -0.115,0.632 -0.172,1.907 -0.172,3.827 v 8.947 h -2.487 V 0 h 2.487 v 4.07 l 5.428,3.166 V 0 Z"
         style="fill:#ffffff;fill-opacity:1;fill-rule:nonzero;stroke:none"
         id="path140"
         inkscape:connector-curvature="0" /></g><g
       id="g142"
       transform="translate(385.8942,27.0126)"
       style="fill:#ffffff"><path
         d="m 0,0 c 0,-2.059 0.483,-3.635 1.449,-4.729 0.966,-1.094 2.155,-1.64 3.573,-1.64 1.416,0 2.603,0.546 3.564,1.64 0.959,1.094 1.439,2.683 1.439,4.768 0,2.032 -0.48,3.595 -1.439,4.689 C 7.625,5.822 6.438,6.369 5.022,6.369 3.604,6.369 2.415,5.822 1.449,4.728 0.483,3.634 0,2.058 0,0 m -5.503,0.29 c 0,1.807 0.443,3.554 1.329,5.244 0.886,1.69 2.139,2.981 3.764,3.872 1.623,0.89 3.437,1.335 5.441,1.335 3.093,0 5.628,-1.01 7.607,-3.029 1.976,-2.018 2.965,-4.571 2.965,-7.654 0,-3.109 -0.999,-5.688 -2.996,-7.732 -1.995,-2.045 -4.509,-3.067 -7.538,-3.067 -1.875,0 -3.663,0.426 -5.363,1.276 -1.701,0.852 -2.994,2.1 -3.88,3.746 -0.886,1.644 -1.329,3.647 -1.329,6.009"
         style="fill:#ffffff;fill-opacity:1;fill-rule:nonzero;stroke:none"
         id="path144"
         inkscape:connector-curvature="0" /></g><g
       id="g146"
       transform="translate(409.1577,16.7988)"
       style="fill:#ffffff"><path
         d="m 0,0 h -5.427 v 20.428 h 5.05 v -2.901 c 0.86,1.369 1.632,2.283 2.32,2.742 0.686,0.456 1.466,0.686 2.337,0.686 1.232,0 2.417,-0.338 3.559,-1.014 L 6.143,15.246 c -0.909,0.589 -1.752,0.885 -2.534,0.885 -0.754,0 -1.395,-0.21 -1.92,-0.629 C 1.164,15.083 0.751,14.325 0.452,13.23 0.151,12.134 0,9.838 0,6.344 Z"
         style="fill:#ffffff;fill-opacity:1;fill-rule:nonzero;stroke:none"
         id="path148"
         inkscape:connector-curvature="0" /></g><g
       id="g150"
       transform="translate(414.9501,37.2263)"
       style="fill:#ffffff"><path
         d="M 0,0 H 5.653 L 10.515,-14.516 15.151,0 h 5.653 l -7.106,-19.615 -1.331,-3.668 c -0.469,-1.195 -0.914,-2.106 -1.338,-2.737 -0.424,-0.629 -0.91,-1.14 -1.458,-1.532 -0.551,-0.391 -1.228,-0.696 -2.029,-0.915 -0.803,-0.218 -1.71,-0.327 -2.72,-0.327 -1.025,0 -2.028,0.109 -3.013,0.326 l -0.377,4.225 c 0.817,-0.17 1.555,-0.255 2.212,-0.255 1.215,0 2.115,0.376 2.697,1.126 0.582,0.752 1.03,1.708 1.341,2.869 z"
         style="fill:#ffffff;fill-opacity:1;fill-rule:nonzero;stroke:none"
         id="path152"
         inkscape:connector-curvature="0" /></g><g
       id="g156"
       transform="translate(27.4769,80.4108)"><path
         d="m 0,0 h -5.022 v -63.633 h 61.193 v 33.581 L 30.665,-56.442 H 19.269 C 11.467,-56.171 0.339,-50.202 0,-36.024 Z"
         style="fill:#ffffff;fill-opacity:1;fill-rule:nonzero;stroke:none"
         id="path158"
         inkscape:connector-curvature="0" /></g><path
       d="M 83.648,80.411 H 55.019 V 51.784 h 28.629 z"
       style="fill:#ffffff;fill-opacity:1;fill-rule:nonzero;stroke:none"
       id="path160"
       inkscape:connector-curvature="0" /><g
       id="g162"
       transform="translate(36.1594,80.4108)"><path
         d="m 0,0 v -35.14 c -0.137,-7.055 5.361,-11.872 11.057,-12.551 h 21.304 l 9.973,9.837 H 13.432 c -2.238,0.134 -3.525,1.628 -3.661,3.527 V 0"
         style="fill:none;stroke:#ffffff;stroke-width:1.628;stroke-linecap:butt;stroke-linejoin:miter;stroke-miterlimit:10;stroke-dasharray:none;stroke-opacity:1"
         id="path164"
         inkscape:connector-curvature="0" /></g></g></svg>
