<?xml version="1.0" standalone="no"?>
<!DOCTYPE svg PUBLIC "-//W3C//DTD SVG 1.1//EN"
  "http://www.w3.org/Graphics/SVG/1.1/DTD/svg11.dtd">
<svg width="453.54px" height="377.95px" version="1.1"
    xmlns="http://www.w3.org/2000/svg"
    xmlns:xlink="http://www.w3.org/1999/xlink">
<desc>Veusz output document</desc>
<defs>
<clipPath id="c0">
<path d="m0,0l453.54,0l0,377.95l-453.54,0l0,-377.95"/>
</clipPath>
<clipPath id="c1">
<path d="m71.81,10.39l374.17,0l0,311.81l-374.17,0l0,-311.81"/>
</clipPath>
</defs>
<g stroke-linejoin="bevel" stroke-linecap="square" stroke="#000000" fill-rule="evenodd">
<g clip-path="url(#c0)">
<g fill="#1a1e22" stroke="none" stroke-width="0.1">
<path d="m0,0l453.54,0l0,377.95l-453.54,0l0,-377.95"/>
</g>
<g fill="#1a1e22" stroke-width="0.66">
<path d="m71.81,10.39l374.17,0l0,311.81l-374.17,0l0,-311.81"/>
</g>
<g fill="none" stroke="#ffffff" stroke-width="0.1">
<path d="m415.95,188.23l0,1.12c-0.33,-0.17,-0.68,-0.3,-1.05,-0.38c-0.36,-0.08,-0.74,-0.12,-1.13,-0.12c-0.59,0,-1.03,0.09,-1.33,0.27c-0.29,0.18,-0.44,0.45,-0.44,0.81c0,0.27,0.1,0.49,0.31,0.65c0.21,0.15,0.63,0.3,1.27,0.45l0.4,0.09c0.84,0.18,1.45,0.43,1.8,0.76c0.35,0.33,0.53,0.79,0.53,1.38c0,0.67,-0.26,1.2,-0.8,1.6c-0.53,0.39,-1.26,0.59,-2.2,0.59c-0.38,0,-0.79,-0.03,-1.21,-0.11c-0.42,-0.07,-0.86,-0.18,-1.33,-0.34l0,-1.23c0.44,0.22,0.87,0.4,1.3,0.51c0.42,0.11,0.85,0.17,1.27,0.17c0.56,0,0.99,-0.09,1.3,-0.28c0.3,-0.19,0.45,-0.46,0.45,-0.81c0,-0.32,-0.1,-0.57,-0.32,-0.74c-0.21,-0.17,-0.69,-0.33,-1.43,-0.5l-0.41,-0.09c-0.74,-0.15,-1.27,-0.39,-1.6,-0.71c-0.32,-0.32,-0.49,-0.76,-0.49,-1.32c0,-0.68,0.24,-1.21,0.72,-1.58c0.48,-0.37,1.17,-0.55,2.06,-0.55c0.44,0,0.85,0.03,1.24,0.09c0.38,0.06,0.74,0.16,1.07,0.29m5.1,0.62c-0.64,0,-1.14,0.25,-1.51,0.75c-0.37,0.5,-0.55,1.18,-0.55,2.05c0,0.86,0.18,1.55,0.55,2.05c0.37,0.5,0.87,0.75,1.52,0.75c0.63,0,1.14,-0.25,1.51,-0.75c0.37,-0.5,0.55,-1.18,0.55,-2.05c0,-0.86,-0.18,-1.54,-0.55,-2.04c-0.37,-0.5,-0.87,-0.75,-1.51,-0.75m0,-1.01c1.03,0,1.85,0.33,2.44,1.01c0.59,0.67,0.88,1.61,0.88,2.8c0,1.19,-0.29,2.12,-0.88,2.8c-0.59,0.67,-1.4,1.01,-2.44,1.01c-1.04,0,-1.86,-0.33,-2.45,-1.01c-0.59,-0.67,-0.88,-1.61,-0.88,-2.8c0,-1.19,0.29,-2.12,0.88,-2.8c0.59,-0.67,1.4,-1.01,2.45,-1.01m5.31,-2.65l1.19,0l0,10.1l-1.19,0l0,-10.1m7,6.44c-0.96,0,-1.63,0.11,-2,0.33c-0.37,0.22,-0.55,0.59,-0.55,1.12c0,0.42,0.13,0.76,0.41,1c0.27,0.24,0.65,0.37,1.13,0.37c0.66,0,1.19,-0.23,1.59,-0.7c0.4,-0.46,0.6,-1.09,0.6,-1.87l0,-0.26l-1.18,0m2.38,-0.49l0,4.15l-1.19,0l0,-1.1c-0.27,0.44,-0.61,0.76,-1.01,0.97c-0.4,0.21,-0.9,0.31,-1.49,0.31c-0.74,0,-1.33,-0.2,-1.77,-0.62c-0.43,-0.41,-0.65,-0.97,-0.65,-1.67c0,-0.81,0.27,-1.43,0.82,-1.85c0.54,-0.41,1.36,-0.62,2.45,-0.62l1.67,0l0,-0.11c0,-0.55,-0.18,-0.97,-0.54,-1.27c-0.36,-0.3,-0.86,-0.45,-1.52,-0.45c-0.41,0,-0.82,0.04,-1.21,0.14c-0.39,0.09,-0.77,0.24,-1.13,0.44l0,-1.1c0.43,-0.16,0.86,-0.29,1.27,-0.37c0.41,-0.08,0.81,-0.12,1.2,-0.12c1.05,0,1.83,0.27,2.35,0.81c0.51,0.54,0.77,1.37,0.77,2.48m6.67,-2c-0.13,-0.07,-0.28,-0.13,-0.43,-0.17c-0.15,-0.03,-0.33,-0.05,-0.52,-0.05c-0.67,0,-1.19,0.21,-1.55,0.65c-0.36,0.43,-0.54,1.07,-0.54,1.89l0,3.83l-1.2,0l0,-7.27l1.2,0l0,1.12c0.25,-0.44,0.57,-0.76,0.98,-0.98c0.4,-0.21,0.89,-0.32,1.46,-0.32c0.08,0,0.17,0,0.27,0.01c0.09,0.01,0.2,0.02,0.33,0.04l0,1.22" fill="#ffffff" stroke="none" fill-opacity="1"/>
<g transform="matrix(0 -1 1 0 379.8 54.04)">
<path d="m5.89,-7.05l0,1.12c-0.33,-0.17,-0.68,-0.3,-1.05,-0.38c-0.36,-0.08,-0.74,-0.12,-1.13,-0.12c-0.59,0,-1.03,0.09,-1.33,0.27c-0.29,0.18,-0.44,0.45,-0.44,0.81c0,0.27,0.1,0.49,0.31,0.65c0.21,0.15,0.63,0.3,1.27,0.45l0.4,0.09c0.84,0.18,1.45,0.43,1.8,0.76c0.35,0.33,0.53,0.79,0.53,1.38c0,0.67,-0.26,1.2,-0.8,1.6c-0.53,0.39,-1.26,0.59,-2.2,0.59c-0.38,0,-0.79,-0.03,-1.21,-0.11c-0.42,-0.07,-0.86,-0.18,-1.33,-0.34l0,-1.23c0.44,0.22,0.87,0.4,1.3,0.51c0.42,0.11,0.85,0.17,1.27,0.17c0.56,0,0.99,-0.09,1.3,-0.28c0.3,-0.19,0.45,-0.46,0.45,-0.81c0,-0.32,-0.1,-0.57,-0.32,-0.74c-0.21,-0.17,-0.69,-0.33,-1.43,-0.5l-0.41,-0.09c-0.74,-0.15,-1.27,-0.39,-1.6,-0.71c-0.32,-0.32,-0.49,-0.76,-0.49,-1.32c0,-0.68,0.24,-1.21,0.72,-1.58c0.48,-0.37,1.17,-0.55,2.06,-0.55c0.44,0,0.85,0.03,1.24,0.09c0.38,0.06,0.74,0.16,1.07,0.29m5.1,0.62c-0.64,0,-1.14,0.25,-1.51,0.75c-0.37,0.5,-0.55,1.18,-0.55,2.05c0,0.86,0.18,1.55,0.55,2.05c0.37,0.5,0.87,0.75,1.52,0.75c0.63,0,1.14,-0.25,1.51,-0.75c0.37,-0.5,0.55,-1.18,0.55,-2.05c0,-0.86,-0.18,-1.54,-0.55,-2.04c-0.37,-0.5,-0.87,-0.75,-1.51,-0.75m0,-1.01c1.03,0,1.85,0.33,2.44,1.01c0.59,0.67,0.88,1.61,0.88,2.8c0,1.19,-0.29,2.12,-0.88,2.8c-0.59,0.67,-1.4,1.01,-2.44,1.01c-1.04,0,-1.86,-0.33,-2.45,-1.01c-0.59,-0.67,-0.88,-1.61,-0.88,-2.8c0,-1.19,0.29,-2.12,0.88,-2.8c0.59,-0.67,1.4,-1.01,2.45,-1.01m5.31,-2.65l1.19,0l0,10.1l-1.19,0l0,-10.1m7,6.44c-0.96,0,-1.63,0.11,-2,0.33c-0.37,0.22,-0.55,0.59,-0.55,1.12c0,0.42,0.13,0.76,0.41,1c0.27,0.24,0.65,0.37,1.13,0.37c0.66,0,1.19,-0.23,1.59,-0.7c0.4,-0.46,0.6,-1.09,0.6,-1.87l0,-0.26l-1.18,0m2.38,-0.49l0,4.15l-1.19,0l0,-1.1c-0.27,0.44,-0.61,0.76,-1.01,0.97c-0.4,0.21,-0.9,0.31,-1.49,0.31c-0.74,0,-1.33,-0.2,-1.77,-0.62c-0.43,-0.41,-0.65,-0.97,-0.65,-1.67c0,-0.81,0.27,-1.43,0.82,-1.85c0.54,-0.41,1.36,-0.62,2.45,-0.62l1.67,0l0,-0.11c0,-0.55,-0.18,-0.97,-0.54,-1.27c-0.36,-0.3,-0.86,-0.45,-1.52,-0.45c-0.41,0,-0.82,0.04,-1.21,0.14c-0.39,0.09,-0.77,0.24,-1.13,0.44l0,-1.1c0.43,-0.16,0.86,-0.29,1.27,-0.37c0.41,-0.08,0.81,-0.12,1.2,-0.12c1.05,0,1.83,0.27,2.35,0.81c0.51,0.54,0.77,1.37,0.77,2.48m6.67,-2c-0.13,-0.07,-0.28,-0.13,-0.43,-0.17c-0.15,-0.03,-0.33,-0.05,-0.52,-0.05c-0.67,0,-1.19,0.21,-1.55,0.65c-0.36,0.43,-0.54,1.07,-0.54,1.89l0,3.83l-1.2,0l0,-7.27l1.2,0l0,1.12c0.25,-0.44,0.57,-0.76,0.98,-0.98c0.4,-0.21,0.89,-0.32,1.46,-0.32c0.08,0,0.17,0,0.27,0.01c0.09,0.01,0.2,0.02,0.33,0.04l0,1.22" fill="#ffffff" stroke="none" fill-opacity="1"/>
</g>
</g>
</g>
<g clip-path="url(#c1)">
<g fill="none" stroke="#ffffff" stroke-dasharray="2.66,1.33" stroke-width="0.66">
<polyline fill="none" points="383.62,10.39 383.62,16.75 383.62,23.12 383.62,29.48 383.62,35.84 383.62,42.21 383.62,48.57 383.62,54.93 383.62,61.3 383.62,67.66 383.62,74.02 383.62,80.39 383.62,86.75 383.62,93.11 383.62,99.48 383.62,105.84 383.62,112.2 383.62,118.57 383.62,124.93 383.62,131.3 383.62,137.66 383.62,144.02 383.62,150.39 383.62,156.75 383.62,163.11 383.62,169.48 383.62,175.84 383.62,182.2 383.62,188.57 383.62,194.93 383.62,201.29 383.62,207.66 383.62,214.02 383.62,220.38 383.62,226.75 383.62,233.11 383.62,239.47 383.62,245.84 383.62,252.2 383.62,258.56 383.62,264.93 383.62,271.29 383.62,277.66 383.62,284.02 383.62,290.38 383.62,296.75 383.62,303.11 383.62,309.47 383.62,315.84 383.62,322.2"/>
</g>
<g fill="none" stroke="#ffffff" stroke-dasharray="2.66,1.33" stroke-width="0.66">
<polyline fill="none" points="71.81,197.48 79.44,197.48 87.08,197.48 94.71,197.48 102.35,197.48 109.99,197.48 117.62,197.48 125.26,197.48 132.9,197.48 140.53,197.48 148.17,197.48 155.8,197.48 163.44,197.48 171.08,197.48 178.71,197.48 186.35,197.48 193.99,197.48 201.62,197.48 209.26,197.48 216.89,197.48 224.53,197.48 232.17,197.48 239.8,197.48 247.44,197.48 255.07,197.48 262.71,197.48 270.35,197.48 277.98,197.48 285.62,197.48 293.26,197.48 300.89,197.48 308.53,197.48 316.16,197.48 323.8,197.48 331.44,197.48 339.07,197.48 346.71,197.48 354.35,197.48 361.98,197.48 369.62,197.48 377.25,197.48 384.89,197.48 392.53,197.48 400.16,197.48 407.8,197.48 415.43,197.48 423.07,197.48 430.71,197.48 438.34,197.48 445.98,197.48"/>
</g>
<g fill="#f9f06b" stroke-linejoin="miter" stroke-width="0.66">
<g transform="translate(383.62,197.48)">
<path d="m0,11.57l-2.89,-6.56l-7.13,0.77l4.23,-5.78l-4.23,-5.78l7.13,0.77l2.89,-6.56l2.89,6.56l7.13,-0.77l-4.23,5.78l4.23,5.78l-7.13,-0.77l-2.89,6.56"/>
</g>
</g>
</g>
<g clip-path="url(#c0)">
<g fill="none" stroke="#ffffff" stroke-linecap="butt" stroke-width="0.66">
<path d="M71.81,322.2l0,-311.81"/>
<path d="M71.81,322.2l4,0M71.81,306.61l4,0M71.81,291.02l4,0M71.81,275.43l4,0M71.81,259.84l4,0M71.81,244.25l4,0M71.81,228.66l4,0M71.81,213.07l4,0M71.81,197.48l4,0M71.81,181.88l4,0M71.81,166.29l4,0M71.81,150.7l4,0M71.81,135.11l4,0M71.81,119.52l4,0M71.81,103.93l4,0M71.81,88.34l4,0M71.81,72.75l4,0M71.81,57.16l4,0M71.81,41.57l4,0M71.81,25.98l4,0M71.81,10.39l4,0"/>
<path d="M71.81,322.2l8,0M71.81,259.84l8,0M71.81,197.48l8,0M71.81,135.11l8,0M71.81,72.75l8,0M71.81,10.39l8,0"/>
</g>
<g fill="none" stroke="#ffffff" stroke-width="0.1">
<g transform="matrix(0 -1 1 0 17.4 240.02)">
<path d="m9.16,-11.84c-0.62,-0.42,-1.65,-0.63,-3.11,-0.63c-1.53,0,-2.3,0.35,-2.3,1.06c0,0.56,0.8,0.98,2.41,1.27c1.26,0.22,2.25,0.67,2.96,1.36c0.86,0.82,1.29,2.07,1.29,3.76c0,1.61,-0.41,2.89,-1.25,3.84c-0.83,0.95,-1.98,1.43,-3.44,1.43c-1.45,0,-2.6,-0.47,-3.44,-1.43c-0.83,-0.94,-1.25,-2.25,-1.25,-3.93c0,-1.24,0.41,-2.36,1.25,-3.36c0.32,-0.38,0.71,-0.69,1.16,-0.91c-0.95,-0.48,-1.42,-1.15,-1.42,-2.01c0,-1.65,1.34,-2.48,4.02,-2.48c1.34,0,2.38,0.21,3.11,0.64l0,1.39m-4.45,2.91c-0.41,0.17,-0.78,0.48,-1.12,0.93c-0.52,0.68,-0.78,1.65,-0.78,2.89c0,1.23,0.25,2.2,0.77,2.89c0.52,0.7,1.23,1.05,2.14,1.05c0.89,0,1.6,-0.35,2.12,-1.05c0.52,-0.7,0.78,-1.63,0.78,-2.79c0,-1.21,-0.27,-2.1,-0.83,-2.69c-0.58,-0.62,-1.26,-0.97,-2.03,-1.04c-0.38,-0.03,-0.74,-0.09,-1.05,-0.18m12.52,-5.25c-0.81,1.4,-1.42,2.78,-1.81,4.15c-0.39,1.36,-0.59,2.75,-0.59,4.16c0,1.4,0.19,2.79,0.59,4.17c0.39,1.37,1,2.76,1.81,4.15l-1.46,0c-0.91,-1.43,-1.59,-2.83,-2.05,-4.21c-0.45,-1.38,-0.67,-2.75,-0.67,-4.11c0,-1.35,0.22,-2.72,0.67,-4.09c0.45,-1.37,1.13,-2.78,2.05,-4.21l1.46,0" fill="#ffffff" stroke="none" fill-opacity="1"/>
<path d="m19.96,-8.92l0,-1c0.27,0.13,0.55,0.23,0.84,0.3c0.28,0.06,0.56,0.1,0.83,0.1c0.72,0,1.28,-0.24,1.67,-0.73c0.38,-0.49,0.6,-1.23,0.65,-2.23c-0.21,0.31,-0.47,0.55,-0.8,0.72c-0.32,0.16,-0.68,0.25,-1.07,0.25c-0.81,0,-1.46,-0.24,-1.93,-0.74c-0.47,-0.49,-0.71,-1.16,-0.71,-2.02c0,-0.83,0.24,-1.51,0.74,-2.01c0.49,-0.5,1.15,-0.76,1.97,-0.76c0.94,0,1.66,0.36,2.16,1.08c0.49,0.72,0.74,1.77,0.74,3.15c0,1.28,-0.3,2.31,-0.91,3.08c-0.61,0.76,-1.43,1.15,-2.46,1.15c-0.27,0,-0.55,-0.02,-0.84,-0.08c-0.28,-0.05,-0.57,-0.13,-0.88,-0.24m2.19,-3.46c0.49,0,0.88,-0.16,1.17,-0.5c0.28,-0.33,0.43,-0.8,0.43,-1.39c0,-0.58,-0.14,-1.05,-0.43,-1.39c-0.28,-0.34,-0.68,-0.51,-1.17,-0.51c-0.49,0,-0.88,0.17,-1.17,0.51c-0.29,0.34,-0.43,0.8,-0.43,1.39c0,0.59,0.14,1.05,0.43,1.39c0.29,0.33,0.68,0.5,1.17,0.5m5.84,2.7l3.85,0l0,0.92l-5.18,0l0,-0.92c0.41,-0.43,0.99,-1.01,1.71,-1.74c0.72,-0.73,1.17,-1.2,1.36,-1.41c0.35,-0.39,0.6,-0.73,0.74,-1c0.14,-0.27,0.21,-0.54,0.21,-0.81c0,-0.43,-0.15,-0.78,-0.45,-1.06c-0.3,-0.27,-0.7,-0.41,-1.18,-0.41c-0.34,0,-0.71,0.06,-1.09,0.18c-0.38,0.12,-0.79,0.3,-1.23,0.54l0,-1.11c0.44,-0.17,0.86,-0.31,1.24,-0.4c0.38,-0.09,0.74,-0.13,1.06,-0.13c0.84,0,1.52,0.21,2.02,0.63c0.5,0.42,0.75,0.98,0.75,1.69c0,0.33,-0.06,0.65,-0.18,0.95c-0.12,0.3,-0.35,0.65,-0.68,1.06c-0.09,0.1,-0.38,0.41,-0.86,0.91c-0.48,0.5,-1.17,1.21,-2.06,2.11" fill="#ffffff" stroke="none" fill-opacity="1"/>
<path d="m34.03,-13.63l10.71,0l0,1.4l-8.62,10.67l8.82,0l0,1.55l-11.12,0l0,-1.4l8.61,-10.67l-8.4,0l0,-1.55m19.44,4.97c-0.18,-0.1,-0.39,-0.18,-0.61,-0.24c-0.22,-0.05,-0.46,-0.07,-0.73,-0.07c-0.95,0,-1.67,0.3,-2.18,0.92c-0.5,0.61,-0.76,1.5,-0.76,2.66l0,5.38l-1.68,0l0,-10.22l1.68,0l0,1.58c0.35,-0.62,0.81,-1.08,1.37,-1.38c0.56,-0.3,1.25,-0.45,2.06,-0.45c0.11,0,0.24,0,0.38,0.02c0.14,0.01,0.29,0.03,0.46,0.06l0,1.72m4.74,-4.97l1.55,0l-4.74,15.36l-1.55,0l4.74,-15.36" fill="#ffffff" stroke="none" fill-opacity="1"/>
<path d="m61.01,-8.92l0,-1c0.27,0.13,0.55,0.23,0.84,0.3c0.28,0.06,0.56,0.1,0.83,0.1c0.72,0,1.28,-0.24,1.67,-0.73c0.38,-0.49,0.6,-1.23,0.65,-2.23c-0.21,0.31,-0.47,0.55,-0.8,0.72c-0.32,0.16,-0.68,0.25,-1.07,0.25c-0.81,0,-1.46,-0.24,-1.93,-0.74c-0.47,-0.49,-0.71,-1.16,-0.71,-2.02c0,-0.83,0.24,-1.51,0.74,-2.01c0.49,-0.5,1.15,-0.76,1.97,-0.76c0.94,0,1.66,0.36,2.16,1.08c0.49,0.72,0.74,1.77,0.74,3.15c0,1.28,-0.3,2.31,-0.91,3.08c-0.61,0.76,-1.43,1.15,-2.46,1.15c-0.27,0,-0.55,-0.02,-0.84,-0.08c-0.28,-0.05,-0.57,-0.13,-0.88,-0.24m2.19,-3.46c0.49,0,0.88,-0.16,1.17,-0.5c0.28,-0.33,0.43,-0.8,0.43,-1.39c0,-0.58,-0.14,-1.05,-0.43,-1.39c-0.28,-0.34,-0.68,-0.51,-1.17,-0.51c-0.49,0,-0.88,0.17,-1.17,0.51c-0.29,0.34,-0.43,0.8,-0.43,1.39c0,0.59,0.14,1.05,0.43,1.39c0.29,0.33,0.68,0.5,1.17,0.5m7.92,-3.57l-2.78,4.35l2.78,0l0,-4.35m-0.28,-0.96l1.38,0l0,5.32l1.16,0l0,0.91l-1.16,0l0,1.92l-1.1,0l0,-1.92l-3.68,0l0,-1.06l3.39,-5.17" fill="#ffffff" stroke="none" fill-opacity="1"/>
<path d="m75.08,-13.63l10.71,0l0,1.4l-8.62,10.67l8.82,0l0,1.55l-11.12,0l0,-1.4l8.61,-10.67l-8.4,0l0,-1.55m19.44,4.97c-0.18,-0.1,-0.39,-0.18,-0.61,-0.24c-0.22,-0.05,-0.46,-0.07,-0.73,-0.07c-0.95,0,-1.67,0.3,-2.18,0.92c-0.5,0.61,-0.76,1.5,-0.76,2.66l0,5.38l-1.68,0l0,-10.22l1.68,0l0,1.58c0.35,-0.62,0.81,-1.08,1.37,-1.38c0.56,-0.3,1.25,-0.45,2.06,-0.45c0.11,0,0.24,0,0.38,0.02c0.14,0.01,0.29,0.03,0.46,0.06l0,1.72m1.49,-5.53l1.46,0c0.91,1.43,1.59,2.84,2.05,4.21c0.45,1.37,0.68,2.74,0.68,4.09c0,1.36,-0.22,2.73,-0.68,4.11c-0.45,1.38,-1.13,2.78,-2.05,4.21l-1.46,0c0.81,-1.39,1.41,-2.78,1.81,-4.15c0.39,-1.37,0.59,-2.77,0.59,-4.17c0,-1.4,-0.19,-2.79,-0.59,-4.16c-0.39,-1.36,-1,-2.75,-1.81,-4.15m17.54,0c-0.81,1.4,-1.42,2.78,-1.81,4.15c-0.39,1.36,-0.59,2.75,-0.59,4.16c0,1.4,0.19,2.79,0.59,4.17c0.39,1.37,1,2.76,1.81,4.15l-1.46,0c-0.91,-1.43,-1.59,-2.83,-2.05,-4.21c-0.45,-1.38,-0.67,-2.75,-0.67,-4.11c0,-1.35,0.22,-2.72,0.67,-4.09c0.45,-1.37,1.13,-2.78,2.05,-4.21l1.46,0m22.42,8.19c-0.53,0,-0.94,0.22,-1.25,0.67c-0.3,0.45,-0.45,1.07,-0.45,1.88c0,0.79,0.15,1.41,0.45,1.86c0.3,0.45,0.72,0.67,1.25,0.67c0.51,0,0.92,-0.22,1.22,-0.67c0.3,-0.45,0.45,-1.07,0.45,-1.86c0,-0.79,-0.15,-1.42,-0.45,-1.87c-0.3,-0.45,-0.71,-0.67,-1.22,-0.67m0,-1.16c0.96,0,1.72,0.33,2.29,1c0.56,0.66,0.84,1.57,0.84,2.71c0,1.13,-0.28,2.04,-0.85,2.7c-0.56,0.66,-1.33,0.99,-2.28,0.99c-0.97,0,-1.74,-0.33,-2.31,-0.99c-0.56,-0.66,-0.84,-1.56,-0.84,-2.7c0,-1.14,0.28,-2.05,0.85,-2.71c0.56,-0.66,1.33,-1,2.3,-1m-16.75,-6.72c0.96,0,1.72,0.33,2.3,1c0.57,0.66,0.85,1.56,0.85,2.7c0,1.15,-0.28,2.05,-0.85,2.72c-0.56,0.66,-1.33,0.99,-2.3,0.99c-0.96,0,-1.73,-0.33,-2.29,-0.99c-0.56,-0.66,-0.84,-1.57,-0.84,-2.71c0,-1.13,0.28,-2.03,0.84,-2.7c0.56,-0.66,1.33,-1,2.29,-1m8.24,0l1.46,0l-8.52,14.14l-1.46,0l8.52,-14.14m-8.24,1.16c-0.52,0,-0.93,0.22,-1.23,0.67c-0.3,0.45,-0.45,1.07,-0.45,1.86c0,0.8,0.14,1.42,0.44,1.88c0.29,0.45,0.71,0.67,1.24,0.67c0.52,0,0.94,-0.22,1.24,-0.67c0.3,-0.45,0.45,-1.07,0.45,-1.88c0,-0.78,-0.15,-1.4,-0.45,-1.86c-0.3,-0.45,-0.71,-0.68,-1.24,-0.68m9.42,5.55c0.96,0,1.72,0.33,2.29,1c0.56,0.66,0.84,1.57,0.84,2.71c0,1.13,-0.28,2.04,-0.85,2.7c-0.56,0.66,-1.33,0.99,-2.28,0.99c-0.97,0,-1.74,-0.33,-2.31,-0.99c-0.56,-0.66,-0.84,-1.56,-0.84,-2.7c0,-1.14,0.28,-2.05,0.85,-2.71c0.56,-0.66,1.33,-1,2.3,-1m0,1.16c-0.52,0,-0.94,0.22,-1.24,0.67c-0.3,0.45,-0.45,1.07,-0.45,1.88c0,0.79,0.15,1.41,0.45,1.86c0.3,0.45,0.71,0.67,1.24,0.67c0.51,0,0.92,-0.22,1.22,-0.67c0.3,-0.45,0.45,-1.07,0.45,-1.86c0,-0.79,-0.15,-1.42,-0.45,-1.87c-0.3,-0.45,-0.71,-0.67,-1.22,-0.67m12.99,-8.19l1.46,0c0.91,1.43,1.59,2.84,2.05,4.21c0.45,1.37,0.68,2.74,0.68,4.09c0,1.36,-0.22,2.73,-0.68,4.11c-0.45,1.38,-1.13,2.78,-2.05,4.21l-1.46,0c0.81,-1.39,1.41,-2.78,1.81,-4.15c0.39,-1.37,0.59,-2.77,0.59,-4.17c0,-1.4,-0.19,-2.79,-0.59,-4.16c-0.39,-1.36,-1,-2.75,-1.81,-4.15" fill="#ffffff" stroke="none" fill-opacity="1"/>
</g>
<path d="m25.86,322.62l10.01,0l0,1.32l-10.01,0l0,-1.32m17.75,-4.6l-3.98,6.22l3.98,0l0,-6.22m-0.41,-1.37l1.98,0l0,7.6l1.66,0l0,1.31l-1.66,0l0,2.75l-1.57,0l0,-2.75l-5.26,0l0,-1.52l4.85,-7.39m9.63,1.03c-0.81,0,-1.42,0.39,-1.83,1.19c-0.4,0.79,-0.61,2,-0.61,3.6c0,1.59,0.2,2.79,0.61,3.59c0.4,0.79,1.01,1.19,1.83,1.19c0.81,0,1.43,-0.39,1.83,-1.19c0.4,-0.79,0.61,-1.99,0.61,-3.59c0,-1.6,-0.2,-2.8,-0.61,-3.6c-0.4,-0.79,-1.02,-1.19,-1.83,-1.19m0,-1.25c1.3,0,2.3,0.51,2.99,1.55c0.69,1.03,1.03,2.53,1.03,4.5c0,1.96,-0.34,3.46,-1.03,4.49c-0.69,1.03,-1.68,1.55,-2.99,1.55c-1.3,0,-2.3,-0.51,-2.99,-1.55c-0.69,-1.03,-1.03,-2.53,-1.03,-4.49c0,-1.96,0.34,-3.47,1.03,-4.5c0.69,-1.03,1.68,-1.55,2.99,-1.55m10.17,1.25c-0.81,0,-1.42,0.39,-1.83,1.19c-0.4,0.79,-0.61,2,-0.61,3.6c0,1.59,0.2,2.79,0.61,3.59c0.4,0.79,1.01,1.19,1.83,1.19c0.81,0,1.43,-0.39,1.83,-1.19c0.4,-0.79,0.61,-1.99,0.61,-3.59c0,-1.6,-0.2,-2.8,-0.61,-3.6c-0.4,-0.79,-1.02,-1.19,-1.83,-1.19m0,-1.25c1.3,0,2.3,0.51,2.99,1.55c0.69,1.03,1.03,2.53,1.03,4.5c0,1.96,-0.34,3.46,-1.03,4.49c-0.69,1.03,-1.68,1.55,-2.99,1.55c-1.3,0,-2.3,-0.51,-2.99,-1.55c-0.69,-1.03,-1.03,-2.53,-1.03,-4.49c0,-1.96,0.34,-3.47,1.03,-4.5c0.69,-1.03,1.68,-1.55,2.99,-1.55" fill="#ffffff" stroke="none" fill-opacity="1"/>
<path d="m25.86,260.26l10.01,0l0,1.32l-10.01,0l0,-1.32m14.78,4.35l5.5,0l0,1.32l-7.4,0l0,-1.32c0.59,-0.61,1.41,-1.45,2.44,-2.49c1.03,-1.04,1.68,-1.71,1.94,-2.01c0.5,-0.56,0.85,-1.04,1.05,-1.44c0.2,-0.39,0.3,-0.77,0.3,-1.16c0,-0.61,-0.21,-1.12,-0.65,-1.51c-0.43,-0.39,-1,-0.58,-1.69,-0.58c-0.49,0,-1.01,0.08,-1.56,0.25c-0.54,0.17,-1.13,0.43,-1.76,0.78l0,-1.59c0.63,-0.25,1.22,-0.44,1.78,-0.57c0.55,-0.13,1.05,-0.19,1.51,-0.19c1.2,0,2.17,0.3,2.89,0.9c0.71,0.6,1.07,1.41,1.07,2.42c0,0.47,-0.08,0.93,-0.26,1.36c-0.17,0.42,-0.5,0.93,-0.98,1.51c-0.13,0.15,-0.54,0.58,-1.24,1.3c-0.69,0.72,-1.68,1.73,-2.95,3.02m12.19,-9.29c-0.81,0,-1.42,0.39,-1.83,1.19c-0.4,0.79,-0.61,2,-0.61,3.6c0,1.59,0.2,2.79,0.61,3.59c0.4,0.79,1.01,1.19,1.83,1.19c0.81,0,1.43,-0.39,1.83,-1.19c0.4,-0.79,0.61,-1.99,0.61,-3.59c0,-1.6,-0.2,-2.8,-0.61,-3.6c-0.4,-0.79,-1.02,-1.19,-1.83,-1.19m0,-1.25c1.3,0,2.3,0.51,2.99,1.55c0.69,1.03,1.03,2.53,1.03,4.5c0,1.96,-0.34,3.46,-1.03,4.49c-0.69,1.03,-1.68,1.55,-2.99,1.55c-1.3,0,-2.3,-0.51,-2.99,-1.55c-0.69,-1.03,-1.03,-2.53,-1.03,-4.49c0,-1.96,0.34,-3.47,1.03,-4.5c0.69,-1.03,1.68,-1.55,2.99,-1.55m10.17,1.25c-0.81,0,-1.42,0.39,-1.83,1.19c-0.4,0.79,-0.61,2,-0.61,3.6c0,1.59,0.2,2.79,0.61,3.59c0.4,0.79,1.01,1.19,1.83,1.19c0.81,0,1.43,-0.39,1.83,-1.19c0.4,-0.79,0.61,-1.99,0.61,-3.59c0,-1.6,-0.2,-2.8,-0.61,-3.6c-0.4,-0.79,-1.02,-1.19,-1.83,-1.19m0,-1.25c1.3,0,2.3,0.51,2.99,1.55c0.69,1.03,1.03,2.53,1.03,4.5c0,1.96,-0.34,3.46,-1.03,4.49c-0.69,1.03,-1.68,1.55,-2.99,1.55c-1.3,0,-2.3,-0.51,-2.99,-1.55c-0.69,-1.03,-1.03,-2.53,-1.03,-4.49c0,-1.96,0.34,-3.47,1.03,-4.5c0.69,-1.03,1.68,-1.55,2.99,-1.55" fill="#ffffff" stroke="none" fill-opacity="1"/>
<path d="m63.01,192.95c-0.81,0,-1.42,0.39,-1.83,1.19c-0.4,0.79,-0.61,2,-0.61,3.6c0,1.59,0.2,2.79,0.61,3.59c0.4,0.79,1.01,1.19,1.83,1.19c0.81,0,1.43,-0.39,1.83,-1.19c0.4,-0.79,0.61,-1.99,0.61,-3.59c0,-1.6,-0.2,-2.8,-0.61,-3.6c-0.4,-0.79,-1.02,-1.19,-1.83,-1.19m0,-1.25c1.3,0,2.3,0.51,2.99,1.55c0.69,1.03,1.03,2.53,1.03,4.5c0,1.96,-0.34,3.46,-1.03,4.49c-0.69,1.03,-1.68,1.55,-2.99,1.55c-1.3,0,-2.3,-0.51,-2.99,-1.55c-0.69,-1.03,-1.03,-2.53,-1.03,-4.49c0,-1.96,0.34,-3.47,1.03,-4.5c0.69,-1.03,1.68,-1.55,2.99,-1.55" fill="#ffffff" stroke="none" fill-opacity="1"/>
<path d="m40.64,139.88l5.5,0l0,1.32l-7.4,0l0,-1.32c0.59,-0.61,1.41,-1.45,2.44,-2.49c1.03,-1.04,1.68,-1.71,1.94,-2.01c0.5,-0.56,0.85,-1.04,1.05,-1.44c0.2,-0.39,0.3,-0.77,0.3,-1.16c0,-0.61,-0.21,-1.12,-0.65,-1.51c-0.43,-0.39,-1,-0.58,-1.69,-0.58c-0.49,0,-1.01,0.08,-1.56,0.25c-0.54,0.17,-1.13,0.43,-1.76,0.78l0,-1.59c0.63,-0.25,1.22,-0.44,1.78,-0.57c0.55,-0.13,1.05,-0.19,1.51,-0.19c1.2,0,2.17,0.3,2.89,0.9c0.71,0.6,1.07,1.41,1.07,2.42c0,0.47,-0.08,0.93,-0.26,1.36c-0.17,0.42,-0.5,0.93,-0.98,1.51c-0.13,0.15,-0.54,0.58,-1.24,1.3c-0.69,0.72,-1.68,1.73,-2.95,3.02m12.19,-9.29c-0.81,0,-1.42,0.39,-1.83,1.19c-0.4,0.79,-0.61,2,-0.61,3.6c0,1.59,0.2,2.79,0.61,3.59c0.4,0.79,1.01,1.19,1.83,1.19c0.81,0,1.43,-0.39,1.83,-1.19c0.4,-0.79,0.61,-1.99,0.61,-3.59c0,-1.6,-0.2,-2.8,-0.61,-3.6c-0.4,-0.79,-1.02,-1.19,-1.83,-1.19m0,-1.25c1.3,0,2.3,0.51,2.99,1.55c0.69,1.03,1.03,2.53,1.03,4.5c0,1.96,-0.34,3.46,-1.03,4.49c-0.69,1.03,-1.68,1.55,-2.99,1.55c-1.3,0,-2.3,-0.51,-2.99,-1.55c-0.69,-1.03,-1.03,-2.53,-1.03,-4.49c0,-1.96,0.34,-3.47,1.03,-4.5c0.69,-1.03,1.68,-1.55,2.99,-1.55m10.17,1.25c-0.81,0,-1.42,0.39,-1.83,1.19c-0.4,0.79,-0.61,2,-0.61,3.6c0,1.59,0.2,2.79,0.61,3.59c0.4,0.79,1.01,1.19,1.83,1.19c0.81,0,1.43,-0.39,1.83,-1.19c0.4,-0.79,0.61,-1.99,0.61,-3.59c0,-1.6,-0.2,-2.8,-0.61,-3.6c-0.4,-0.79,-1.02,-1.19,-1.83,-1.19m0,-1.25c1.3,0,2.3,0.51,2.99,1.55c0.69,1.03,1.03,2.53,1.03,4.5c0,1.96,-0.34,3.46,-1.03,4.49c-0.69,1.03,-1.68,1.55,-2.99,1.55c-1.3,0,-2.3,-0.51,-2.99,-1.55c-0.69,-1.03,-1.03,-2.53,-1.03,-4.49c0,-1.96,0.34,-3.47,1.03,-4.5c0.69,-1.03,1.68,-1.55,2.99,-1.55" fill="#ffffff" stroke="none" fill-opacity="1"/>
<path d="m43.61,68.56l-3.98,6.22l3.98,0l0,-6.22m-0.41,-1.37l1.98,0l0,7.6l1.66,0l0,1.31l-1.66,0l0,2.75l-1.57,0l0,-2.75l-5.26,0l0,-1.52l4.85,-7.39m9.63,1.03c-0.81,0,-1.42,0.39,-1.83,1.19c-0.4,0.79,-0.61,2,-0.61,3.6c0,1.59,0.2,2.79,0.61,3.59c0.4,0.79,1.01,1.19,1.83,1.19c0.81,0,1.43,-0.39,1.83,-1.19c0.4,-0.79,0.61,-1.99,0.61,-3.59c0,-1.6,-0.2,-2.8,-0.61,-3.6c-0.4,-0.79,-1.02,-1.19,-1.83,-1.19m0,-1.25c1.3,0,2.3,0.51,2.99,1.55c0.69,1.03,1.03,2.53,1.03,4.5c0,1.96,-0.34,3.46,-1.03,4.49c-0.69,1.03,-1.68,1.55,-2.99,1.55c-1.3,0,-2.3,-0.51,-2.99,-1.55c-0.69,-1.03,-1.03,-2.53,-1.03,-4.49c0,-1.96,0.34,-3.47,1.03,-4.5c0.69,-1.03,1.68,-1.55,2.99,-1.55m10.17,1.25c-0.81,0,-1.42,0.39,-1.83,1.19c-0.4,0.79,-0.61,2,-0.61,3.6c0,1.59,0.2,2.79,0.61,3.59c0.4,0.79,1.01,1.19,1.83,1.19c0.81,0,1.43,-0.39,1.83,-1.19c0.4,-0.79,0.61,-1.99,0.61,-3.59c0,-1.6,-0.2,-2.8,-0.61,-3.6c-0.4,-0.79,-1.02,-1.19,-1.83,-1.19m0,-1.25c1.3,0,2.3,0.51,2.99,1.55c0.69,1.03,1.03,2.53,1.03,4.5c0,1.96,-0.34,3.46,-1.03,4.49c-0.69,1.03,-1.68,1.55,-2.99,1.55c-1.3,0,-2.3,-0.51,-2.99,-1.55c-0.69,-1.03,-1.03,-2.53,-1.03,-4.49c0,-1.96,0.34,-3.47,1.03,-4.5c0.69,-1.03,1.68,-1.55,2.99,-1.55" fill="#ffffff" stroke="none" fill-opacity="1"/>
<path d="m42.85,10.03c-0.7,0,-1.26,0.24,-1.68,0.72c-0.41,0.48,-0.62,1.14,-0.62,1.99c0,0.83,0.2,1.5,0.62,1.98c0.41,0.48,0.97,0.73,1.68,0.73c0.7,0,1.26,-0.24,1.68,-0.73c0.41,-0.48,0.62,-1.14,0.62,-1.98c0,-0.84,-0.2,-1.5,-0.62,-1.99c-0.41,-0.48,-0.97,-0.72,-1.68,-0.72m3.13,-4.94l0,1.43c-0.39,-0.18,-0.79,-0.33,-1.19,-0.42c-0.4,-0.09,-0.8,-0.14,-1.19,-0.14c-1.04,0,-1.83,0.35,-2.38,1.05c-0.54,0.7,-0.86,1.76,-0.94,3.18c0.3,-0.45,0.69,-0.8,1.15,-1.04c0.46,-0.24,0.97,-0.36,1.53,-0.36c1.17,0,2.09,0.35,2.77,1.06c0.67,0.71,1.01,1.67,1.01,2.9c0,1.19,-0.35,2.15,-1.06,2.88c-0.7,0.72,-1.65,1.08,-2.82,1.08c-1.34,0,-2.38,-0.51,-3.09,-1.55c-0.71,-1.03,-1.07,-2.53,-1.07,-4.49c0,-1.84,0.43,-3.31,1.31,-4.41c0.87,-1.09,2.04,-1.64,3.52,-1.64c0.39,0,0.79,0.03,1.19,0.11c0.4,0.07,0.82,0.19,1.26,0.35m6.85,0.78c-0.81,0,-1.42,0.39,-1.83,1.19c-0.4,0.79,-0.61,2,-0.61,3.6c0,1.59,0.2,2.79,0.61,3.59c0.4,0.79,1.01,1.19,1.83,1.19c0.81,0,1.43,-0.39,1.83,-1.19c0.4,-0.79,0.61,-1.99,0.61,-3.59c0,-1.6,-0.2,-2.8,-0.61,-3.6c-0.4,-0.79,-1.02,-1.19,-1.83,-1.19m0,-1.25c1.3,0,2.3,0.51,2.99,1.55c0.69,1.03,1.03,2.53,1.03,4.5c0,1.96,-0.34,3.46,-1.03,4.49c-0.69,1.03,-1.68,1.55,-2.99,1.55c-1.3,0,-2.3,-0.51,-2.99,-1.55c-0.69,-1.03,-1.03,-2.53,-1.03,-4.49c0,-1.96,0.34,-3.47,1.03,-4.5c0.69,-1.03,1.68,-1.55,2.99,-1.55m10.17,1.25c-0.81,0,-1.42,0.39,-1.83,1.19c-0.4,0.79,-0.61,2,-0.61,3.6c0,1.59,0.2,2.79,0.61,3.59c0.4,0.79,1.01,1.19,1.83,1.19c0.81,0,1.43,-0.39,1.83,-1.19c0.4,-0.79,0.61,-1.99,0.61,-3.59c0,-1.6,-0.2,-2.8,-0.61,-3.6c-0.4,-0.79,-1.02,-1.19,-1.83,-1.19m0,-1.25c1.3,0,2.3,0.51,2.99,1.55c0.69,1.03,1.03,2.53,1.03,4.5c0,1.96,-0.34,3.46,-1.03,4.49c-0.69,1.03,-1.68,1.55,-2.99,1.55c-1.3,0,-2.3,-0.51,-2.99,-1.55c-0.69,-1.03,-1.03,-2.53,-1.03,-4.49c0,-1.96,0.34,-3.47,1.03,-4.5c0.69,-1.03,1.68,-1.55,2.99,-1.55" fill="#ffffff" stroke="none" fill-opacity="1"/>
</g>
<g fill="none" stroke="#ffffff" stroke-linecap="butt" stroke-width="0.66">
<path d="M445.98,322.2l0,-311.81"/>
<path d="M445.98,322.2l-4,0M445.98,306.61l-4,0M445.98,291.02l-4,0M445.98,275.43l-4,0M445.98,259.84l-4,0M445.98,244.25l-4,0M445.98,228.66l-4,0M445.98,213.07l-4,0M445.98,197.48l-4,0M445.98,181.88l-4,0M445.98,166.29l-4,0M445.98,150.7l-4,0M445.98,135.11l-4,0M445.98,119.52l-4,0M445.98,103.93l-4,0M445.98,88.34l-4,0M445.98,72.75l-4,0M445.98,57.16l-4,0M445.98,41.57l-4,0M445.98,25.98l-4,0M445.98,10.39l-4,0"/>
<path d="M445.98,322.2l-8,0M445.98,259.84l-8,0M445.98,197.48l-8,0M445.98,135.11l-8,0M445.98,72.75l-8,0M445.98,10.39l-8,0"/>
<path d="M71.81,322.2l374.17,0"/>
<path d="M71.81,322.2l0,-4M87.4,322.2l0,-4M102.99,322.2l0,-4M118.58,322.2l0,-4M134.17,322.2l0,-4M149.76,322.2l0,-4M165.35,322.2l0,-4M180.94,322.2l0,-4M196.53,322.2l0,-4M212.12,322.2l0,-4M227.71,322.2l0,-4M243.3,322.2l0,-4M258.89,322.2l0,-4M274.48,322.2l0,-4M290.07,322.2l0,-4M305.66,322.2l0,-4M321.25,322.2l0,-4M336.85,322.2l0,-4M352.44,322.2l0,-4M368.03,322.2l0,-4M383.62,322.2l0,-4M399.21,322.2l0,-4M414.8,322.2l0,-4M430.39,322.2l0,-4M445.98,322.2l0,-4"/>
<path d="M71.81,322.2l0,-8M134.17,322.2l0,-8M196.53,322.2l0,-8M258.89,322.2l0,-8M321.25,322.2l0,-8M383.62,322.2l0,-8M445.98,322.2l0,-8"/>
</g>
<g fill="none" stroke="#ffffff" stroke-width="0.1">
<path d="m194.33,361.6c-0.62,-0.42,-1.65,-0.63,-3.11,-0.63c-1.53,0,-2.3,0.35,-2.3,1.06c0,0.56,0.8,0.98,2.41,1.27c1.26,0.22,2.25,0.67,2.96,1.36c0.86,0.82,1.29,2.07,1.29,3.76c0,1.61,-0.41,2.89,-1.25,3.84c-0.83,0.95,-1.98,1.43,-3.44,1.43c-1.45,0,-2.6,-0.47,-3.44,-1.43c-0.83,-0.94,-1.25,-2.25,-1.25,-3.93c0,-1.24,0.41,-2.36,1.25,-3.36c0.32,-0.38,0.71,-0.69,1.16,-0.91c-0.95,-0.48,-1.42,-1.15,-1.42,-2.01c0,-1.65,1.34,-2.48,4.02,-2.48c1.34,0,2.38,0.21,3.11,0.64l0,1.39m-4.45,2.91c-0.41,0.17,-0.78,0.48,-1.12,0.93c-0.52,0.68,-0.78,1.65,-0.78,2.89c0,1.23,0.25,2.2,0.77,2.89c0.52,0.7,1.23,1.05,2.14,1.05c0.89,0,1.6,-0.35,2.12,-1.05c0.52,-0.7,0.78,-1.63,0.78,-2.79c0,-1.21,-0.27,-2.1,-0.83,-2.69c-0.58,-0.62,-1.26,-0.97,-2.03,-1.04c-0.38,-0.03,-0.74,-0.09,-1.05,-0.18m12.52,-5.25c-0.81,1.4,-1.42,2.78,-1.81,4.15c-0.39,1.36,-0.59,2.75,-0.59,4.16c0,1.4,0.19,2.79,0.59,4.17c0.39,1.37,1,2.76,1.81,4.15l-1.46,0c-0.91,-1.43,-1.59,-2.83,-2.05,-4.21c-0.45,-1.38,-0.67,-2.75,-0.67,-4.11c0,-1.35,0.22,-2.72,0.67,-4.09c0.45,-1.37,1.13,-2.78,2.05,-4.21l1.46,0" fill="#ffffff" stroke="none" fill-opacity="1"/>
<path d="m205.13,364.52l0,-1c0.27,0.13,0.55,0.23,0.84,0.3c0.28,0.06,0.56,0.1,0.83,0.1c0.72,0,1.28,-0.24,1.67,-0.73c0.38,-0.49,0.6,-1.23,0.65,-2.23c-0.21,0.31,-0.47,0.55,-0.8,0.72c-0.32,0.16,-0.68,0.25,-1.07,0.25c-0.81,0,-1.46,-0.24,-1.93,-0.74c-0.47,-0.49,-0.71,-1.16,-0.71,-2.02c0,-0.83,0.24,-1.51,0.74,-2.01c0.49,-0.5,1.15,-0.76,1.97,-0.76c0.94,0,1.66,0.36,2.16,1.08c0.49,0.72,0.74,1.77,0.74,3.15c0,1.28,-0.3,2.31,-0.91,3.08c-0.61,0.76,-1.43,1.15,-2.46,1.15c-0.27,0,-0.55,-0.02,-0.84,-0.08c-0.28,-0.05,-0.57,-0.13,-0.88,-0.24m2.19,-3.46c0.49,0,0.88,-0.16,1.17,-0.5c0.28,-0.33,0.43,-0.8,0.43,-1.39c0,-0.58,-0.14,-1.05,-0.43,-1.39c-0.28,-0.34,-0.68,-0.51,-1.17,-0.51c-0.49,0,-0.88,0.17,-1.17,0.51c-0.29,0.34,-0.43,0.8,-0.43,1.39c0,0.59,0.14,1.05,0.43,1.39c0.29,0.33,0.68,0.5,1.17,0.5m7.39,-0.89c-0.49,0,-0.88,0.16,-1.17,0.5c-0.28,0.33,-0.43,0.8,-0.43,1.39c0,0.58,0.14,1.05,0.43,1.39c0.28,0.34,0.68,0.51,1.17,0.51c0.49,0,0.88,-0.17,1.17,-0.51c0.29,-0.34,0.43,-0.8,0.43,-1.39c0,-0.59,-0.14,-1.05,-0.43,-1.39c-0.29,-0.33,-0.68,-0.5,-1.17,-0.5m2.19,-3.46l0,1c-0.27,-0.13,-0.55,-0.23,-0.83,-0.3c-0.28,-0.06,-0.56,-0.1,-0.83,-0.1c-0.72,0,-1.28,0.24,-1.67,0.73c-0.38,0.49,-0.6,1.23,-0.65,2.23c0.21,-0.31,0.48,-0.55,0.81,-0.72c0.32,-0.16,0.68,-0.25,1.07,-0.25c0.82,0,1.46,0.24,1.94,0.74c0.47,0.49,0.71,1.17,0.71,2.03c0,0.83,-0.24,1.51,-0.74,2.01c-0.49,0.5,-1.15,0.76,-1.97,0.76c-0.94,0,-1.66,-0.36,-2.16,-1.08c-0.49,-0.72,-0.74,-1.77,-0.74,-3.14c0,-1.29,0.3,-2.31,0.91,-3.08c0.61,-0.76,1.43,-1.15,2.46,-1.15c0.27,0,0.55,0.02,0.83,0.08c0.28,0.05,0.57,0.13,0.88,0.24" fill="#ffffff" stroke="none" fill-opacity="1"/>
<path d="m219.2,359.81l10.71,0l0,1.4l-8.62,10.67l8.82,0l0,1.55l-11.12,0l0,-1.4l8.61,-10.67l-8.4,0l0,-1.55m19.44,4.97c-0.18,-0.1,-0.39,-0.18,-0.61,-0.24c-0.22,-0.05,-0.46,-0.07,-0.73,-0.07c-0.95,0,-1.67,0.3,-2.18,0.92c-0.5,0.61,-0.76,1.5,-0.76,2.66l0,5.38l-1.68,0l0,-10.22l1.68,0l0,1.58c0.35,-0.62,0.81,-1.08,1.37,-1.38c0.56,-0.3,1.25,-0.45,2.06,-0.45c0.11,0,0.24,0,0.38,0.02c0.14,0.01,0.29,0.03,0.46,0.06l0,1.72m4.74,-4.97l1.55,0l-4.74,15.36l-1.55,0l4.74,-15.36" fill="#ffffff" stroke="none" fill-opacity="1"/>
<path d="m246.18,364.52l0,-1c0.27,0.13,0.55,0.23,0.84,0.3c0.28,0.06,0.56,0.1,0.83,0.1c0.72,0,1.28,-0.24,1.67,-0.73c0.38,-0.49,0.6,-1.23,0.65,-2.23c-0.21,0.31,-0.47,0.55,-0.8,0.72c-0.32,0.16,-0.68,0.25,-1.07,0.25c-0.81,0,-1.46,-0.24,-1.93,-0.74c-0.47,-0.49,-0.71,-1.16,-0.71,-2.02c0,-0.83,0.24,-1.51,0.74,-2.01c0.49,-0.5,1.15,-0.76,1.97,-0.76c0.94,0,1.66,0.36,2.16,1.08c0.49,0.72,0.74,1.77,0.74,3.15c0,1.28,-0.3,2.31,-0.91,3.08c-0.61,0.76,-1.43,1.15,-2.46,1.15c-0.27,0,-0.55,-0.02,-0.84,-0.08c-0.28,-0.05,-0.57,-0.13,-0.88,-0.24m2.19,-3.46c0.49,0,0.88,-0.16,1.17,-0.5c0.28,-0.33,0.43,-0.8,0.43,-1.39c0,-0.58,-0.14,-1.05,-0.43,-1.39c-0.28,-0.34,-0.68,-0.51,-1.17,-0.51c-0.49,0,-0.88,0.17,-1.17,0.51c-0.29,0.34,-0.43,0.8,-0.43,1.39c0,0.59,0.14,1.05,0.43,1.39c0.29,0.33,0.68,0.5,1.17,0.5m7.92,-3.57l-2.78,4.35l2.78,0l0,-4.35m-0.28,-0.96l1.38,0l0,5.32l1.16,0l0,0.91l-1.16,0l0,1.92l-1.1,0l0,-1.92l-3.68,0l0,-1.06l3.39,-5.17" fill="#ffffff" stroke="none" fill-opacity="1"/>
<path d="m260.25,359.81l10.71,0l0,1.4l-8.62,10.67l8.82,0l0,1.55l-11.12,0l0,-1.4l8.61,-10.67l-8.4,0l0,-1.55m19.44,4.97c-0.18,-0.1,-0.39,-0.18,-0.61,-0.24c-0.22,-0.05,-0.46,-0.07,-0.73,-0.07c-0.95,0,-1.67,0.3,-2.18,0.92c-0.5,0.61,-0.76,1.5,-0.76,2.66l0,5.38l-1.68,0l0,-10.22l1.68,0l0,1.58c0.35,-0.62,0.81,-1.08,1.37,-1.38c0.56,-0.3,1.25,-0.45,2.06,-0.45c0.11,0,0.24,0,0.38,0.02c0.14,0.01,0.29,0.03,0.46,0.06l0,1.72m1.49,-5.53l1.46,0c0.91,1.43,1.59,2.84,2.05,4.21c0.45,1.37,0.68,2.74,0.68,4.09c0,1.36,-0.22,2.73,-0.68,4.11c-0.45,1.38,-1.13,2.78,-2.05,4.21l-1.46,0c0.81,-1.39,1.41,-2.78,1.81,-4.15c0.39,-1.37,0.59,-2.77,0.59,-4.17c0,-1.4,-0.19,-2.79,-0.59,-4.16c-0.39,-1.36,-1,-2.75,-1.81,-4.15m17.54,0c-0.81,1.4,-1.42,2.78,-1.81,4.15c-0.39,1.36,-0.59,2.75,-0.59,4.16c0,1.4,0.19,2.79,0.59,4.17c0.39,1.37,1,2.76,1.81,4.15l-1.46,0c-0.91,-1.43,-1.59,-2.83,-2.05,-4.21c-0.45,-1.38,-0.67,-2.75,-0.67,-4.11c0,-1.35,0.22,-2.72,0.67,-4.09c0.45,-1.37,1.13,-2.78,2.05,-4.21l1.46,0m22.42,8.19c-0.53,0,-0.94,0.22,-1.25,0.67c-0.3,0.45,-0.45,1.07,-0.45,1.88c0,0.79,0.15,1.41,0.45,1.86c0.3,0.45,0.72,0.67,1.25,0.67c0.51,0,0.92,-0.22,1.22,-0.67c0.3,-0.45,0.45,-1.07,0.45,-1.86c0,-0.79,-0.15,-1.42,-0.45,-1.87c-0.3,-0.45,-0.71,-0.67,-1.22,-0.67m0,-1.16c0.96,0,1.72,0.33,2.29,1c0.56,0.66,0.84,1.57,0.84,2.71c0,1.13,-0.28,2.04,-0.85,2.7c-0.56,0.66,-1.33,0.99,-2.28,0.99c-0.97,0,-1.74,-0.33,-2.31,-0.99c-0.56,-0.66,-0.84,-1.56,-0.84,-2.7c0,-1.14,0.28,-2.05,0.85,-2.71c0.56,-0.66,1.33,-1,2.3,-1m-16.75,-6.72c0.96,0,1.72,0.33,2.3,1c0.57,0.66,0.85,1.56,0.85,2.7c0,1.15,-0.28,2.05,-0.85,2.72c-0.56,0.66,-1.33,0.99,-2.3,0.99c-0.96,0,-1.73,-0.33,-2.29,-0.99c-0.56,-0.66,-0.84,-1.57,-0.84,-2.71c0,-1.13,0.28,-2.03,0.84,-2.7c0.56,-0.66,1.33,-1,2.29,-1m8.24,0l1.46,0l-8.52,14.14l-1.46,0l8.52,-14.14m-8.24,1.16c-0.52,0,-0.93,0.22,-1.23,0.67c-0.3,0.45,-0.45,1.07,-0.45,1.86c0,0.8,0.14,1.42,0.44,1.88c0.29,0.45,0.71,0.67,1.24,0.67c0.52,0,0.94,-0.22,1.24,-0.67c0.3,-0.45,0.45,-1.07,0.45,-1.88c0,-0.78,-0.15,-1.4,-0.45,-1.86c-0.3,-0.45,-0.71,-0.68,-1.24,-0.68m9.42,5.55c0.96,0,1.72,0.33,2.29,1c0.56,0.66,0.84,1.57,0.84,2.71c0,1.13,-0.28,2.04,-0.85,2.7c-0.56,0.66,-1.33,0.99,-2.28,0.99c-0.97,0,-1.74,-0.33,-2.31,-0.99c-0.56,-0.66,-0.84,-1.56,-0.84,-2.7c0,-1.14,0.28,-2.05,0.85,-2.71c0.56,-0.66,1.33,-1,2.3,-1m0,1.16c-0.52,0,-0.94,0.22,-1.24,0.67c-0.3,0.45,-0.45,1.07,-0.45,1.88c0,0.79,0.15,1.41,0.45,1.86c0.3,0.45,0.71,0.67,1.24,0.67c0.51,0,0.92,-0.22,1.22,-0.67c0.3,-0.45,0.45,-1.07,0.45,-1.86c0,-0.79,-0.15,-1.42,-0.45,-1.87c-0.3,-0.45,-0.71,-0.67,-1.22,-0.67m12.99,-8.19l1.46,0c0.91,1.43,1.59,2.84,2.05,4.21c0.45,1.37,0.68,2.74,0.68,4.09c0,1.36,-0.22,2.73,-0.68,4.11c-0.45,1.38,-1.13,2.78,-2.05,4.21l-1.46,0c0.81,-1.39,1.41,-2.78,1.81,-4.15c0.39,-1.37,0.59,-2.77,0.59,-4.17c0,-1.4,-0.19,-2.79,-0.59,-4.16c-0.39,-1.36,-1,-2.75,-1.81,-4.15" fill="#ffffff" stroke="none" fill-opacity="1"/>
<path d="m46.44,335.12l10.01,0l0,1.32l-10.01,0l0,-1.32m13.69,4.35l2.57,0l0,-8.89l-2.8,0.56l0,-1.43l2.78,-0.56l1.57,0l0,10.33l2.57,0l0,1.32l-6.71,0l0,-1.32m13.28,-9.29c-0.81,0,-1.42,0.39,-1.83,1.19c-0.4,0.79,-0.61,2,-0.61,3.6c0,1.59,0.2,2.79,0.61,3.59c0.4,0.79,1.01,1.19,1.83,1.19c0.81,0,1.43,-0.39,1.83,-1.19c0.4,-0.79,0.61,-1.99,0.61,-3.59c0,-1.6,-0.2,-2.8,-0.61,-3.6c-0.4,-0.79,-1.02,-1.19,-1.83,-1.19m0,-1.25c1.3,0,2.3,0.51,2.99,1.55c0.69,1.03,1.03,2.53,1.03,4.5c0,1.96,-0.34,3.46,-1.03,4.49c-0.69,1.03,-1.68,1.55,-2.99,1.55c-1.3,0,-2.3,-0.51,-2.99,-1.55c-0.69,-1.03,-1.03,-2.53,-1.03,-4.49c0,-1.96,0.34,-3.47,1.03,-4.5c0.69,-1.03,1.68,-1.55,2.99,-1.55m10.17,1.25c-0.81,0,-1.42,0.39,-1.83,1.19c-0.4,0.79,-0.61,2,-0.61,3.6c0,1.59,0.2,2.79,0.61,3.59c0.4,0.79,1.01,1.19,1.83,1.19c0.81,0,1.43,-0.39,1.83,-1.19c0.4,-0.79,0.61,-1.99,0.61,-3.59c0,-1.6,-0.2,-2.8,-0.61,-3.6c-0.4,-0.79,-1.02,-1.19,-1.83,-1.19m0,-1.25c1.3,0,2.3,0.51,2.99,1.55c0.69,1.03,1.03,2.53,1.03,4.5c0,1.96,-0.34,3.46,-1.03,4.49c-0.69,1.03,-1.68,1.55,-2.99,1.55c-1.3,0,-2.3,-0.51,-2.99,-1.55c-0.69,-1.03,-1.03,-2.53,-1.03,-4.49c0,-1.96,0.34,-3.47,1.03,-4.5c0.69,-1.03,1.68,-1.55,2.99,-1.55m10.17,1.25c-0.81,0,-1.42,0.39,-1.83,1.19c-0.4,0.79,-0.61,2,-0.61,3.6c0,1.59,0.2,2.79,0.61,3.59c0.4,0.79,1.01,1.19,1.83,1.19c0.81,0,1.43,-0.39,1.83,-1.19c0.4,-0.79,0.61,-1.99,0.61,-3.59c0,-1.6,-0.2,-2.8,-0.61,-3.6c-0.4,-0.79,-1.02,-1.19,-1.83,-1.19m0,-1.25c1.3,0,2.3,0.51,2.99,1.55c0.69,1.03,1.03,2.53,1.03,4.5c0,1.96,-0.34,3.46,-1.03,4.49c-0.69,1.03,-1.68,1.55,-2.99,1.55c-1.3,0,-2.3,-0.51,-2.99,-1.55c-0.69,-1.03,-1.03,-2.53,-1.03,-4.49c0,-1.96,0.34,-3.47,1.03,-4.5c0.69,-1.03,1.68,-1.55,2.99,-1.55" fill="#ffffff" stroke="none" fill-opacity="1"/>
<path d="m113.89,335.12l10.01,0l0,1.32l-10.01,0l0,-1.32m16.79,0.14c-0.75,0,-1.33,0.2,-1.76,0.6c-0.42,0.4,-0.64,0.95,-0.64,1.65c0,0.7,0.21,1.25,0.64,1.65c0.42,0.4,1.01,0.6,1.76,0.6c0.75,0,1.34,-0.2,1.77,-0.6c0.43,-0.4,0.64,-0.95,0.64,-1.65c0,-0.7,-0.21,-1.25,-0.64,-1.65c-0.42,-0.4,-1.02,-0.6,-1.77,-0.6m-1.57,-0.67c-0.67,-0.16,-1.2,-0.48,-1.58,-0.94c-0.37,-0.46,-0.56,-1.02,-0.56,-1.69c0,-0.93,0.33,-1.66,0.99,-2.21c0.66,-0.54,1.57,-0.81,2.73,-0.81c1.16,0,2.07,0.27,2.73,0.81c0.66,0.54,0.99,1.27,0.99,2.21c0,0.66,-0.18,1.23,-0.56,1.69c-0.37,0.46,-0.9,0.77,-1.57,0.94c0.76,0.17,1.35,0.52,1.77,1.03c0.42,0.51,0.63,1.14,0.63,1.89c0,1.13,-0.34,1.99,-1.03,2.6c-0.69,0.6,-1.67,0.9,-2.96,0.9c-1.28,0,-2.27,-0.3,-2.96,-0.9c-0.69,-0.6,-1.03,-1.47,-1.03,-2.6c0,-0.74,0.21,-1.37,0.64,-1.89c0.42,-0.51,1.02,-0.86,1.78,-1.03m-0.57,-2.49c0,0.6,0.18,1.07,0.56,1.41c0.37,0.33,0.9,0.5,1.58,0.5c0.67,0,1.2,-0.16,1.58,-0.5c0.38,-0.33,0.57,-0.8,0.57,-1.41c0,-0.6,-0.19,-1.07,-0.57,-1.41c-0.38,-0.33,-0.91,-0.5,-1.58,-0.5c-0.68,0,-1.21,0.16,-1.58,0.5c-0.37,0.33,-0.56,0.8,-0.56,1.41m12.33,-1.92c-0.81,0,-1.42,0.39,-1.83,1.19c-0.4,0.79,-0.61,2,-0.61,3.6c0,1.59,0.2,2.79,0.61,3.59c0.4,0.79,1.01,1.19,1.83,1.19c0.81,0,1.43,-0.39,1.83,-1.19c0.4,-0.79,0.61,-1.99,0.61,-3.59c0,-1.6,-0.2,-2.8,-0.61,-3.6c-0.4,-0.79,-1.02,-1.19,-1.83,-1.19m0,-1.25c1.3,0,2.3,0.51,2.99,1.55c0.69,1.03,1.03,2.53,1.03,4.5c0,1.96,-0.34,3.46,-1.03,4.49c-0.69,1.03,-1.68,1.55,-2.99,1.55c-1.3,0,-2.3,-0.51,-2.99,-1.55c-0.69,-1.03,-1.03,-2.53,-1.03,-4.49c0,-1.96,0.34,-3.47,1.03,-4.5c0.69,-1.03,1.68,-1.55,2.99,-1.55m10.17,1.25c-0.81,0,-1.42,0.39,-1.83,1.19c-0.4,0.79,-0.61,2,-0.61,3.6c0,1.59,0.2,2.79,0.61,3.59c0.4,0.79,1.01,1.19,1.83,1.19c0.81,0,1.43,-0.39,1.83,-1.19c0.4,-0.79,0.61,-1.99,0.61,-3.59c0,-1.6,-0.2,-2.8,-0.61,-3.6c-0.4,-0.79,-1.02,-1.19,-1.83,-1.19m0,-1.25c1.3,0,2.3,0.51,2.99,1.55c0.69,1.03,1.03,2.53,1.03,4.5c0,1.96,-0.34,3.46,-1.03,4.49c-0.69,1.03,-1.68,1.55,-2.99,1.55c-1.3,0,-2.3,-0.51,-2.99,-1.55c-0.69,-1.03,-1.03,-2.53,-1.03,-4.49c0,-1.96,0.34,-3.47,1.03,-4.5c0.69,-1.03,1.68,-1.55,2.99,-1.55" fill="#ffffff" stroke="none" fill-opacity="1"/>
<path d="m176.25,335.12l10.01,0l0,1.32l-10.01,0l0,-1.32m16.99,-0.78c-0.7,0,-1.26,0.24,-1.68,0.72c-0.41,0.48,-0.62,1.14,-0.62,1.99c0,0.83,0.2,1.5,0.62,1.98c0.41,0.48,0.97,0.73,1.68,0.73c0.7,0,1.26,-0.24,1.68,-0.73c0.41,-0.48,0.62,-1.14,0.62,-1.98c0,-0.84,-0.2,-1.5,-0.62,-1.99c-0.41,-0.48,-0.97,-0.72,-1.68,-0.72m3.13,-4.94l0,1.43c-0.39,-0.18,-0.79,-0.33,-1.19,-0.42c-0.4,-0.09,-0.8,-0.14,-1.19,-0.14c-1.04,0,-1.83,0.35,-2.38,1.05c-0.54,0.7,-0.86,1.76,-0.94,3.18c0.3,-0.45,0.69,-0.8,1.15,-1.04c0.46,-0.24,0.97,-0.36,1.53,-0.36c1.17,0,2.09,0.35,2.77,1.06c0.67,0.71,1.01,1.67,1.01,2.9c0,1.19,-0.35,2.15,-1.06,2.88c-0.7,0.72,-1.65,1.08,-2.82,1.08c-1.34,0,-2.38,-0.51,-3.09,-1.55c-0.71,-1.03,-1.07,-2.53,-1.07,-4.49c0,-1.84,0.43,-3.31,1.31,-4.41c0.87,-1.09,2.04,-1.64,3.52,-1.64c0.39,0,0.79,0.03,1.19,0.11c0.4,0.07,0.82,0.19,1.26,0.35m6.85,0.78c-0.81,0,-1.42,0.39,-1.83,1.19c-0.4,0.79,-0.61,2,-0.61,3.6c0,1.59,0.2,2.79,0.61,3.59c0.4,0.79,1.01,1.19,1.83,1.19c0.81,0,1.43,-0.39,1.83,-1.19c0.4,-0.79,0.61,-1.99,0.61,-3.59c0,-1.6,-0.2,-2.8,-0.61,-3.6c-0.4,-0.79,-1.02,-1.19,-1.83,-1.19m0,-1.25c1.3,0,2.3,0.51,2.99,1.55c0.69,1.03,1.03,2.53,1.03,4.5c0,1.96,-0.34,3.46,-1.03,4.49c-0.69,1.03,-1.68,1.55,-2.99,1.55c-1.3,0,-2.3,-0.51,-2.99,-1.55c-0.69,-1.03,-1.03,-2.53,-1.03,-4.49c0,-1.96,0.34,-3.47,1.03,-4.5c0.69,-1.03,1.68,-1.55,2.99,-1.55m10.17,1.25c-0.81,0,-1.42,0.39,-1.83,1.19c-0.4,0.79,-0.61,2,-0.61,3.6c0,1.59,0.2,2.79,0.61,3.59c0.4,0.79,1.01,1.19,1.83,1.19c0.81,0,1.43,-0.39,1.83,-1.19c0.4,-0.79,0.61,-1.99,0.61,-3.59c0,-1.6,-0.2,-2.8,-0.61,-3.6c-0.4,-0.79,-1.02,-1.19,-1.83,-1.19m0,-1.25c1.3,0,2.3,0.51,2.99,1.55c0.69,1.03,1.03,2.53,1.03,4.5c0,1.96,-0.34,3.46,-1.03,4.49c-0.69,1.03,-1.68,1.55,-2.99,1.55c-1.3,0,-2.3,-0.51,-2.99,-1.55c-0.69,-1.03,-1.03,-2.53,-1.03,-4.49c0,-1.96,0.34,-3.47,1.03,-4.5c0.69,-1.03,1.68,-1.55,2.99,-1.55" fill="#ffffff" stroke="none" fill-opacity="1"/>
<path d="m238.61,335.12l10.01,0l0,1.32l-10.01,0l0,-1.32m17.75,-4.6l-3.98,6.22l3.98,0l0,-6.22m-0.41,-1.37l1.98,0l0,7.6l1.66,0l0,1.31l-1.66,0l0,2.75l-1.57,0l0,-2.75l-5.26,0l0,-1.52l4.85,-7.39m9.63,1.03c-0.81,0,-1.42,0.39,-1.83,1.19c-0.4,0.79,-0.61,2,-0.61,3.6c0,1.59,0.2,2.79,0.61,3.59c0.4,0.79,1.01,1.19,1.83,1.19c0.81,0,1.43,-0.39,1.83,-1.19c0.4,-0.79,0.61,-1.99,0.61,-3.59c0,-1.6,-0.2,-2.8,-0.61,-3.6c-0.4,-0.79,-1.02,-1.19,-1.83,-1.19m0,-1.25c1.3,0,2.3,0.51,2.99,1.55c0.69,1.03,1.03,2.53,1.03,4.5c0,1.96,-0.34,3.46,-1.03,4.49c-0.69,1.03,-1.68,1.55,-2.99,1.55c-1.3,0,-2.3,-0.51,-2.99,-1.55c-0.69,-1.03,-1.03,-2.53,-1.03,-4.49c0,-1.96,0.34,-3.47,1.03,-4.5c0.69,-1.03,1.68,-1.55,2.99,-1.55m10.17,1.25c-0.81,0,-1.42,0.39,-1.83,1.19c-0.4,0.79,-0.61,2,-0.61,3.6c0,1.59,0.2,2.79,0.61,3.59c0.4,0.79,1.01,1.19,1.83,1.19c0.81,0,1.43,-0.39,1.83,-1.19c0.4,-0.79,0.61,-1.99,0.61,-3.59c0,-1.6,-0.2,-2.8,-0.61,-3.6c-0.4,-0.79,-1.02,-1.19,-1.83,-1.19m0,-1.25c1.3,0,2.3,0.51,2.99,1.55c0.69,1.03,1.03,2.53,1.03,4.5c0,1.96,-0.34,3.46,-1.03,4.49c-0.69,1.03,-1.68,1.55,-2.99,1.55c-1.3,0,-2.3,-0.51,-2.99,-1.55c-0.69,-1.03,-1.03,-2.53,-1.03,-4.49c0,-1.96,0.34,-3.47,1.03,-4.5c0.69,-1.03,1.68,-1.55,2.99,-1.55" fill="#ffffff" stroke="none" fill-opacity="1"/>
<path d="m300.98,335.12l10.01,0l0,1.32l-10.01,0l0,-1.32m14.78,4.35l5.5,0l0,1.32l-7.4,0l0,-1.32c0.59,-0.61,1.41,-1.45,2.44,-2.49c1.03,-1.04,1.68,-1.71,1.94,-2.01c0.5,-0.56,0.85,-1.04,1.05,-1.44c0.2,-0.39,0.3,-0.77,0.3,-1.16c0,-0.61,-0.21,-1.12,-0.65,-1.51c-0.43,-0.39,-1,-0.58,-1.69,-0.58c-0.49,0,-1.01,0.08,-1.56,0.25c-0.54,0.17,-1.13,0.43,-1.76,0.78l0,-1.59c0.63,-0.25,1.22,-0.44,1.78,-0.57c0.55,-0.13,1.05,-0.19,1.51,-0.19c1.2,0,2.17,0.3,2.89,0.9c0.71,0.6,1.07,1.41,1.07,2.42c0,0.47,-0.08,0.93,-0.26,1.36c-0.17,0.42,-0.5,0.93,-0.98,1.51c-0.13,0.15,-0.54,0.58,-1.24,1.3c-0.69,0.72,-1.68,1.73,-2.95,3.02m12.19,-9.29c-0.81,0,-1.42,0.39,-1.83,1.19c-0.4,0.79,-0.61,2,-0.61,3.6c0,1.59,0.2,2.79,0.61,3.59c0.4,0.79,1.01,1.19,1.83,1.19c0.81,0,1.43,-0.39,1.83,-1.19c0.4,-0.79,0.61,-1.99,0.61,-3.59c0,-1.6,-0.2,-2.8,-0.61,-3.6c-0.4,-0.79,-1.02,-1.19,-1.83,-1.19m0,-1.25c1.3,0,2.3,0.51,2.99,1.55c0.69,1.03,1.03,2.53,1.03,4.5c0,1.96,-0.34,3.46,-1.03,4.49c-0.69,1.03,-1.68,1.55,-2.99,1.55c-1.3,0,-2.3,-0.51,-2.99,-1.55c-0.69,-1.03,-1.03,-2.53,-1.03,-4.49c0,-1.96,0.34,-3.47,1.03,-4.5c0.69,-1.03,1.68,-1.55,2.99,-1.55m10.17,1.25c-0.81,0,-1.42,0.39,-1.83,1.19c-0.4,0.79,-0.61,2,-0.61,3.6c0,1.59,0.2,2.79,0.61,3.59c0.4,0.79,1.01,1.19,1.83,1.19c0.81,0,1.43,-0.39,1.83,-1.19c0.4,-0.79,0.61,-1.99,0.61,-3.59c0,-1.6,-0.2,-2.8,-0.61,-3.6c-0.4,-0.79,-1.02,-1.19,-1.83,-1.19m0,-1.25c1.3,0,2.3,0.51,2.99,1.55c0.69,1.03,1.03,2.53,1.03,4.5c0,1.96,-0.34,3.46,-1.03,4.49c-0.69,1.03,-1.68,1.55,-2.99,1.55c-1.3,0,-2.3,-0.51,-2.99,-1.55c-0.69,-1.03,-1.03,-2.53,-1.03,-4.49c0,-1.96,0.34,-3.47,1.03,-4.5c0.69,-1.03,1.68,-1.55,2.99,-1.55" fill="#ffffff" stroke="none" fill-opacity="1"/>
<path d="m383.61,330.17c-0.81,0,-1.42,0.39,-1.83,1.19c-0.4,0.79,-0.61,2,-0.61,3.6c0,1.59,0.2,2.79,0.61,3.59c0.4,0.79,1.01,1.19,1.83,1.19c0.81,0,1.43,-0.39,1.83,-1.19c0.4,-0.79,0.61,-1.99,0.61,-3.59c0,-1.6,-0.2,-2.8,-0.61,-3.6c-0.4,-0.79,-1.02,-1.19,-1.83,-1.19m0,-1.25c1.3,0,2.3,0.51,2.99,1.55c0.69,1.03,1.03,2.53,1.03,4.5c0,1.96,-0.34,3.46,-1.03,4.49c-0.69,1.03,-1.68,1.55,-2.99,1.55c-1.3,0,-2.3,-0.51,-2.99,-1.55c-0.69,-1.03,-1.03,-2.53,-1.03,-4.49c0,-1.96,0.34,-3.47,1.03,-4.5c0.69,-1.03,1.68,-1.55,2.99,-1.55" fill="#ffffff" stroke="none" fill-opacity="1"/>
<path d="m426.07,339.47l5.5,0l0,1.32l-7.4,0l0,-1.32c0.59,-0.61,1.41,-1.45,2.44,-2.49c1.03,-1.04,1.68,-1.71,1.94,-2.01c0.5,-0.56,0.85,-1.04,1.05,-1.44c0.2,-0.39,0.3,-0.77,0.3,-1.16c0,-0.61,-0.21,-1.12,-0.65,-1.51c-0.43,-0.39,-1,-0.58,-1.69,-0.58c-0.49,0,-1.01,0.08,-1.56,0.25c-0.54,0.17,-1.13,0.43,-1.76,0.78l0,-1.59c0.63,-0.25,1.22,-0.44,1.78,-0.57c0.55,-0.13,1.05,-0.19,1.51,-0.19c1.2,0,2.17,0.3,2.89,0.9c0.71,0.6,1.07,1.41,1.07,2.42c0,0.47,-0.08,0.93,-0.26,1.36c-0.17,0.42,-0.5,0.93,-0.98,1.51c-0.13,0.15,-0.54,0.58,-1.24,1.3c-0.69,0.72,-1.68,1.73,-2.95,3.02m12.19,-9.29c-0.81,0,-1.42,0.39,-1.83,1.19c-0.4,0.79,-0.61,2,-0.61,3.6c0,1.59,0.2,2.79,0.61,3.59c0.4,0.79,1.01,1.19,1.83,1.19c0.81,0,1.43,-0.39,1.83,-1.19c0.4,-0.79,0.61,-1.99,0.61,-3.59c0,-1.6,-0.2,-2.8,-0.61,-3.6c-0.4,-0.79,-1.02,-1.19,-1.83,-1.19m0,-1.25c1.3,0,2.3,0.51,2.99,1.55c0.69,1.03,1.03,2.53,1.03,4.5c0,1.96,-0.34,3.46,-1.03,4.49c-0.69,1.03,-1.68,1.55,-2.99,1.55c-1.3,0,-2.3,-0.51,-2.99,-1.55c-0.69,-1.03,-1.03,-2.53,-1.03,-4.49c0,-1.96,0.34,-3.47,1.03,-4.5c0.69,-1.03,1.68,-1.55,2.99,-1.55m10.17,1.25c-0.81,0,-1.42,0.39,-1.83,1.19c-0.4,0.79,-0.61,2,-0.61,3.6c0,1.59,0.2,2.79,0.61,3.59c0.4,0.79,1.01,1.19,1.83,1.19c0.81,0,1.43,-0.39,1.83,-1.19c0.4,-0.79,0.61,-1.99,0.61,-3.59c0,-1.6,-0.2,-2.8,-0.61,-3.6c-0.4,-0.79,-1.02,-1.19,-1.83,-1.19m0,-1.25c1.3,0,2.3,0.51,2.99,1.55c0.69,1.03,1.03,2.53,1.03,4.5c0,1.96,-0.34,3.46,-1.03,4.49c-0.69,1.03,-1.68,1.55,-2.99,1.55c-1.3,0,-2.3,-0.51,-2.99,-1.55c-0.69,-1.03,-1.03,-2.53,-1.03,-4.49c0,-1.96,0.34,-3.47,1.03,-4.5c0.69,-1.03,1.68,-1.55,2.99,-1.55" fill="#ffffff" stroke="none" fill-opacity="1"/>
</g>
<g fill="none" stroke="#ffffff" stroke-linecap="butt" stroke-width="0.66">
<path d="M71.81,10.39l374.17,0"/>
<path d="M71.81,10.39l0,4M87.4,10.39l0,4M102.99,10.39l0,4M118.58,10.39l0,4M134.17,10.39l0,4M149.76,10.39l0,4M165.35,10.39l0,4M180.94,10.39l0,4M196.53,10.39l0,4M212.12,10.39l0,4M227.71,10.39l0,4M243.3,10.39l0,4M258.89,10.39l0,4M274.48,10.39l0,4M290.07,10.39l0,4M305.66,10.39l0,4M321.25,10.39l0,4M336.85,10.39l0,4M352.44,10.39l0,4M368.03,10.39l0,4M383.62,10.39l0,4M399.21,10.39l0,4M414.8,10.39l0,4M430.39,10.39l0,4M445.98,10.39l0,4"/>
<path d="M71.81,10.39l0,8M134.17,10.39l0,8M196.53,10.39l0,8M258.89,10.39l0,8M321.25,10.39l0,8M383.62,10.39l0,8M445.98,10.39l0,8"/>
</g>
</g>
</g>
</svg>
